M48
; DRILL file {KiCad 9.0.0-rc3} date 2025-04-24T21:12:23-0700
; FORMAT={-:-/ absolute / metric / decimal}
; #@! TF.CreationDate,2025-04-24T21:12:23-07:00
; #@! TF.GenerationSoftware,Kicad,Pcbnew,9.0.0-rc3
; #@! TF.FileFunction,Plated,1,2,PTH
FMAT,2
METRIC
; #@! TA.AperFunction,Plated,PTH,ViaDrill
T1C0.300
; #@! TA.AperFunction,Plated,PTH,ViaDrill
T2C0.500
; #@! TA.AperFunction,Plated,PTH,ComponentDrill
T3C0.710
; #@! TA.AperFunction,Plated,PTH,ViaDrill
T4C0.750
; #@! TA.AperFunction,Plated,PTH,ComponentDrill
T5C0.800
; #@! TA.AperFunction,Plated,PTH,ComponentDrill
T6C1.000
; #@! TA.AperFunction,Plated,PTH,ComponentDrill
T7C1.016
; #@! TA.AperFunction,Plated,PTH,ComponentDrill
T8C1.100
%
G90
G05
T1
X97.1Y-109.5
X112.9Y-118.3
X113.3Y-92.9
X113.9Y-76.0
X115.4Y-112.9
X115.6Y-105.3
X116.4Y-76.0
X117.0Y-91.6
X117.6Y-112.5
X118.3Y-94.2
X118.3Y-96.7
X118.7Y-112.9
X119.1Y-90.654
X120.8Y-105.7
X122.0Y-95.4
X122.0Y-97.6
X126.6Y-92.8
X126.851Y-90.4
X126.9Y-106.8
X127.451Y-94.951
X128.2Y-94.2
X128.315Y-97.005
X128.315Y-97.995
X128.784Y-96.358
X128.784Y-98.642
X129.0Y-93.4
X129.5Y-94.399
X129.5Y-96.0
X129.5Y-99.0
X130.6Y-101.9
X131.359Y-102.153
X132.3Y-101.9
X132.719Y-90.0
X133.403Y-88.749
X133.75Y-101.0
X133.92Y-89.36
X134.0Y-101.8
X134.4Y-90.0
X134.661Y-102.251
X135.6Y-101.5
X135.995Y-88.815
X136.642Y-89.284
X137.0Y-90.0
X139.0Y-86.199
X140.9Y-99.2
X141.4Y-98.5
X147.1Y-95.8
X147.1Y-111.7
X148.9Y-100.4
X150.212Y-95.8
X150.222Y-111.7
X153.325Y-95.8
X153.344Y-111.7
X156.437Y-95.8
X156.467Y-111.7
X159.549Y-95.8
X159.589Y-111.7
X162.662Y-95.8
X162.711Y-111.7
X165.774Y-95.8
X165.833Y-111.7
X168.886Y-95.8
X168.956Y-111.7
X171.999Y-95.8
X172.078Y-111.7
X175.111Y-95.8
X175.2Y-111.7
T2
X106.8Y-100.0
X111.5Y-98.5
X131.8Y-87.1
T3
X160.97Y-100.4
X160.97Y-101.67
X162.24Y-100.4
X162.24Y-101.67
X163.51Y-100.4
X163.51Y-101.67
X164.78Y-100.4
X164.78Y-101.67
X166.05Y-100.4
X166.05Y-101.67
X167.32Y-100.4
X167.32Y-101.67
X168.59Y-100.4
X168.59Y-101.67
X169.86Y-100.4
X169.86Y-101.67
X171.13Y-100.4
X171.13Y-101.67
X172.4Y-100.4
X172.4Y-101.67
T4
X104.5Y-106.7
X108.25Y-110.45
T6
X96.96Y-88.5
X99.5Y-88.5
X111.38Y-71.5
X113.92Y-71.5
X116.46Y-71.5
X119.0Y-71.5
X121.54Y-71.5
X131.2Y-110.6
X133.74Y-110.6
X136.28Y-110.6
X138.82Y-110.6
X174.0Y-76.735
X174.0Y-79.275
T7
X149.3Y-69.38
X149.3Y-77.0
X156.92Y-69.38
X156.92Y-77.0
X162.0Y-69.38
X162.0Y-77.0
X167.08Y-69.38
X167.08Y-77.0
T8
X96.555Y-95.46
X96.555Y-98.0
X96.555Y-100.54
T5
X99.7Y-78.1G85X99.7Y-79.8
G05
X103.65Y-83.65G85X101.95Y-83.65
G05
X105.6Y-77.6G85X105.6Y-80.3
G05
M30
