G04 #@! TF.GenerationSoftware,KiCad,Pcbnew,9.0.0-rc3*
G04 #@! TF.CreationDate,2025-04-24T21:12:19-07:00*
G04 #@! TF.ProjectId,Final PCB Design - Cable Tester,46696e61-6c20-4504-9342-204465736967,rev?*
G04 #@! TF.SameCoordinates,Original*
G04 #@! TF.FileFunction,Legend,Top*
G04 #@! TF.FilePolarity,Positive*
%FSLAX46Y46*%
G04 Gerber Fmt 4.6, Leading zero omitted, Abs format (unit mm)*
G04 Created by KiCad (PCBNEW 9.0.0-rc3) date 2025-04-24 21:12:19*
%MOMM*%
%LPD*%
G01*
G04 APERTURE LIST*
G04 Aperture macros list*
%AMRoundRect*
0 Rectangle with rounded corners*
0 $1 Rounding radius*
0 $2 $3 $4 $5 $6 $7 $8 $9 X,Y pos of 4 corners*
0 Add a 4 corners polygon primitive as box body*
4,1,4,$2,$3,$4,$5,$6,$7,$8,$9,$2,$3,0*
0 Add four circle primitives for the rounded corners*
1,1,$1+$1,$2,$3*
1,1,$1+$1,$4,$5*
1,1,$1+$1,$6,$7*
1,1,$1+$1,$8,$9*
0 Add four rect primitives between the rounded corners*
20,1,$1+$1,$2,$3,$4,$5,0*
20,1,$1+$1,$4,$5,$6,$7,0*
20,1,$1+$1,$6,$7,$8,$9,0*
20,1,$1+$1,$8,$9,$2,$3,0*%
G04 Aperture macros list end*
%ADD10C,0.150000*%
%ADD11C,0.200000*%
%ADD12C,0.120000*%
%ADD13C,0.152400*%
%ADD14C,0.127000*%
%ADD15RoundRect,0.102000X-0.700000X-0.950000X0.700000X-0.950000X0.700000X0.950000X-0.700000X0.950000X0*%
%ADD16RoundRect,0.102000X-0.900000X-0.700000X0.900000X-0.700000X0.900000X0.700000X-0.900000X0.700000X0*%
%ADD17RoundRect,0.102000X-0.400000X-1.000000X0.400000X-1.000000X0.400000X1.000000X-0.400000X1.000000X0*%
%ADD18RoundRect,0.219000X0.294000X-0.219000X0.294000X0.219000X-0.294000X0.219000X-0.294000X-0.219000X0*%
%ADD19R,1.700000X1.700000*%
%ADD20O,1.700000X1.700000*%
%ADD21C,1.524000*%
%ADD22RoundRect,0.267317X-0.470683X0.280683X-0.470683X-0.280683X0.470683X-0.280683X0.470683X0.280683X0*%
%ADD23RoundRect,0.159000X-0.189000X0.159000X-0.189000X-0.159000X0.189000X-0.159000X0.189000X0.159000X0*%
%ADD24RoundRect,0.244000X0.394000X-0.244000X0.394000X0.244000X-0.394000X0.244000X-0.394000X-0.244000X0*%
%ADD25RoundRect,0.159000X-0.159000X-0.189000X0.159000X-0.189000X0.159000X0.189000X-0.159000X0.189000X0*%
%ADD26RoundRect,0.265778X-0.332222X-0.647222X0.332222X-0.647222X0.332222X0.647222X-0.332222X0.647222X0*%
%ADD27RoundRect,0.062500X-0.350000X-0.062500X0.350000X-0.062500X0.350000X0.062500X-0.350000X0.062500X0*%
%ADD28RoundRect,0.062500X-0.062500X-0.350000X0.062500X-0.350000X0.062500X0.350000X-0.062500X0.350000X0*%
%ADD29R,7.150000X7.150000*%
%ADD30RoundRect,0.100500X0.986500X0.301500X-0.986500X0.301500X-0.986500X-0.301500X0.986500X-0.301500X0*%
%ADD31RoundRect,0.102000X-0.530000X-0.530000X0.530000X-0.530000X0.530000X0.530000X-0.530000X0.530000X0*%
%ADD32C,1.264000*%
%ADD33O,1.604000X4.304000*%
%ADD34O,1.604000X3.304000*%
%ADD35O,3.304000X1.604000*%
%ADD36R,2.000000X1.905000*%
%ADD37O,2.000000X1.905000*%
%ADD38RoundRect,0.150000X0.590000X0.150000X-0.590000X0.150000X-0.590000X-0.150000X0.590000X-0.150000X0*%
%ADD39RoundRect,0.150000X-0.512500X-0.150000X0.512500X-0.150000X0.512500X0.150000X-0.512500X0.150000X0*%
G04 APERTURE END LIST*
D10*
X117326378Y-110806925D02*
X117326378Y-111950401D01*
X117326378Y-111950401D02*
X117250147Y-112179096D01*
X117250147Y-112179096D02*
X117097683Y-112331560D01*
X117097683Y-112331560D02*
X116868988Y-112407791D01*
X116868988Y-112407791D02*
X116716525Y-112407791D01*
X118774781Y-111340547D02*
X118774781Y-112407791D01*
X118393622Y-110730694D02*
X118012463Y-111874169D01*
X118012463Y-111874169D02*
X119003476Y-111874169D01*
X107919819Y-71833333D02*
X108634104Y-71833333D01*
X108634104Y-71833333D02*
X108776961Y-71880952D01*
X108776961Y-71880952D02*
X108872200Y-71976190D01*
X108872200Y-71976190D02*
X108919819Y-72119047D01*
X108919819Y-72119047D02*
X108919819Y-72214285D01*
X107919819Y-71452380D02*
X107919819Y-70833333D01*
X107919819Y-70833333D02*
X108300771Y-71166666D01*
X108300771Y-71166666D02*
X108300771Y-71023809D01*
X108300771Y-71023809D02*
X108348390Y-70928571D01*
X108348390Y-70928571D02*
X108396009Y-70880952D01*
X108396009Y-70880952D02*
X108491247Y-70833333D01*
X108491247Y-70833333D02*
X108729342Y-70833333D01*
X108729342Y-70833333D02*
X108824580Y-70880952D01*
X108824580Y-70880952D02*
X108872200Y-70928571D01*
X108872200Y-70928571D02*
X108919819Y-71023809D01*
X108919819Y-71023809D02*
X108919819Y-71309523D01*
X108919819Y-71309523D02*
X108872200Y-71404761D01*
X108872200Y-71404761D02*
X108824580Y-71452380D01*
X147838095Y-78954819D02*
X147838095Y-79764342D01*
X147838095Y-79764342D02*
X147885714Y-79859580D01*
X147885714Y-79859580D02*
X147933333Y-79907200D01*
X147933333Y-79907200D02*
X148028571Y-79954819D01*
X148028571Y-79954819D02*
X148219047Y-79954819D01*
X148219047Y-79954819D02*
X148314285Y-79907200D01*
X148314285Y-79907200D02*
X148361904Y-79859580D01*
X148361904Y-79859580D02*
X148409523Y-79764342D01*
X148409523Y-79764342D02*
X148409523Y-78954819D01*
X149314285Y-78954819D02*
X149123809Y-78954819D01*
X149123809Y-78954819D02*
X149028571Y-79002438D01*
X149028571Y-79002438D02*
X148980952Y-79050057D01*
X148980952Y-79050057D02*
X148885714Y-79192914D01*
X148885714Y-79192914D02*
X148838095Y-79383390D01*
X148838095Y-79383390D02*
X148838095Y-79764342D01*
X148838095Y-79764342D02*
X148885714Y-79859580D01*
X148885714Y-79859580D02*
X148933333Y-79907200D01*
X148933333Y-79907200D02*
X149028571Y-79954819D01*
X149028571Y-79954819D02*
X149219047Y-79954819D01*
X149219047Y-79954819D02*
X149314285Y-79907200D01*
X149314285Y-79907200D02*
X149361904Y-79859580D01*
X149361904Y-79859580D02*
X149409523Y-79764342D01*
X149409523Y-79764342D02*
X149409523Y-79526247D01*
X149409523Y-79526247D02*
X149361904Y-79431009D01*
X149361904Y-79431009D02*
X149314285Y-79383390D01*
X149314285Y-79383390D02*
X149219047Y-79335771D01*
X149219047Y-79335771D02*
X149028571Y-79335771D01*
X149028571Y-79335771D02*
X148933333Y-79383390D01*
X148933333Y-79383390D02*
X148885714Y-79431009D01*
X148885714Y-79431009D02*
X148838095Y-79526247D01*
X173190476Y-73844819D02*
X173190476Y-74559104D01*
X173190476Y-74559104D02*
X173142857Y-74701961D01*
X173142857Y-74701961D02*
X173047619Y-74797200D01*
X173047619Y-74797200D02*
X172904762Y-74844819D01*
X172904762Y-74844819D02*
X172809524Y-74844819D01*
X174190476Y-74844819D02*
X173619048Y-74844819D01*
X173904762Y-74844819D02*
X173904762Y-73844819D01*
X173904762Y-73844819D02*
X173809524Y-73987676D01*
X173809524Y-73987676D02*
X173714286Y-74082914D01*
X173714286Y-74082914D02*
X173619048Y-74130533D01*
X174523810Y-73844819D02*
X175190476Y-73844819D01*
X175190476Y-73844819D02*
X174761905Y-74844819D01*
X129838095Y-88154819D02*
X129838095Y-88964342D01*
X129838095Y-88964342D02*
X129885714Y-89059580D01*
X129885714Y-89059580D02*
X129933333Y-89107200D01*
X129933333Y-89107200D02*
X130028571Y-89154819D01*
X130028571Y-89154819D02*
X130219047Y-89154819D01*
X130219047Y-89154819D02*
X130314285Y-89107200D01*
X130314285Y-89107200D02*
X130361904Y-89059580D01*
X130361904Y-89059580D02*
X130409523Y-88964342D01*
X130409523Y-88964342D02*
X130409523Y-88154819D01*
X131409523Y-89154819D02*
X130838095Y-89154819D01*
X131123809Y-89154819D02*
X131123809Y-88154819D01*
X131123809Y-88154819D02*
X131028571Y-88297676D01*
X131028571Y-88297676D02*
X130933333Y-88392914D01*
X130933333Y-88392914D02*
X130838095Y-88440533D01*
X127946666Y-110054819D02*
X127946666Y-110769104D01*
X127946666Y-110769104D02*
X127899047Y-110911961D01*
X127899047Y-110911961D02*
X127803809Y-111007200D01*
X127803809Y-111007200D02*
X127660952Y-111054819D01*
X127660952Y-111054819D02*
X127565714Y-111054819D01*
X128851428Y-110054819D02*
X128660952Y-110054819D01*
X128660952Y-110054819D02*
X128565714Y-110102438D01*
X128565714Y-110102438D02*
X128518095Y-110150057D01*
X128518095Y-110150057D02*
X128422857Y-110292914D01*
X128422857Y-110292914D02*
X128375238Y-110483390D01*
X128375238Y-110483390D02*
X128375238Y-110864342D01*
X128375238Y-110864342D02*
X128422857Y-110959580D01*
X128422857Y-110959580D02*
X128470476Y-111007200D01*
X128470476Y-111007200D02*
X128565714Y-111054819D01*
X128565714Y-111054819D02*
X128756190Y-111054819D01*
X128756190Y-111054819D02*
X128851428Y-111007200D01*
X128851428Y-111007200D02*
X128899047Y-110959580D01*
X128899047Y-110959580D02*
X128946666Y-110864342D01*
X128946666Y-110864342D02*
X128946666Y-110626247D01*
X128946666Y-110626247D02*
X128899047Y-110531009D01*
X128899047Y-110531009D02*
X128851428Y-110483390D01*
X128851428Y-110483390D02*
X128756190Y-110435771D01*
X128756190Y-110435771D02*
X128565714Y-110435771D01*
X128565714Y-110435771D02*
X128470476Y-110483390D01*
X128470476Y-110483390D02*
X128422857Y-110531009D01*
X128422857Y-110531009D02*
X128375238Y-110626247D01*
X116783095Y-101589819D02*
X116783095Y-102399342D01*
X116783095Y-102399342D02*
X116830714Y-102494580D01*
X116830714Y-102494580D02*
X116878333Y-102542200D01*
X116878333Y-102542200D02*
X116973571Y-102589819D01*
X116973571Y-102589819D02*
X117164047Y-102589819D01*
X117164047Y-102589819D02*
X117259285Y-102542200D01*
X117259285Y-102542200D02*
X117306904Y-102494580D01*
X117306904Y-102494580D02*
X117354523Y-102399342D01*
X117354523Y-102399342D02*
X117354523Y-101589819D01*
X118259285Y-101923152D02*
X118259285Y-102589819D01*
X118021190Y-101542200D02*
X117783095Y-102256485D01*
X117783095Y-102256485D02*
X118402142Y-102256485D01*
X162986666Y-97079819D02*
X162986666Y-97794104D01*
X162986666Y-97794104D02*
X162939047Y-97936961D01*
X162939047Y-97936961D02*
X162843809Y-98032200D01*
X162843809Y-98032200D02*
X162700952Y-98079819D01*
X162700952Y-98079819D02*
X162605714Y-98079819D01*
X163986666Y-98079819D02*
X163415238Y-98079819D01*
X163700952Y-98079819D02*
X163700952Y-97079819D01*
X163700952Y-97079819D02*
X163605714Y-97222676D01*
X163605714Y-97222676D02*
X163510476Y-97317914D01*
X163510476Y-97317914D02*
X163415238Y-97365533D01*
X94866666Y-78404819D02*
X94866666Y-79119104D01*
X94866666Y-79119104D02*
X94819047Y-79261961D01*
X94819047Y-79261961D02*
X94723809Y-79357200D01*
X94723809Y-79357200D02*
X94580952Y-79404819D01*
X94580952Y-79404819D02*
X94485714Y-79404819D01*
X95819047Y-78404819D02*
X95342857Y-78404819D01*
X95342857Y-78404819D02*
X95295238Y-78881009D01*
X95295238Y-78881009D02*
X95342857Y-78833390D01*
X95342857Y-78833390D02*
X95438095Y-78785771D01*
X95438095Y-78785771D02*
X95676190Y-78785771D01*
X95676190Y-78785771D02*
X95771428Y-78833390D01*
X95771428Y-78833390D02*
X95819047Y-78881009D01*
X95819047Y-78881009D02*
X95866666Y-78976247D01*
X95866666Y-78976247D02*
X95866666Y-79214342D01*
X95866666Y-79214342D02*
X95819047Y-79309580D01*
X95819047Y-79309580D02*
X95771428Y-79357200D01*
X95771428Y-79357200D02*
X95676190Y-79404819D01*
X95676190Y-79404819D02*
X95438095Y-79404819D01*
X95438095Y-79404819D02*
X95342857Y-79357200D01*
X95342857Y-79357200D02*
X95295238Y-79309580D01*
X101666667Y-88907200D02*
X101809524Y-88954819D01*
X101809524Y-88954819D02*
X102047619Y-88954819D01*
X102047619Y-88954819D02*
X102142857Y-88907200D01*
X102142857Y-88907200D02*
X102190476Y-88859580D01*
X102190476Y-88859580D02*
X102238095Y-88764342D01*
X102238095Y-88764342D02*
X102238095Y-88669104D01*
X102238095Y-88669104D02*
X102190476Y-88573866D01*
X102190476Y-88573866D02*
X102142857Y-88526247D01*
X102142857Y-88526247D02*
X102047619Y-88478628D01*
X102047619Y-88478628D02*
X101857143Y-88431009D01*
X101857143Y-88431009D02*
X101761905Y-88383390D01*
X101761905Y-88383390D02*
X101714286Y-88335771D01*
X101714286Y-88335771D02*
X101666667Y-88240533D01*
X101666667Y-88240533D02*
X101666667Y-88145295D01*
X101666667Y-88145295D02*
X101714286Y-88050057D01*
X101714286Y-88050057D02*
X101761905Y-88002438D01*
X101761905Y-88002438D02*
X101857143Y-87954819D01*
X101857143Y-87954819D02*
X102095238Y-87954819D01*
X102095238Y-87954819D02*
X102238095Y-88002438D01*
X102571429Y-87954819D02*
X102809524Y-88954819D01*
X102809524Y-88954819D02*
X103000000Y-88240533D01*
X103000000Y-88240533D02*
X103190476Y-88954819D01*
X103190476Y-88954819D02*
X103428572Y-87954819D01*
X104333333Y-88954819D02*
X103761905Y-88954819D01*
X104047619Y-88954819D02*
X104047619Y-87954819D01*
X104047619Y-87954819D02*
X103952381Y-88097676D01*
X103952381Y-88097676D02*
X103857143Y-88192914D01*
X103857143Y-88192914D02*
X103761905Y-88240533D01*
X100279819Y-98761904D02*
X101089342Y-98761904D01*
X101089342Y-98761904D02*
X101184580Y-98714285D01*
X101184580Y-98714285D02*
X101232200Y-98666666D01*
X101232200Y-98666666D02*
X101279819Y-98571428D01*
X101279819Y-98571428D02*
X101279819Y-98380952D01*
X101279819Y-98380952D02*
X101232200Y-98285714D01*
X101232200Y-98285714D02*
X101184580Y-98238095D01*
X101184580Y-98238095D02*
X101089342Y-98190476D01*
X101089342Y-98190476D02*
X100279819Y-98190476D01*
X100279819Y-97809523D02*
X100279819Y-97190476D01*
X100279819Y-97190476D02*
X100660771Y-97523809D01*
X100660771Y-97523809D02*
X100660771Y-97380952D01*
X100660771Y-97380952D02*
X100708390Y-97285714D01*
X100708390Y-97285714D02*
X100756009Y-97238095D01*
X100756009Y-97238095D02*
X100851247Y-97190476D01*
X100851247Y-97190476D02*
X101089342Y-97190476D01*
X101089342Y-97190476D02*
X101184580Y-97238095D01*
X101184580Y-97238095D02*
X101232200Y-97285714D01*
X101232200Y-97285714D02*
X101279819Y-97380952D01*
X101279819Y-97380952D02*
X101279819Y-97666666D01*
X101279819Y-97666666D02*
X101232200Y-97761904D01*
X101232200Y-97761904D02*
X101184580Y-97809523D01*
X96238095Y-106554819D02*
X96238095Y-107364342D01*
X96238095Y-107364342D02*
X96285714Y-107459580D01*
X96285714Y-107459580D02*
X96333333Y-107507200D01*
X96333333Y-107507200D02*
X96428571Y-107554819D01*
X96428571Y-107554819D02*
X96619047Y-107554819D01*
X96619047Y-107554819D02*
X96714285Y-107507200D01*
X96714285Y-107507200D02*
X96761904Y-107459580D01*
X96761904Y-107459580D02*
X96809523Y-107364342D01*
X96809523Y-107364342D02*
X96809523Y-106554819D01*
X97238095Y-106650057D02*
X97285714Y-106602438D01*
X97285714Y-106602438D02*
X97380952Y-106554819D01*
X97380952Y-106554819D02*
X97619047Y-106554819D01*
X97619047Y-106554819D02*
X97714285Y-106602438D01*
X97714285Y-106602438D02*
X97761904Y-106650057D01*
X97761904Y-106650057D02*
X97809523Y-106745295D01*
X97809523Y-106745295D02*
X97809523Y-106840533D01*
X97809523Y-106840533D02*
X97761904Y-106983390D01*
X97761904Y-106983390D02*
X97190476Y-107554819D01*
X97190476Y-107554819D02*
X97809523Y-107554819D01*
D11*
X120960000Y-114925000D02*
G75*
G02*
X120760000Y-114925000I-100000J0D01*
G01*
X120760000Y-114925000D02*
G75*
G02*
X120960000Y-114925000I100000J0D01*
G01*
X124860000Y-117225000D02*
X124860000Y-103950000D01*
X119841200Y-103950000D02*
X124860000Y-103950000D01*
X114050000Y-103950000D02*
X117402800Y-103950000D01*
X110860000Y-119400000D02*
X123410000Y-119400000D01*
X110860000Y-119400000D02*
X110860000Y-118725000D01*
X110860000Y-116225000D02*
X110860000Y-103950000D01*
X110860000Y-103950000D02*
X111586200Y-103950000D01*
D12*
X110050000Y-70170000D02*
X110050000Y-72830000D01*
X120270000Y-70170000D02*
X110050000Y-70170000D01*
X120270000Y-70170000D02*
X120270000Y-72830000D01*
X120270000Y-72830000D02*
X110050000Y-72830000D01*
X121540000Y-70170000D02*
X122870000Y-70170000D01*
X122870000Y-70170000D02*
X122870000Y-71500000D01*
D13*
X147903000Y-68110000D02*
X147903000Y-78270000D01*
X147903000Y-78270000D02*
X168477000Y-78270000D01*
X168477000Y-68110000D02*
X147903000Y-68110000D01*
X168477000Y-78270000D02*
X168477000Y-68110000D01*
D10*
X141800000Y-75460000D02*
X141800000Y-71450000D01*
X141800000Y-75460000D02*
X143800000Y-75460000D01*
X143800000Y-75460000D02*
X143800000Y-71450000D01*
D12*
X172670000Y-78005000D02*
X172670000Y-75405000D01*
X175330000Y-75405000D02*
X172670000Y-75405000D01*
X175330000Y-78005000D02*
X172670000Y-78005000D01*
X175330000Y-78005000D02*
X175330000Y-75405000D01*
X175330000Y-79275000D02*
X175330000Y-80605000D01*
X175330000Y-80605000D02*
X174000000Y-80605000D01*
X130510000Y-91365000D02*
X130510000Y-91130000D01*
X130510000Y-100110000D02*
X130510000Y-99635000D01*
X130985000Y-90890000D02*
X130810000Y-90890000D01*
X130985000Y-100110000D02*
X130510000Y-100110000D01*
X139255000Y-90890000D02*
X139730000Y-90890000D01*
X139255000Y-100110000D02*
X139730000Y-100110000D01*
X139730000Y-90890000D02*
X139730000Y-91365000D01*
X139730000Y-100110000D02*
X139730000Y-99635000D01*
X130510000Y-90890000D02*
X130270000Y-90560000D01*
X130750000Y-90560000D01*
X130510000Y-90890000D01*
G36*
X130510000Y-90890000D02*
G01*
X130270000Y-90560000D01*
X130750000Y-90560000D01*
X130510000Y-90890000D01*
G37*
X129870000Y-111930000D02*
X129870000Y-110600000D01*
X131200000Y-111930000D02*
X129870000Y-111930000D01*
X132470000Y-109270000D02*
X140150000Y-109270000D01*
X132470000Y-111930000D02*
X132470000Y-109270000D01*
X132470000Y-111930000D02*
X140150000Y-111930000D01*
X140150000Y-111930000D02*
X140150000Y-109270000D01*
D14*
X119520000Y-91035000D02*
X115620000Y-91035000D01*
X119520000Y-101165000D02*
X115620000Y-101165000D01*
D11*
X121815000Y-101045000D02*
G75*
G02*
X121615000Y-101045000I-100000J0D01*
G01*
X121615000Y-101045000D02*
G75*
G02*
X121815000Y-101045000I100000J0D01*
G01*
X158365000Y-101160000D02*
X158365000Y-100910000D01*
X158875000Y-100400000D02*
X160145000Y-100400000D01*
X160145000Y-99510000D02*
X173225000Y-99510000D01*
X160145000Y-100400000D02*
X160145000Y-99510000D01*
X160145000Y-101670000D02*
X158875000Y-101670000D01*
X160145000Y-102560000D02*
X160145000Y-101670000D01*
X160145000Y-102560000D02*
X173225000Y-102560000D01*
X173225000Y-99510000D02*
X173225000Y-100400000D01*
X173225000Y-100400000D02*
X174495000Y-100400000D01*
X173225000Y-101670000D02*
X173225000Y-102560000D01*
X174495000Y-101670000D02*
X173225000Y-101670000D01*
X175005000Y-100910000D02*
X175005000Y-101160000D01*
X158365000Y-100910000D02*
G75*
G02*
X158875000Y-100400000I510002J-2D01*
G01*
X158875000Y-101670000D02*
G75*
G02*
X158365000Y-101160000I2J510002D01*
G01*
X174495000Y-100400000D02*
G75*
G02*
X175005000Y-100910000I0J-510000D01*
G01*
X175005000Y-101160000D02*
G75*
G02*
X174495000Y-101670000I-510000J0D01*
G01*
X161070000Y-98910000D02*
G75*
G02*
X160870000Y-98910000I-100000J0D01*
G01*
X160870000Y-98910000D02*
G75*
G02*
X161070000Y-98910000I100000J0D01*
G01*
D14*
X92000000Y-74450000D02*
X106400000Y-74450000D01*
X92000000Y-83450000D02*
X92000000Y-74450000D01*
X92000000Y-83450000D02*
X100930000Y-83450000D01*
X106400000Y-74450000D02*
X106400000Y-76580000D01*
X106400000Y-81320000D02*
X106400000Y-83450000D01*
X106400000Y-83450000D02*
X104670000Y-83450000D01*
D11*
X107050000Y-78950000D02*
G75*
G02*
X106850000Y-78950000I-100000J0D01*
G01*
X106850000Y-78950000D02*
G75*
G02*
X107050000Y-78950000I100000J0D01*
G01*
D12*
X95630000Y-89830000D02*
X95630000Y-88500000D01*
X96960000Y-89830000D02*
X95630000Y-89830000D01*
X98230000Y-87170000D02*
X100830000Y-87170000D01*
X98230000Y-89830000D02*
X98230000Y-87170000D01*
X98230000Y-89830000D02*
X100830000Y-89830000D01*
X100830000Y-89830000D02*
X100830000Y-87170000D01*
X95184000Y-92880000D02*
X95184000Y-103120000D01*
X98315000Y-92880000D02*
X98315000Y-103120000D01*
X99825000Y-92880000D02*
X95184000Y-92880000D01*
X99825000Y-92880000D02*
X99825000Y-103120000D01*
X99825000Y-96150000D02*
X98315000Y-96150000D01*
X99825000Y-99851000D02*
X98315000Y-99851000D01*
X99825000Y-103120000D02*
X95184000Y-103120000D01*
D10*
X131040000Y-72075000D02*
X130390000Y-72075000D01*
X131040000Y-72075000D02*
X131690000Y-72075000D01*
X131040000Y-75195000D02*
X130390000Y-75195000D01*
X131040000Y-75195000D02*
X131690000Y-75195000D01*
D12*
X132442500Y-75475000D02*
X131962500Y-75475000D01*
X132202500Y-75145000D01*
X132442500Y-75475000D01*
G36*
X132442500Y-75475000D02*
G01*
X131962500Y-75475000D01*
X132202500Y-75145000D01*
X132442500Y-75475000D01*
G37*
X97000000Y-107940000D02*
X96200000Y-107940000D01*
X97000000Y-107940000D02*
X97800000Y-107940000D01*
X97000000Y-111060000D02*
X96200000Y-111060000D01*
X97000000Y-111060000D02*
X97800000Y-111060000D01*
X95700000Y-107990000D02*
X95460000Y-107660000D01*
X95940000Y-107660000D01*
X95700000Y-107990000D01*
G36*
X95700000Y-107990000D02*
G01*
X95460000Y-107660000D01*
X95940000Y-107660000D01*
X95700000Y-107990000D01*
G37*
%LPC*%
D15*
X124460000Y-118500000D03*
X111310000Y-117500000D03*
D16*
X118610000Y-104350000D03*
X112910000Y-104350000D03*
D17*
X112100000Y-114900000D03*
X113200000Y-114900000D03*
X114300000Y-115100000D03*
X115400000Y-114900000D03*
X116500000Y-115100000D03*
X117600000Y-114900000D03*
X118700000Y-114500000D03*
X119800000Y-114900000D03*
D18*
X162700000Y-110520000D03*
X162700000Y-108880000D03*
D19*
X121540000Y-71500000D03*
D20*
X119000000Y-71500000D03*
X116460000Y-71500000D03*
X113920000Y-71500000D03*
X111380000Y-71500000D03*
D21*
X149300000Y-77000000D03*
X156920000Y-77000000D03*
X162000000Y-77000000D03*
X167080000Y-77000000D03*
X167080000Y-69380000D03*
X162000000Y-69380000D03*
X156920000Y-69380000D03*
X149300000Y-69380000D03*
D22*
X138200000Y-72880000D03*
X138200000Y-74700000D03*
D18*
X172000000Y-110420000D03*
X172000000Y-108780000D03*
X165800000Y-94620000D03*
X165800000Y-92980000D03*
X153300000Y-110520000D03*
X153300000Y-108880000D03*
D23*
X104500000Y-101700000D03*
X104500000Y-102700000D03*
D18*
X162700000Y-94620000D03*
X162700000Y-92980000D03*
X159600000Y-110520000D03*
X159600000Y-108880000D03*
D24*
X142800000Y-74750000D03*
X142800000Y-71450000D03*
D19*
X174000000Y-79275000D03*
D20*
X174000000Y-76735000D03*
D18*
X150200000Y-110520000D03*
X150200000Y-108880000D03*
D25*
X104500000Y-105500000D03*
X105500000Y-105500000D03*
D18*
X175100000Y-94620000D03*
X175100000Y-92980000D03*
X156400000Y-94620000D03*
X156400000Y-92980000D03*
D26*
X116180000Y-89300000D03*
X119100000Y-89300000D03*
D23*
X104500000Y-110300000D03*
X104500000Y-111300000D03*
D27*
X130682500Y-91750000D03*
X130682500Y-92250000D03*
X130682500Y-92750000D03*
X130682500Y-93250000D03*
X130682500Y-93750000D03*
X130682500Y-94250000D03*
X130682500Y-94750000D03*
X130682500Y-95250000D03*
X130682500Y-95750000D03*
X130682500Y-96250000D03*
X130682500Y-96750000D03*
X130682500Y-97250000D03*
X130682500Y-97750000D03*
X130682500Y-98250000D03*
X130682500Y-98750000D03*
X130682500Y-99250000D03*
D28*
X131370000Y-99937500D03*
X131870000Y-99937500D03*
X132370000Y-99937500D03*
X132870000Y-99937500D03*
X133370000Y-99937500D03*
X133870000Y-99937500D03*
X134370000Y-99937500D03*
X134870000Y-99937500D03*
X135370000Y-99937500D03*
X135870000Y-99937500D03*
X136370000Y-99937500D03*
X136870000Y-99937500D03*
X137370000Y-99937500D03*
X137870000Y-99937500D03*
X138370000Y-99937500D03*
X138870000Y-99937500D03*
D27*
X139557500Y-99250000D03*
X139557500Y-98750000D03*
X139557500Y-98250000D03*
X139557500Y-97750000D03*
X139557500Y-97250000D03*
X139557500Y-96750000D03*
X139557500Y-96250000D03*
X139557500Y-95750000D03*
X139557500Y-95250000D03*
X139557500Y-94750000D03*
X139557500Y-94250000D03*
X139557500Y-93750000D03*
X139557500Y-93250000D03*
X139557500Y-92750000D03*
X139557500Y-92250000D03*
X139557500Y-91750000D03*
D28*
X138870000Y-91062500D03*
X138370000Y-91062500D03*
X137870000Y-91062500D03*
X137370000Y-91062500D03*
X136870000Y-91062500D03*
X136370000Y-91062500D03*
X135870000Y-91062500D03*
X135370000Y-91062500D03*
X134870000Y-91062500D03*
X134370000Y-91062500D03*
X133870000Y-91062500D03*
X133370000Y-91062500D03*
X132870000Y-91062500D03*
X132370000Y-91062500D03*
X131870000Y-91062500D03*
X131370000Y-91062500D03*
D29*
X135120000Y-95500000D03*
D19*
X131200000Y-110600000D03*
D20*
X133740000Y-110600000D03*
X136280000Y-110600000D03*
X138820000Y-110600000D03*
D18*
X168900000Y-110520000D03*
X168900000Y-108880000D03*
D30*
X120045000Y-100545000D03*
X120045000Y-99275000D03*
X120045000Y-98005000D03*
X120045000Y-96735000D03*
X120045000Y-95465000D03*
X120045000Y-94195000D03*
X120045000Y-92925000D03*
X120045000Y-91655000D03*
X115095000Y-91655000D03*
X115095000Y-92925000D03*
X115095000Y-94195000D03*
X115095000Y-95465000D03*
X115095000Y-96735000D03*
X115095000Y-98005000D03*
X115095000Y-99275000D03*
X115095000Y-100545000D03*
D25*
X103900000Y-91400000D03*
X104900000Y-91400000D03*
D31*
X160970000Y-100400000D03*
D32*
X160970000Y-101670000D03*
X162240000Y-100400000D03*
X162240000Y-101670000D03*
X163510000Y-100400000D03*
X163510000Y-101670000D03*
X164780000Y-100400000D03*
X164780000Y-101670000D03*
X166050000Y-100400000D03*
X166050000Y-101670000D03*
X167320000Y-100400000D03*
X167320000Y-101670000D03*
X168590000Y-100400000D03*
X168590000Y-101670000D03*
X169860000Y-100400000D03*
X169860000Y-101670000D03*
X171130000Y-100400000D03*
X171130000Y-101670000D03*
X172400000Y-100400000D03*
X172400000Y-101670000D03*
D18*
X156500000Y-110520000D03*
X156500000Y-108880000D03*
X147100000Y-94920000D03*
X147100000Y-93280000D03*
X159500000Y-94620000D03*
X159500000Y-92980000D03*
X168900000Y-94620000D03*
X168900000Y-92980000D03*
D33*
X105600000Y-78950000D03*
D34*
X99700000Y-78950000D03*
D35*
X102800000Y-83650000D03*
D19*
X96960000Y-88500000D03*
D20*
X99500000Y-88500000D03*
D36*
X96555000Y-95460000D03*
D37*
X96555000Y-98000000D03*
X96555000Y-100540000D03*
D18*
X150200000Y-94620000D03*
X150200000Y-92980000D03*
D38*
X131980000Y-74585000D03*
X131980000Y-72685000D03*
X130100000Y-73635000D03*
D18*
X175100000Y-110420000D03*
X175100000Y-108780000D03*
X172000000Y-94620000D03*
X172000000Y-92980000D03*
X147100000Y-110520000D03*
X147100000Y-108880000D03*
D39*
X95862500Y-108550000D03*
X95862500Y-109500000D03*
X95862500Y-110450000D03*
X98137500Y-110450000D03*
X98137500Y-108550000D03*
D18*
X153300000Y-94620000D03*
X153300000Y-92980000D03*
D25*
X98200000Y-113000000D03*
X99200000Y-113000000D03*
D18*
X165700000Y-110520000D03*
X165700000Y-108880000D03*
%LPD*%
M02*
