%TF.GenerationSoftware,KiCad,Pcbnew,9.0.0-rc3*%
%TF.CreationDate,2025-04-24T21:12:23-07:00*%
%TF.ProjectId,Final PCB Design - Cable Tester,46696e61-6c20-4504-9342-204465736967,rev?*%
%TF.SameCoordinates,Original*%
%TF.FileFunction,Drillmap*%
%TF.FilePolarity,Positive*%
%FSLAX45Y45*%
G04 Gerber Fmt 4.5, Leading zero omitted, Abs format (unit mm)*
G04 Created by KiCad (PCBNEW 9.0.0-rc3) date 2025-04-24 21:12:23*
%MOMM*%
%LPD*%
G01*
G04 APERTURE LIST*
%ADD10C,0.050000*%
%ADD11C,0.200000*%
%ADD12C,0.100000*%
%ADD13C,0.101600*%
%ADD14C,0.110000*%
G04 APERTURE END LIST*
D10*
X17570000Y-11650000D02*
G75*
G02*
X17230000Y-11650000I-170000J0D01*
G01*
X17230000Y-11650000D02*
G75*
G02*
X17570000Y-11650000I170000J0D01*
G01*
X9670000Y-11650000D02*
G75*
G02*
X9330000Y-11650000I-170000J0D01*
G01*
X9330000Y-11650000D02*
G75*
G02*
X9670000Y-11650000I170000J0D01*
G01*
X9150000Y-6600000D02*
X17750000Y-6600000D01*
X17750000Y-12000000D01*
X9150000Y-12000000D01*
X9150000Y-6600000D01*
X17570000Y-6950000D02*
G75*
G02*
X17230000Y-6950000I-170000J0D01*
G01*
X17230000Y-6950000D02*
G75*
G02*
X17570000Y-6950000I170000J0D01*
G01*
X9670000Y-6950000D02*
G75*
G02*
X9330000Y-6950000I-170000J0D01*
G01*
X9330000Y-6950000D02*
G75*
G02*
X9670000Y-6950000I170000J0D01*
G01*
D11*
D12*
X9695000Y-10935000D02*
X9725000Y-10965000D01*
X9725000Y-10935000D02*
X9695000Y-10965000D01*
X11275000Y-11815000D02*
X11305000Y-11845000D01*
X11305000Y-11815000D02*
X11275000Y-11845000D01*
X11315000Y-9275000D02*
X11345000Y-9305000D01*
X11345000Y-9275000D02*
X11315000Y-9305000D01*
X11375000Y-7585000D02*
X11405000Y-7615000D01*
X11405000Y-7585000D02*
X11375000Y-7615000D01*
X11525000Y-11275000D02*
X11555000Y-11305000D01*
X11555000Y-11275000D02*
X11525000Y-11305000D01*
X11545000Y-10515000D02*
X11575000Y-10545000D01*
X11575000Y-10515000D02*
X11545000Y-10545000D01*
X11625000Y-7585000D02*
X11655000Y-7615000D01*
X11655000Y-7585000D02*
X11625000Y-7615000D01*
X11685000Y-9145000D02*
X11715000Y-9175000D01*
X11715000Y-9145000D02*
X11685000Y-9175000D01*
X11745000Y-11235000D02*
X11775000Y-11265000D01*
X11775000Y-11235000D02*
X11745000Y-11265000D01*
X11815000Y-9405000D02*
X11845000Y-9435000D01*
X11845000Y-9405000D02*
X11815000Y-9435000D01*
X11815000Y-9655000D02*
X11845000Y-9685000D01*
X11845000Y-9655000D02*
X11815000Y-9685000D01*
X11855000Y-11275000D02*
X11885000Y-11305000D01*
X11885000Y-11275000D02*
X11855000Y-11305000D01*
X11895000Y-9050426D02*
X11925000Y-9080426D01*
X11925000Y-9050426D02*
X11895000Y-9080426D01*
X12065000Y-10555000D02*
X12095000Y-10585000D01*
X12095000Y-10555000D02*
X12065000Y-10585000D01*
X12185000Y-9525000D02*
X12215000Y-9555000D01*
X12215000Y-9525000D02*
X12185000Y-9555000D01*
X12185000Y-9745000D02*
X12215000Y-9775000D01*
X12215000Y-9745000D02*
X12185000Y-9775000D01*
X12645000Y-9265000D02*
X12675000Y-9295000D01*
X12675000Y-9265000D02*
X12645000Y-9295000D01*
X12670073Y-9024999D02*
X12700073Y-9054999D01*
X12700073Y-9024999D02*
X12670073Y-9054999D01*
X12675000Y-10665000D02*
X12705000Y-10695000D01*
X12705000Y-10665000D02*
X12675000Y-10695000D01*
X12730073Y-9480074D02*
X12760073Y-9510074D01*
X12760073Y-9480074D02*
X12730073Y-9510074D01*
X12805000Y-9405000D02*
X12835000Y-9435000D01*
X12835000Y-9405000D02*
X12805000Y-9435000D01*
X12816478Y-9685539D02*
X12846478Y-9715539D01*
X12846478Y-9685539D02*
X12816478Y-9715539D01*
X12816478Y-9784461D02*
X12846478Y-9814461D01*
X12846478Y-9784461D02*
X12816478Y-9814461D01*
X12863446Y-9620777D02*
X12893446Y-9650777D01*
X12893446Y-9620777D02*
X12863446Y-9650777D01*
X12863446Y-9849223D02*
X12893446Y-9879223D01*
X12893446Y-9849223D02*
X12863446Y-9879223D01*
X12885000Y-9325000D02*
X12915000Y-9355000D01*
X12915000Y-9325000D02*
X12885000Y-9355000D01*
X12935000Y-9424900D02*
X12965000Y-9454900D01*
X12965000Y-9424900D02*
X12935000Y-9454900D01*
X12935000Y-9585000D02*
X12965000Y-9615000D01*
X12965000Y-9585000D02*
X12935000Y-9615000D01*
X12935000Y-9885000D02*
X12965000Y-9915000D01*
X12965000Y-9885000D02*
X12935000Y-9915000D01*
X13045000Y-10175000D02*
X13075000Y-10205000D01*
X13075000Y-10175000D02*
X13045000Y-10205000D01*
X13120895Y-10200298D02*
X13150895Y-10230298D01*
X13150895Y-10200298D02*
X13120895Y-10230298D01*
X13215000Y-10175000D02*
X13245000Y-10205000D01*
X13245000Y-10175000D02*
X13215000Y-10205000D01*
X13256900Y-8985000D02*
X13286900Y-9015000D01*
X13286900Y-8985000D02*
X13256900Y-9015000D01*
X13325324Y-8859929D02*
X13355324Y-8889929D01*
X13355324Y-8859929D02*
X13325324Y-8889929D01*
X13360000Y-10085000D02*
X13390000Y-10115000D01*
X13390000Y-10085000D02*
X13360000Y-10115000D01*
X13377000Y-8921000D02*
X13407000Y-8951000D01*
X13407000Y-8921000D02*
X13377000Y-8951000D01*
X13385000Y-10165000D02*
X13415000Y-10195000D01*
X13415000Y-10165000D02*
X13385000Y-10195000D01*
X13425000Y-8985000D02*
X13455000Y-9015000D01*
X13455000Y-8985000D02*
X13425000Y-9015000D01*
X13451076Y-10210100D02*
X13481076Y-10240100D01*
X13481076Y-10210100D02*
X13451076Y-10240100D01*
X13545000Y-10135000D02*
X13575000Y-10165000D01*
X13575000Y-10135000D02*
X13545000Y-10165000D01*
X13584461Y-8866478D02*
X13614461Y-8896478D01*
X13614461Y-8866478D02*
X13584461Y-8896478D01*
X13649223Y-8913446D02*
X13679223Y-8943446D01*
X13679223Y-8913446D02*
X13649223Y-8943446D01*
X13685000Y-8985000D02*
X13715000Y-9015000D01*
X13715000Y-8985000D02*
X13685000Y-9015000D01*
X13885000Y-8604900D02*
X13915000Y-8634900D01*
X13915000Y-8604900D02*
X13885000Y-8634900D01*
X14075000Y-9905000D02*
X14105000Y-9935000D01*
X14105000Y-9905000D02*
X14075000Y-9935000D01*
X14125000Y-9835000D02*
X14155000Y-9865000D01*
X14155000Y-9835000D02*
X14125000Y-9865000D01*
X14695000Y-9565000D02*
X14725000Y-9595000D01*
X14725000Y-9565000D02*
X14695000Y-9595000D01*
X14695000Y-11155000D02*
X14725000Y-11185000D01*
X14725000Y-11155000D02*
X14695000Y-11185000D01*
X14875000Y-10025000D02*
X14905000Y-10055000D01*
X14905000Y-10025000D02*
X14875000Y-10055000D01*
X15006235Y-9565000D02*
X15036235Y-9595000D01*
X15036235Y-9565000D02*
X15006235Y-9595000D01*
X15007222Y-11155000D02*
X15037222Y-11185000D01*
X15037222Y-11155000D02*
X15007222Y-11185000D01*
X15317469Y-9565000D02*
X15347469Y-9595000D01*
X15347469Y-9565000D02*
X15317469Y-9595000D01*
X15319444Y-11155000D02*
X15349444Y-11185000D01*
X15349444Y-11155000D02*
X15319444Y-11185000D01*
X15628704Y-9565000D02*
X15658704Y-9595000D01*
X15658704Y-9565000D02*
X15628704Y-9595000D01*
X15631667Y-11155000D02*
X15661667Y-11185000D01*
X15661667Y-11155000D02*
X15631667Y-11185000D01*
X15939938Y-9565000D02*
X15969938Y-9595000D01*
X15969938Y-9565000D02*
X15939938Y-9595000D01*
X15943889Y-11155000D02*
X15973889Y-11185000D01*
X15973889Y-11155000D02*
X15943889Y-11185000D01*
X16251173Y-9565000D02*
X16281173Y-9595000D01*
X16281173Y-9565000D02*
X16251173Y-9595000D01*
X16256111Y-11155000D02*
X16286111Y-11185000D01*
X16286111Y-11155000D02*
X16256111Y-11185000D01*
X16562407Y-9565000D02*
X16592407Y-9595000D01*
X16592407Y-9565000D02*
X16562407Y-9595000D01*
X16568333Y-11155000D02*
X16598333Y-11185000D01*
X16598333Y-11155000D02*
X16568333Y-11185000D01*
X16873642Y-9565000D02*
X16903642Y-9595000D01*
X16903642Y-9565000D02*
X16873642Y-9595000D01*
X16880556Y-11155000D02*
X16910556Y-11185000D01*
X16910556Y-11155000D02*
X16880556Y-11185000D01*
X17184877Y-9565000D02*
X17214877Y-9595000D01*
X17214877Y-9565000D02*
X17184877Y-9595000D01*
X17192778Y-11155000D02*
X17222778Y-11185000D01*
X17222778Y-11155000D02*
X17192778Y-11185000D01*
X17496111Y-9565000D02*
X17526111Y-9595000D01*
X17526111Y-9565000D02*
X17496111Y-9595000D01*
X17505000Y-11155000D02*
X17535000Y-11185000D01*
X17535000Y-11155000D02*
X17505000Y-11185000D01*
X10705000Y-10000000D02*
G75*
G02*
X10655000Y-10000000I-25000J0D01*
G01*
X10655000Y-10000000D02*
G75*
G02*
X10705000Y-10000000I25000J0D01*
G01*
X11175000Y-9850000D02*
G75*
G02*
X11125000Y-9850000I-25000J0D01*
G01*
X11125000Y-9850000D02*
G75*
G02*
X11175000Y-9850000I25000J0D01*
G01*
X13205000Y-8710000D02*
G75*
G02*
X13155000Y-8710000I-25000J0D01*
G01*
X13155000Y-8710000D02*
G75*
G02*
X13205000Y-8710000I25000J0D01*
G01*
X16097000Y-10004500D02*
X16097000Y-10075500D01*
X16061500Y-10040000D02*
X16132500Y-10040000D01*
X16097000Y-10131500D02*
X16097000Y-10202500D01*
X16061500Y-10167000D02*
X16132500Y-10167000D01*
X16224000Y-10004500D02*
X16224000Y-10075500D01*
X16188500Y-10040000D02*
X16259500Y-10040000D01*
X16224000Y-10131500D02*
X16224000Y-10202500D01*
X16188500Y-10167000D02*
X16259500Y-10167000D01*
X16351000Y-10004500D02*
X16351000Y-10075500D01*
X16315500Y-10040000D02*
X16386500Y-10040000D01*
X16351000Y-10131500D02*
X16351000Y-10202500D01*
X16315500Y-10167000D02*
X16386500Y-10167000D01*
X16478000Y-10004500D02*
X16478000Y-10075500D01*
X16442500Y-10040000D02*
X16513500Y-10040000D01*
X16478000Y-10131500D02*
X16478000Y-10202500D01*
X16442500Y-10167000D02*
X16513500Y-10167000D01*
X16605000Y-10004500D02*
X16605000Y-10075500D01*
X16569500Y-10040000D02*
X16640500Y-10040000D01*
X16605000Y-10131500D02*
X16605000Y-10202500D01*
X16569500Y-10167000D02*
X16640500Y-10167000D01*
X16732000Y-10004500D02*
X16732000Y-10075500D01*
X16696500Y-10040000D02*
X16767500Y-10040000D01*
X16732000Y-10131500D02*
X16732000Y-10202500D01*
X16696500Y-10167000D02*
X16767500Y-10167000D01*
X16859000Y-10004500D02*
X16859000Y-10075500D01*
X16823500Y-10040000D02*
X16894500Y-10040000D01*
X16859000Y-10131500D02*
X16859000Y-10202500D01*
X16823500Y-10167000D02*
X16894500Y-10167000D01*
X16986000Y-10004500D02*
X16986000Y-10075500D01*
X16950500Y-10040000D02*
X17021500Y-10040000D01*
X16986000Y-10131500D02*
X16986000Y-10202500D01*
X16950500Y-10167000D02*
X17021500Y-10167000D01*
X17113000Y-10004500D02*
X17113000Y-10075500D01*
X17077500Y-10040000D02*
X17148500Y-10040000D01*
X17113000Y-10131500D02*
X17113000Y-10202500D01*
X17077500Y-10167000D02*
X17148500Y-10167000D01*
X17240000Y-10004500D02*
X17240000Y-10075500D01*
X17204500Y-10040000D02*
X17275500Y-10040000D01*
X17240000Y-10131500D02*
X17240000Y-10202500D01*
X17204500Y-10167000D02*
X17275500Y-10167000D01*
X10476517Y-10696517D02*
X10476517Y-10643483D01*
X10423483Y-10643483D01*
X10423483Y-10696517D01*
X10476517Y-10696517D01*
X10851517Y-11071517D02*
X10851517Y-11018483D01*
X10798483Y-11018483D01*
X10798483Y-11071517D01*
X10851517Y-11071517D01*
X9970000Y-7935000D02*
X10010000Y-7895000D01*
X9970000Y-7855000D01*
X9930000Y-7895000D01*
X9970000Y-7935000D01*
X9930000Y-7810000D02*
X9930000Y-7980000D01*
X10010000Y-7980000D02*
G75*
G02*
X9930000Y-7980000I-40000J0D01*
G01*
X10010000Y-7980000D02*
X10010000Y-7810000D01*
X10010000Y-7810000D02*
G75*
G03*
X9930000Y-7810000I-40000J0D01*
G01*
X10280000Y-8405000D02*
X10320000Y-8365000D01*
X10280000Y-8325000D01*
X10240000Y-8365000D01*
X10280000Y-8405000D01*
X10365000Y-8325000D02*
X10195000Y-8325000D01*
X10195000Y-8405000D02*
G75*
G02*
X10195000Y-8325000I0J40000D01*
G01*
X10195000Y-8405000D02*
X10365000Y-8405000D01*
X10365000Y-8405000D02*
G75*
G03*
X10365000Y-8325000I0J40000D01*
G01*
X10560000Y-7935000D02*
X10600000Y-7895000D01*
X10560000Y-7855000D01*
X10520000Y-7895000D01*
X10560000Y-7935000D01*
X10520000Y-7760000D02*
X10520000Y-8030000D01*
X10600000Y-8030000D02*
G75*
G02*
X10520000Y-8030000I-40000J0D01*
G01*
X10600000Y-8030000D02*
X10600000Y-7760000D01*
X10600000Y-7760000D02*
G75*
G03*
X10520000Y-7760000I-40000J0D01*
G01*
X9646000Y-8800000D02*
X9746000Y-8900000D01*
X9746000Y-8800000D02*
X9646000Y-8900000D01*
X9746000Y-8850000D02*
G75*
G02*
X9646000Y-8850000I-50000J0D01*
G01*
X9646000Y-8850000D02*
G75*
G02*
X9746000Y-8850000I50000J0D01*
G01*
X9900000Y-8800000D02*
X10000000Y-8900000D01*
X10000000Y-8800000D02*
X9900000Y-8900000D01*
X10000000Y-8850000D02*
G75*
G02*
X9900000Y-8850000I-50000J0D01*
G01*
X9900000Y-8850000D02*
G75*
G02*
X10000000Y-8850000I50000J0D01*
G01*
X11088000Y-7100000D02*
X11188000Y-7200000D01*
X11188000Y-7100000D02*
X11088000Y-7200000D01*
X11188000Y-7150000D02*
G75*
G02*
X11088000Y-7150000I-50000J0D01*
G01*
X11088000Y-7150000D02*
G75*
G02*
X11188000Y-7150000I50000J0D01*
G01*
X11342000Y-7100000D02*
X11442000Y-7200000D01*
X11442000Y-7100000D02*
X11342000Y-7200000D01*
X11442000Y-7150000D02*
G75*
G02*
X11342000Y-7150000I-50000J0D01*
G01*
X11342000Y-7150000D02*
G75*
G02*
X11442000Y-7150000I50000J0D01*
G01*
X11596000Y-7100000D02*
X11696000Y-7200000D01*
X11696000Y-7100000D02*
X11596000Y-7200000D01*
X11696000Y-7150000D02*
G75*
G02*
X11596000Y-7150000I-50000J0D01*
G01*
X11596000Y-7150000D02*
G75*
G02*
X11696000Y-7150000I50000J0D01*
G01*
X11850000Y-7100000D02*
X11950000Y-7200000D01*
X11950000Y-7100000D02*
X11850000Y-7200000D01*
X11950000Y-7150000D02*
G75*
G02*
X11850000Y-7150000I-50000J0D01*
G01*
X11850000Y-7150000D02*
G75*
G02*
X11950000Y-7150000I50000J0D01*
G01*
X12104000Y-7100000D02*
X12204000Y-7200000D01*
X12204000Y-7100000D02*
X12104000Y-7200000D01*
X12204000Y-7150000D02*
G75*
G02*
X12104000Y-7150000I-50000J0D01*
G01*
X12104000Y-7150000D02*
G75*
G02*
X12204000Y-7150000I50000J0D01*
G01*
X13070000Y-11010000D02*
X13170000Y-11110000D01*
X13170000Y-11010000D02*
X13070000Y-11110000D01*
X13170000Y-11060000D02*
G75*
G02*
X13070000Y-11060000I-50000J0D01*
G01*
X13070000Y-11060000D02*
G75*
G02*
X13170000Y-11060000I50000J0D01*
G01*
X13324000Y-11010000D02*
X13424000Y-11110000D01*
X13424000Y-11010000D02*
X13324000Y-11110000D01*
X13424000Y-11060000D02*
G75*
G02*
X13324000Y-11060000I-50000J0D01*
G01*
X13324000Y-11060000D02*
G75*
G02*
X13424000Y-11060000I50000J0D01*
G01*
X13578000Y-11010000D02*
X13678000Y-11110000D01*
X13678000Y-11010000D02*
X13578000Y-11110000D01*
X13678000Y-11060000D02*
G75*
G02*
X13578000Y-11060000I-50000J0D01*
G01*
X13578000Y-11060000D02*
G75*
G02*
X13678000Y-11060000I50000J0D01*
G01*
X13832000Y-11010000D02*
X13932000Y-11110000D01*
X13932000Y-11010000D02*
X13832000Y-11110000D01*
X13932000Y-11060000D02*
G75*
G02*
X13832000Y-11060000I-50000J0D01*
G01*
X13832000Y-11060000D02*
G75*
G02*
X13932000Y-11060000I50000J0D01*
G01*
X17350000Y-7623500D02*
X17450000Y-7723500D01*
X17450000Y-7623500D02*
X17350000Y-7723500D01*
X17450000Y-7673500D02*
G75*
G02*
X17350000Y-7673500I-50000J0D01*
G01*
X17350000Y-7673500D02*
G75*
G02*
X17450000Y-7673500I50000J0D01*
G01*
X17350000Y-7877500D02*
X17450000Y-7977500D01*
X17450000Y-7877500D02*
X17350000Y-7977500D01*
X17450000Y-7927500D02*
G75*
G02*
X17350000Y-7927500I-50000J0D01*
G01*
X17350000Y-7927500D02*
G75*
G02*
X17450000Y-7927500I50000J0D01*
G01*
D13*
X14879200Y-6887200D02*
X14980800Y-6988800D01*
X14980800Y-6887200D02*
X14879200Y-6988800D01*
X14930000Y-6887200D02*
X14930000Y-6988800D01*
X14879200Y-6938000D02*
X14980800Y-6938000D01*
X14879200Y-7649200D02*
X14980800Y-7750800D01*
X14980800Y-7649200D02*
X14879200Y-7750800D01*
X14930000Y-7649200D02*
X14930000Y-7750800D01*
X14879200Y-7700000D02*
X14980800Y-7700000D01*
X15641200Y-6887200D02*
X15742800Y-6988800D01*
X15742800Y-6887200D02*
X15641200Y-6988800D01*
X15692000Y-6887200D02*
X15692000Y-6988800D01*
X15641200Y-6938000D02*
X15742800Y-6938000D01*
X15641200Y-7649200D02*
X15742800Y-7750800D01*
X15742800Y-7649200D02*
X15641200Y-7750800D01*
X15692000Y-7649200D02*
X15692000Y-7750800D01*
X15641200Y-7700000D02*
X15742800Y-7700000D01*
X16149200Y-6887200D02*
X16250800Y-6988800D01*
X16250800Y-6887200D02*
X16149200Y-6988800D01*
X16200000Y-6887200D02*
X16200000Y-6988800D01*
X16149200Y-6938000D02*
X16250800Y-6938000D01*
X16149200Y-7649200D02*
X16250800Y-7750800D01*
X16250800Y-7649200D02*
X16149200Y-7750800D01*
X16200000Y-7649200D02*
X16200000Y-7750800D01*
X16149200Y-7700000D02*
X16250800Y-7700000D01*
X16657200Y-6887200D02*
X16758800Y-6988800D01*
X16758800Y-6887200D02*
X16657200Y-6988800D01*
X16708000Y-6887200D02*
X16708000Y-6988800D01*
X16657200Y-6938000D02*
X16758800Y-6938000D01*
X16657200Y-7649200D02*
X16758800Y-7750800D01*
X16758800Y-7649200D02*
X16657200Y-7750800D01*
X16708000Y-7649200D02*
X16708000Y-7750800D01*
X16657200Y-7700000D02*
X16758800Y-7700000D01*
D14*
X9600500Y-9491000D02*
X9710500Y-9601000D01*
X9710500Y-9491000D02*
X9600500Y-9601000D01*
X9694391Y-9584891D02*
X9694391Y-9507109D01*
X9616609Y-9507109D01*
X9616609Y-9584891D01*
X9694391Y-9584891D01*
X9600500Y-9745000D02*
X9710500Y-9855000D01*
X9710500Y-9745000D02*
X9600500Y-9855000D01*
X9694391Y-9838891D02*
X9694391Y-9761109D01*
X9616609Y-9761109D01*
X9616609Y-9838891D01*
X9694391Y-9838891D01*
X9600500Y-9999000D02*
X9710500Y-10109000D01*
X9710500Y-9999000D02*
X9600500Y-10109000D01*
X9694391Y-10092891D02*
X9694391Y-10015109D01*
X9616609Y-10015109D01*
X9616609Y-10092891D01*
X9694391Y-10092891D01*
D11*
X9408277Y-12313984D02*
X9408277Y-12113984D01*
X9408277Y-12113984D02*
X9455896Y-12113984D01*
X9455896Y-12113984D02*
X9484467Y-12123508D01*
X9484467Y-12123508D02*
X9503515Y-12142555D01*
X9503515Y-12142555D02*
X9513039Y-12161603D01*
X9513039Y-12161603D02*
X9522563Y-12199698D01*
X9522563Y-12199698D02*
X9522563Y-12228269D01*
X9522563Y-12228269D02*
X9513039Y-12266365D01*
X9513039Y-12266365D02*
X9503515Y-12285412D01*
X9503515Y-12285412D02*
X9484467Y-12304460D01*
X9484467Y-12304460D02*
X9455896Y-12313984D01*
X9455896Y-12313984D02*
X9408277Y-12313984D01*
X9608277Y-12313984D02*
X9608277Y-12180650D01*
X9608277Y-12218746D02*
X9617801Y-12199698D01*
X9617801Y-12199698D02*
X9627324Y-12190174D01*
X9627324Y-12190174D02*
X9646372Y-12180650D01*
X9646372Y-12180650D02*
X9665420Y-12180650D01*
X9732086Y-12313984D02*
X9732086Y-12180650D01*
X9732086Y-12113984D02*
X9722563Y-12123508D01*
X9722563Y-12123508D02*
X9732086Y-12133031D01*
X9732086Y-12133031D02*
X9741610Y-12123508D01*
X9741610Y-12123508D02*
X9732086Y-12113984D01*
X9732086Y-12113984D02*
X9732086Y-12133031D01*
X9855896Y-12313984D02*
X9836848Y-12304460D01*
X9836848Y-12304460D02*
X9827324Y-12285412D01*
X9827324Y-12285412D02*
X9827324Y-12113984D01*
X9960658Y-12313984D02*
X9941610Y-12304460D01*
X9941610Y-12304460D02*
X9932086Y-12285412D01*
X9932086Y-12285412D02*
X9932086Y-12113984D01*
X10189229Y-12313984D02*
X10189229Y-12113984D01*
X10189229Y-12113984D02*
X10255896Y-12256841D01*
X10255896Y-12256841D02*
X10322563Y-12113984D01*
X10322563Y-12113984D02*
X10322563Y-12313984D01*
X10503515Y-12313984D02*
X10503515Y-12209222D01*
X10503515Y-12209222D02*
X10493991Y-12190174D01*
X10493991Y-12190174D02*
X10474944Y-12180650D01*
X10474944Y-12180650D02*
X10436848Y-12180650D01*
X10436848Y-12180650D02*
X10417801Y-12190174D01*
X10503515Y-12304460D02*
X10484467Y-12313984D01*
X10484467Y-12313984D02*
X10436848Y-12313984D01*
X10436848Y-12313984D02*
X10417801Y-12304460D01*
X10417801Y-12304460D02*
X10408277Y-12285412D01*
X10408277Y-12285412D02*
X10408277Y-12266365D01*
X10408277Y-12266365D02*
X10417801Y-12247317D01*
X10417801Y-12247317D02*
X10436848Y-12237793D01*
X10436848Y-12237793D02*
X10484467Y-12237793D01*
X10484467Y-12237793D02*
X10503515Y-12228269D01*
X10598753Y-12180650D02*
X10598753Y-12380650D01*
X10598753Y-12190174D02*
X10617801Y-12180650D01*
X10617801Y-12180650D02*
X10655896Y-12180650D01*
X10655896Y-12180650D02*
X10674944Y-12190174D01*
X10674944Y-12190174D02*
X10684467Y-12199698D01*
X10684467Y-12199698D02*
X10693991Y-12218746D01*
X10693991Y-12218746D02*
X10693991Y-12275888D01*
X10693991Y-12275888D02*
X10684467Y-12294936D01*
X10684467Y-12294936D02*
X10674944Y-12304460D01*
X10674944Y-12304460D02*
X10655896Y-12313984D01*
X10655896Y-12313984D02*
X10617801Y-12313984D01*
X10617801Y-12313984D02*
X10598753Y-12304460D01*
X10779705Y-12294936D02*
X10789229Y-12304460D01*
X10789229Y-12304460D02*
X10779705Y-12313984D01*
X10779705Y-12313984D02*
X10770182Y-12304460D01*
X10770182Y-12304460D02*
X10779705Y-12294936D01*
X10779705Y-12294936D02*
X10779705Y-12313984D01*
X10779705Y-12190174D02*
X10789229Y-12199698D01*
X10789229Y-12199698D02*
X10779705Y-12209222D01*
X10779705Y-12209222D02*
X10770182Y-12199698D01*
X10770182Y-12199698D02*
X10779705Y-12190174D01*
X10779705Y-12190174D02*
X10779705Y-12209222D01*
D12*
X9117500Y-12627500D02*
X9147500Y-12657500D01*
X9147500Y-12627500D02*
X9117500Y-12657500D01*
D11*
X9446372Y-12533984D02*
X9465420Y-12533984D01*
X9465420Y-12533984D02*
X9484467Y-12543508D01*
X9484467Y-12543508D02*
X9493991Y-12553031D01*
X9493991Y-12553031D02*
X9503515Y-12572079D01*
X9503515Y-12572079D02*
X9513039Y-12610174D01*
X9513039Y-12610174D02*
X9513039Y-12657793D01*
X9513039Y-12657793D02*
X9503515Y-12695888D01*
X9503515Y-12695888D02*
X9493991Y-12714936D01*
X9493991Y-12714936D02*
X9484467Y-12724460D01*
X9484467Y-12724460D02*
X9465420Y-12733984D01*
X9465420Y-12733984D02*
X9446372Y-12733984D01*
X9446372Y-12733984D02*
X9427324Y-12724460D01*
X9427324Y-12724460D02*
X9417801Y-12714936D01*
X9417801Y-12714936D02*
X9408277Y-12695888D01*
X9408277Y-12695888D02*
X9398753Y-12657793D01*
X9398753Y-12657793D02*
X9398753Y-12610174D01*
X9398753Y-12610174D02*
X9408277Y-12572079D01*
X9408277Y-12572079D02*
X9417801Y-12553031D01*
X9417801Y-12553031D02*
X9427324Y-12543508D01*
X9427324Y-12543508D02*
X9446372Y-12533984D01*
X9598753Y-12714936D02*
X9608277Y-12724460D01*
X9608277Y-12724460D02*
X9598753Y-12733984D01*
X9598753Y-12733984D02*
X9589229Y-12724460D01*
X9589229Y-12724460D02*
X9598753Y-12714936D01*
X9598753Y-12714936D02*
X9598753Y-12733984D01*
X9674944Y-12533984D02*
X9798753Y-12533984D01*
X9798753Y-12533984D02*
X9732086Y-12610174D01*
X9732086Y-12610174D02*
X9760658Y-12610174D01*
X9760658Y-12610174D02*
X9779705Y-12619698D01*
X9779705Y-12619698D02*
X9789229Y-12629222D01*
X9789229Y-12629222D02*
X9798753Y-12648269D01*
X9798753Y-12648269D02*
X9798753Y-12695888D01*
X9798753Y-12695888D02*
X9789229Y-12714936D01*
X9789229Y-12714936D02*
X9779705Y-12724460D01*
X9779705Y-12724460D02*
X9760658Y-12733984D01*
X9760658Y-12733984D02*
X9703515Y-12733984D01*
X9703515Y-12733984D02*
X9684467Y-12724460D01*
X9684467Y-12724460D02*
X9674944Y-12714936D01*
X9922563Y-12533984D02*
X9941610Y-12533984D01*
X9941610Y-12533984D02*
X9960658Y-12543508D01*
X9960658Y-12543508D02*
X9970182Y-12553031D01*
X9970182Y-12553031D02*
X9979705Y-12572079D01*
X9979705Y-12572079D02*
X9989229Y-12610174D01*
X9989229Y-12610174D02*
X9989229Y-12657793D01*
X9989229Y-12657793D02*
X9979705Y-12695888D01*
X9979705Y-12695888D02*
X9970182Y-12714936D01*
X9970182Y-12714936D02*
X9960658Y-12724460D01*
X9960658Y-12724460D02*
X9941610Y-12733984D01*
X9941610Y-12733984D02*
X9922563Y-12733984D01*
X9922563Y-12733984D02*
X9903515Y-12724460D01*
X9903515Y-12724460D02*
X9893991Y-12714936D01*
X9893991Y-12714936D02*
X9884467Y-12695888D01*
X9884467Y-12695888D02*
X9874944Y-12657793D01*
X9874944Y-12657793D02*
X9874944Y-12610174D01*
X9874944Y-12610174D02*
X9884467Y-12572079D01*
X9884467Y-12572079D02*
X9893991Y-12553031D01*
X9893991Y-12553031D02*
X9903515Y-12543508D01*
X9903515Y-12543508D02*
X9922563Y-12533984D01*
X10113039Y-12533984D02*
X10132086Y-12533984D01*
X10132086Y-12533984D02*
X10151134Y-12543508D01*
X10151134Y-12543508D02*
X10160658Y-12553031D01*
X10160658Y-12553031D02*
X10170182Y-12572079D01*
X10170182Y-12572079D02*
X10179705Y-12610174D01*
X10179705Y-12610174D02*
X10179705Y-12657793D01*
X10179705Y-12657793D02*
X10170182Y-12695888D01*
X10170182Y-12695888D02*
X10160658Y-12714936D01*
X10160658Y-12714936D02*
X10151134Y-12724460D01*
X10151134Y-12724460D02*
X10132086Y-12733984D01*
X10132086Y-12733984D02*
X10113039Y-12733984D01*
X10113039Y-12733984D02*
X10093991Y-12724460D01*
X10093991Y-12724460D02*
X10084467Y-12714936D01*
X10084467Y-12714936D02*
X10074944Y-12695888D01*
X10074944Y-12695888D02*
X10065420Y-12657793D01*
X10065420Y-12657793D02*
X10065420Y-12610174D01*
X10065420Y-12610174D02*
X10074944Y-12572079D01*
X10074944Y-12572079D02*
X10084467Y-12553031D01*
X10084467Y-12553031D02*
X10093991Y-12543508D01*
X10093991Y-12543508D02*
X10113039Y-12533984D01*
X10265420Y-12733984D02*
X10265420Y-12600650D01*
X10265420Y-12619698D02*
X10274944Y-12610174D01*
X10274944Y-12610174D02*
X10293991Y-12600650D01*
X10293991Y-12600650D02*
X10322563Y-12600650D01*
X10322563Y-12600650D02*
X10341610Y-12610174D01*
X10341610Y-12610174D02*
X10351134Y-12629222D01*
X10351134Y-12629222D02*
X10351134Y-12733984D01*
X10351134Y-12629222D02*
X10360658Y-12610174D01*
X10360658Y-12610174D02*
X10379705Y-12600650D01*
X10379705Y-12600650D02*
X10408277Y-12600650D01*
X10408277Y-12600650D02*
X10427325Y-12610174D01*
X10427325Y-12610174D02*
X10436848Y-12629222D01*
X10436848Y-12629222D02*
X10436848Y-12733984D01*
X10532086Y-12733984D02*
X10532086Y-12600650D01*
X10532086Y-12619698D02*
X10541610Y-12610174D01*
X10541610Y-12610174D02*
X10560658Y-12600650D01*
X10560658Y-12600650D02*
X10589229Y-12600650D01*
X10589229Y-12600650D02*
X10608277Y-12610174D01*
X10608277Y-12610174D02*
X10617801Y-12629222D01*
X10617801Y-12629222D02*
X10617801Y-12733984D01*
X10617801Y-12629222D02*
X10627325Y-12610174D01*
X10627325Y-12610174D02*
X10646372Y-12600650D01*
X10646372Y-12600650D02*
X10674944Y-12600650D01*
X10674944Y-12600650D02*
X10693991Y-12610174D01*
X10693991Y-12610174D02*
X10703515Y-12629222D01*
X10703515Y-12629222D02*
X10703515Y-12733984D01*
X11093991Y-12524460D02*
X10922563Y-12781603D01*
X11351134Y-12533984D02*
X11370182Y-12533984D01*
X11370182Y-12533984D02*
X11389229Y-12543508D01*
X11389229Y-12543508D02*
X11398753Y-12553031D01*
X11398753Y-12553031D02*
X11408277Y-12572079D01*
X11408277Y-12572079D02*
X11417801Y-12610174D01*
X11417801Y-12610174D02*
X11417801Y-12657793D01*
X11417801Y-12657793D02*
X11408277Y-12695888D01*
X11408277Y-12695888D02*
X11398753Y-12714936D01*
X11398753Y-12714936D02*
X11389229Y-12724460D01*
X11389229Y-12724460D02*
X11370182Y-12733984D01*
X11370182Y-12733984D02*
X11351134Y-12733984D01*
X11351134Y-12733984D02*
X11332086Y-12724460D01*
X11332086Y-12724460D02*
X11322563Y-12714936D01*
X11322563Y-12714936D02*
X11313039Y-12695888D01*
X11313039Y-12695888D02*
X11303515Y-12657793D01*
X11303515Y-12657793D02*
X11303515Y-12610174D01*
X11303515Y-12610174D02*
X11313039Y-12572079D01*
X11313039Y-12572079D02*
X11322563Y-12553031D01*
X11322563Y-12553031D02*
X11332086Y-12543508D01*
X11332086Y-12543508D02*
X11351134Y-12533984D01*
X11503515Y-12714936D02*
X11513039Y-12724460D01*
X11513039Y-12724460D02*
X11503515Y-12733984D01*
X11503515Y-12733984D02*
X11493991Y-12724460D01*
X11493991Y-12724460D02*
X11503515Y-12714936D01*
X11503515Y-12714936D02*
X11503515Y-12733984D01*
X11636848Y-12533984D02*
X11655896Y-12533984D01*
X11655896Y-12533984D02*
X11674944Y-12543508D01*
X11674944Y-12543508D02*
X11684467Y-12553031D01*
X11684467Y-12553031D02*
X11693991Y-12572079D01*
X11693991Y-12572079D02*
X11703515Y-12610174D01*
X11703515Y-12610174D02*
X11703515Y-12657793D01*
X11703515Y-12657793D02*
X11693991Y-12695888D01*
X11693991Y-12695888D02*
X11684467Y-12714936D01*
X11684467Y-12714936D02*
X11674944Y-12724460D01*
X11674944Y-12724460D02*
X11655896Y-12733984D01*
X11655896Y-12733984D02*
X11636848Y-12733984D01*
X11636848Y-12733984D02*
X11617801Y-12724460D01*
X11617801Y-12724460D02*
X11608277Y-12714936D01*
X11608277Y-12714936D02*
X11598753Y-12695888D01*
X11598753Y-12695888D02*
X11589229Y-12657793D01*
X11589229Y-12657793D02*
X11589229Y-12610174D01*
X11589229Y-12610174D02*
X11598753Y-12572079D01*
X11598753Y-12572079D02*
X11608277Y-12553031D01*
X11608277Y-12553031D02*
X11617801Y-12543508D01*
X11617801Y-12543508D02*
X11636848Y-12533984D01*
X11893991Y-12733984D02*
X11779706Y-12733984D01*
X11836848Y-12733984D02*
X11836848Y-12533984D01*
X11836848Y-12533984D02*
X11817801Y-12562555D01*
X11817801Y-12562555D02*
X11798753Y-12581603D01*
X11798753Y-12581603D02*
X11779706Y-12591127D01*
X12084467Y-12733984D02*
X11970182Y-12733984D01*
X12027325Y-12733984D02*
X12027325Y-12533984D01*
X12027325Y-12533984D02*
X12008277Y-12562555D01*
X12008277Y-12562555D02*
X11989229Y-12581603D01*
X11989229Y-12581603D02*
X11970182Y-12591127D01*
X12198753Y-12619698D02*
X12179706Y-12610174D01*
X12179706Y-12610174D02*
X12170182Y-12600650D01*
X12170182Y-12600650D02*
X12160658Y-12581603D01*
X12160658Y-12581603D02*
X12160658Y-12572079D01*
X12160658Y-12572079D02*
X12170182Y-12553031D01*
X12170182Y-12553031D02*
X12179706Y-12543508D01*
X12179706Y-12543508D02*
X12198753Y-12533984D01*
X12198753Y-12533984D02*
X12236848Y-12533984D01*
X12236848Y-12533984D02*
X12255896Y-12543508D01*
X12255896Y-12543508D02*
X12265420Y-12553031D01*
X12265420Y-12553031D02*
X12274944Y-12572079D01*
X12274944Y-12572079D02*
X12274944Y-12581603D01*
X12274944Y-12581603D02*
X12265420Y-12600650D01*
X12265420Y-12600650D02*
X12255896Y-12610174D01*
X12255896Y-12610174D02*
X12236848Y-12619698D01*
X12236848Y-12619698D02*
X12198753Y-12619698D01*
X12198753Y-12619698D02*
X12179706Y-12629222D01*
X12179706Y-12629222D02*
X12170182Y-12638746D01*
X12170182Y-12638746D02*
X12160658Y-12657793D01*
X12160658Y-12657793D02*
X12160658Y-12695888D01*
X12160658Y-12695888D02*
X12170182Y-12714936D01*
X12170182Y-12714936D02*
X12179706Y-12724460D01*
X12179706Y-12724460D02*
X12198753Y-12733984D01*
X12198753Y-12733984D02*
X12236848Y-12733984D01*
X12236848Y-12733984D02*
X12255896Y-12724460D01*
X12255896Y-12724460D02*
X12265420Y-12714936D01*
X12265420Y-12714936D02*
X12274944Y-12695888D01*
X12274944Y-12695888D02*
X12274944Y-12657793D01*
X12274944Y-12657793D02*
X12265420Y-12638746D01*
X12265420Y-12638746D02*
X12255896Y-12629222D01*
X12255896Y-12629222D02*
X12236848Y-12619698D01*
X12351134Y-12533984D02*
X12351134Y-12572079D01*
X12427325Y-12533984D02*
X12427325Y-12572079D01*
X12722563Y-12810174D02*
X12713039Y-12800650D01*
X12713039Y-12800650D02*
X12693991Y-12772079D01*
X12693991Y-12772079D02*
X12684468Y-12753031D01*
X12684468Y-12753031D02*
X12674944Y-12724460D01*
X12674944Y-12724460D02*
X12665420Y-12676841D01*
X12665420Y-12676841D02*
X12665420Y-12638746D01*
X12665420Y-12638746D02*
X12674944Y-12591127D01*
X12674944Y-12591127D02*
X12684468Y-12562555D01*
X12684468Y-12562555D02*
X12693991Y-12543508D01*
X12693991Y-12543508D02*
X12713039Y-12514936D01*
X12713039Y-12514936D02*
X12722563Y-12505412D01*
X12884468Y-12533984D02*
X12846372Y-12533984D01*
X12846372Y-12533984D02*
X12827325Y-12543508D01*
X12827325Y-12543508D02*
X12817801Y-12553031D01*
X12817801Y-12553031D02*
X12798753Y-12581603D01*
X12798753Y-12581603D02*
X12789229Y-12619698D01*
X12789229Y-12619698D02*
X12789229Y-12695888D01*
X12789229Y-12695888D02*
X12798753Y-12714936D01*
X12798753Y-12714936D02*
X12808277Y-12724460D01*
X12808277Y-12724460D02*
X12827325Y-12733984D01*
X12827325Y-12733984D02*
X12865420Y-12733984D01*
X12865420Y-12733984D02*
X12884468Y-12724460D01*
X12884468Y-12724460D02*
X12893991Y-12714936D01*
X12893991Y-12714936D02*
X12903515Y-12695888D01*
X12903515Y-12695888D02*
X12903515Y-12648269D01*
X12903515Y-12648269D02*
X12893991Y-12629222D01*
X12893991Y-12629222D02*
X12884468Y-12619698D01*
X12884468Y-12619698D02*
X12865420Y-12610174D01*
X12865420Y-12610174D02*
X12827325Y-12610174D01*
X12827325Y-12610174D02*
X12808277Y-12619698D01*
X12808277Y-12619698D02*
X12798753Y-12629222D01*
X12798753Y-12629222D02*
X12789229Y-12648269D01*
X12970182Y-12533984D02*
X13103515Y-12533984D01*
X13103515Y-12533984D02*
X13017801Y-12733984D01*
X13332087Y-12733984D02*
X13332087Y-12533984D01*
X13417801Y-12733984D02*
X13417801Y-12629222D01*
X13417801Y-12629222D02*
X13408277Y-12610174D01*
X13408277Y-12610174D02*
X13389230Y-12600650D01*
X13389230Y-12600650D02*
X13360658Y-12600650D01*
X13360658Y-12600650D02*
X13341610Y-12610174D01*
X13341610Y-12610174D02*
X13332087Y-12619698D01*
X13541610Y-12733984D02*
X13522563Y-12724460D01*
X13522563Y-12724460D02*
X13513039Y-12714936D01*
X13513039Y-12714936D02*
X13503515Y-12695888D01*
X13503515Y-12695888D02*
X13503515Y-12638746D01*
X13503515Y-12638746D02*
X13513039Y-12619698D01*
X13513039Y-12619698D02*
X13522563Y-12610174D01*
X13522563Y-12610174D02*
X13541610Y-12600650D01*
X13541610Y-12600650D02*
X13570182Y-12600650D01*
X13570182Y-12600650D02*
X13589230Y-12610174D01*
X13589230Y-12610174D02*
X13598753Y-12619698D01*
X13598753Y-12619698D02*
X13608277Y-12638746D01*
X13608277Y-12638746D02*
X13608277Y-12695888D01*
X13608277Y-12695888D02*
X13598753Y-12714936D01*
X13598753Y-12714936D02*
X13589230Y-12724460D01*
X13589230Y-12724460D02*
X13570182Y-12733984D01*
X13570182Y-12733984D02*
X13541610Y-12733984D01*
X13722563Y-12733984D02*
X13703515Y-12724460D01*
X13703515Y-12724460D02*
X13693991Y-12705412D01*
X13693991Y-12705412D02*
X13693991Y-12533984D01*
X13874944Y-12724460D02*
X13855896Y-12733984D01*
X13855896Y-12733984D02*
X13817801Y-12733984D01*
X13817801Y-12733984D02*
X13798753Y-12724460D01*
X13798753Y-12724460D02*
X13789230Y-12705412D01*
X13789230Y-12705412D02*
X13789230Y-12629222D01*
X13789230Y-12629222D02*
X13798753Y-12610174D01*
X13798753Y-12610174D02*
X13817801Y-12600650D01*
X13817801Y-12600650D02*
X13855896Y-12600650D01*
X13855896Y-12600650D02*
X13874944Y-12610174D01*
X13874944Y-12610174D02*
X13884468Y-12629222D01*
X13884468Y-12629222D02*
X13884468Y-12648269D01*
X13884468Y-12648269D02*
X13789230Y-12667317D01*
X13960658Y-12724460D02*
X13979706Y-12733984D01*
X13979706Y-12733984D02*
X14017801Y-12733984D01*
X14017801Y-12733984D02*
X14036849Y-12724460D01*
X14036849Y-12724460D02*
X14046372Y-12705412D01*
X14046372Y-12705412D02*
X14046372Y-12695888D01*
X14046372Y-12695888D02*
X14036849Y-12676841D01*
X14036849Y-12676841D02*
X14017801Y-12667317D01*
X14017801Y-12667317D02*
X13989230Y-12667317D01*
X13989230Y-12667317D02*
X13970182Y-12657793D01*
X13970182Y-12657793D02*
X13960658Y-12638746D01*
X13960658Y-12638746D02*
X13960658Y-12629222D01*
X13960658Y-12629222D02*
X13970182Y-12610174D01*
X13970182Y-12610174D02*
X13989230Y-12600650D01*
X13989230Y-12600650D02*
X14017801Y-12600650D01*
X14017801Y-12600650D02*
X14036849Y-12610174D01*
X14113039Y-12810174D02*
X14122563Y-12800650D01*
X14122563Y-12800650D02*
X14141611Y-12772079D01*
X14141611Y-12772079D02*
X14151134Y-12753031D01*
X14151134Y-12753031D02*
X14160658Y-12724460D01*
X14160658Y-12724460D02*
X14170182Y-12676841D01*
X14170182Y-12676841D02*
X14170182Y-12638746D01*
X14170182Y-12638746D02*
X14160658Y-12591127D01*
X14160658Y-12591127D02*
X14151134Y-12562555D01*
X14151134Y-12562555D02*
X14141611Y-12543508D01*
X14141611Y-12543508D02*
X14122563Y-12514936D01*
X14122563Y-12514936D02*
X14113039Y-12505412D01*
D12*
X9147500Y-12906500D02*
G75*
G02*
X9097500Y-12906500I-25000J0D01*
G01*
X9097500Y-12906500D02*
G75*
G02*
X9147500Y-12906500I25000J0D01*
G01*
D11*
X9446372Y-12797984D02*
X9465420Y-12797984D01*
X9465420Y-12797984D02*
X9484467Y-12807508D01*
X9484467Y-12807508D02*
X9493991Y-12817031D01*
X9493991Y-12817031D02*
X9503515Y-12836079D01*
X9503515Y-12836079D02*
X9513039Y-12874174D01*
X9513039Y-12874174D02*
X9513039Y-12921793D01*
X9513039Y-12921793D02*
X9503515Y-12959888D01*
X9503515Y-12959888D02*
X9493991Y-12978936D01*
X9493991Y-12978936D02*
X9484467Y-12988460D01*
X9484467Y-12988460D02*
X9465420Y-12997984D01*
X9465420Y-12997984D02*
X9446372Y-12997984D01*
X9446372Y-12997984D02*
X9427324Y-12988460D01*
X9427324Y-12988460D02*
X9417801Y-12978936D01*
X9417801Y-12978936D02*
X9408277Y-12959888D01*
X9408277Y-12959888D02*
X9398753Y-12921793D01*
X9398753Y-12921793D02*
X9398753Y-12874174D01*
X9398753Y-12874174D02*
X9408277Y-12836079D01*
X9408277Y-12836079D02*
X9417801Y-12817031D01*
X9417801Y-12817031D02*
X9427324Y-12807508D01*
X9427324Y-12807508D02*
X9446372Y-12797984D01*
X9598753Y-12978936D02*
X9608277Y-12988460D01*
X9608277Y-12988460D02*
X9598753Y-12997984D01*
X9598753Y-12997984D02*
X9589229Y-12988460D01*
X9589229Y-12988460D02*
X9598753Y-12978936D01*
X9598753Y-12978936D02*
X9598753Y-12997984D01*
X9789229Y-12797984D02*
X9693991Y-12797984D01*
X9693991Y-12797984D02*
X9684467Y-12893222D01*
X9684467Y-12893222D02*
X9693991Y-12883698D01*
X9693991Y-12883698D02*
X9713039Y-12874174D01*
X9713039Y-12874174D02*
X9760658Y-12874174D01*
X9760658Y-12874174D02*
X9779705Y-12883698D01*
X9779705Y-12883698D02*
X9789229Y-12893222D01*
X9789229Y-12893222D02*
X9798753Y-12912269D01*
X9798753Y-12912269D02*
X9798753Y-12959888D01*
X9798753Y-12959888D02*
X9789229Y-12978936D01*
X9789229Y-12978936D02*
X9779705Y-12988460D01*
X9779705Y-12988460D02*
X9760658Y-12997984D01*
X9760658Y-12997984D02*
X9713039Y-12997984D01*
X9713039Y-12997984D02*
X9693991Y-12988460D01*
X9693991Y-12988460D02*
X9684467Y-12978936D01*
X9922563Y-12797984D02*
X9941610Y-12797984D01*
X9941610Y-12797984D02*
X9960658Y-12807508D01*
X9960658Y-12807508D02*
X9970182Y-12817031D01*
X9970182Y-12817031D02*
X9979705Y-12836079D01*
X9979705Y-12836079D02*
X9989229Y-12874174D01*
X9989229Y-12874174D02*
X9989229Y-12921793D01*
X9989229Y-12921793D02*
X9979705Y-12959888D01*
X9979705Y-12959888D02*
X9970182Y-12978936D01*
X9970182Y-12978936D02*
X9960658Y-12988460D01*
X9960658Y-12988460D02*
X9941610Y-12997984D01*
X9941610Y-12997984D02*
X9922563Y-12997984D01*
X9922563Y-12997984D02*
X9903515Y-12988460D01*
X9903515Y-12988460D02*
X9893991Y-12978936D01*
X9893991Y-12978936D02*
X9884467Y-12959888D01*
X9884467Y-12959888D02*
X9874944Y-12921793D01*
X9874944Y-12921793D02*
X9874944Y-12874174D01*
X9874944Y-12874174D02*
X9884467Y-12836079D01*
X9884467Y-12836079D02*
X9893991Y-12817031D01*
X9893991Y-12817031D02*
X9903515Y-12807508D01*
X9903515Y-12807508D02*
X9922563Y-12797984D01*
X10113039Y-12797984D02*
X10132086Y-12797984D01*
X10132086Y-12797984D02*
X10151134Y-12807508D01*
X10151134Y-12807508D02*
X10160658Y-12817031D01*
X10160658Y-12817031D02*
X10170182Y-12836079D01*
X10170182Y-12836079D02*
X10179705Y-12874174D01*
X10179705Y-12874174D02*
X10179705Y-12921793D01*
X10179705Y-12921793D02*
X10170182Y-12959888D01*
X10170182Y-12959888D02*
X10160658Y-12978936D01*
X10160658Y-12978936D02*
X10151134Y-12988460D01*
X10151134Y-12988460D02*
X10132086Y-12997984D01*
X10132086Y-12997984D02*
X10113039Y-12997984D01*
X10113039Y-12997984D02*
X10093991Y-12988460D01*
X10093991Y-12988460D02*
X10084467Y-12978936D01*
X10084467Y-12978936D02*
X10074944Y-12959888D01*
X10074944Y-12959888D02*
X10065420Y-12921793D01*
X10065420Y-12921793D02*
X10065420Y-12874174D01*
X10065420Y-12874174D02*
X10074944Y-12836079D01*
X10074944Y-12836079D02*
X10084467Y-12817031D01*
X10084467Y-12817031D02*
X10093991Y-12807508D01*
X10093991Y-12807508D02*
X10113039Y-12797984D01*
X10265420Y-12997984D02*
X10265420Y-12864650D01*
X10265420Y-12883698D02*
X10274944Y-12874174D01*
X10274944Y-12874174D02*
X10293991Y-12864650D01*
X10293991Y-12864650D02*
X10322563Y-12864650D01*
X10322563Y-12864650D02*
X10341610Y-12874174D01*
X10341610Y-12874174D02*
X10351134Y-12893222D01*
X10351134Y-12893222D02*
X10351134Y-12997984D01*
X10351134Y-12893222D02*
X10360658Y-12874174D01*
X10360658Y-12874174D02*
X10379705Y-12864650D01*
X10379705Y-12864650D02*
X10408277Y-12864650D01*
X10408277Y-12864650D02*
X10427325Y-12874174D01*
X10427325Y-12874174D02*
X10436848Y-12893222D01*
X10436848Y-12893222D02*
X10436848Y-12997984D01*
X10532086Y-12997984D02*
X10532086Y-12864650D01*
X10532086Y-12883698D02*
X10541610Y-12874174D01*
X10541610Y-12874174D02*
X10560658Y-12864650D01*
X10560658Y-12864650D02*
X10589229Y-12864650D01*
X10589229Y-12864650D02*
X10608277Y-12874174D01*
X10608277Y-12874174D02*
X10617801Y-12893222D01*
X10617801Y-12893222D02*
X10617801Y-12997984D01*
X10617801Y-12893222D02*
X10627325Y-12874174D01*
X10627325Y-12874174D02*
X10646372Y-12864650D01*
X10646372Y-12864650D02*
X10674944Y-12864650D01*
X10674944Y-12864650D02*
X10693991Y-12874174D01*
X10693991Y-12874174D02*
X10703515Y-12893222D01*
X10703515Y-12893222D02*
X10703515Y-12997984D01*
X11093991Y-12788460D02*
X10922563Y-13045603D01*
X11351134Y-12797984D02*
X11370182Y-12797984D01*
X11370182Y-12797984D02*
X11389229Y-12807508D01*
X11389229Y-12807508D02*
X11398753Y-12817031D01*
X11398753Y-12817031D02*
X11408277Y-12836079D01*
X11408277Y-12836079D02*
X11417801Y-12874174D01*
X11417801Y-12874174D02*
X11417801Y-12921793D01*
X11417801Y-12921793D02*
X11408277Y-12959888D01*
X11408277Y-12959888D02*
X11398753Y-12978936D01*
X11398753Y-12978936D02*
X11389229Y-12988460D01*
X11389229Y-12988460D02*
X11370182Y-12997984D01*
X11370182Y-12997984D02*
X11351134Y-12997984D01*
X11351134Y-12997984D02*
X11332086Y-12988460D01*
X11332086Y-12988460D02*
X11322563Y-12978936D01*
X11322563Y-12978936D02*
X11313039Y-12959888D01*
X11313039Y-12959888D02*
X11303515Y-12921793D01*
X11303515Y-12921793D02*
X11303515Y-12874174D01*
X11303515Y-12874174D02*
X11313039Y-12836079D01*
X11313039Y-12836079D02*
X11322563Y-12817031D01*
X11322563Y-12817031D02*
X11332086Y-12807508D01*
X11332086Y-12807508D02*
X11351134Y-12797984D01*
X11503515Y-12978936D02*
X11513039Y-12988460D01*
X11513039Y-12988460D02*
X11503515Y-12997984D01*
X11503515Y-12997984D02*
X11493991Y-12988460D01*
X11493991Y-12988460D02*
X11503515Y-12978936D01*
X11503515Y-12978936D02*
X11503515Y-12997984D01*
X11636848Y-12797984D02*
X11655896Y-12797984D01*
X11655896Y-12797984D02*
X11674944Y-12807508D01*
X11674944Y-12807508D02*
X11684467Y-12817031D01*
X11684467Y-12817031D02*
X11693991Y-12836079D01*
X11693991Y-12836079D02*
X11703515Y-12874174D01*
X11703515Y-12874174D02*
X11703515Y-12921793D01*
X11703515Y-12921793D02*
X11693991Y-12959888D01*
X11693991Y-12959888D02*
X11684467Y-12978936D01*
X11684467Y-12978936D02*
X11674944Y-12988460D01*
X11674944Y-12988460D02*
X11655896Y-12997984D01*
X11655896Y-12997984D02*
X11636848Y-12997984D01*
X11636848Y-12997984D02*
X11617801Y-12988460D01*
X11617801Y-12988460D02*
X11608277Y-12978936D01*
X11608277Y-12978936D02*
X11598753Y-12959888D01*
X11598753Y-12959888D02*
X11589229Y-12921793D01*
X11589229Y-12921793D02*
X11589229Y-12874174D01*
X11589229Y-12874174D02*
X11598753Y-12836079D01*
X11598753Y-12836079D02*
X11608277Y-12817031D01*
X11608277Y-12817031D02*
X11617801Y-12807508D01*
X11617801Y-12807508D02*
X11636848Y-12797984D01*
X11893991Y-12997984D02*
X11779706Y-12997984D01*
X11836848Y-12997984D02*
X11836848Y-12797984D01*
X11836848Y-12797984D02*
X11817801Y-12826555D01*
X11817801Y-12826555D02*
X11798753Y-12845603D01*
X11798753Y-12845603D02*
X11779706Y-12855127D01*
X11989229Y-12997984D02*
X12027325Y-12997984D01*
X12027325Y-12997984D02*
X12046372Y-12988460D01*
X12046372Y-12988460D02*
X12055896Y-12978936D01*
X12055896Y-12978936D02*
X12074944Y-12950365D01*
X12074944Y-12950365D02*
X12084467Y-12912269D01*
X12084467Y-12912269D02*
X12084467Y-12836079D01*
X12084467Y-12836079D02*
X12074944Y-12817031D01*
X12074944Y-12817031D02*
X12065420Y-12807508D01*
X12065420Y-12807508D02*
X12046372Y-12797984D01*
X12046372Y-12797984D02*
X12008277Y-12797984D01*
X12008277Y-12797984D02*
X11989229Y-12807508D01*
X11989229Y-12807508D02*
X11979706Y-12817031D01*
X11979706Y-12817031D02*
X11970182Y-12836079D01*
X11970182Y-12836079D02*
X11970182Y-12883698D01*
X11970182Y-12883698D02*
X11979706Y-12902746D01*
X11979706Y-12902746D02*
X11989229Y-12912269D01*
X11989229Y-12912269D02*
X12008277Y-12921793D01*
X12008277Y-12921793D02*
X12046372Y-12921793D01*
X12046372Y-12921793D02*
X12065420Y-12912269D01*
X12065420Y-12912269D02*
X12074944Y-12902746D01*
X12074944Y-12902746D02*
X12084467Y-12883698D01*
X12151134Y-12797984D02*
X12284467Y-12797984D01*
X12284467Y-12797984D02*
X12198753Y-12997984D01*
X12351134Y-12797984D02*
X12351134Y-12836079D01*
X12427325Y-12797984D02*
X12427325Y-12836079D01*
X12722563Y-13074174D02*
X12713039Y-13064650D01*
X12713039Y-13064650D02*
X12693991Y-13036079D01*
X12693991Y-13036079D02*
X12684468Y-13017031D01*
X12684468Y-13017031D02*
X12674944Y-12988460D01*
X12674944Y-12988460D02*
X12665420Y-12940841D01*
X12665420Y-12940841D02*
X12665420Y-12902746D01*
X12665420Y-12902746D02*
X12674944Y-12855127D01*
X12674944Y-12855127D02*
X12684468Y-12826555D01*
X12684468Y-12826555D02*
X12693991Y-12807508D01*
X12693991Y-12807508D02*
X12713039Y-12778936D01*
X12713039Y-12778936D02*
X12722563Y-12769412D01*
X12779706Y-12797984D02*
X12903515Y-12797984D01*
X12903515Y-12797984D02*
X12836848Y-12874174D01*
X12836848Y-12874174D02*
X12865420Y-12874174D01*
X12865420Y-12874174D02*
X12884468Y-12883698D01*
X12884468Y-12883698D02*
X12893991Y-12893222D01*
X12893991Y-12893222D02*
X12903515Y-12912269D01*
X12903515Y-12912269D02*
X12903515Y-12959888D01*
X12903515Y-12959888D02*
X12893991Y-12978936D01*
X12893991Y-12978936D02*
X12884468Y-12988460D01*
X12884468Y-12988460D02*
X12865420Y-12997984D01*
X12865420Y-12997984D02*
X12808277Y-12997984D01*
X12808277Y-12997984D02*
X12789229Y-12988460D01*
X12789229Y-12988460D02*
X12779706Y-12978936D01*
X13141610Y-12997984D02*
X13141610Y-12797984D01*
X13227325Y-12997984D02*
X13227325Y-12893222D01*
X13227325Y-12893222D02*
X13217801Y-12874174D01*
X13217801Y-12874174D02*
X13198753Y-12864650D01*
X13198753Y-12864650D02*
X13170182Y-12864650D01*
X13170182Y-12864650D02*
X13151134Y-12874174D01*
X13151134Y-12874174D02*
X13141610Y-12883698D01*
X13351134Y-12997984D02*
X13332087Y-12988460D01*
X13332087Y-12988460D02*
X13322563Y-12978936D01*
X13322563Y-12978936D02*
X13313039Y-12959888D01*
X13313039Y-12959888D02*
X13313039Y-12902746D01*
X13313039Y-12902746D02*
X13322563Y-12883698D01*
X13322563Y-12883698D02*
X13332087Y-12874174D01*
X13332087Y-12874174D02*
X13351134Y-12864650D01*
X13351134Y-12864650D02*
X13379706Y-12864650D01*
X13379706Y-12864650D02*
X13398753Y-12874174D01*
X13398753Y-12874174D02*
X13408277Y-12883698D01*
X13408277Y-12883698D02*
X13417801Y-12902746D01*
X13417801Y-12902746D02*
X13417801Y-12959888D01*
X13417801Y-12959888D02*
X13408277Y-12978936D01*
X13408277Y-12978936D02*
X13398753Y-12988460D01*
X13398753Y-12988460D02*
X13379706Y-12997984D01*
X13379706Y-12997984D02*
X13351134Y-12997984D01*
X13532087Y-12997984D02*
X13513039Y-12988460D01*
X13513039Y-12988460D02*
X13503515Y-12969412D01*
X13503515Y-12969412D02*
X13503515Y-12797984D01*
X13684468Y-12988460D02*
X13665420Y-12997984D01*
X13665420Y-12997984D02*
X13627325Y-12997984D01*
X13627325Y-12997984D02*
X13608277Y-12988460D01*
X13608277Y-12988460D02*
X13598753Y-12969412D01*
X13598753Y-12969412D02*
X13598753Y-12893222D01*
X13598753Y-12893222D02*
X13608277Y-12874174D01*
X13608277Y-12874174D02*
X13627325Y-12864650D01*
X13627325Y-12864650D02*
X13665420Y-12864650D01*
X13665420Y-12864650D02*
X13684468Y-12874174D01*
X13684468Y-12874174D02*
X13693991Y-12893222D01*
X13693991Y-12893222D02*
X13693991Y-12912269D01*
X13693991Y-12912269D02*
X13598753Y-12931317D01*
X13770182Y-12988460D02*
X13789230Y-12997984D01*
X13789230Y-12997984D02*
X13827325Y-12997984D01*
X13827325Y-12997984D02*
X13846372Y-12988460D01*
X13846372Y-12988460D02*
X13855896Y-12969412D01*
X13855896Y-12969412D02*
X13855896Y-12959888D01*
X13855896Y-12959888D02*
X13846372Y-12940841D01*
X13846372Y-12940841D02*
X13827325Y-12931317D01*
X13827325Y-12931317D02*
X13798753Y-12931317D01*
X13798753Y-12931317D02*
X13779706Y-12921793D01*
X13779706Y-12921793D02*
X13770182Y-12902746D01*
X13770182Y-12902746D02*
X13770182Y-12893222D01*
X13770182Y-12893222D02*
X13779706Y-12874174D01*
X13779706Y-12874174D02*
X13798753Y-12864650D01*
X13798753Y-12864650D02*
X13827325Y-12864650D01*
X13827325Y-12864650D02*
X13846372Y-12874174D01*
X13922563Y-13074174D02*
X13932087Y-13064650D01*
X13932087Y-13064650D02*
X13951134Y-13036079D01*
X13951134Y-13036079D02*
X13960658Y-13017031D01*
X13960658Y-13017031D02*
X13970182Y-12988460D01*
X13970182Y-12988460D02*
X13979706Y-12940841D01*
X13979706Y-12940841D02*
X13979706Y-12902746D01*
X13979706Y-12902746D02*
X13970182Y-12855127D01*
X13970182Y-12855127D02*
X13960658Y-12826555D01*
X13960658Y-12826555D02*
X13951134Y-12807508D01*
X13951134Y-12807508D02*
X13932087Y-12778936D01*
X13932087Y-12778936D02*
X13922563Y-12769412D01*
D12*
X9112000Y-13135000D02*
X9112000Y-13206000D01*
X9076500Y-13170500D02*
X9147500Y-13170500D01*
D11*
X9446372Y-13061984D02*
X9465420Y-13061984D01*
X9465420Y-13061984D02*
X9484467Y-13071508D01*
X9484467Y-13071508D02*
X9493991Y-13081031D01*
X9493991Y-13081031D02*
X9503515Y-13100079D01*
X9503515Y-13100079D02*
X9513039Y-13138174D01*
X9513039Y-13138174D02*
X9513039Y-13185793D01*
X9513039Y-13185793D02*
X9503515Y-13223888D01*
X9503515Y-13223888D02*
X9493991Y-13242936D01*
X9493991Y-13242936D02*
X9484467Y-13252460D01*
X9484467Y-13252460D02*
X9465420Y-13261984D01*
X9465420Y-13261984D02*
X9446372Y-13261984D01*
X9446372Y-13261984D02*
X9427324Y-13252460D01*
X9427324Y-13252460D02*
X9417801Y-13242936D01*
X9417801Y-13242936D02*
X9408277Y-13223888D01*
X9408277Y-13223888D02*
X9398753Y-13185793D01*
X9398753Y-13185793D02*
X9398753Y-13138174D01*
X9398753Y-13138174D02*
X9408277Y-13100079D01*
X9408277Y-13100079D02*
X9417801Y-13081031D01*
X9417801Y-13081031D02*
X9427324Y-13071508D01*
X9427324Y-13071508D02*
X9446372Y-13061984D01*
X9598753Y-13242936D02*
X9608277Y-13252460D01*
X9608277Y-13252460D02*
X9598753Y-13261984D01*
X9598753Y-13261984D02*
X9589229Y-13252460D01*
X9589229Y-13252460D02*
X9598753Y-13242936D01*
X9598753Y-13242936D02*
X9598753Y-13261984D01*
X9674944Y-13061984D02*
X9808277Y-13061984D01*
X9808277Y-13061984D02*
X9722563Y-13261984D01*
X9989229Y-13261984D02*
X9874944Y-13261984D01*
X9932086Y-13261984D02*
X9932086Y-13061984D01*
X9932086Y-13061984D02*
X9913039Y-13090555D01*
X9913039Y-13090555D02*
X9893991Y-13109603D01*
X9893991Y-13109603D02*
X9874944Y-13119127D01*
X10113039Y-13061984D02*
X10132086Y-13061984D01*
X10132086Y-13061984D02*
X10151134Y-13071508D01*
X10151134Y-13071508D02*
X10160658Y-13081031D01*
X10160658Y-13081031D02*
X10170182Y-13100079D01*
X10170182Y-13100079D02*
X10179705Y-13138174D01*
X10179705Y-13138174D02*
X10179705Y-13185793D01*
X10179705Y-13185793D02*
X10170182Y-13223888D01*
X10170182Y-13223888D02*
X10160658Y-13242936D01*
X10160658Y-13242936D02*
X10151134Y-13252460D01*
X10151134Y-13252460D02*
X10132086Y-13261984D01*
X10132086Y-13261984D02*
X10113039Y-13261984D01*
X10113039Y-13261984D02*
X10093991Y-13252460D01*
X10093991Y-13252460D02*
X10084467Y-13242936D01*
X10084467Y-13242936D02*
X10074944Y-13223888D01*
X10074944Y-13223888D02*
X10065420Y-13185793D01*
X10065420Y-13185793D02*
X10065420Y-13138174D01*
X10065420Y-13138174D02*
X10074944Y-13100079D01*
X10074944Y-13100079D02*
X10084467Y-13081031D01*
X10084467Y-13081031D02*
X10093991Y-13071508D01*
X10093991Y-13071508D02*
X10113039Y-13061984D01*
X10265420Y-13261984D02*
X10265420Y-13128650D01*
X10265420Y-13147698D02*
X10274944Y-13138174D01*
X10274944Y-13138174D02*
X10293991Y-13128650D01*
X10293991Y-13128650D02*
X10322563Y-13128650D01*
X10322563Y-13128650D02*
X10341610Y-13138174D01*
X10341610Y-13138174D02*
X10351134Y-13157222D01*
X10351134Y-13157222D02*
X10351134Y-13261984D01*
X10351134Y-13157222D02*
X10360658Y-13138174D01*
X10360658Y-13138174D02*
X10379705Y-13128650D01*
X10379705Y-13128650D02*
X10408277Y-13128650D01*
X10408277Y-13128650D02*
X10427325Y-13138174D01*
X10427325Y-13138174D02*
X10436848Y-13157222D01*
X10436848Y-13157222D02*
X10436848Y-13261984D01*
X10532086Y-13261984D02*
X10532086Y-13128650D01*
X10532086Y-13147698D02*
X10541610Y-13138174D01*
X10541610Y-13138174D02*
X10560658Y-13128650D01*
X10560658Y-13128650D02*
X10589229Y-13128650D01*
X10589229Y-13128650D02*
X10608277Y-13138174D01*
X10608277Y-13138174D02*
X10617801Y-13157222D01*
X10617801Y-13157222D02*
X10617801Y-13261984D01*
X10617801Y-13157222D02*
X10627325Y-13138174D01*
X10627325Y-13138174D02*
X10646372Y-13128650D01*
X10646372Y-13128650D02*
X10674944Y-13128650D01*
X10674944Y-13128650D02*
X10693991Y-13138174D01*
X10693991Y-13138174D02*
X10703515Y-13157222D01*
X10703515Y-13157222D02*
X10703515Y-13261984D01*
X11093991Y-13052460D02*
X10922563Y-13309603D01*
X11351134Y-13061984D02*
X11370182Y-13061984D01*
X11370182Y-13061984D02*
X11389229Y-13071508D01*
X11389229Y-13071508D02*
X11398753Y-13081031D01*
X11398753Y-13081031D02*
X11408277Y-13100079D01*
X11408277Y-13100079D02*
X11417801Y-13138174D01*
X11417801Y-13138174D02*
X11417801Y-13185793D01*
X11417801Y-13185793D02*
X11408277Y-13223888D01*
X11408277Y-13223888D02*
X11398753Y-13242936D01*
X11398753Y-13242936D02*
X11389229Y-13252460D01*
X11389229Y-13252460D02*
X11370182Y-13261984D01*
X11370182Y-13261984D02*
X11351134Y-13261984D01*
X11351134Y-13261984D02*
X11332086Y-13252460D01*
X11332086Y-13252460D02*
X11322563Y-13242936D01*
X11322563Y-13242936D02*
X11313039Y-13223888D01*
X11313039Y-13223888D02*
X11303515Y-13185793D01*
X11303515Y-13185793D02*
X11303515Y-13138174D01*
X11303515Y-13138174D02*
X11313039Y-13100079D01*
X11313039Y-13100079D02*
X11322563Y-13081031D01*
X11322563Y-13081031D02*
X11332086Y-13071508D01*
X11332086Y-13071508D02*
X11351134Y-13061984D01*
X11503515Y-13242936D02*
X11513039Y-13252460D01*
X11513039Y-13252460D02*
X11503515Y-13261984D01*
X11503515Y-13261984D02*
X11493991Y-13252460D01*
X11493991Y-13252460D02*
X11503515Y-13242936D01*
X11503515Y-13242936D02*
X11503515Y-13261984D01*
X11636848Y-13061984D02*
X11655896Y-13061984D01*
X11655896Y-13061984D02*
X11674944Y-13071508D01*
X11674944Y-13071508D02*
X11684467Y-13081031D01*
X11684467Y-13081031D02*
X11693991Y-13100079D01*
X11693991Y-13100079D02*
X11703515Y-13138174D01*
X11703515Y-13138174D02*
X11703515Y-13185793D01*
X11703515Y-13185793D02*
X11693991Y-13223888D01*
X11693991Y-13223888D02*
X11684467Y-13242936D01*
X11684467Y-13242936D02*
X11674944Y-13252460D01*
X11674944Y-13252460D02*
X11655896Y-13261984D01*
X11655896Y-13261984D02*
X11636848Y-13261984D01*
X11636848Y-13261984D02*
X11617801Y-13252460D01*
X11617801Y-13252460D02*
X11608277Y-13242936D01*
X11608277Y-13242936D02*
X11598753Y-13223888D01*
X11598753Y-13223888D02*
X11589229Y-13185793D01*
X11589229Y-13185793D02*
X11589229Y-13138174D01*
X11589229Y-13138174D02*
X11598753Y-13100079D01*
X11598753Y-13100079D02*
X11608277Y-13081031D01*
X11608277Y-13081031D02*
X11617801Y-13071508D01*
X11617801Y-13071508D02*
X11636848Y-13061984D01*
X11779706Y-13081031D02*
X11789229Y-13071508D01*
X11789229Y-13071508D02*
X11808277Y-13061984D01*
X11808277Y-13061984D02*
X11855896Y-13061984D01*
X11855896Y-13061984D02*
X11874944Y-13071508D01*
X11874944Y-13071508D02*
X11884467Y-13081031D01*
X11884467Y-13081031D02*
X11893991Y-13100079D01*
X11893991Y-13100079D02*
X11893991Y-13119127D01*
X11893991Y-13119127D02*
X11884467Y-13147698D01*
X11884467Y-13147698D02*
X11770182Y-13261984D01*
X11770182Y-13261984D02*
X11893991Y-13261984D01*
X12008277Y-13147698D02*
X11989229Y-13138174D01*
X11989229Y-13138174D02*
X11979706Y-13128650D01*
X11979706Y-13128650D02*
X11970182Y-13109603D01*
X11970182Y-13109603D02*
X11970182Y-13100079D01*
X11970182Y-13100079D02*
X11979706Y-13081031D01*
X11979706Y-13081031D02*
X11989229Y-13071508D01*
X11989229Y-13071508D02*
X12008277Y-13061984D01*
X12008277Y-13061984D02*
X12046372Y-13061984D01*
X12046372Y-13061984D02*
X12065420Y-13071508D01*
X12065420Y-13071508D02*
X12074944Y-13081031D01*
X12074944Y-13081031D02*
X12084467Y-13100079D01*
X12084467Y-13100079D02*
X12084467Y-13109603D01*
X12084467Y-13109603D02*
X12074944Y-13128650D01*
X12074944Y-13128650D02*
X12065420Y-13138174D01*
X12065420Y-13138174D02*
X12046372Y-13147698D01*
X12046372Y-13147698D02*
X12008277Y-13147698D01*
X12008277Y-13147698D02*
X11989229Y-13157222D01*
X11989229Y-13157222D02*
X11979706Y-13166746D01*
X11979706Y-13166746D02*
X11970182Y-13185793D01*
X11970182Y-13185793D02*
X11970182Y-13223888D01*
X11970182Y-13223888D02*
X11979706Y-13242936D01*
X11979706Y-13242936D02*
X11989229Y-13252460D01*
X11989229Y-13252460D02*
X12008277Y-13261984D01*
X12008277Y-13261984D02*
X12046372Y-13261984D01*
X12046372Y-13261984D02*
X12065420Y-13252460D01*
X12065420Y-13252460D02*
X12074944Y-13242936D01*
X12074944Y-13242936D02*
X12084467Y-13223888D01*
X12084467Y-13223888D02*
X12084467Y-13185793D01*
X12084467Y-13185793D02*
X12074944Y-13166746D01*
X12074944Y-13166746D02*
X12065420Y-13157222D01*
X12065420Y-13157222D02*
X12046372Y-13147698D01*
X12208277Y-13061984D02*
X12227325Y-13061984D01*
X12227325Y-13061984D02*
X12246372Y-13071508D01*
X12246372Y-13071508D02*
X12255896Y-13081031D01*
X12255896Y-13081031D02*
X12265420Y-13100079D01*
X12265420Y-13100079D02*
X12274944Y-13138174D01*
X12274944Y-13138174D02*
X12274944Y-13185793D01*
X12274944Y-13185793D02*
X12265420Y-13223888D01*
X12265420Y-13223888D02*
X12255896Y-13242936D01*
X12255896Y-13242936D02*
X12246372Y-13252460D01*
X12246372Y-13252460D02*
X12227325Y-13261984D01*
X12227325Y-13261984D02*
X12208277Y-13261984D01*
X12208277Y-13261984D02*
X12189229Y-13252460D01*
X12189229Y-13252460D02*
X12179706Y-13242936D01*
X12179706Y-13242936D02*
X12170182Y-13223888D01*
X12170182Y-13223888D02*
X12160658Y-13185793D01*
X12160658Y-13185793D02*
X12160658Y-13138174D01*
X12160658Y-13138174D02*
X12170182Y-13100079D01*
X12170182Y-13100079D02*
X12179706Y-13081031D01*
X12179706Y-13081031D02*
X12189229Y-13071508D01*
X12189229Y-13071508D02*
X12208277Y-13061984D01*
X12351134Y-13061984D02*
X12351134Y-13100079D01*
X12427325Y-13061984D02*
X12427325Y-13100079D01*
X12722563Y-13338174D02*
X12713039Y-13328650D01*
X12713039Y-13328650D02*
X12693991Y-13300079D01*
X12693991Y-13300079D02*
X12684468Y-13281031D01*
X12684468Y-13281031D02*
X12674944Y-13252460D01*
X12674944Y-13252460D02*
X12665420Y-13204841D01*
X12665420Y-13204841D02*
X12665420Y-13166746D01*
X12665420Y-13166746D02*
X12674944Y-13119127D01*
X12674944Y-13119127D02*
X12684468Y-13090555D01*
X12684468Y-13090555D02*
X12693991Y-13071508D01*
X12693991Y-13071508D02*
X12713039Y-13042936D01*
X12713039Y-13042936D02*
X12722563Y-13033412D01*
X12789229Y-13081031D02*
X12798753Y-13071508D01*
X12798753Y-13071508D02*
X12817801Y-13061984D01*
X12817801Y-13061984D02*
X12865420Y-13061984D01*
X12865420Y-13061984D02*
X12884468Y-13071508D01*
X12884468Y-13071508D02*
X12893991Y-13081031D01*
X12893991Y-13081031D02*
X12903515Y-13100079D01*
X12903515Y-13100079D02*
X12903515Y-13119127D01*
X12903515Y-13119127D02*
X12893991Y-13147698D01*
X12893991Y-13147698D02*
X12779706Y-13261984D01*
X12779706Y-13261984D02*
X12903515Y-13261984D01*
X13027325Y-13061984D02*
X13046372Y-13061984D01*
X13046372Y-13061984D02*
X13065420Y-13071508D01*
X13065420Y-13071508D02*
X13074944Y-13081031D01*
X13074944Y-13081031D02*
X13084468Y-13100079D01*
X13084468Y-13100079D02*
X13093991Y-13138174D01*
X13093991Y-13138174D02*
X13093991Y-13185793D01*
X13093991Y-13185793D02*
X13084468Y-13223888D01*
X13084468Y-13223888D02*
X13074944Y-13242936D01*
X13074944Y-13242936D02*
X13065420Y-13252460D01*
X13065420Y-13252460D02*
X13046372Y-13261984D01*
X13046372Y-13261984D02*
X13027325Y-13261984D01*
X13027325Y-13261984D02*
X13008277Y-13252460D01*
X13008277Y-13252460D02*
X12998753Y-13242936D01*
X12998753Y-13242936D02*
X12989229Y-13223888D01*
X12989229Y-13223888D02*
X12979706Y-13185793D01*
X12979706Y-13185793D02*
X12979706Y-13138174D01*
X12979706Y-13138174D02*
X12989229Y-13100079D01*
X12989229Y-13100079D02*
X12998753Y-13081031D01*
X12998753Y-13081031D02*
X13008277Y-13071508D01*
X13008277Y-13071508D02*
X13027325Y-13061984D01*
X13332087Y-13261984D02*
X13332087Y-13061984D01*
X13417801Y-13261984D02*
X13417801Y-13157222D01*
X13417801Y-13157222D02*
X13408277Y-13138174D01*
X13408277Y-13138174D02*
X13389230Y-13128650D01*
X13389230Y-13128650D02*
X13360658Y-13128650D01*
X13360658Y-13128650D02*
X13341610Y-13138174D01*
X13341610Y-13138174D02*
X13332087Y-13147698D01*
X13541610Y-13261984D02*
X13522563Y-13252460D01*
X13522563Y-13252460D02*
X13513039Y-13242936D01*
X13513039Y-13242936D02*
X13503515Y-13223888D01*
X13503515Y-13223888D02*
X13503515Y-13166746D01*
X13503515Y-13166746D02*
X13513039Y-13147698D01*
X13513039Y-13147698D02*
X13522563Y-13138174D01*
X13522563Y-13138174D02*
X13541610Y-13128650D01*
X13541610Y-13128650D02*
X13570182Y-13128650D01*
X13570182Y-13128650D02*
X13589230Y-13138174D01*
X13589230Y-13138174D02*
X13598753Y-13147698D01*
X13598753Y-13147698D02*
X13608277Y-13166746D01*
X13608277Y-13166746D02*
X13608277Y-13223888D01*
X13608277Y-13223888D02*
X13598753Y-13242936D01*
X13598753Y-13242936D02*
X13589230Y-13252460D01*
X13589230Y-13252460D02*
X13570182Y-13261984D01*
X13570182Y-13261984D02*
X13541610Y-13261984D01*
X13722563Y-13261984D02*
X13703515Y-13252460D01*
X13703515Y-13252460D02*
X13693991Y-13233412D01*
X13693991Y-13233412D02*
X13693991Y-13061984D01*
X13874944Y-13252460D02*
X13855896Y-13261984D01*
X13855896Y-13261984D02*
X13817801Y-13261984D01*
X13817801Y-13261984D02*
X13798753Y-13252460D01*
X13798753Y-13252460D02*
X13789230Y-13233412D01*
X13789230Y-13233412D02*
X13789230Y-13157222D01*
X13789230Y-13157222D02*
X13798753Y-13138174D01*
X13798753Y-13138174D02*
X13817801Y-13128650D01*
X13817801Y-13128650D02*
X13855896Y-13128650D01*
X13855896Y-13128650D02*
X13874944Y-13138174D01*
X13874944Y-13138174D02*
X13884468Y-13157222D01*
X13884468Y-13157222D02*
X13884468Y-13176269D01*
X13884468Y-13176269D02*
X13789230Y-13195317D01*
X13960658Y-13252460D02*
X13979706Y-13261984D01*
X13979706Y-13261984D02*
X14017801Y-13261984D01*
X14017801Y-13261984D02*
X14036849Y-13252460D01*
X14036849Y-13252460D02*
X14046372Y-13233412D01*
X14046372Y-13233412D02*
X14046372Y-13223888D01*
X14046372Y-13223888D02*
X14036849Y-13204841D01*
X14036849Y-13204841D02*
X14017801Y-13195317D01*
X14017801Y-13195317D02*
X13989230Y-13195317D01*
X13989230Y-13195317D02*
X13970182Y-13185793D01*
X13970182Y-13185793D02*
X13960658Y-13166746D01*
X13960658Y-13166746D02*
X13960658Y-13157222D01*
X13960658Y-13157222D02*
X13970182Y-13138174D01*
X13970182Y-13138174D02*
X13989230Y-13128650D01*
X13989230Y-13128650D02*
X14017801Y-13128650D01*
X14017801Y-13128650D02*
X14036849Y-13138174D01*
X14113039Y-13338174D02*
X14122563Y-13328650D01*
X14122563Y-13328650D02*
X14141611Y-13300079D01*
X14141611Y-13300079D02*
X14151134Y-13281031D01*
X14151134Y-13281031D02*
X14160658Y-13252460D01*
X14160658Y-13252460D02*
X14170182Y-13204841D01*
X14170182Y-13204841D02*
X14170182Y-13166746D01*
X14170182Y-13166746D02*
X14160658Y-13119127D01*
X14160658Y-13119127D02*
X14151134Y-13090555D01*
X14151134Y-13090555D02*
X14141611Y-13071508D01*
X14141611Y-13071508D02*
X14122563Y-13042936D01*
X14122563Y-13042936D02*
X14113039Y-13033412D01*
D12*
X9136517Y-13461017D02*
X9136517Y-13407983D01*
X9083483Y-13407983D01*
X9083483Y-13461017D01*
X9136517Y-13461017D01*
D11*
X9446372Y-13325984D02*
X9465420Y-13325984D01*
X9465420Y-13325984D02*
X9484467Y-13335508D01*
X9484467Y-13335508D02*
X9493991Y-13345031D01*
X9493991Y-13345031D02*
X9503515Y-13364079D01*
X9503515Y-13364079D02*
X9513039Y-13402174D01*
X9513039Y-13402174D02*
X9513039Y-13449793D01*
X9513039Y-13449793D02*
X9503515Y-13487888D01*
X9503515Y-13487888D02*
X9493991Y-13506936D01*
X9493991Y-13506936D02*
X9484467Y-13516460D01*
X9484467Y-13516460D02*
X9465420Y-13525984D01*
X9465420Y-13525984D02*
X9446372Y-13525984D01*
X9446372Y-13525984D02*
X9427324Y-13516460D01*
X9427324Y-13516460D02*
X9417801Y-13506936D01*
X9417801Y-13506936D02*
X9408277Y-13487888D01*
X9408277Y-13487888D02*
X9398753Y-13449793D01*
X9398753Y-13449793D02*
X9398753Y-13402174D01*
X9398753Y-13402174D02*
X9408277Y-13364079D01*
X9408277Y-13364079D02*
X9417801Y-13345031D01*
X9417801Y-13345031D02*
X9427324Y-13335508D01*
X9427324Y-13335508D02*
X9446372Y-13325984D01*
X9598753Y-13506936D02*
X9608277Y-13516460D01*
X9608277Y-13516460D02*
X9598753Y-13525984D01*
X9598753Y-13525984D02*
X9589229Y-13516460D01*
X9589229Y-13516460D02*
X9598753Y-13506936D01*
X9598753Y-13506936D02*
X9598753Y-13525984D01*
X9674944Y-13325984D02*
X9808277Y-13325984D01*
X9808277Y-13325984D02*
X9722563Y-13525984D01*
X9979705Y-13325984D02*
X9884467Y-13325984D01*
X9884467Y-13325984D02*
X9874944Y-13421222D01*
X9874944Y-13421222D02*
X9884467Y-13411698D01*
X9884467Y-13411698D02*
X9903515Y-13402174D01*
X9903515Y-13402174D02*
X9951134Y-13402174D01*
X9951134Y-13402174D02*
X9970182Y-13411698D01*
X9970182Y-13411698D02*
X9979705Y-13421222D01*
X9979705Y-13421222D02*
X9989229Y-13440269D01*
X9989229Y-13440269D02*
X9989229Y-13487888D01*
X9989229Y-13487888D02*
X9979705Y-13506936D01*
X9979705Y-13506936D02*
X9970182Y-13516460D01*
X9970182Y-13516460D02*
X9951134Y-13525984D01*
X9951134Y-13525984D02*
X9903515Y-13525984D01*
X9903515Y-13525984D02*
X9884467Y-13516460D01*
X9884467Y-13516460D02*
X9874944Y-13506936D01*
X10113039Y-13325984D02*
X10132086Y-13325984D01*
X10132086Y-13325984D02*
X10151134Y-13335508D01*
X10151134Y-13335508D02*
X10160658Y-13345031D01*
X10160658Y-13345031D02*
X10170182Y-13364079D01*
X10170182Y-13364079D02*
X10179705Y-13402174D01*
X10179705Y-13402174D02*
X10179705Y-13449793D01*
X10179705Y-13449793D02*
X10170182Y-13487888D01*
X10170182Y-13487888D02*
X10160658Y-13506936D01*
X10160658Y-13506936D02*
X10151134Y-13516460D01*
X10151134Y-13516460D02*
X10132086Y-13525984D01*
X10132086Y-13525984D02*
X10113039Y-13525984D01*
X10113039Y-13525984D02*
X10093991Y-13516460D01*
X10093991Y-13516460D02*
X10084467Y-13506936D01*
X10084467Y-13506936D02*
X10074944Y-13487888D01*
X10074944Y-13487888D02*
X10065420Y-13449793D01*
X10065420Y-13449793D02*
X10065420Y-13402174D01*
X10065420Y-13402174D02*
X10074944Y-13364079D01*
X10074944Y-13364079D02*
X10084467Y-13345031D01*
X10084467Y-13345031D02*
X10093991Y-13335508D01*
X10093991Y-13335508D02*
X10113039Y-13325984D01*
X10265420Y-13525984D02*
X10265420Y-13392650D01*
X10265420Y-13411698D02*
X10274944Y-13402174D01*
X10274944Y-13402174D02*
X10293991Y-13392650D01*
X10293991Y-13392650D02*
X10322563Y-13392650D01*
X10322563Y-13392650D02*
X10341610Y-13402174D01*
X10341610Y-13402174D02*
X10351134Y-13421222D01*
X10351134Y-13421222D02*
X10351134Y-13525984D01*
X10351134Y-13421222D02*
X10360658Y-13402174D01*
X10360658Y-13402174D02*
X10379705Y-13392650D01*
X10379705Y-13392650D02*
X10408277Y-13392650D01*
X10408277Y-13392650D02*
X10427325Y-13402174D01*
X10427325Y-13402174D02*
X10436848Y-13421222D01*
X10436848Y-13421222D02*
X10436848Y-13525984D01*
X10532086Y-13525984D02*
X10532086Y-13392650D01*
X10532086Y-13411698D02*
X10541610Y-13402174D01*
X10541610Y-13402174D02*
X10560658Y-13392650D01*
X10560658Y-13392650D02*
X10589229Y-13392650D01*
X10589229Y-13392650D02*
X10608277Y-13402174D01*
X10608277Y-13402174D02*
X10617801Y-13421222D01*
X10617801Y-13421222D02*
X10617801Y-13525984D01*
X10617801Y-13421222D02*
X10627325Y-13402174D01*
X10627325Y-13402174D02*
X10646372Y-13392650D01*
X10646372Y-13392650D02*
X10674944Y-13392650D01*
X10674944Y-13392650D02*
X10693991Y-13402174D01*
X10693991Y-13402174D02*
X10703515Y-13421222D01*
X10703515Y-13421222D02*
X10703515Y-13525984D01*
X11093991Y-13316460D02*
X10922563Y-13573603D01*
X11351134Y-13325984D02*
X11370182Y-13325984D01*
X11370182Y-13325984D02*
X11389229Y-13335508D01*
X11389229Y-13335508D02*
X11398753Y-13345031D01*
X11398753Y-13345031D02*
X11408277Y-13364079D01*
X11408277Y-13364079D02*
X11417801Y-13402174D01*
X11417801Y-13402174D02*
X11417801Y-13449793D01*
X11417801Y-13449793D02*
X11408277Y-13487888D01*
X11408277Y-13487888D02*
X11398753Y-13506936D01*
X11398753Y-13506936D02*
X11389229Y-13516460D01*
X11389229Y-13516460D02*
X11370182Y-13525984D01*
X11370182Y-13525984D02*
X11351134Y-13525984D01*
X11351134Y-13525984D02*
X11332086Y-13516460D01*
X11332086Y-13516460D02*
X11322563Y-13506936D01*
X11322563Y-13506936D02*
X11313039Y-13487888D01*
X11313039Y-13487888D02*
X11303515Y-13449793D01*
X11303515Y-13449793D02*
X11303515Y-13402174D01*
X11303515Y-13402174D02*
X11313039Y-13364079D01*
X11313039Y-13364079D02*
X11322563Y-13345031D01*
X11322563Y-13345031D02*
X11332086Y-13335508D01*
X11332086Y-13335508D02*
X11351134Y-13325984D01*
X11503515Y-13506936D02*
X11513039Y-13516460D01*
X11513039Y-13516460D02*
X11503515Y-13525984D01*
X11503515Y-13525984D02*
X11493991Y-13516460D01*
X11493991Y-13516460D02*
X11503515Y-13506936D01*
X11503515Y-13506936D02*
X11503515Y-13525984D01*
X11636848Y-13325984D02*
X11655896Y-13325984D01*
X11655896Y-13325984D02*
X11674944Y-13335508D01*
X11674944Y-13335508D02*
X11684467Y-13345031D01*
X11684467Y-13345031D02*
X11693991Y-13364079D01*
X11693991Y-13364079D02*
X11703515Y-13402174D01*
X11703515Y-13402174D02*
X11703515Y-13449793D01*
X11703515Y-13449793D02*
X11693991Y-13487888D01*
X11693991Y-13487888D02*
X11684467Y-13506936D01*
X11684467Y-13506936D02*
X11674944Y-13516460D01*
X11674944Y-13516460D02*
X11655896Y-13525984D01*
X11655896Y-13525984D02*
X11636848Y-13525984D01*
X11636848Y-13525984D02*
X11617801Y-13516460D01*
X11617801Y-13516460D02*
X11608277Y-13506936D01*
X11608277Y-13506936D02*
X11598753Y-13487888D01*
X11598753Y-13487888D02*
X11589229Y-13449793D01*
X11589229Y-13449793D02*
X11589229Y-13402174D01*
X11589229Y-13402174D02*
X11598753Y-13364079D01*
X11598753Y-13364079D02*
X11608277Y-13345031D01*
X11608277Y-13345031D02*
X11617801Y-13335508D01*
X11617801Y-13335508D02*
X11636848Y-13325984D01*
X11779706Y-13345031D02*
X11789229Y-13335508D01*
X11789229Y-13335508D02*
X11808277Y-13325984D01*
X11808277Y-13325984D02*
X11855896Y-13325984D01*
X11855896Y-13325984D02*
X11874944Y-13335508D01*
X11874944Y-13335508D02*
X11884467Y-13345031D01*
X11884467Y-13345031D02*
X11893991Y-13364079D01*
X11893991Y-13364079D02*
X11893991Y-13383127D01*
X11893991Y-13383127D02*
X11884467Y-13411698D01*
X11884467Y-13411698D02*
X11770182Y-13525984D01*
X11770182Y-13525984D02*
X11893991Y-13525984D01*
X11989229Y-13525984D02*
X12027325Y-13525984D01*
X12027325Y-13525984D02*
X12046372Y-13516460D01*
X12046372Y-13516460D02*
X12055896Y-13506936D01*
X12055896Y-13506936D02*
X12074944Y-13478365D01*
X12074944Y-13478365D02*
X12084467Y-13440269D01*
X12084467Y-13440269D02*
X12084467Y-13364079D01*
X12084467Y-13364079D02*
X12074944Y-13345031D01*
X12074944Y-13345031D02*
X12065420Y-13335508D01*
X12065420Y-13335508D02*
X12046372Y-13325984D01*
X12046372Y-13325984D02*
X12008277Y-13325984D01*
X12008277Y-13325984D02*
X11989229Y-13335508D01*
X11989229Y-13335508D02*
X11979706Y-13345031D01*
X11979706Y-13345031D02*
X11970182Y-13364079D01*
X11970182Y-13364079D02*
X11970182Y-13411698D01*
X11970182Y-13411698D02*
X11979706Y-13430746D01*
X11979706Y-13430746D02*
X11989229Y-13440269D01*
X11989229Y-13440269D02*
X12008277Y-13449793D01*
X12008277Y-13449793D02*
X12046372Y-13449793D01*
X12046372Y-13449793D02*
X12065420Y-13440269D01*
X12065420Y-13440269D02*
X12074944Y-13430746D01*
X12074944Y-13430746D02*
X12084467Y-13411698D01*
X12265420Y-13325984D02*
X12170182Y-13325984D01*
X12170182Y-13325984D02*
X12160658Y-13421222D01*
X12160658Y-13421222D02*
X12170182Y-13411698D01*
X12170182Y-13411698D02*
X12189229Y-13402174D01*
X12189229Y-13402174D02*
X12236848Y-13402174D01*
X12236848Y-13402174D02*
X12255896Y-13411698D01*
X12255896Y-13411698D02*
X12265420Y-13421222D01*
X12265420Y-13421222D02*
X12274944Y-13440269D01*
X12274944Y-13440269D02*
X12274944Y-13487888D01*
X12274944Y-13487888D02*
X12265420Y-13506936D01*
X12265420Y-13506936D02*
X12255896Y-13516460D01*
X12255896Y-13516460D02*
X12236848Y-13525984D01*
X12236848Y-13525984D02*
X12189229Y-13525984D01*
X12189229Y-13525984D02*
X12170182Y-13516460D01*
X12170182Y-13516460D02*
X12160658Y-13506936D01*
X12351134Y-13325984D02*
X12351134Y-13364079D01*
X12427325Y-13325984D02*
X12427325Y-13364079D01*
X12722563Y-13602174D02*
X12713039Y-13592650D01*
X12713039Y-13592650D02*
X12693991Y-13564079D01*
X12693991Y-13564079D02*
X12684468Y-13545031D01*
X12684468Y-13545031D02*
X12674944Y-13516460D01*
X12674944Y-13516460D02*
X12665420Y-13468841D01*
X12665420Y-13468841D02*
X12665420Y-13430746D01*
X12665420Y-13430746D02*
X12674944Y-13383127D01*
X12674944Y-13383127D02*
X12684468Y-13354555D01*
X12684468Y-13354555D02*
X12693991Y-13335508D01*
X12693991Y-13335508D02*
X12713039Y-13306936D01*
X12713039Y-13306936D02*
X12722563Y-13297412D01*
X12789229Y-13345031D02*
X12798753Y-13335508D01*
X12798753Y-13335508D02*
X12817801Y-13325984D01*
X12817801Y-13325984D02*
X12865420Y-13325984D01*
X12865420Y-13325984D02*
X12884468Y-13335508D01*
X12884468Y-13335508D02*
X12893991Y-13345031D01*
X12893991Y-13345031D02*
X12903515Y-13364079D01*
X12903515Y-13364079D02*
X12903515Y-13383127D01*
X12903515Y-13383127D02*
X12893991Y-13411698D01*
X12893991Y-13411698D02*
X12779706Y-13525984D01*
X12779706Y-13525984D02*
X12903515Y-13525984D01*
X13141610Y-13525984D02*
X13141610Y-13325984D01*
X13227325Y-13525984D02*
X13227325Y-13421222D01*
X13227325Y-13421222D02*
X13217801Y-13402174D01*
X13217801Y-13402174D02*
X13198753Y-13392650D01*
X13198753Y-13392650D02*
X13170182Y-13392650D01*
X13170182Y-13392650D02*
X13151134Y-13402174D01*
X13151134Y-13402174D02*
X13141610Y-13411698D01*
X13351134Y-13525984D02*
X13332087Y-13516460D01*
X13332087Y-13516460D02*
X13322563Y-13506936D01*
X13322563Y-13506936D02*
X13313039Y-13487888D01*
X13313039Y-13487888D02*
X13313039Y-13430746D01*
X13313039Y-13430746D02*
X13322563Y-13411698D01*
X13322563Y-13411698D02*
X13332087Y-13402174D01*
X13332087Y-13402174D02*
X13351134Y-13392650D01*
X13351134Y-13392650D02*
X13379706Y-13392650D01*
X13379706Y-13392650D02*
X13398753Y-13402174D01*
X13398753Y-13402174D02*
X13408277Y-13411698D01*
X13408277Y-13411698D02*
X13417801Y-13430746D01*
X13417801Y-13430746D02*
X13417801Y-13487888D01*
X13417801Y-13487888D02*
X13408277Y-13506936D01*
X13408277Y-13506936D02*
X13398753Y-13516460D01*
X13398753Y-13516460D02*
X13379706Y-13525984D01*
X13379706Y-13525984D02*
X13351134Y-13525984D01*
X13532087Y-13525984D02*
X13513039Y-13516460D01*
X13513039Y-13516460D02*
X13503515Y-13497412D01*
X13503515Y-13497412D02*
X13503515Y-13325984D01*
X13684468Y-13516460D02*
X13665420Y-13525984D01*
X13665420Y-13525984D02*
X13627325Y-13525984D01*
X13627325Y-13525984D02*
X13608277Y-13516460D01*
X13608277Y-13516460D02*
X13598753Y-13497412D01*
X13598753Y-13497412D02*
X13598753Y-13421222D01*
X13598753Y-13421222D02*
X13608277Y-13402174D01*
X13608277Y-13402174D02*
X13627325Y-13392650D01*
X13627325Y-13392650D02*
X13665420Y-13392650D01*
X13665420Y-13392650D02*
X13684468Y-13402174D01*
X13684468Y-13402174D02*
X13693991Y-13421222D01*
X13693991Y-13421222D02*
X13693991Y-13440269D01*
X13693991Y-13440269D02*
X13598753Y-13459317D01*
X13770182Y-13516460D02*
X13789230Y-13525984D01*
X13789230Y-13525984D02*
X13827325Y-13525984D01*
X13827325Y-13525984D02*
X13846372Y-13516460D01*
X13846372Y-13516460D02*
X13855896Y-13497412D01*
X13855896Y-13497412D02*
X13855896Y-13487888D01*
X13855896Y-13487888D02*
X13846372Y-13468841D01*
X13846372Y-13468841D02*
X13827325Y-13459317D01*
X13827325Y-13459317D02*
X13798753Y-13459317D01*
X13798753Y-13459317D02*
X13779706Y-13449793D01*
X13779706Y-13449793D02*
X13770182Y-13430746D01*
X13770182Y-13430746D02*
X13770182Y-13421222D01*
X13770182Y-13421222D02*
X13779706Y-13402174D01*
X13779706Y-13402174D02*
X13798753Y-13392650D01*
X13798753Y-13392650D02*
X13827325Y-13392650D01*
X13827325Y-13392650D02*
X13846372Y-13402174D01*
X13922563Y-13602174D02*
X13932087Y-13592650D01*
X13932087Y-13592650D02*
X13951134Y-13564079D01*
X13951134Y-13564079D02*
X13960658Y-13545031D01*
X13960658Y-13545031D02*
X13970182Y-13516460D01*
X13970182Y-13516460D02*
X13979706Y-13468841D01*
X13979706Y-13468841D02*
X13979706Y-13430746D01*
X13979706Y-13430746D02*
X13970182Y-13383127D01*
X13970182Y-13383127D02*
X13960658Y-13354555D01*
X13960658Y-13354555D02*
X13951134Y-13335508D01*
X13951134Y-13335508D02*
X13932087Y-13306936D01*
X13932087Y-13306936D02*
X13922563Y-13297412D01*
D12*
X9107500Y-13738500D02*
X9147500Y-13698500D01*
X9107500Y-13658500D01*
X9067500Y-13698500D01*
X9107500Y-13738500D01*
D11*
X9446372Y-13589984D02*
X9465420Y-13589984D01*
X9465420Y-13589984D02*
X9484467Y-13599508D01*
X9484467Y-13599508D02*
X9493991Y-13609031D01*
X9493991Y-13609031D02*
X9503515Y-13628079D01*
X9503515Y-13628079D02*
X9513039Y-13666174D01*
X9513039Y-13666174D02*
X9513039Y-13713793D01*
X9513039Y-13713793D02*
X9503515Y-13751888D01*
X9503515Y-13751888D02*
X9493991Y-13770936D01*
X9493991Y-13770936D02*
X9484467Y-13780460D01*
X9484467Y-13780460D02*
X9465420Y-13789984D01*
X9465420Y-13789984D02*
X9446372Y-13789984D01*
X9446372Y-13789984D02*
X9427324Y-13780460D01*
X9427324Y-13780460D02*
X9417801Y-13770936D01*
X9417801Y-13770936D02*
X9408277Y-13751888D01*
X9408277Y-13751888D02*
X9398753Y-13713793D01*
X9398753Y-13713793D02*
X9398753Y-13666174D01*
X9398753Y-13666174D02*
X9408277Y-13628079D01*
X9408277Y-13628079D02*
X9417801Y-13609031D01*
X9417801Y-13609031D02*
X9427324Y-13599508D01*
X9427324Y-13599508D02*
X9446372Y-13589984D01*
X9598753Y-13770936D02*
X9608277Y-13780460D01*
X9608277Y-13780460D02*
X9598753Y-13789984D01*
X9598753Y-13789984D02*
X9589229Y-13780460D01*
X9589229Y-13780460D02*
X9598753Y-13770936D01*
X9598753Y-13770936D02*
X9598753Y-13789984D01*
X9722563Y-13675698D02*
X9703515Y-13666174D01*
X9703515Y-13666174D02*
X9693991Y-13656650D01*
X9693991Y-13656650D02*
X9684467Y-13637603D01*
X9684467Y-13637603D02*
X9684467Y-13628079D01*
X9684467Y-13628079D02*
X9693991Y-13609031D01*
X9693991Y-13609031D02*
X9703515Y-13599508D01*
X9703515Y-13599508D02*
X9722563Y-13589984D01*
X9722563Y-13589984D02*
X9760658Y-13589984D01*
X9760658Y-13589984D02*
X9779705Y-13599508D01*
X9779705Y-13599508D02*
X9789229Y-13609031D01*
X9789229Y-13609031D02*
X9798753Y-13628079D01*
X9798753Y-13628079D02*
X9798753Y-13637603D01*
X9798753Y-13637603D02*
X9789229Y-13656650D01*
X9789229Y-13656650D02*
X9779705Y-13666174D01*
X9779705Y-13666174D02*
X9760658Y-13675698D01*
X9760658Y-13675698D02*
X9722563Y-13675698D01*
X9722563Y-13675698D02*
X9703515Y-13685222D01*
X9703515Y-13685222D02*
X9693991Y-13694746D01*
X9693991Y-13694746D02*
X9684467Y-13713793D01*
X9684467Y-13713793D02*
X9684467Y-13751888D01*
X9684467Y-13751888D02*
X9693991Y-13770936D01*
X9693991Y-13770936D02*
X9703515Y-13780460D01*
X9703515Y-13780460D02*
X9722563Y-13789984D01*
X9722563Y-13789984D02*
X9760658Y-13789984D01*
X9760658Y-13789984D02*
X9779705Y-13780460D01*
X9779705Y-13780460D02*
X9789229Y-13770936D01*
X9789229Y-13770936D02*
X9798753Y-13751888D01*
X9798753Y-13751888D02*
X9798753Y-13713793D01*
X9798753Y-13713793D02*
X9789229Y-13694746D01*
X9789229Y-13694746D02*
X9779705Y-13685222D01*
X9779705Y-13685222D02*
X9760658Y-13675698D01*
X9922563Y-13589984D02*
X9941610Y-13589984D01*
X9941610Y-13589984D02*
X9960658Y-13599508D01*
X9960658Y-13599508D02*
X9970182Y-13609031D01*
X9970182Y-13609031D02*
X9979705Y-13628079D01*
X9979705Y-13628079D02*
X9989229Y-13666174D01*
X9989229Y-13666174D02*
X9989229Y-13713793D01*
X9989229Y-13713793D02*
X9979705Y-13751888D01*
X9979705Y-13751888D02*
X9970182Y-13770936D01*
X9970182Y-13770936D02*
X9960658Y-13780460D01*
X9960658Y-13780460D02*
X9941610Y-13789984D01*
X9941610Y-13789984D02*
X9922563Y-13789984D01*
X9922563Y-13789984D02*
X9903515Y-13780460D01*
X9903515Y-13780460D02*
X9893991Y-13770936D01*
X9893991Y-13770936D02*
X9884467Y-13751888D01*
X9884467Y-13751888D02*
X9874944Y-13713793D01*
X9874944Y-13713793D02*
X9874944Y-13666174D01*
X9874944Y-13666174D02*
X9884467Y-13628079D01*
X9884467Y-13628079D02*
X9893991Y-13609031D01*
X9893991Y-13609031D02*
X9903515Y-13599508D01*
X9903515Y-13599508D02*
X9922563Y-13589984D01*
X10113039Y-13589984D02*
X10132086Y-13589984D01*
X10132086Y-13589984D02*
X10151134Y-13599508D01*
X10151134Y-13599508D02*
X10160658Y-13609031D01*
X10160658Y-13609031D02*
X10170182Y-13628079D01*
X10170182Y-13628079D02*
X10179705Y-13666174D01*
X10179705Y-13666174D02*
X10179705Y-13713793D01*
X10179705Y-13713793D02*
X10170182Y-13751888D01*
X10170182Y-13751888D02*
X10160658Y-13770936D01*
X10160658Y-13770936D02*
X10151134Y-13780460D01*
X10151134Y-13780460D02*
X10132086Y-13789984D01*
X10132086Y-13789984D02*
X10113039Y-13789984D01*
X10113039Y-13789984D02*
X10093991Y-13780460D01*
X10093991Y-13780460D02*
X10084467Y-13770936D01*
X10084467Y-13770936D02*
X10074944Y-13751888D01*
X10074944Y-13751888D02*
X10065420Y-13713793D01*
X10065420Y-13713793D02*
X10065420Y-13666174D01*
X10065420Y-13666174D02*
X10074944Y-13628079D01*
X10074944Y-13628079D02*
X10084467Y-13609031D01*
X10084467Y-13609031D02*
X10093991Y-13599508D01*
X10093991Y-13599508D02*
X10113039Y-13589984D01*
X10265420Y-13789984D02*
X10265420Y-13656650D01*
X10265420Y-13675698D02*
X10274944Y-13666174D01*
X10274944Y-13666174D02*
X10293991Y-13656650D01*
X10293991Y-13656650D02*
X10322563Y-13656650D01*
X10322563Y-13656650D02*
X10341610Y-13666174D01*
X10341610Y-13666174D02*
X10351134Y-13685222D01*
X10351134Y-13685222D02*
X10351134Y-13789984D01*
X10351134Y-13685222D02*
X10360658Y-13666174D01*
X10360658Y-13666174D02*
X10379705Y-13656650D01*
X10379705Y-13656650D02*
X10408277Y-13656650D01*
X10408277Y-13656650D02*
X10427325Y-13666174D01*
X10427325Y-13666174D02*
X10436848Y-13685222D01*
X10436848Y-13685222D02*
X10436848Y-13789984D01*
X10532086Y-13789984D02*
X10532086Y-13656650D01*
X10532086Y-13675698D02*
X10541610Y-13666174D01*
X10541610Y-13666174D02*
X10560658Y-13656650D01*
X10560658Y-13656650D02*
X10589229Y-13656650D01*
X10589229Y-13656650D02*
X10608277Y-13666174D01*
X10608277Y-13666174D02*
X10617801Y-13685222D01*
X10617801Y-13685222D02*
X10617801Y-13789984D01*
X10617801Y-13685222D02*
X10627325Y-13666174D01*
X10627325Y-13666174D02*
X10646372Y-13656650D01*
X10646372Y-13656650D02*
X10674944Y-13656650D01*
X10674944Y-13656650D02*
X10693991Y-13666174D01*
X10693991Y-13666174D02*
X10703515Y-13685222D01*
X10703515Y-13685222D02*
X10703515Y-13789984D01*
X11093991Y-13580460D02*
X10922563Y-13837603D01*
X11351134Y-13589984D02*
X11370182Y-13589984D01*
X11370182Y-13589984D02*
X11389229Y-13599508D01*
X11389229Y-13599508D02*
X11398753Y-13609031D01*
X11398753Y-13609031D02*
X11408277Y-13628079D01*
X11408277Y-13628079D02*
X11417801Y-13666174D01*
X11417801Y-13666174D02*
X11417801Y-13713793D01*
X11417801Y-13713793D02*
X11408277Y-13751888D01*
X11408277Y-13751888D02*
X11398753Y-13770936D01*
X11398753Y-13770936D02*
X11389229Y-13780460D01*
X11389229Y-13780460D02*
X11370182Y-13789984D01*
X11370182Y-13789984D02*
X11351134Y-13789984D01*
X11351134Y-13789984D02*
X11332086Y-13780460D01*
X11332086Y-13780460D02*
X11322563Y-13770936D01*
X11322563Y-13770936D02*
X11313039Y-13751888D01*
X11313039Y-13751888D02*
X11303515Y-13713793D01*
X11303515Y-13713793D02*
X11303515Y-13666174D01*
X11303515Y-13666174D02*
X11313039Y-13628079D01*
X11313039Y-13628079D02*
X11322563Y-13609031D01*
X11322563Y-13609031D02*
X11332086Y-13599508D01*
X11332086Y-13599508D02*
X11351134Y-13589984D01*
X11503515Y-13770936D02*
X11513039Y-13780460D01*
X11513039Y-13780460D02*
X11503515Y-13789984D01*
X11503515Y-13789984D02*
X11493991Y-13780460D01*
X11493991Y-13780460D02*
X11503515Y-13770936D01*
X11503515Y-13770936D02*
X11503515Y-13789984D01*
X11636848Y-13589984D02*
X11655896Y-13589984D01*
X11655896Y-13589984D02*
X11674944Y-13599508D01*
X11674944Y-13599508D02*
X11684467Y-13609031D01*
X11684467Y-13609031D02*
X11693991Y-13628079D01*
X11693991Y-13628079D02*
X11703515Y-13666174D01*
X11703515Y-13666174D02*
X11703515Y-13713793D01*
X11703515Y-13713793D02*
X11693991Y-13751888D01*
X11693991Y-13751888D02*
X11684467Y-13770936D01*
X11684467Y-13770936D02*
X11674944Y-13780460D01*
X11674944Y-13780460D02*
X11655896Y-13789984D01*
X11655896Y-13789984D02*
X11636848Y-13789984D01*
X11636848Y-13789984D02*
X11617801Y-13780460D01*
X11617801Y-13780460D02*
X11608277Y-13770936D01*
X11608277Y-13770936D02*
X11598753Y-13751888D01*
X11598753Y-13751888D02*
X11589229Y-13713793D01*
X11589229Y-13713793D02*
X11589229Y-13666174D01*
X11589229Y-13666174D02*
X11598753Y-13628079D01*
X11598753Y-13628079D02*
X11608277Y-13609031D01*
X11608277Y-13609031D02*
X11617801Y-13599508D01*
X11617801Y-13599508D02*
X11636848Y-13589984D01*
X11770182Y-13589984D02*
X11893991Y-13589984D01*
X11893991Y-13589984D02*
X11827325Y-13666174D01*
X11827325Y-13666174D02*
X11855896Y-13666174D01*
X11855896Y-13666174D02*
X11874944Y-13675698D01*
X11874944Y-13675698D02*
X11884467Y-13685222D01*
X11884467Y-13685222D02*
X11893991Y-13704269D01*
X11893991Y-13704269D02*
X11893991Y-13751888D01*
X11893991Y-13751888D02*
X11884467Y-13770936D01*
X11884467Y-13770936D02*
X11874944Y-13780460D01*
X11874944Y-13780460D02*
X11855896Y-13789984D01*
X11855896Y-13789984D02*
X11798753Y-13789984D01*
X11798753Y-13789984D02*
X11779706Y-13780460D01*
X11779706Y-13780460D02*
X11770182Y-13770936D01*
X12084467Y-13789984D02*
X11970182Y-13789984D01*
X12027325Y-13789984D02*
X12027325Y-13589984D01*
X12027325Y-13589984D02*
X12008277Y-13618555D01*
X12008277Y-13618555D02*
X11989229Y-13637603D01*
X11989229Y-13637603D02*
X11970182Y-13647127D01*
X12265420Y-13589984D02*
X12170182Y-13589984D01*
X12170182Y-13589984D02*
X12160658Y-13685222D01*
X12160658Y-13685222D02*
X12170182Y-13675698D01*
X12170182Y-13675698D02*
X12189229Y-13666174D01*
X12189229Y-13666174D02*
X12236848Y-13666174D01*
X12236848Y-13666174D02*
X12255896Y-13675698D01*
X12255896Y-13675698D02*
X12265420Y-13685222D01*
X12265420Y-13685222D02*
X12274944Y-13704269D01*
X12274944Y-13704269D02*
X12274944Y-13751888D01*
X12274944Y-13751888D02*
X12265420Y-13770936D01*
X12265420Y-13770936D02*
X12255896Y-13780460D01*
X12255896Y-13780460D02*
X12236848Y-13789984D01*
X12236848Y-13789984D02*
X12189229Y-13789984D01*
X12189229Y-13789984D02*
X12170182Y-13780460D01*
X12170182Y-13780460D02*
X12160658Y-13770936D01*
X12351134Y-13589984D02*
X12351134Y-13628079D01*
X12427325Y-13589984D02*
X12427325Y-13628079D01*
X12722563Y-13866174D02*
X12713039Y-13856650D01*
X12713039Y-13856650D02*
X12693991Y-13828079D01*
X12693991Y-13828079D02*
X12684468Y-13809031D01*
X12684468Y-13809031D02*
X12674944Y-13780460D01*
X12674944Y-13780460D02*
X12665420Y-13732841D01*
X12665420Y-13732841D02*
X12665420Y-13694746D01*
X12665420Y-13694746D02*
X12674944Y-13647127D01*
X12674944Y-13647127D02*
X12684468Y-13618555D01*
X12684468Y-13618555D02*
X12693991Y-13599508D01*
X12693991Y-13599508D02*
X12713039Y-13570936D01*
X12713039Y-13570936D02*
X12722563Y-13561412D01*
X12836848Y-13589984D02*
X12855896Y-13589984D01*
X12855896Y-13589984D02*
X12874944Y-13599508D01*
X12874944Y-13599508D02*
X12884468Y-13609031D01*
X12884468Y-13609031D02*
X12893991Y-13628079D01*
X12893991Y-13628079D02*
X12903515Y-13666174D01*
X12903515Y-13666174D02*
X12903515Y-13713793D01*
X12903515Y-13713793D02*
X12893991Y-13751888D01*
X12893991Y-13751888D02*
X12884468Y-13770936D01*
X12884468Y-13770936D02*
X12874944Y-13780460D01*
X12874944Y-13780460D02*
X12855896Y-13789984D01*
X12855896Y-13789984D02*
X12836848Y-13789984D01*
X12836848Y-13789984D02*
X12817801Y-13780460D01*
X12817801Y-13780460D02*
X12808277Y-13770936D01*
X12808277Y-13770936D02*
X12798753Y-13751888D01*
X12798753Y-13751888D02*
X12789229Y-13713793D01*
X12789229Y-13713793D02*
X12789229Y-13666174D01*
X12789229Y-13666174D02*
X12798753Y-13628079D01*
X12798753Y-13628079D02*
X12808277Y-13609031D01*
X12808277Y-13609031D02*
X12817801Y-13599508D01*
X12817801Y-13599508D02*
X12836848Y-13589984D01*
X13141610Y-13789984D02*
X13141610Y-13589984D01*
X13227325Y-13789984D02*
X13227325Y-13685222D01*
X13227325Y-13685222D02*
X13217801Y-13666174D01*
X13217801Y-13666174D02*
X13198753Y-13656650D01*
X13198753Y-13656650D02*
X13170182Y-13656650D01*
X13170182Y-13656650D02*
X13151134Y-13666174D01*
X13151134Y-13666174D02*
X13141610Y-13675698D01*
X13351134Y-13789984D02*
X13332087Y-13780460D01*
X13332087Y-13780460D02*
X13322563Y-13770936D01*
X13322563Y-13770936D02*
X13313039Y-13751888D01*
X13313039Y-13751888D02*
X13313039Y-13694746D01*
X13313039Y-13694746D02*
X13322563Y-13675698D01*
X13322563Y-13675698D02*
X13332087Y-13666174D01*
X13332087Y-13666174D02*
X13351134Y-13656650D01*
X13351134Y-13656650D02*
X13379706Y-13656650D01*
X13379706Y-13656650D02*
X13398753Y-13666174D01*
X13398753Y-13666174D02*
X13408277Y-13675698D01*
X13408277Y-13675698D02*
X13417801Y-13694746D01*
X13417801Y-13694746D02*
X13417801Y-13751888D01*
X13417801Y-13751888D02*
X13408277Y-13770936D01*
X13408277Y-13770936D02*
X13398753Y-13780460D01*
X13398753Y-13780460D02*
X13379706Y-13789984D01*
X13379706Y-13789984D02*
X13351134Y-13789984D01*
X13532087Y-13789984D02*
X13513039Y-13780460D01*
X13513039Y-13780460D02*
X13503515Y-13761412D01*
X13503515Y-13761412D02*
X13503515Y-13589984D01*
X13684468Y-13780460D02*
X13665420Y-13789984D01*
X13665420Y-13789984D02*
X13627325Y-13789984D01*
X13627325Y-13789984D02*
X13608277Y-13780460D01*
X13608277Y-13780460D02*
X13598753Y-13761412D01*
X13598753Y-13761412D02*
X13598753Y-13685222D01*
X13598753Y-13685222D02*
X13608277Y-13666174D01*
X13608277Y-13666174D02*
X13627325Y-13656650D01*
X13627325Y-13656650D02*
X13665420Y-13656650D01*
X13665420Y-13656650D02*
X13684468Y-13666174D01*
X13684468Y-13666174D02*
X13693991Y-13685222D01*
X13693991Y-13685222D02*
X13693991Y-13704269D01*
X13693991Y-13704269D02*
X13598753Y-13723317D01*
X13770182Y-13780460D02*
X13789230Y-13789984D01*
X13789230Y-13789984D02*
X13827325Y-13789984D01*
X13827325Y-13789984D02*
X13846372Y-13780460D01*
X13846372Y-13780460D02*
X13855896Y-13761412D01*
X13855896Y-13761412D02*
X13855896Y-13751888D01*
X13855896Y-13751888D02*
X13846372Y-13732841D01*
X13846372Y-13732841D02*
X13827325Y-13723317D01*
X13827325Y-13723317D02*
X13798753Y-13723317D01*
X13798753Y-13723317D02*
X13779706Y-13713793D01*
X13779706Y-13713793D02*
X13770182Y-13694746D01*
X13770182Y-13694746D02*
X13770182Y-13685222D01*
X13770182Y-13685222D02*
X13779706Y-13666174D01*
X13779706Y-13666174D02*
X13798753Y-13656650D01*
X13798753Y-13656650D02*
X13827325Y-13656650D01*
X13827325Y-13656650D02*
X13846372Y-13666174D01*
X14093992Y-13713793D02*
X14246373Y-13713793D01*
X14170182Y-13789984D02*
X14170182Y-13637603D01*
X14474944Y-13589984D02*
X14598753Y-13589984D01*
X14598753Y-13589984D02*
X14532087Y-13666174D01*
X14532087Y-13666174D02*
X14560658Y-13666174D01*
X14560658Y-13666174D02*
X14579706Y-13675698D01*
X14579706Y-13675698D02*
X14589230Y-13685222D01*
X14589230Y-13685222D02*
X14598753Y-13704269D01*
X14598753Y-13704269D02*
X14598753Y-13751888D01*
X14598753Y-13751888D02*
X14589230Y-13770936D01*
X14589230Y-13770936D02*
X14579706Y-13780460D01*
X14579706Y-13780460D02*
X14560658Y-13789984D01*
X14560658Y-13789984D02*
X14503515Y-13789984D01*
X14503515Y-13789984D02*
X14484468Y-13780460D01*
X14484468Y-13780460D02*
X14474944Y-13770936D01*
X14827325Y-13780460D02*
X14846373Y-13789984D01*
X14846373Y-13789984D02*
X14884468Y-13789984D01*
X14884468Y-13789984D02*
X14903515Y-13780460D01*
X14903515Y-13780460D02*
X14913039Y-13761412D01*
X14913039Y-13761412D02*
X14913039Y-13751888D01*
X14913039Y-13751888D02*
X14903515Y-13732841D01*
X14903515Y-13732841D02*
X14884468Y-13723317D01*
X14884468Y-13723317D02*
X14855896Y-13723317D01*
X14855896Y-13723317D02*
X14836849Y-13713793D01*
X14836849Y-13713793D02*
X14827325Y-13694746D01*
X14827325Y-13694746D02*
X14827325Y-13685222D01*
X14827325Y-13685222D02*
X14836849Y-13666174D01*
X14836849Y-13666174D02*
X14855896Y-13656650D01*
X14855896Y-13656650D02*
X14884468Y-13656650D01*
X14884468Y-13656650D02*
X14903515Y-13666174D01*
X15027325Y-13789984D02*
X15008277Y-13780460D01*
X15008277Y-13780460D02*
X14998754Y-13761412D01*
X14998754Y-13761412D02*
X14998754Y-13589984D01*
X15132087Y-13789984D02*
X15113039Y-13780460D01*
X15113039Y-13780460D02*
X15103515Y-13770936D01*
X15103515Y-13770936D02*
X15093992Y-13751888D01*
X15093992Y-13751888D02*
X15093992Y-13694746D01*
X15093992Y-13694746D02*
X15103515Y-13675698D01*
X15103515Y-13675698D02*
X15113039Y-13666174D01*
X15113039Y-13666174D02*
X15132087Y-13656650D01*
X15132087Y-13656650D02*
X15160658Y-13656650D01*
X15160658Y-13656650D02*
X15179706Y-13666174D01*
X15179706Y-13666174D02*
X15189230Y-13675698D01*
X15189230Y-13675698D02*
X15198754Y-13694746D01*
X15198754Y-13694746D02*
X15198754Y-13751888D01*
X15198754Y-13751888D02*
X15189230Y-13770936D01*
X15189230Y-13770936D02*
X15179706Y-13780460D01*
X15179706Y-13780460D02*
X15160658Y-13789984D01*
X15160658Y-13789984D02*
X15132087Y-13789984D01*
X15255896Y-13656650D02*
X15332087Y-13656650D01*
X15284468Y-13589984D02*
X15284468Y-13761412D01*
X15284468Y-13761412D02*
X15293992Y-13780460D01*
X15293992Y-13780460D02*
X15313039Y-13789984D01*
X15313039Y-13789984D02*
X15332087Y-13789984D01*
X15389230Y-13780460D02*
X15408277Y-13789984D01*
X15408277Y-13789984D02*
X15446373Y-13789984D01*
X15446373Y-13789984D02*
X15465420Y-13780460D01*
X15465420Y-13780460D02*
X15474944Y-13761412D01*
X15474944Y-13761412D02*
X15474944Y-13751888D01*
X15474944Y-13751888D02*
X15465420Y-13732841D01*
X15465420Y-13732841D02*
X15446373Y-13723317D01*
X15446373Y-13723317D02*
X15417801Y-13723317D01*
X15417801Y-13723317D02*
X15398754Y-13713793D01*
X15398754Y-13713793D02*
X15389230Y-13694746D01*
X15389230Y-13694746D02*
X15389230Y-13685222D01*
X15389230Y-13685222D02*
X15398754Y-13666174D01*
X15398754Y-13666174D02*
X15417801Y-13656650D01*
X15417801Y-13656650D02*
X15446373Y-13656650D01*
X15446373Y-13656650D02*
X15465420Y-13666174D01*
X15541611Y-13866174D02*
X15551135Y-13856650D01*
X15551135Y-13856650D02*
X15570182Y-13828079D01*
X15570182Y-13828079D02*
X15579706Y-13809031D01*
X15579706Y-13809031D02*
X15589230Y-13780460D01*
X15589230Y-13780460D02*
X15598754Y-13732841D01*
X15598754Y-13732841D02*
X15598754Y-13694746D01*
X15598754Y-13694746D02*
X15589230Y-13647127D01*
X15589230Y-13647127D02*
X15579706Y-13618555D01*
X15579706Y-13618555D02*
X15570182Y-13599508D01*
X15570182Y-13599508D02*
X15551135Y-13570936D01*
X15551135Y-13570936D02*
X15541611Y-13561412D01*
D12*
X9047500Y-13912500D02*
X9147500Y-14012500D01*
X9147500Y-13912500D02*
X9047500Y-14012500D01*
X9147500Y-13962500D02*
G75*
G02*
X9047500Y-13962500I-50000J0D01*
G01*
X9047500Y-13962500D02*
G75*
G02*
X9147500Y-13962500I50000J0D01*
G01*
D11*
X9513039Y-14053984D02*
X9398753Y-14053984D01*
X9455896Y-14053984D02*
X9455896Y-13853984D01*
X9455896Y-13853984D02*
X9436848Y-13882555D01*
X9436848Y-13882555D02*
X9417801Y-13901603D01*
X9417801Y-13901603D02*
X9398753Y-13911127D01*
X9598753Y-14034936D02*
X9608277Y-14044460D01*
X9608277Y-14044460D02*
X9598753Y-14053984D01*
X9598753Y-14053984D02*
X9589229Y-14044460D01*
X9589229Y-14044460D02*
X9598753Y-14034936D01*
X9598753Y-14034936D02*
X9598753Y-14053984D01*
X9732086Y-13853984D02*
X9751134Y-13853984D01*
X9751134Y-13853984D02*
X9770182Y-13863508D01*
X9770182Y-13863508D02*
X9779705Y-13873031D01*
X9779705Y-13873031D02*
X9789229Y-13892079D01*
X9789229Y-13892079D02*
X9798753Y-13930174D01*
X9798753Y-13930174D02*
X9798753Y-13977793D01*
X9798753Y-13977793D02*
X9789229Y-14015888D01*
X9789229Y-14015888D02*
X9779705Y-14034936D01*
X9779705Y-14034936D02*
X9770182Y-14044460D01*
X9770182Y-14044460D02*
X9751134Y-14053984D01*
X9751134Y-14053984D02*
X9732086Y-14053984D01*
X9732086Y-14053984D02*
X9713039Y-14044460D01*
X9713039Y-14044460D02*
X9703515Y-14034936D01*
X9703515Y-14034936D02*
X9693991Y-14015888D01*
X9693991Y-14015888D02*
X9684467Y-13977793D01*
X9684467Y-13977793D02*
X9684467Y-13930174D01*
X9684467Y-13930174D02*
X9693991Y-13892079D01*
X9693991Y-13892079D02*
X9703515Y-13873031D01*
X9703515Y-13873031D02*
X9713039Y-13863508D01*
X9713039Y-13863508D02*
X9732086Y-13853984D01*
X9922563Y-13853984D02*
X9941610Y-13853984D01*
X9941610Y-13853984D02*
X9960658Y-13863508D01*
X9960658Y-13863508D02*
X9970182Y-13873031D01*
X9970182Y-13873031D02*
X9979705Y-13892079D01*
X9979705Y-13892079D02*
X9989229Y-13930174D01*
X9989229Y-13930174D02*
X9989229Y-13977793D01*
X9989229Y-13977793D02*
X9979705Y-14015888D01*
X9979705Y-14015888D02*
X9970182Y-14034936D01*
X9970182Y-14034936D02*
X9960658Y-14044460D01*
X9960658Y-14044460D02*
X9941610Y-14053984D01*
X9941610Y-14053984D02*
X9922563Y-14053984D01*
X9922563Y-14053984D02*
X9903515Y-14044460D01*
X9903515Y-14044460D02*
X9893991Y-14034936D01*
X9893991Y-14034936D02*
X9884467Y-14015888D01*
X9884467Y-14015888D02*
X9874944Y-13977793D01*
X9874944Y-13977793D02*
X9874944Y-13930174D01*
X9874944Y-13930174D02*
X9884467Y-13892079D01*
X9884467Y-13892079D02*
X9893991Y-13873031D01*
X9893991Y-13873031D02*
X9903515Y-13863508D01*
X9903515Y-13863508D02*
X9922563Y-13853984D01*
X10113039Y-13853984D02*
X10132086Y-13853984D01*
X10132086Y-13853984D02*
X10151134Y-13863508D01*
X10151134Y-13863508D02*
X10160658Y-13873031D01*
X10160658Y-13873031D02*
X10170182Y-13892079D01*
X10170182Y-13892079D02*
X10179705Y-13930174D01*
X10179705Y-13930174D02*
X10179705Y-13977793D01*
X10179705Y-13977793D02*
X10170182Y-14015888D01*
X10170182Y-14015888D02*
X10160658Y-14034936D01*
X10160658Y-14034936D02*
X10151134Y-14044460D01*
X10151134Y-14044460D02*
X10132086Y-14053984D01*
X10132086Y-14053984D02*
X10113039Y-14053984D01*
X10113039Y-14053984D02*
X10093991Y-14044460D01*
X10093991Y-14044460D02*
X10084467Y-14034936D01*
X10084467Y-14034936D02*
X10074944Y-14015888D01*
X10074944Y-14015888D02*
X10065420Y-13977793D01*
X10065420Y-13977793D02*
X10065420Y-13930174D01*
X10065420Y-13930174D02*
X10074944Y-13892079D01*
X10074944Y-13892079D02*
X10084467Y-13873031D01*
X10084467Y-13873031D02*
X10093991Y-13863508D01*
X10093991Y-13863508D02*
X10113039Y-13853984D01*
X10265420Y-14053984D02*
X10265420Y-13920650D01*
X10265420Y-13939698D02*
X10274944Y-13930174D01*
X10274944Y-13930174D02*
X10293991Y-13920650D01*
X10293991Y-13920650D02*
X10322563Y-13920650D01*
X10322563Y-13920650D02*
X10341610Y-13930174D01*
X10341610Y-13930174D02*
X10351134Y-13949222D01*
X10351134Y-13949222D02*
X10351134Y-14053984D01*
X10351134Y-13949222D02*
X10360658Y-13930174D01*
X10360658Y-13930174D02*
X10379705Y-13920650D01*
X10379705Y-13920650D02*
X10408277Y-13920650D01*
X10408277Y-13920650D02*
X10427325Y-13930174D01*
X10427325Y-13930174D02*
X10436848Y-13949222D01*
X10436848Y-13949222D02*
X10436848Y-14053984D01*
X10532086Y-14053984D02*
X10532086Y-13920650D01*
X10532086Y-13939698D02*
X10541610Y-13930174D01*
X10541610Y-13930174D02*
X10560658Y-13920650D01*
X10560658Y-13920650D02*
X10589229Y-13920650D01*
X10589229Y-13920650D02*
X10608277Y-13930174D01*
X10608277Y-13930174D02*
X10617801Y-13949222D01*
X10617801Y-13949222D02*
X10617801Y-14053984D01*
X10617801Y-13949222D02*
X10627325Y-13930174D01*
X10627325Y-13930174D02*
X10646372Y-13920650D01*
X10646372Y-13920650D02*
X10674944Y-13920650D01*
X10674944Y-13920650D02*
X10693991Y-13930174D01*
X10693991Y-13930174D02*
X10703515Y-13949222D01*
X10703515Y-13949222D02*
X10703515Y-14053984D01*
X11093991Y-13844460D02*
X10922563Y-14101603D01*
X11351134Y-13853984D02*
X11370182Y-13853984D01*
X11370182Y-13853984D02*
X11389229Y-13863508D01*
X11389229Y-13863508D02*
X11398753Y-13873031D01*
X11398753Y-13873031D02*
X11408277Y-13892079D01*
X11408277Y-13892079D02*
X11417801Y-13930174D01*
X11417801Y-13930174D02*
X11417801Y-13977793D01*
X11417801Y-13977793D02*
X11408277Y-14015888D01*
X11408277Y-14015888D02*
X11398753Y-14034936D01*
X11398753Y-14034936D02*
X11389229Y-14044460D01*
X11389229Y-14044460D02*
X11370182Y-14053984D01*
X11370182Y-14053984D02*
X11351134Y-14053984D01*
X11351134Y-14053984D02*
X11332086Y-14044460D01*
X11332086Y-14044460D02*
X11322563Y-14034936D01*
X11322563Y-14034936D02*
X11313039Y-14015888D01*
X11313039Y-14015888D02*
X11303515Y-13977793D01*
X11303515Y-13977793D02*
X11303515Y-13930174D01*
X11303515Y-13930174D02*
X11313039Y-13892079D01*
X11313039Y-13892079D02*
X11322563Y-13873031D01*
X11322563Y-13873031D02*
X11332086Y-13863508D01*
X11332086Y-13863508D02*
X11351134Y-13853984D01*
X11503515Y-14034936D02*
X11513039Y-14044460D01*
X11513039Y-14044460D02*
X11503515Y-14053984D01*
X11503515Y-14053984D02*
X11493991Y-14044460D01*
X11493991Y-14044460D02*
X11503515Y-14034936D01*
X11503515Y-14034936D02*
X11503515Y-14053984D01*
X11636848Y-13853984D02*
X11655896Y-13853984D01*
X11655896Y-13853984D02*
X11674944Y-13863508D01*
X11674944Y-13863508D02*
X11684467Y-13873031D01*
X11684467Y-13873031D02*
X11693991Y-13892079D01*
X11693991Y-13892079D02*
X11703515Y-13930174D01*
X11703515Y-13930174D02*
X11703515Y-13977793D01*
X11703515Y-13977793D02*
X11693991Y-14015888D01*
X11693991Y-14015888D02*
X11684467Y-14034936D01*
X11684467Y-14034936D02*
X11674944Y-14044460D01*
X11674944Y-14044460D02*
X11655896Y-14053984D01*
X11655896Y-14053984D02*
X11636848Y-14053984D01*
X11636848Y-14053984D02*
X11617801Y-14044460D01*
X11617801Y-14044460D02*
X11608277Y-14034936D01*
X11608277Y-14034936D02*
X11598753Y-14015888D01*
X11598753Y-14015888D02*
X11589229Y-13977793D01*
X11589229Y-13977793D02*
X11589229Y-13930174D01*
X11589229Y-13930174D02*
X11598753Y-13892079D01*
X11598753Y-13892079D02*
X11608277Y-13873031D01*
X11608277Y-13873031D02*
X11617801Y-13863508D01*
X11617801Y-13863508D02*
X11636848Y-13853984D01*
X11770182Y-13853984D02*
X11893991Y-13853984D01*
X11893991Y-13853984D02*
X11827325Y-13930174D01*
X11827325Y-13930174D02*
X11855896Y-13930174D01*
X11855896Y-13930174D02*
X11874944Y-13939698D01*
X11874944Y-13939698D02*
X11884467Y-13949222D01*
X11884467Y-13949222D02*
X11893991Y-13968269D01*
X11893991Y-13968269D02*
X11893991Y-14015888D01*
X11893991Y-14015888D02*
X11884467Y-14034936D01*
X11884467Y-14034936D02*
X11874944Y-14044460D01*
X11874944Y-14044460D02*
X11855896Y-14053984D01*
X11855896Y-14053984D02*
X11798753Y-14053984D01*
X11798753Y-14053984D02*
X11779706Y-14044460D01*
X11779706Y-14044460D02*
X11770182Y-14034936D01*
X11989229Y-14053984D02*
X12027325Y-14053984D01*
X12027325Y-14053984D02*
X12046372Y-14044460D01*
X12046372Y-14044460D02*
X12055896Y-14034936D01*
X12055896Y-14034936D02*
X12074944Y-14006365D01*
X12074944Y-14006365D02*
X12084467Y-13968269D01*
X12084467Y-13968269D02*
X12084467Y-13892079D01*
X12084467Y-13892079D02*
X12074944Y-13873031D01*
X12074944Y-13873031D02*
X12065420Y-13863508D01*
X12065420Y-13863508D02*
X12046372Y-13853984D01*
X12046372Y-13853984D02*
X12008277Y-13853984D01*
X12008277Y-13853984D02*
X11989229Y-13863508D01*
X11989229Y-13863508D02*
X11979706Y-13873031D01*
X11979706Y-13873031D02*
X11970182Y-13892079D01*
X11970182Y-13892079D02*
X11970182Y-13939698D01*
X11970182Y-13939698D02*
X11979706Y-13958746D01*
X11979706Y-13958746D02*
X11989229Y-13968269D01*
X11989229Y-13968269D02*
X12008277Y-13977793D01*
X12008277Y-13977793D02*
X12046372Y-13977793D01*
X12046372Y-13977793D02*
X12065420Y-13968269D01*
X12065420Y-13968269D02*
X12074944Y-13958746D01*
X12074944Y-13958746D02*
X12084467Y-13939698D01*
X12255896Y-13920650D02*
X12255896Y-14053984D01*
X12208277Y-13844460D02*
X12160658Y-13987317D01*
X12160658Y-13987317D02*
X12284467Y-13987317D01*
X12351134Y-13853984D02*
X12351134Y-13892079D01*
X12427325Y-13853984D02*
X12427325Y-13892079D01*
X12722563Y-14130174D02*
X12713039Y-14120650D01*
X12713039Y-14120650D02*
X12693991Y-14092079D01*
X12693991Y-14092079D02*
X12684468Y-14073031D01*
X12684468Y-14073031D02*
X12674944Y-14044460D01*
X12674944Y-14044460D02*
X12665420Y-13996841D01*
X12665420Y-13996841D02*
X12665420Y-13958746D01*
X12665420Y-13958746D02*
X12674944Y-13911127D01*
X12674944Y-13911127D02*
X12684468Y-13882555D01*
X12684468Y-13882555D02*
X12693991Y-13863508D01*
X12693991Y-13863508D02*
X12713039Y-13834936D01*
X12713039Y-13834936D02*
X12722563Y-13825412D01*
X12903515Y-14053984D02*
X12789229Y-14053984D01*
X12846372Y-14053984D02*
X12846372Y-13853984D01*
X12846372Y-13853984D02*
X12827325Y-13882555D01*
X12827325Y-13882555D02*
X12808277Y-13901603D01*
X12808277Y-13901603D02*
X12789229Y-13911127D01*
X12970182Y-13853984D02*
X13093991Y-13853984D01*
X13093991Y-13853984D02*
X13027325Y-13930174D01*
X13027325Y-13930174D02*
X13055896Y-13930174D01*
X13055896Y-13930174D02*
X13074944Y-13939698D01*
X13074944Y-13939698D02*
X13084468Y-13949222D01*
X13084468Y-13949222D02*
X13093991Y-13968269D01*
X13093991Y-13968269D02*
X13093991Y-14015888D01*
X13093991Y-14015888D02*
X13084468Y-14034936D01*
X13084468Y-14034936D02*
X13074944Y-14044460D01*
X13074944Y-14044460D02*
X13055896Y-14053984D01*
X13055896Y-14053984D02*
X12998753Y-14053984D01*
X12998753Y-14053984D02*
X12979706Y-14044460D01*
X12979706Y-14044460D02*
X12970182Y-14034936D01*
X13332087Y-14053984D02*
X13332087Y-13853984D01*
X13417801Y-14053984D02*
X13417801Y-13949222D01*
X13417801Y-13949222D02*
X13408277Y-13930174D01*
X13408277Y-13930174D02*
X13389230Y-13920650D01*
X13389230Y-13920650D02*
X13360658Y-13920650D01*
X13360658Y-13920650D02*
X13341610Y-13930174D01*
X13341610Y-13930174D02*
X13332087Y-13939698D01*
X13541610Y-14053984D02*
X13522563Y-14044460D01*
X13522563Y-14044460D02*
X13513039Y-14034936D01*
X13513039Y-14034936D02*
X13503515Y-14015888D01*
X13503515Y-14015888D02*
X13503515Y-13958746D01*
X13503515Y-13958746D02*
X13513039Y-13939698D01*
X13513039Y-13939698D02*
X13522563Y-13930174D01*
X13522563Y-13930174D02*
X13541610Y-13920650D01*
X13541610Y-13920650D02*
X13570182Y-13920650D01*
X13570182Y-13920650D02*
X13589230Y-13930174D01*
X13589230Y-13930174D02*
X13598753Y-13939698D01*
X13598753Y-13939698D02*
X13608277Y-13958746D01*
X13608277Y-13958746D02*
X13608277Y-14015888D01*
X13608277Y-14015888D02*
X13598753Y-14034936D01*
X13598753Y-14034936D02*
X13589230Y-14044460D01*
X13589230Y-14044460D02*
X13570182Y-14053984D01*
X13570182Y-14053984D02*
X13541610Y-14053984D01*
X13722563Y-14053984D02*
X13703515Y-14044460D01*
X13703515Y-14044460D02*
X13693991Y-14025412D01*
X13693991Y-14025412D02*
X13693991Y-13853984D01*
X13874944Y-14044460D02*
X13855896Y-14053984D01*
X13855896Y-14053984D02*
X13817801Y-14053984D01*
X13817801Y-14053984D02*
X13798753Y-14044460D01*
X13798753Y-14044460D02*
X13789230Y-14025412D01*
X13789230Y-14025412D02*
X13789230Y-13949222D01*
X13789230Y-13949222D02*
X13798753Y-13930174D01*
X13798753Y-13930174D02*
X13817801Y-13920650D01*
X13817801Y-13920650D02*
X13855896Y-13920650D01*
X13855896Y-13920650D02*
X13874944Y-13930174D01*
X13874944Y-13930174D02*
X13884468Y-13949222D01*
X13884468Y-13949222D02*
X13884468Y-13968269D01*
X13884468Y-13968269D02*
X13789230Y-13987317D01*
X13960658Y-14044460D02*
X13979706Y-14053984D01*
X13979706Y-14053984D02*
X14017801Y-14053984D01*
X14017801Y-14053984D02*
X14036849Y-14044460D01*
X14036849Y-14044460D02*
X14046372Y-14025412D01*
X14046372Y-14025412D02*
X14046372Y-14015888D01*
X14046372Y-14015888D02*
X14036849Y-13996841D01*
X14036849Y-13996841D02*
X14017801Y-13987317D01*
X14017801Y-13987317D02*
X13989230Y-13987317D01*
X13989230Y-13987317D02*
X13970182Y-13977793D01*
X13970182Y-13977793D02*
X13960658Y-13958746D01*
X13960658Y-13958746D02*
X13960658Y-13949222D01*
X13960658Y-13949222D02*
X13970182Y-13930174D01*
X13970182Y-13930174D02*
X13989230Y-13920650D01*
X13989230Y-13920650D02*
X14017801Y-13920650D01*
X14017801Y-13920650D02*
X14036849Y-13930174D01*
X14113039Y-14130174D02*
X14122563Y-14120650D01*
X14122563Y-14120650D02*
X14141611Y-14092079D01*
X14141611Y-14092079D02*
X14151134Y-14073031D01*
X14151134Y-14073031D02*
X14160658Y-14044460D01*
X14160658Y-14044460D02*
X14170182Y-13996841D01*
X14170182Y-13996841D02*
X14170182Y-13958746D01*
X14170182Y-13958746D02*
X14160658Y-13911127D01*
X14160658Y-13911127D02*
X14151134Y-13882555D01*
X14151134Y-13882555D02*
X14141611Y-13863508D01*
X14141611Y-13863508D02*
X14122563Y-13834936D01*
X14122563Y-13834936D02*
X14113039Y-13825412D01*
D13*
X9045900Y-14175700D02*
X9147500Y-14277300D01*
X9147500Y-14175700D02*
X9045900Y-14277300D01*
X9096700Y-14175700D02*
X9096700Y-14277300D01*
X9045900Y-14226500D02*
X9147500Y-14226500D01*
D11*
X9513039Y-14317984D02*
X9398753Y-14317984D01*
X9455896Y-14317984D02*
X9455896Y-14117984D01*
X9455896Y-14117984D02*
X9436848Y-14146555D01*
X9436848Y-14146555D02*
X9417801Y-14165603D01*
X9417801Y-14165603D02*
X9398753Y-14175127D01*
X9598753Y-14298936D02*
X9608277Y-14308460D01*
X9608277Y-14308460D02*
X9598753Y-14317984D01*
X9598753Y-14317984D02*
X9589229Y-14308460D01*
X9589229Y-14308460D02*
X9598753Y-14298936D01*
X9598753Y-14298936D02*
X9598753Y-14317984D01*
X9732086Y-14117984D02*
X9751134Y-14117984D01*
X9751134Y-14117984D02*
X9770182Y-14127508D01*
X9770182Y-14127508D02*
X9779705Y-14137031D01*
X9779705Y-14137031D02*
X9789229Y-14156079D01*
X9789229Y-14156079D02*
X9798753Y-14194174D01*
X9798753Y-14194174D02*
X9798753Y-14241793D01*
X9798753Y-14241793D02*
X9789229Y-14279888D01*
X9789229Y-14279888D02*
X9779705Y-14298936D01*
X9779705Y-14298936D02*
X9770182Y-14308460D01*
X9770182Y-14308460D02*
X9751134Y-14317984D01*
X9751134Y-14317984D02*
X9732086Y-14317984D01*
X9732086Y-14317984D02*
X9713039Y-14308460D01*
X9713039Y-14308460D02*
X9703515Y-14298936D01*
X9703515Y-14298936D02*
X9693991Y-14279888D01*
X9693991Y-14279888D02*
X9684467Y-14241793D01*
X9684467Y-14241793D02*
X9684467Y-14194174D01*
X9684467Y-14194174D02*
X9693991Y-14156079D01*
X9693991Y-14156079D02*
X9703515Y-14137031D01*
X9703515Y-14137031D02*
X9713039Y-14127508D01*
X9713039Y-14127508D02*
X9732086Y-14117984D01*
X9989229Y-14317984D02*
X9874944Y-14317984D01*
X9932086Y-14317984D02*
X9932086Y-14117984D01*
X9932086Y-14117984D02*
X9913039Y-14146555D01*
X9913039Y-14146555D02*
X9893991Y-14165603D01*
X9893991Y-14165603D02*
X9874944Y-14175127D01*
X10160658Y-14117984D02*
X10122563Y-14117984D01*
X10122563Y-14117984D02*
X10103515Y-14127508D01*
X10103515Y-14127508D02*
X10093991Y-14137031D01*
X10093991Y-14137031D02*
X10074944Y-14165603D01*
X10074944Y-14165603D02*
X10065420Y-14203698D01*
X10065420Y-14203698D02*
X10065420Y-14279888D01*
X10065420Y-14279888D02*
X10074944Y-14298936D01*
X10074944Y-14298936D02*
X10084467Y-14308460D01*
X10084467Y-14308460D02*
X10103515Y-14317984D01*
X10103515Y-14317984D02*
X10141610Y-14317984D01*
X10141610Y-14317984D02*
X10160658Y-14308460D01*
X10160658Y-14308460D02*
X10170182Y-14298936D01*
X10170182Y-14298936D02*
X10179705Y-14279888D01*
X10179705Y-14279888D02*
X10179705Y-14232269D01*
X10179705Y-14232269D02*
X10170182Y-14213222D01*
X10170182Y-14213222D02*
X10160658Y-14203698D01*
X10160658Y-14203698D02*
X10141610Y-14194174D01*
X10141610Y-14194174D02*
X10103515Y-14194174D01*
X10103515Y-14194174D02*
X10084467Y-14203698D01*
X10084467Y-14203698D02*
X10074944Y-14213222D01*
X10074944Y-14213222D02*
X10065420Y-14232269D01*
X10265420Y-14317984D02*
X10265420Y-14184650D01*
X10265420Y-14203698D02*
X10274944Y-14194174D01*
X10274944Y-14194174D02*
X10293991Y-14184650D01*
X10293991Y-14184650D02*
X10322563Y-14184650D01*
X10322563Y-14184650D02*
X10341610Y-14194174D01*
X10341610Y-14194174D02*
X10351134Y-14213222D01*
X10351134Y-14213222D02*
X10351134Y-14317984D01*
X10351134Y-14213222D02*
X10360658Y-14194174D01*
X10360658Y-14194174D02*
X10379705Y-14184650D01*
X10379705Y-14184650D02*
X10408277Y-14184650D01*
X10408277Y-14184650D02*
X10427325Y-14194174D01*
X10427325Y-14194174D02*
X10436848Y-14213222D01*
X10436848Y-14213222D02*
X10436848Y-14317984D01*
X10532086Y-14317984D02*
X10532086Y-14184650D01*
X10532086Y-14203698D02*
X10541610Y-14194174D01*
X10541610Y-14194174D02*
X10560658Y-14184650D01*
X10560658Y-14184650D02*
X10589229Y-14184650D01*
X10589229Y-14184650D02*
X10608277Y-14194174D01*
X10608277Y-14194174D02*
X10617801Y-14213222D01*
X10617801Y-14213222D02*
X10617801Y-14317984D01*
X10617801Y-14213222D02*
X10627325Y-14194174D01*
X10627325Y-14194174D02*
X10646372Y-14184650D01*
X10646372Y-14184650D02*
X10674944Y-14184650D01*
X10674944Y-14184650D02*
X10693991Y-14194174D01*
X10693991Y-14194174D02*
X10703515Y-14213222D01*
X10703515Y-14213222D02*
X10703515Y-14317984D01*
X11093991Y-14108460D02*
X10922563Y-14365603D01*
X11351134Y-14117984D02*
X11370182Y-14117984D01*
X11370182Y-14117984D02*
X11389229Y-14127508D01*
X11389229Y-14127508D02*
X11398753Y-14137031D01*
X11398753Y-14137031D02*
X11408277Y-14156079D01*
X11408277Y-14156079D02*
X11417801Y-14194174D01*
X11417801Y-14194174D02*
X11417801Y-14241793D01*
X11417801Y-14241793D02*
X11408277Y-14279888D01*
X11408277Y-14279888D02*
X11398753Y-14298936D01*
X11398753Y-14298936D02*
X11389229Y-14308460D01*
X11389229Y-14308460D02*
X11370182Y-14317984D01*
X11370182Y-14317984D02*
X11351134Y-14317984D01*
X11351134Y-14317984D02*
X11332086Y-14308460D01*
X11332086Y-14308460D02*
X11322563Y-14298936D01*
X11322563Y-14298936D02*
X11313039Y-14279888D01*
X11313039Y-14279888D02*
X11303515Y-14241793D01*
X11303515Y-14241793D02*
X11303515Y-14194174D01*
X11303515Y-14194174D02*
X11313039Y-14156079D01*
X11313039Y-14156079D02*
X11322563Y-14137031D01*
X11322563Y-14137031D02*
X11332086Y-14127508D01*
X11332086Y-14127508D02*
X11351134Y-14117984D01*
X11503515Y-14298936D02*
X11513039Y-14308460D01*
X11513039Y-14308460D02*
X11503515Y-14317984D01*
X11503515Y-14317984D02*
X11493991Y-14308460D01*
X11493991Y-14308460D02*
X11503515Y-14298936D01*
X11503515Y-14298936D02*
X11503515Y-14317984D01*
X11636848Y-14117984D02*
X11655896Y-14117984D01*
X11655896Y-14117984D02*
X11674944Y-14127508D01*
X11674944Y-14127508D02*
X11684467Y-14137031D01*
X11684467Y-14137031D02*
X11693991Y-14156079D01*
X11693991Y-14156079D02*
X11703515Y-14194174D01*
X11703515Y-14194174D02*
X11703515Y-14241793D01*
X11703515Y-14241793D02*
X11693991Y-14279888D01*
X11693991Y-14279888D02*
X11684467Y-14298936D01*
X11684467Y-14298936D02*
X11674944Y-14308460D01*
X11674944Y-14308460D02*
X11655896Y-14317984D01*
X11655896Y-14317984D02*
X11636848Y-14317984D01*
X11636848Y-14317984D02*
X11617801Y-14308460D01*
X11617801Y-14308460D02*
X11608277Y-14298936D01*
X11608277Y-14298936D02*
X11598753Y-14279888D01*
X11598753Y-14279888D02*
X11589229Y-14241793D01*
X11589229Y-14241793D02*
X11589229Y-14194174D01*
X11589229Y-14194174D02*
X11598753Y-14156079D01*
X11598753Y-14156079D02*
X11608277Y-14137031D01*
X11608277Y-14137031D02*
X11617801Y-14127508D01*
X11617801Y-14127508D02*
X11636848Y-14117984D01*
X11874944Y-14184650D02*
X11874944Y-14317984D01*
X11827325Y-14108460D02*
X11779706Y-14251317D01*
X11779706Y-14251317D02*
X11903515Y-14251317D01*
X12017801Y-14117984D02*
X12036848Y-14117984D01*
X12036848Y-14117984D02*
X12055896Y-14127508D01*
X12055896Y-14127508D02*
X12065420Y-14137031D01*
X12065420Y-14137031D02*
X12074944Y-14156079D01*
X12074944Y-14156079D02*
X12084467Y-14194174D01*
X12084467Y-14194174D02*
X12084467Y-14241793D01*
X12084467Y-14241793D02*
X12074944Y-14279888D01*
X12074944Y-14279888D02*
X12065420Y-14298936D01*
X12065420Y-14298936D02*
X12055896Y-14308460D01*
X12055896Y-14308460D02*
X12036848Y-14317984D01*
X12036848Y-14317984D02*
X12017801Y-14317984D01*
X12017801Y-14317984D02*
X11998753Y-14308460D01*
X11998753Y-14308460D02*
X11989229Y-14298936D01*
X11989229Y-14298936D02*
X11979706Y-14279888D01*
X11979706Y-14279888D02*
X11970182Y-14241793D01*
X11970182Y-14241793D02*
X11970182Y-14194174D01*
X11970182Y-14194174D02*
X11979706Y-14156079D01*
X11979706Y-14156079D02*
X11989229Y-14137031D01*
X11989229Y-14137031D02*
X11998753Y-14127508D01*
X11998753Y-14127508D02*
X12017801Y-14117984D01*
X12208277Y-14117984D02*
X12227325Y-14117984D01*
X12227325Y-14117984D02*
X12246372Y-14127508D01*
X12246372Y-14127508D02*
X12255896Y-14137031D01*
X12255896Y-14137031D02*
X12265420Y-14156079D01*
X12265420Y-14156079D02*
X12274944Y-14194174D01*
X12274944Y-14194174D02*
X12274944Y-14241793D01*
X12274944Y-14241793D02*
X12265420Y-14279888D01*
X12265420Y-14279888D02*
X12255896Y-14298936D01*
X12255896Y-14298936D02*
X12246372Y-14308460D01*
X12246372Y-14308460D02*
X12227325Y-14317984D01*
X12227325Y-14317984D02*
X12208277Y-14317984D01*
X12208277Y-14317984D02*
X12189229Y-14308460D01*
X12189229Y-14308460D02*
X12179706Y-14298936D01*
X12179706Y-14298936D02*
X12170182Y-14279888D01*
X12170182Y-14279888D02*
X12160658Y-14241793D01*
X12160658Y-14241793D02*
X12160658Y-14194174D01*
X12160658Y-14194174D02*
X12170182Y-14156079D01*
X12170182Y-14156079D02*
X12179706Y-14137031D01*
X12179706Y-14137031D02*
X12189229Y-14127508D01*
X12189229Y-14127508D02*
X12208277Y-14117984D01*
X12351134Y-14117984D02*
X12351134Y-14156079D01*
X12427325Y-14117984D02*
X12427325Y-14156079D01*
X12722563Y-14394174D02*
X12713039Y-14384650D01*
X12713039Y-14384650D02*
X12693991Y-14356079D01*
X12693991Y-14356079D02*
X12684468Y-14337031D01*
X12684468Y-14337031D02*
X12674944Y-14308460D01*
X12674944Y-14308460D02*
X12665420Y-14260841D01*
X12665420Y-14260841D02*
X12665420Y-14222746D01*
X12665420Y-14222746D02*
X12674944Y-14175127D01*
X12674944Y-14175127D02*
X12684468Y-14146555D01*
X12684468Y-14146555D02*
X12693991Y-14127508D01*
X12693991Y-14127508D02*
X12713039Y-14098936D01*
X12713039Y-14098936D02*
X12722563Y-14089412D01*
X12827325Y-14203698D02*
X12808277Y-14194174D01*
X12808277Y-14194174D02*
X12798753Y-14184650D01*
X12798753Y-14184650D02*
X12789229Y-14165603D01*
X12789229Y-14165603D02*
X12789229Y-14156079D01*
X12789229Y-14156079D02*
X12798753Y-14137031D01*
X12798753Y-14137031D02*
X12808277Y-14127508D01*
X12808277Y-14127508D02*
X12827325Y-14117984D01*
X12827325Y-14117984D02*
X12865420Y-14117984D01*
X12865420Y-14117984D02*
X12884468Y-14127508D01*
X12884468Y-14127508D02*
X12893991Y-14137031D01*
X12893991Y-14137031D02*
X12903515Y-14156079D01*
X12903515Y-14156079D02*
X12903515Y-14165603D01*
X12903515Y-14165603D02*
X12893991Y-14184650D01*
X12893991Y-14184650D02*
X12884468Y-14194174D01*
X12884468Y-14194174D02*
X12865420Y-14203698D01*
X12865420Y-14203698D02*
X12827325Y-14203698D01*
X12827325Y-14203698D02*
X12808277Y-14213222D01*
X12808277Y-14213222D02*
X12798753Y-14222746D01*
X12798753Y-14222746D02*
X12789229Y-14241793D01*
X12789229Y-14241793D02*
X12789229Y-14279888D01*
X12789229Y-14279888D02*
X12798753Y-14298936D01*
X12798753Y-14298936D02*
X12808277Y-14308460D01*
X12808277Y-14308460D02*
X12827325Y-14317984D01*
X12827325Y-14317984D02*
X12865420Y-14317984D01*
X12865420Y-14317984D02*
X12884468Y-14308460D01*
X12884468Y-14308460D02*
X12893991Y-14298936D01*
X12893991Y-14298936D02*
X12903515Y-14279888D01*
X12903515Y-14279888D02*
X12903515Y-14241793D01*
X12903515Y-14241793D02*
X12893991Y-14222746D01*
X12893991Y-14222746D02*
X12884468Y-14213222D01*
X12884468Y-14213222D02*
X12865420Y-14203698D01*
X13141610Y-14317984D02*
X13141610Y-14117984D01*
X13227325Y-14317984D02*
X13227325Y-14213222D01*
X13227325Y-14213222D02*
X13217801Y-14194174D01*
X13217801Y-14194174D02*
X13198753Y-14184650D01*
X13198753Y-14184650D02*
X13170182Y-14184650D01*
X13170182Y-14184650D02*
X13151134Y-14194174D01*
X13151134Y-14194174D02*
X13141610Y-14203698D01*
X13351134Y-14317984D02*
X13332087Y-14308460D01*
X13332087Y-14308460D02*
X13322563Y-14298936D01*
X13322563Y-14298936D02*
X13313039Y-14279888D01*
X13313039Y-14279888D02*
X13313039Y-14222746D01*
X13313039Y-14222746D02*
X13322563Y-14203698D01*
X13322563Y-14203698D02*
X13332087Y-14194174D01*
X13332087Y-14194174D02*
X13351134Y-14184650D01*
X13351134Y-14184650D02*
X13379706Y-14184650D01*
X13379706Y-14184650D02*
X13398753Y-14194174D01*
X13398753Y-14194174D02*
X13408277Y-14203698D01*
X13408277Y-14203698D02*
X13417801Y-14222746D01*
X13417801Y-14222746D02*
X13417801Y-14279888D01*
X13417801Y-14279888D02*
X13408277Y-14298936D01*
X13408277Y-14298936D02*
X13398753Y-14308460D01*
X13398753Y-14308460D02*
X13379706Y-14317984D01*
X13379706Y-14317984D02*
X13351134Y-14317984D01*
X13532087Y-14317984D02*
X13513039Y-14308460D01*
X13513039Y-14308460D02*
X13503515Y-14289412D01*
X13503515Y-14289412D02*
X13503515Y-14117984D01*
X13684468Y-14308460D02*
X13665420Y-14317984D01*
X13665420Y-14317984D02*
X13627325Y-14317984D01*
X13627325Y-14317984D02*
X13608277Y-14308460D01*
X13608277Y-14308460D02*
X13598753Y-14289412D01*
X13598753Y-14289412D02*
X13598753Y-14213222D01*
X13598753Y-14213222D02*
X13608277Y-14194174D01*
X13608277Y-14194174D02*
X13627325Y-14184650D01*
X13627325Y-14184650D02*
X13665420Y-14184650D01*
X13665420Y-14184650D02*
X13684468Y-14194174D01*
X13684468Y-14194174D02*
X13693991Y-14213222D01*
X13693991Y-14213222D02*
X13693991Y-14232269D01*
X13693991Y-14232269D02*
X13598753Y-14251317D01*
X13770182Y-14308460D02*
X13789230Y-14317984D01*
X13789230Y-14317984D02*
X13827325Y-14317984D01*
X13827325Y-14317984D02*
X13846372Y-14308460D01*
X13846372Y-14308460D02*
X13855896Y-14289412D01*
X13855896Y-14289412D02*
X13855896Y-14279888D01*
X13855896Y-14279888D02*
X13846372Y-14260841D01*
X13846372Y-14260841D02*
X13827325Y-14251317D01*
X13827325Y-14251317D02*
X13798753Y-14251317D01*
X13798753Y-14251317D02*
X13779706Y-14241793D01*
X13779706Y-14241793D02*
X13770182Y-14222746D01*
X13770182Y-14222746D02*
X13770182Y-14213222D01*
X13770182Y-14213222D02*
X13779706Y-14194174D01*
X13779706Y-14194174D02*
X13798753Y-14184650D01*
X13798753Y-14184650D02*
X13827325Y-14184650D01*
X13827325Y-14184650D02*
X13846372Y-14194174D01*
X13922563Y-14394174D02*
X13932087Y-14384650D01*
X13932087Y-14384650D02*
X13951134Y-14356079D01*
X13951134Y-14356079D02*
X13960658Y-14337031D01*
X13960658Y-14337031D02*
X13970182Y-14308460D01*
X13970182Y-14308460D02*
X13979706Y-14260841D01*
X13979706Y-14260841D02*
X13979706Y-14222746D01*
X13979706Y-14222746D02*
X13970182Y-14175127D01*
X13970182Y-14175127D02*
X13960658Y-14146555D01*
X13960658Y-14146555D02*
X13951134Y-14127508D01*
X13951134Y-14127508D02*
X13932087Y-14098936D01*
X13932087Y-14098936D02*
X13922563Y-14089412D01*
D14*
X9037500Y-14435500D02*
X9147500Y-14545500D01*
X9147500Y-14435500D02*
X9037500Y-14545500D01*
X9131391Y-14529391D02*
X9131391Y-14451609D01*
X9053609Y-14451609D01*
X9053609Y-14529391D01*
X9131391Y-14529391D01*
D11*
X9513039Y-14581984D02*
X9398753Y-14581984D01*
X9455896Y-14581984D02*
X9455896Y-14381984D01*
X9455896Y-14381984D02*
X9436848Y-14410555D01*
X9436848Y-14410555D02*
X9417801Y-14429603D01*
X9417801Y-14429603D02*
X9398753Y-14439127D01*
X9598753Y-14562936D02*
X9608277Y-14572460D01*
X9608277Y-14572460D02*
X9598753Y-14581984D01*
X9598753Y-14581984D02*
X9589229Y-14572460D01*
X9589229Y-14572460D02*
X9598753Y-14562936D01*
X9598753Y-14562936D02*
X9598753Y-14581984D01*
X9798753Y-14581984D02*
X9684467Y-14581984D01*
X9741610Y-14581984D02*
X9741610Y-14381984D01*
X9741610Y-14381984D02*
X9722563Y-14410555D01*
X9722563Y-14410555D02*
X9703515Y-14429603D01*
X9703515Y-14429603D02*
X9684467Y-14439127D01*
X9922563Y-14381984D02*
X9941610Y-14381984D01*
X9941610Y-14381984D02*
X9960658Y-14391508D01*
X9960658Y-14391508D02*
X9970182Y-14401031D01*
X9970182Y-14401031D02*
X9979705Y-14420079D01*
X9979705Y-14420079D02*
X9989229Y-14458174D01*
X9989229Y-14458174D02*
X9989229Y-14505793D01*
X9989229Y-14505793D02*
X9979705Y-14543888D01*
X9979705Y-14543888D02*
X9970182Y-14562936D01*
X9970182Y-14562936D02*
X9960658Y-14572460D01*
X9960658Y-14572460D02*
X9941610Y-14581984D01*
X9941610Y-14581984D02*
X9922563Y-14581984D01*
X9922563Y-14581984D02*
X9903515Y-14572460D01*
X9903515Y-14572460D02*
X9893991Y-14562936D01*
X9893991Y-14562936D02*
X9884467Y-14543888D01*
X9884467Y-14543888D02*
X9874944Y-14505793D01*
X9874944Y-14505793D02*
X9874944Y-14458174D01*
X9874944Y-14458174D02*
X9884467Y-14420079D01*
X9884467Y-14420079D02*
X9893991Y-14401031D01*
X9893991Y-14401031D02*
X9903515Y-14391508D01*
X9903515Y-14391508D02*
X9922563Y-14381984D01*
X10113039Y-14381984D02*
X10132086Y-14381984D01*
X10132086Y-14381984D02*
X10151134Y-14391508D01*
X10151134Y-14391508D02*
X10160658Y-14401031D01*
X10160658Y-14401031D02*
X10170182Y-14420079D01*
X10170182Y-14420079D02*
X10179705Y-14458174D01*
X10179705Y-14458174D02*
X10179705Y-14505793D01*
X10179705Y-14505793D02*
X10170182Y-14543888D01*
X10170182Y-14543888D02*
X10160658Y-14562936D01*
X10160658Y-14562936D02*
X10151134Y-14572460D01*
X10151134Y-14572460D02*
X10132086Y-14581984D01*
X10132086Y-14581984D02*
X10113039Y-14581984D01*
X10113039Y-14581984D02*
X10093991Y-14572460D01*
X10093991Y-14572460D02*
X10084467Y-14562936D01*
X10084467Y-14562936D02*
X10074944Y-14543888D01*
X10074944Y-14543888D02*
X10065420Y-14505793D01*
X10065420Y-14505793D02*
X10065420Y-14458174D01*
X10065420Y-14458174D02*
X10074944Y-14420079D01*
X10074944Y-14420079D02*
X10084467Y-14401031D01*
X10084467Y-14401031D02*
X10093991Y-14391508D01*
X10093991Y-14391508D02*
X10113039Y-14381984D01*
X10265420Y-14581984D02*
X10265420Y-14448650D01*
X10265420Y-14467698D02*
X10274944Y-14458174D01*
X10274944Y-14458174D02*
X10293991Y-14448650D01*
X10293991Y-14448650D02*
X10322563Y-14448650D01*
X10322563Y-14448650D02*
X10341610Y-14458174D01*
X10341610Y-14458174D02*
X10351134Y-14477222D01*
X10351134Y-14477222D02*
X10351134Y-14581984D01*
X10351134Y-14477222D02*
X10360658Y-14458174D01*
X10360658Y-14458174D02*
X10379705Y-14448650D01*
X10379705Y-14448650D02*
X10408277Y-14448650D01*
X10408277Y-14448650D02*
X10427325Y-14458174D01*
X10427325Y-14458174D02*
X10436848Y-14477222D01*
X10436848Y-14477222D02*
X10436848Y-14581984D01*
X10532086Y-14581984D02*
X10532086Y-14448650D01*
X10532086Y-14467698D02*
X10541610Y-14458174D01*
X10541610Y-14458174D02*
X10560658Y-14448650D01*
X10560658Y-14448650D02*
X10589229Y-14448650D01*
X10589229Y-14448650D02*
X10608277Y-14458174D01*
X10608277Y-14458174D02*
X10617801Y-14477222D01*
X10617801Y-14477222D02*
X10617801Y-14581984D01*
X10617801Y-14477222D02*
X10627325Y-14458174D01*
X10627325Y-14458174D02*
X10646372Y-14448650D01*
X10646372Y-14448650D02*
X10674944Y-14448650D01*
X10674944Y-14448650D02*
X10693991Y-14458174D01*
X10693991Y-14458174D02*
X10703515Y-14477222D01*
X10703515Y-14477222D02*
X10703515Y-14581984D01*
X11093991Y-14372460D02*
X10922563Y-14629603D01*
X11351134Y-14381984D02*
X11370182Y-14381984D01*
X11370182Y-14381984D02*
X11389229Y-14391508D01*
X11389229Y-14391508D02*
X11398753Y-14401031D01*
X11398753Y-14401031D02*
X11408277Y-14420079D01*
X11408277Y-14420079D02*
X11417801Y-14458174D01*
X11417801Y-14458174D02*
X11417801Y-14505793D01*
X11417801Y-14505793D02*
X11408277Y-14543888D01*
X11408277Y-14543888D02*
X11398753Y-14562936D01*
X11398753Y-14562936D02*
X11389229Y-14572460D01*
X11389229Y-14572460D02*
X11370182Y-14581984D01*
X11370182Y-14581984D02*
X11351134Y-14581984D01*
X11351134Y-14581984D02*
X11332086Y-14572460D01*
X11332086Y-14572460D02*
X11322563Y-14562936D01*
X11322563Y-14562936D02*
X11313039Y-14543888D01*
X11313039Y-14543888D02*
X11303515Y-14505793D01*
X11303515Y-14505793D02*
X11303515Y-14458174D01*
X11303515Y-14458174D02*
X11313039Y-14420079D01*
X11313039Y-14420079D02*
X11322563Y-14401031D01*
X11322563Y-14401031D02*
X11332086Y-14391508D01*
X11332086Y-14391508D02*
X11351134Y-14381984D01*
X11503515Y-14562936D02*
X11513039Y-14572460D01*
X11513039Y-14572460D02*
X11503515Y-14581984D01*
X11503515Y-14581984D02*
X11493991Y-14572460D01*
X11493991Y-14572460D02*
X11503515Y-14562936D01*
X11503515Y-14562936D02*
X11503515Y-14581984D01*
X11636848Y-14381984D02*
X11655896Y-14381984D01*
X11655896Y-14381984D02*
X11674944Y-14391508D01*
X11674944Y-14391508D02*
X11684467Y-14401031D01*
X11684467Y-14401031D02*
X11693991Y-14420079D01*
X11693991Y-14420079D02*
X11703515Y-14458174D01*
X11703515Y-14458174D02*
X11703515Y-14505793D01*
X11703515Y-14505793D02*
X11693991Y-14543888D01*
X11693991Y-14543888D02*
X11684467Y-14562936D01*
X11684467Y-14562936D02*
X11674944Y-14572460D01*
X11674944Y-14572460D02*
X11655896Y-14581984D01*
X11655896Y-14581984D02*
X11636848Y-14581984D01*
X11636848Y-14581984D02*
X11617801Y-14572460D01*
X11617801Y-14572460D02*
X11608277Y-14562936D01*
X11608277Y-14562936D02*
X11598753Y-14543888D01*
X11598753Y-14543888D02*
X11589229Y-14505793D01*
X11589229Y-14505793D02*
X11589229Y-14458174D01*
X11589229Y-14458174D02*
X11598753Y-14420079D01*
X11598753Y-14420079D02*
X11608277Y-14401031D01*
X11608277Y-14401031D02*
X11617801Y-14391508D01*
X11617801Y-14391508D02*
X11636848Y-14381984D01*
X11874944Y-14448650D02*
X11874944Y-14581984D01*
X11827325Y-14372460D02*
X11779706Y-14515317D01*
X11779706Y-14515317D02*
X11903515Y-14515317D01*
X11960658Y-14381984D02*
X12084467Y-14381984D01*
X12084467Y-14381984D02*
X12017801Y-14458174D01*
X12017801Y-14458174D02*
X12046372Y-14458174D01*
X12046372Y-14458174D02*
X12065420Y-14467698D01*
X12065420Y-14467698D02*
X12074944Y-14477222D01*
X12074944Y-14477222D02*
X12084467Y-14496269D01*
X12084467Y-14496269D02*
X12084467Y-14543888D01*
X12084467Y-14543888D02*
X12074944Y-14562936D01*
X12074944Y-14562936D02*
X12065420Y-14572460D01*
X12065420Y-14572460D02*
X12046372Y-14581984D01*
X12046372Y-14581984D02*
X11989229Y-14581984D01*
X11989229Y-14581984D02*
X11970182Y-14572460D01*
X11970182Y-14572460D02*
X11960658Y-14562936D01*
X12151134Y-14381984D02*
X12274944Y-14381984D01*
X12274944Y-14381984D02*
X12208277Y-14458174D01*
X12208277Y-14458174D02*
X12236848Y-14458174D01*
X12236848Y-14458174D02*
X12255896Y-14467698D01*
X12255896Y-14467698D02*
X12265420Y-14477222D01*
X12265420Y-14477222D02*
X12274944Y-14496269D01*
X12274944Y-14496269D02*
X12274944Y-14543888D01*
X12274944Y-14543888D02*
X12265420Y-14562936D01*
X12265420Y-14562936D02*
X12255896Y-14572460D01*
X12255896Y-14572460D02*
X12236848Y-14581984D01*
X12236848Y-14581984D02*
X12179706Y-14581984D01*
X12179706Y-14581984D02*
X12160658Y-14572460D01*
X12160658Y-14572460D02*
X12151134Y-14562936D01*
X12351134Y-14381984D02*
X12351134Y-14420079D01*
X12427325Y-14381984D02*
X12427325Y-14420079D01*
X12722563Y-14658174D02*
X12713039Y-14648650D01*
X12713039Y-14648650D02*
X12693991Y-14620079D01*
X12693991Y-14620079D02*
X12684468Y-14601031D01*
X12684468Y-14601031D02*
X12674944Y-14572460D01*
X12674944Y-14572460D02*
X12665420Y-14524841D01*
X12665420Y-14524841D02*
X12665420Y-14486746D01*
X12665420Y-14486746D02*
X12674944Y-14439127D01*
X12674944Y-14439127D02*
X12684468Y-14410555D01*
X12684468Y-14410555D02*
X12693991Y-14391508D01*
X12693991Y-14391508D02*
X12713039Y-14362936D01*
X12713039Y-14362936D02*
X12722563Y-14353412D01*
X12779706Y-14381984D02*
X12903515Y-14381984D01*
X12903515Y-14381984D02*
X12836848Y-14458174D01*
X12836848Y-14458174D02*
X12865420Y-14458174D01*
X12865420Y-14458174D02*
X12884468Y-14467698D01*
X12884468Y-14467698D02*
X12893991Y-14477222D01*
X12893991Y-14477222D02*
X12903515Y-14496269D01*
X12903515Y-14496269D02*
X12903515Y-14543888D01*
X12903515Y-14543888D02*
X12893991Y-14562936D01*
X12893991Y-14562936D02*
X12884468Y-14572460D01*
X12884468Y-14572460D02*
X12865420Y-14581984D01*
X12865420Y-14581984D02*
X12808277Y-14581984D01*
X12808277Y-14581984D02*
X12789229Y-14572460D01*
X12789229Y-14572460D02*
X12779706Y-14562936D01*
X13141610Y-14581984D02*
X13141610Y-14381984D01*
X13227325Y-14581984D02*
X13227325Y-14477222D01*
X13227325Y-14477222D02*
X13217801Y-14458174D01*
X13217801Y-14458174D02*
X13198753Y-14448650D01*
X13198753Y-14448650D02*
X13170182Y-14448650D01*
X13170182Y-14448650D02*
X13151134Y-14458174D01*
X13151134Y-14458174D02*
X13141610Y-14467698D01*
X13351134Y-14581984D02*
X13332087Y-14572460D01*
X13332087Y-14572460D02*
X13322563Y-14562936D01*
X13322563Y-14562936D02*
X13313039Y-14543888D01*
X13313039Y-14543888D02*
X13313039Y-14486746D01*
X13313039Y-14486746D02*
X13322563Y-14467698D01*
X13322563Y-14467698D02*
X13332087Y-14458174D01*
X13332087Y-14458174D02*
X13351134Y-14448650D01*
X13351134Y-14448650D02*
X13379706Y-14448650D01*
X13379706Y-14448650D02*
X13398753Y-14458174D01*
X13398753Y-14458174D02*
X13408277Y-14467698D01*
X13408277Y-14467698D02*
X13417801Y-14486746D01*
X13417801Y-14486746D02*
X13417801Y-14543888D01*
X13417801Y-14543888D02*
X13408277Y-14562936D01*
X13408277Y-14562936D02*
X13398753Y-14572460D01*
X13398753Y-14572460D02*
X13379706Y-14581984D01*
X13379706Y-14581984D02*
X13351134Y-14581984D01*
X13532087Y-14581984D02*
X13513039Y-14572460D01*
X13513039Y-14572460D02*
X13503515Y-14553412D01*
X13503515Y-14553412D02*
X13503515Y-14381984D01*
X13684468Y-14572460D02*
X13665420Y-14581984D01*
X13665420Y-14581984D02*
X13627325Y-14581984D01*
X13627325Y-14581984D02*
X13608277Y-14572460D01*
X13608277Y-14572460D02*
X13598753Y-14553412D01*
X13598753Y-14553412D02*
X13598753Y-14477222D01*
X13598753Y-14477222D02*
X13608277Y-14458174D01*
X13608277Y-14458174D02*
X13627325Y-14448650D01*
X13627325Y-14448650D02*
X13665420Y-14448650D01*
X13665420Y-14448650D02*
X13684468Y-14458174D01*
X13684468Y-14458174D02*
X13693991Y-14477222D01*
X13693991Y-14477222D02*
X13693991Y-14496269D01*
X13693991Y-14496269D02*
X13598753Y-14515317D01*
X13770182Y-14572460D02*
X13789230Y-14581984D01*
X13789230Y-14581984D02*
X13827325Y-14581984D01*
X13827325Y-14581984D02*
X13846372Y-14572460D01*
X13846372Y-14572460D02*
X13855896Y-14553412D01*
X13855896Y-14553412D02*
X13855896Y-14543888D01*
X13855896Y-14543888D02*
X13846372Y-14524841D01*
X13846372Y-14524841D02*
X13827325Y-14515317D01*
X13827325Y-14515317D02*
X13798753Y-14515317D01*
X13798753Y-14515317D02*
X13779706Y-14505793D01*
X13779706Y-14505793D02*
X13770182Y-14486746D01*
X13770182Y-14486746D02*
X13770182Y-14477222D01*
X13770182Y-14477222D02*
X13779706Y-14458174D01*
X13779706Y-14458174D02*
X13798753Y-14448650D01*
X13798753Y-14448650D02*
X13827325Y-14448650D01*
X13827325Y-14448650D02*
X13846372Y-14458174D01*
X13922563Y-14658174D02*
X13932087Y-14648650D01*
X13932087Y-14648650D02*
X13951134Y-14620079D01*
X13951134Y-14620079D02*
X13960658Y-14601031D01*
X13960658Y-14601031D02*
X13970182Y-14572460D01*
X13970182Y-14572460D02*
X13979706Y-14524841D01*
X13979706Y-14524841D02*
X13979706Y-14486746D01*
X13979706Y-14486746D02*
X13970182Y-14439127D01*
X13970182Y-14439127D02*
X13960658Y-14410555D01*
X13960658Y-14410555D02*
X13951134Y-14391508D01*
X13951134Y-14391508D02*
X13932087Y-14362936D01*
X13932087Y-14362936D02*
X13922563Y-14353412D01*
M02*
