%TF.GenerationSoftware,KiCad,Pcbnew,9.0.0-rc3*%
%TF.CreationDate,2025-04-25T09:29:12-07:00*%
%TF.ProjectId,Final PCB Design - Cable Tester,46696e61-6c20-4504-9342-204465736967,rev?*%
%TF.SameCoordinates,Original*%
%TF.FileFunction,Drillmap*%
%TF.FilePolarity,Positive*%
%FSLAX45Y45*%
G04 Gerber Fmt 4.5, Leading zero omitted, Abs format (unit mm)*
G04 Created by KiCad (PCBNEW 9.0.0-rc3) date 2025-04-25 09:29:12*
%MOMM*%
%LPD*%
G01*
G04 APERTURE LIST*
%ADD10C,0.050000*%
%ADD11C,0.200000*%
G04 APERTURE END LIST*
D10*
X17570000Y-11650000D02*
G75*
G02*
X17230000Y-11650000I-170000J0D01*
G01*
X17230000Y-11650000D02*
G75*
G02*
X17570000Y-11650000I170000J0D01*
G01*
X9670000Y-11650000D02*
G75*
G02*
X9330000Y-11650000I-170000J0D01*
G01*
X9330000Y-11650000D02*
G75*
G02*
X9670000Y-11650000I170000J0D01*
G01*
X9150000Y-6600000D02*
X17750000Y-6600000D01*
X17750000Y-12000000D01*
X9150000Y-12000000D01*
X9150000Y-6600000D01*
X17570000Y-6950000D02*
G75*
G02*
X17230000Y-6950000I-170000J0D01*
G01*
X17230000Y-6950000D02*
G75*
G02*
X17570000Y-6950000I170000J0D01*
G01*
X9670000Y-6950000D02*
G75*
G02*
X9330000Y-6950000I-170000J0D01*
G01*
X9330000Y-6950000D02*
G75*
G02*
X9670000Y-6950000I170000J0D01*
G01*
D11*
X9408277Y-12313984D02*
X9408277Y-12113984D01*
X9408277Y-12113984D02*
X9455896Y-12113984D01*
X9455896Y-12113984D02*
X9484467Y-12123508D01*
X9484467Y-12123508D02*
X9503515Y-12142555D01*
X9503515Y-12142555D02*
X9513039Y-12161603D01*
X9513039Y-12161603D02*
X9522563Y-12199698D01*
X9522563Y-12199698D02*
X9522563Y-12228269D01*
X9522563Y-12228269D02*
X9513039Y-12266365D01*
X9513039Y-12266365D02*
X9503515Y-12285412D01*
X9503515Y-12285412D02*
X9484467Y-12304460D01*
X9484467Y-12304460D02*
X9455896Y-12313984D01*
X9455896Y-12313984D02*
X9408277Y-12313984D01*
X9608277Y-12313984D02*
X9608277Y-12180650D01*
X9608277Y-12218746D02*
X9617801Y-12199698D01*
X9617801Y-12199698D02*
X9627324Y-12190174D01*
X9627324Y-12190174D02*
X9646372Y-12180650D01*
X9646372Y-12180650D02*
X9665420Y-12180650D01*
X9732086Y-12313984D02*
X9732086Y-12180650D01*
X9732086Y-12113984D02*
X9722563Y-12123508D01*
X9722563Y-12123508D02*
X9732086Y-12133031D01*
X9732086Y-12133031D02*
X9741610Y-12123508D01*
X9741610Y-12123508D02*
X9732086Y-12113984D01*
X9732086Y-12113984D02*
X9732086Y-12133031D01*
X9855896Y-12313984D02*
X9836848Y-12304460D01*
X9836848Y-12304460D02*
X9827324Y-12285412D01*
X9827324Y-12285412D02*
X9827324Y-12113984D01*
X9960658Y-12313984D02*
X9941610Y-12304460D01*
X9941610Y-12304460D02*
X9932086Y-12285412D01*
X9932086Y-12285412D02*
X9932086Y-12113984D01*
X10189229Y-12313984D02*
X10189229Y-12113984D01*
X10189229Y-12113984D02*
X10255896Y-12256841D01*
X10255896Y-12256841D02*
X10322563Y-12113984D01*
X10322563Y-12113984D02*
X10322563Y-12313984D01*
X10503515Y-12313984D02*
X10503515Y-12209222D01*
X10503515Y-12209222D02*
X10493991Y-12190174D01*
X10493991Y-12190174D02*
X10474944Y-12180650D01*
X10474944Y-12180650D02*
X10436848Y-12180650D01*
X10436848Y-12180650D02*
X10417801Y-12190174D01*
X10503515Y-12304460D02*
X10484467Y-12313984D01*
X10484467Y-12313984D02*
X10436848Y-12313984D01*
X10436848Y-12313984D02*
X10417801Y-12304460D01*
X10417801Y-12304460D02*
X10408277Y-12285412D01*
X10408277Y-12285412D02*
X10408277Y-12266365D01*
X10408277Y-12266365D02*
X10417801Y-12247317D01*
X10417801Y-12247317D02*
X10436848Y-12237793D01*
X10436848Y-12237793D02*
X10484467Y-12237793D01*
X10484467Y-12237793D02*
X10503515Y-12228269D01*
X10598753Y-12180650D02*
X10598753Y-12380650D01*
X10598753Y-12190174D02*
X10617801Y-12180650D01*
X10617801Y-12180650D02*
X10655896Y-12180650D01*
X10655896Y-12180650D02*
X10674944Y-12190174D01*
X10674944Y-12190174D02*
X10684467Y-12199698D01*
X10684467Y-12199698D02*
X10693991Y-12218746D01*
X10693991Y-12218746D02*
X10693991Y-12275888D01*
X10693991Y-12275888D02*
X10684467Y-12294936D01*
X10684467Y-12294936D02*
X10674944Y-12304460D01*
X10674944Y-12304460D02*
X10655896Y-12313984D01*
X10655896Y-12313984D02*
X10617801Y-12313984D01*
X10617801Y-12313984D02*
X10598753Y-12304460D01*
X10779705Y-12294936D02*
X10789229Y-12304460D01*
X10789229Y-12304460D02*
X10779705Y-12313984D01*
X10779705Y-12313984D02*
X10770182Y-12304460D01*
X10770182Y-12304460D02*
X10779705Y-12294936D01*
X10779705Y-12294936D02*
X10779705Y-12313984D01*
X10779705Y-12190174D02*
X10789229Y-12199698D01*
X10789229Y-12199698D02*
X10779705Y-12209222D01*
X10779705Y-12209222D02*
X10770182Y-12199698D01*
X10770182Y-12199698D02*
X10779705Y-12190174D01*
X10779705Y-12190174D02*
X10779705Y-12209222D01*
M02*
