G04 #@! TF.GenerationSoftware,KiCad,Pcbnew,9.0.0-rc3*
G04 #@! TF.CreationDate,2025-04-25T09:29:09-07:00*
G04 #@! TF.ProjectId,Final PCB Design - Cable Tester,46696e61-6c20-4504-9342-204465736967,rev?*
G04 #@! TF.SameCoordinates,Original*
G04 #@! TF.FileFunction,Copper,L2,Bot*
G04 #@! TF.FilePolarity,Positive*
%FSLAX46Y46*%
G04 Gerber Fmt 4.6, Leading zero omitted, Abs format (unit mm)*
G04 Created by KiCad (PCBNEW 9.0.0-rc3) date 2025-04-25 09:29:09*
%MOMM*%
%LPD*%
G01*
G04 APERTURE LIST*
G04 #@! TA.AperFunction,ComponentPad*
%ADD10R,1.700000X1.700000*%
G04 #@! TD*
G04 #@! TA.AperFunction,ComponentPad*
%ADD11O,1.700000X1.700000*%
G04 #@! TD*
G04 #@! TA.AperFunction,ComponentPad*
%ADD12C,1.524000*%
G04 #@! TD*
G04 #@! TA.AperFunction,ComponentPad*
%ADD13R,1.060000X1.060000*%
G04 #@! TD*
G04 #@! TA.AperFunction,ComponentPad*
%ADD14C,1.060000*%
G04 #@! TD*
G04 #@! TA.AperFunction,ComponentPad*
%ADD15O,1.400000X4.100000*%
G04 #@! TD*
G04 #@! TA.AperFunction,ComponentPad*
%ADD16O,1.400000X3.100000*%
G04 #@! TD*
G04 #@! TA.AperFunction,ComponentPad*
%ADD17O,3.100000X1.400000*%
G04 #@! TD*
G04 #@! TA.AperFunction,ComponentPad*
%ADD18R,2.000000X1.905000*%
G04 #@! TD*
G04 #@! TA.AperFunction,ComponentPad*
%ADD19O,2.000000X1.905000*%
G04 #@! TD*
G04 #@! TA.AperFunction,ViaPad*
%ADD20C,0.600000*%
G04 #@! TD*
G04 #@! TA.AperFunction,ViaPad*
%ADD21C,0.750000*%
G04 #@! TD*
G04 #@! TA.AperFunction,ViaPad*
%ADD22C,1.000000*%
G04 #@! TD*
G04 #@! TA.AperFunction,Conductor*
%ADD23C,0.200000*%
G04 #@! TD*
G04 #@! TA.AperFunction,Conductor*
%ADD24C,0.500000*%
G04 #@! TD*
G04 #@! TA.AperFunction,Conductor*
%ADD25C,0.350000*%
G04 #@! TD*
G04 #@! TA.AperFunction,Conductor*
%ADD26C,0.750000*%
G04 #@! TD*
G04 APERTURE END LIST*
D10*
X121540000Y-71500000D03*
D11*
X119000000Y-71500000D03*
X116460000Y-71500000D03*
X113920000Y-71500000D03*
X111380000Y-71500000D03*
D12*
X149300000Y-77000000D03*
X156920000Y-77000000D03*
X162000000Y-77000000D03*
X167080000Y-77000000D03*
X167080000Y-69380000D03*
X162000000Y-69380000D03*
X156920000Y-69380000D03*
X149300000Y-69380000D03*
D10*
X174000000Y-79275000D03*
D11*
X174000000Y-76735000D03*
D10*
X131200000Y-110600000D03*
D11*
X133740000Y-110600000D03*
X136280000Y-110600000D03*
X138820000Y-110600000D03*
D13*
X160970000Y-100400000D03*
D14*
X160970000Y-101670000D03*
X162240000Y-100400000D03*
X162240000Y-101670000D03*
X163510000Y-100400000D03*
X163510000Y-101670000D03*
X164780000Y-100400000D03*
X164780000Y-101670000D03*
X166050000Y-100400000D03*
X166050000Y-101670000D03*
X167320000Y-100400000D03*
X167320000Y-101670000D03*
X168590000Y-100400000D03*
X168590000Y-101670000D03*
X169860000Y-100400000D03*
X169860000Y-101670000D03*
X171130000Y-100400000D03*
X171130000Y-101670000D03*
X172400000Y-100400000D03*
X172400000Y-101670000D03*
D15*
X105600000Y-78950000D03*
D16*
X99700000Y-78950000D03*
D17*
X102800000Y-83650000D03*
D10*
X96960000Y-88500000D03*
D11*
X99500000Y-88500000D03*
D18*
X96555000Y-95460000D03*
D19*
X96555000Y-98000000D03*
X96555000Y-100540000D03*
D20*
X122900000Y-97600000D03*
X119100000Y-90654258D03*
X115600000Y-105300000D03*
X132300000Y-101900000D03*
D21*
X131800000Y-87100000D03*
D20*
X140900000Y-99200000D03*
D22*
X104500000Y-106700000D03*
D20*
X129500000Y-94399000D03*
D22*
X108250000Y-110450000D03*
D20*
X113900000Y-76000000D03*
X127450735Y-94950735D03*
X139000000Y-86199000D03*
X116400000Y-76000000D03*
X128200000Y-94200000D03*
X147100000Y-111700000D03*
X129000000Y-93400000D03*
X129500000Y-96000000D03*
X150222222Y-111700000D03*
X153344444Y-111700000D03*
X128784456Y-96357772D03*
X128314782Y-97005391D03*
X156466667Y-111700000D03*
X128314782Y-97994609D03*
X159588889Y-111700000D03*
X162711111Y-111700000D03*
X128784456Y-98642228D03*
X129500000Y-99000000D03*
X165833333Y-111700000D03*
X130600000Y-101900000D03*
X168955556Y-111700000D03*
X172077778Y-111700000D03*
X131358949Y-102152983D03*
X133750000Y-101000000D03*
X175200000Y-111700000D03*
X147100000Y-95800000D03*
X134000000Y-101800000D03*
X134660757Y-102251000D03*
X150212346Y-95800000D03*
X135600000Y-101500000D03*
X153324691Y-95800000D03*
X156437037Y-95800000D03*
X137000000Y-90000000D03*
X136642228Y-89284456D03*
X159549383Y-95800000D03*
X162661728Y-95800000D03*
X135994609Y-88814782D03*
X165774074Y-95800000D03*
X134400000Y-90000000D03*
X168886420Y-95800000D03*
X133919998Y-89359998D03*
X171998765Y-95800000D03*
X133403243Y-88749286D03*
X132718998Y-90000000D03*
X175111111Y-95800000D03*
X117000000Y-91600000D03*
X126600000Y-92800000D03*
X112900000Y-118300000D03*
X122000000Y-95400000D03*
X126850735Y-90399994D03*
X141400000Y-98500000D03*
X120800000Y-105700000D03*
X148900000Y-100400000D03*
X97100000Y-109500000D03*
X126900000Y-106800000D03*
D21*
X111500000Y-98500000D03*
X106800000Y-100000000D03*
D20*
X118300000Y-94200000D03*
X117300000Y-112600000D03*
X117900000Y-96778974D03*
X118700000Y-112900000D03*
X115400000Y-112900000D03*
X113300000Y-92900000D03*
D23*
X119300000Y-118300000D02*
X112900000Y-118300000D01*
X122900000Y-97600000D02*
X122900000Y-114700000D01*
X122900000Y-114700000D02*
X119300000Y-118300000D01*
X117900000Y-112100000D02*
X118700000Y-112900000D01*
X117900000Y-96778974D02*
X117900000Y-112100000D01*
X117300000Y-112600000D02*
X117300000Y-95200000D01*
X117300000Y-95200000D02*
X118300000Y-94200000D01*
X115600000Y-92150057D02*
X117095799Y-90654258D01*
X117095799Y-90654258D02*
X119100000Y-90654258D01*
X115600000Y-105300000D02*
X115600000Y-92150057D01*
D24*
X121500000Y-69000000D02*
X119000000Y-71500000D01*
D25*
X131900000Y-101500000D02*
X132300000Y-101900000D01*
X131800000Y-87100000D02*
X131900000Y-87200000D01*
X131900000Y-87200000D02*
X131900000Y-101500000D01*
X140400000Y-98700000D02*
X138600000Y-98700000D01*
X140900000Y-99200000D02*
X140400000Y-98700000D01*
D26*
X104500000Y-106700000D02*
X108250000Y-110450000D01*
D25*
X131899500Y-91999500D02*
X129500000Y-94399000D01*
D24*
X149300000Y-77000000D02*
X149300000Y-75900000D01*
D25*
X138600000Y-98700000D02*
X131899500Y-91999500D01*
D24*
X149300000Y-75900000D02*
X142400000Y-69000000D01*
X142400000Y-69000000D02*
X121500000Y-69000000D01*
D23*
X127450735Y-89550735D02*
X127450735Y-94950735D01*
X113900000Y-76000000D02*
X127450735Y-89550735D01*
X126801000Y-74000000D02*
X112800000Y-74000000D01*
X112800000Y-74000000D02*
X111380000Y-72580000D01*
X139000000Y-86199000D02*
X126801000Y-74000000D01*
X111380000Y-72580000D02*
X111380000Y-71500000D01*
X116400000Y-76000000D02*
X128200000Y-87800000D01*
X128200000Y-87800000D02*
X128200000Y-94200000D01*
D26*
X96960000Y-85640000D02*
X96960000Y-88500000D01*
X105600000Y-78950000D02*
X103650000Y-78950000D01*
X103650000Y-78950000D02*
X96960000Y-85640000D01*
D23*
X147700000Y-111100000D02*
X147100000Y-111700000D01*
X129000000Y-93400000D02*
X128800000Y-93600000D01*
X128800000Y-93600000D02*
X128800000Y-94450000D01*
X145000000Y-107200000D02*
X147700000Y-109900000D01*
X126100000Y-102000000D02*
X131300000Y-107200000D01*
X131300000Y-107200000D02*
X145000000Y-107200000D01*
X147700000Y-109900000D02*
X147700000Y-111100000D01*
X128800000Y-94450000D02*
X126100000Y-97150000D01*
X126100000Y-97150000D02*
X126100000Y-102000000D01*
X129256772Y-95756772D02*
X128146358Y-95756772D01*
X129500000Y-96000000D02*
X129256772Y-95756772D01*
X128146358Y-95756772D02*
X126911782Y-96991348D01*
X126911782Y-96991348D02*
X126911782Y-102111782D01*
X150800000Y-111122222D02*
X150222222Y-111700000D01*
X131600000Y-106800000D02*
X147900000Y-106800000D01*
X126911782Y-102111782D02*
X131600000Y-106800000D01*
X147900000Y-106800000D02*
X150800000Y-109700000D01*
X150800000Y-109700000D02*
X150800000Y-111122222D01*
X153900000Y-111144444D02*
X153344444Y-111700000D01*
X127312782Y-97157448D02*
X127312782Y-101912782D01*
X131800000Y-106400000D02*
X151000000Y-106400000D01*
X128784456Y-96357772D02*
X128112458Y-96357772D01*
X153900000Y-109300000D02*
X153900000Y-111144444D01*
X151000000Y-106400000D02*
X153900000Y-109300000D01*
X128112458Y-96357772D02*
X127312782Y-97157448D01*
X127312782Y-101912782D02*
X131800000Y-106400000D01*
X127713782Y-101713782D02*
X132000000Y-106000000D01*
X157000000Y-111166667D02*
X156466667Y-111700000D01*
X154100000Y-106000000D02*
X157000000Y-108900000D01*
X127713782Y-97606391D02*
X127713782Y-101713782D01*
X132000000Y-106000000D02*
X154100000Y-106000000D01*
X157000000Y-108900000D02*
X157000000Y-111166667D01*
X128314782Y-97005391D02*
X127713782Y-97606391D01*
X160100000Y-108400000D02*
X160100000Y-111188889D01*
X128183456Y-98125935D02*
X128183456Y-101616356D01*
X154266100Y-105599000D02*
X154267100Y-105600000D01*
X157300000Y-105600000D02*
X160100000Y-108400000D01*
X128314782Y-97994609D02*
X128183456Y-98125935D01*
X132166100Y-105599000D02*
X153933900Y-105599000D01*
X128183456Y-101616356D02*
X132166100Y-105599000D01*
X160100000Y-111188889D02*
X159588889Y-111700000D01*
X153933900Y-105599000D02*
X154266100Y-105599000D01*
X154267100Y-105600000D02*
X157300000Y-105600000D01*
X128784456Y-98642228D02*
X128784456Y-101650256D01*
X132234200Y-105100000D02*
X160300000Y-105100000D01*
X163300000Y-108100000D02*
X163300000Y-111111111D01*
X163300000Y-111111111D02*
X162711111Y-111700000D01*
X128784456Y-101650256D02*
X132234200Y-105100000D01*
X160300000Y-105100000D02*
X163300000Y-108100000D01*
X132301300Y-104600000D02*
X163500000Y-104600000D01*
X166400000Y-111133333D02*
X165833333Y-111700000D01*
X166400000Y-107500000D02*
X166400000Y-111133333D01*
X163500000Y-104600000D02*
X166400000Y-107500000D01*
X129500000Y-101798700D02*
X132301300Y-104600000D01*
X129500000Y-99000000D02*
X129500000Y-101798700D01*
X169500000Y-107100000D02*
X166600000Y-104200000D01*
X130600000Y-102331600D02*
X130600000Y-101900000D01*
X163667100Y-104200000D02*
X163666100Y-104199000D01*
X168955556Y-111700000D02*
X169500000Y-111155556D01*
X169500000Y-111155556D02*
X169500000Y-107100000D01*
X166600000Y-104200000D02*
X163667100Y-104200000D01*
X132467400Y-104199000D02*
X130600000Y-102331600D01*
X163666100Y-104199000D02*
X132467400Y-104199000D01*
X132906966Y-103701000D02*
X169601000Y-103701000D01*
X131358949Y-102152983D02*
X132906966Y-103701000D01*
X169601000Y-103701000D02*
X172600000Y-106700000D01*
X172600000Y-111177778D02*
X172077778Y-111700000D01*
X172600000Y-106700000D02*
X172600000Y-111177778D01*
X171700000Y-103300000D02*
X175700000Y-107300000D01*
X133750000Y-101000000D02*
X133399000Y-101351000D01*
X175700000Y-107300000D02*
X175700000Y-111200000D01*
X133399000Y-101351000D02*
X133399000Y-102566043D01*
X175700000Y-111200000D02*
X175200000Y-111700000D01*
X134132957Y-103300000D02*
X171700000Y-103300000D01*
X133399000Y-102566043D02*
X134132957Y-103300000D01*
X134000000Y-101800000D02*
X134000000Y-102599943D01*
X140049000Y-102851000D02*
X147100000Y-95800000D01*
X134000000Y-102599943D02*
X134251057Y-102851000D01*
X134251057Y-102851000D02*
X140049000Y-102851000D01*
X139750000Y-102250000D02*
X147500000Y-94500000D01*
X150200000Y-95800000D02*
X150212346Y-95800000D01*
X134660757Y-102251000D02*
X135349000Y-102251000D01*
X135349000Y-102251000D02*
X135350000Y-102250000D01*
X147500000Y-94500000D02*
X148900000Y-94500000D01*
X148900000Y-94500000D02*
X150200000Y-95800000D01*
X135350000Y-102250000D02*
X139750000Y-102250000D01*
X153333333Y-95233333D02*
X151800000Y-93700000D01*
X151800000Y-93700000D02*
X147300000Y-93700000D01*
X139500000Y-101500000D02*
X135600000Y-101500000D01*
X153324691Y-95241975D02*
X153333333Y-95233333D01*
X153324691Y-95800000D02*
X153324691Y-95241975D01*
X147300000Y-93700000D02*
X139500000Y-101500000D01*
X137000000Y-90000000D02*
X137598000Y-89402000D01*
X137598000Y-89402000D02*
X150039037Y-89402000D01*
X150039037Y-89402000D02*
X156437037Y-95800000D01*
X136642228Y-89284456D02*
X136925684Y-89001000D01*
X152750383Y-89001000D02*
X159549383Y-95800000D01*
X136925684Y-89001000D02*
X152750383Y-89001000D01*
X135994609Y-88814782D02*
X136209391Y-88600000D01*
X136209391Y-88600000D02*
X155461728Y-88600000D01*
X155461728Y-88600000D02*
X162661728Y-95800000D01*
X134520998Y-89879002D02*
X134400000Y-90000000D01*
X134520998Y-89438450D02*
X135759448Y-88200000D01*
X134520998Y-89438450D02*
X134520998Y-89879002D01*
X158174074Y-88200000D02*
X165774074Y-95800000D01*
X135759448Y-88200000D02*
X158174074Y-88200000D01*
X160885420Y-87799000D02*
X168886420Y-95800000D01*
X135480996Y-87799000D02*
X160885420Y-87799000D01*
X133919998Y-89359998D02*
X135480996Y-87799000D01*
X133403243Y-88749286D02*
X134952529Y-87200000D01*
X163398765Y-87200000D02*
X171998765Y-95800000D01*
X134952529Y-87200000D02*
X163398765Y-87200000D01*
X132718998Y-90000000D02*
X132718998Y-88583588D01*
X132718998Y-88583588D02*
X134503586Y-86799000D01*
X166110111Y-86799000D02*
X175111111Y-95800000D01*
X134503586Y-86799000D02*
X166110111Y-86799000D01*
X123399000Y-96001000D02*
X121401000Y-96001000D01*
X121401000Y-96001000D02*
X117000000Y-91600000D01*
X126600000Y-92800000D02*
X123399000Y-96001000D01*
X126850735Y-90399994D02*
X126850735Y-90549265D01*
X126850735Y-90549265D02*
X122000000Y-95400000D01*
X114100000Y-112900000D02*
X113300000Y-112100000D01*
X113300000Y-112100000D02*
X113300000Y-92900000D01*
X115400000Y-112900000D02*
X114100000Y-112900000D01*
G04 #@! TA.AperFunction,Conductor*
G36*
X176942539Y-66520185D02*
G01*
X176988294Y-66572989D01*
X176999500Y-66624500D01*
X176999500Y-119375500D01*
X176979815Y-119442539D01*
X176927011Y-119488294D01*
X176875500Y-119499500D01*
X92124500Y-119499500D01*
X92057461Y-119479815D01*
X92011706Y-119427011D01*
X92000500Y-119375500D01*
X92000500Y-116355778D01*
X92799500Y-116355778D01*
X92799500Y-116644221D01*
X92799501Y-116644238D01*
X92837149Y-116930206D01*
X92837150Y-116930211D01*
X92837151Y-116930217D01*
X92911809Y-117208844D01*
X92911814Y-117208860D01*
X93022191Y-117475336D01*
X93022199Y-117475352D01*
X93166420Y-117725148D01*
X93166431Y-117725164D01*
X93342024Y-117954002D01*
X93342030Y-117954009D01*
X93545990Y-118157969D01*
X93545997Y-118157975D01*
X93628339Y-118221158D01*
X93774844Y-118333575D01*
X93774851Y-118333579D01*
X94024647Y-118477800D01*
X94024663Y-118477808D01*
X94291139Y-118588185D01*
X94291145Y-118588186D01*
X94291155Y-118588191D01*
X94569783Y-118662849D01*
X94855772Y-118700500D01*
X94855779Y-118700500D01*
X95144221Y-118700500D01*
X95144228Y-118700500D01*
X95430217Y-118662849D01*
X95708845Y-118588191D01*
X95708857Y-118588185D01*
X95708860Y-118588185D01*
X95975336Y-118477808D01*
X95975339Y-118477806D01*
X95975345Y-118477804D01*
X96225156Y-118333575D01*
X96454004Y-118157974D01*
X96657974Y-117954004D01*
X96833575Y-117725156D01*
X96977804Y-117475345D01*
X97088191Y-117208845D01*
X97162849Y-116930217D01*
X97200500Y-116644228D01*
X97200500Y-116355772D01*
X97162849Y-116069783D01*
X97088191Y-115791155D01*
X97088186Y-115791145D01*
X97088185Y-115791139D01*
X96977808Y-115524663D01*
X96977800Y-115524647D01*
X96833579Y-115274851D01*
X96833575Y-115274844D01*
X96657974Y-115045996D01*
X96657969Y-115045990D01*
X96454009Y-114842030D01*
X96454002Y-114842024D01*
X96225164Y-114666431D01*
X96225162Y-114666429D01*
X96225156Y-114666425D01*
X96225151Y-114666422D01*
X96225148Y-114666420D01*
X95975352Y-114522199D01*
X95975336Y-114522191D01*
X95708860Y-114411814D01*
X95708848Y-114411810D01*
X95708845Y-114411809D01*
X95430217Y-114337151D01*
X95430211Y-114337150D01*
X95430206Y-114337149D01*
X95144238Y-114299501D01*
X95144233Y-114299500D01*
X95144228Y-114299500D01*
X94855772Y-114299500D01*
X94855766Y-114299500D01*
X94855761Y-114299501D01*
X94569793Y-114337149D01*
X94569786Y-114337150D01*
X94569783Y-114337151D01*
X94335589Y-114399903D01*
X94291155Y-114411809D01*
X94291139Y-114411814D01*
X94024663Y-114522191D01*
X94024647Y-114522199D01*
X93774851Y-114666420D01*
X93774835Y-114666431D01*
X93545997Y-114842024D01*
X93545990Y-114842030D01*
X93342030Y-115045990D01*
X93342024Y-115045997D01*
X93166431Y-115274835D01*
X93166420Y-115274851D01*
X93022199Y-115524647D01*
X93022191Y-115524663D01*
X92911814Y-115791139D01*
X92911809Y-115791155D01*
X92837152Y-116069780D01*
X92837149Y-116069793D01*
X92799501Y-116355761D01*
X92799500Y-116355778D01*
X92000500Y-116355778D01*
X92000500Y-106798543D01*
X103499499Y-106798543D01*
X103537947Y-106991829D01*
X103537950Y-106991839D01*
X103613364Y-107173907D01*
X103613371Y-107173920D01*
X103722860Y-107337781D01*
X103722863Y-107337785D01*
X103862214Y-107477136D01*
X103862218Y-107477139D01*
X104026079Y-107586628D01*
X104026092Y-107586635D01*
X104212251Y-107663744D01*
X104252480Y-107690624D01*
X107259376Y-110697520D01*
X107286256Y-110737749D01*
X107363364Y-110923907D01*
X107363371Y-110923920D01*
X107472860Y-111087781D01*
X107472863Y-111087785D01*
X107612214Y-111227136D01*
X107612218Y-111227139D01*
X107776079Y-111336628D01*
X107776092Y-111336635D01*
X107952156Y-111409562D01*
X107958165Y-111412051D01*
X107958169Y-111412051D01*
X107958170Y-111412052D01*
X108151456Y-111450500D01*
X108151459Y-111450500D01*
X108348543Y-111450500D01*
X108478582Y-111424632D01*
X108541835Y-111412051D01*
X108723914Y-111336632D01*
X108887782Y-111227139D01*
X109027139Y-111087782D01*
X109136632Y-110923914D01*
X109139484Y-110917030D01*
X109187112Y-110802044D01*
X109212051Y-110741835D01*
X109250500Y-110548541D01*
X109250500Y-110351459D01*
X109250500Y-110351456D01*
X109212052Y-110158170D01*
X109212051Y-110158169D01*
X109212051Y-110158165D01*
X109193101Y-110112416D01*
X109136635Y-109976092D01*
X109136628Y-109976079D01*
X109027139Y-109812218D01*
X109027136Y-109812214D01*
X108887785Y-109672863D01*
X108887781Y-109672860D01*
X108723920Y-109563371D01*
X108723907Y-109563364D01*
X108537749Y-109486256D01*
X108497520Y-109459376D01*
X105490624Y-106452480D01*
X105463744Y-106412251D01*
X105386635Y-106226092D01*
X105386628Y-106226079D01*
X105277139Y-106062218D01*
X105277136Y-106062214D01*
X105137785Y-105922863D01*
X105137781Y-105922860D01*
X104973920Y-105813371D01*
X104973907Y-105813364D01*
X104791839Y-105737950D01*
X104791829Y-105737947D01*
X104598543Y-105699500D01*
X104598541Y-105699500D01*
X104401459Y-105699500D01*
X104401457Y-105699500D01*
X104208170Y-105737947D01*
X104208160Y-105737950D01*
X104026092Y-105813364D01*
X104026079Y-105813371D01*
X103862218Y-105922860D01*
X103862214Y-105922863D01*
X103722863Y-106062214D01*
X103722860Y-106062218D01*
X103613371Y-106226079D01*
X103613364Y-106226092D01*
X103537950Y-106408160D01*
X103537947Y-106408170D01*
X103499500Y-106601456D01*
X103499500Y-106601459D01*
X103499500Y-106798541D01*
X103499500Y-106798543D01*
X103499499Y-106798543D01*
X92000500Y-106798543D01*
X92000500Y-94459635D01*
X95054500Y-94459635D01*
X95054500Y-96460370D01*
X95054501Y-96460376D01*
X95060908Y-96519983D01*
X95111202Y-96654828D01*
X95111206Y-96654835D01*
X95197452Y-96770044D01*
X95197455Y-96770047D01*
X95312664Y-96856293D01*
X95312667Y-96856295D01*
X95312668Y-96856295D01*
X95312669Y-96856296D01*
X95341025Y-96866872D01*
X95396958Y-96908742D01*
X95421376Y-96974206D01*
X95406525Y-97042479D01*
X95398010Y-97055939D01*
X95265213Y-97238719D01*
X95161417Y-97442429D01*
X95090765Y-97659871D01*
X95076491Y-97750000D01*
X96064252Y-97750000D01*
X96042482Y-97787708D01*
X96005000Y-97927591D01*
X96005000Y-98072409D01*
X96042482Y-98212292D01*
X96064252Y-98250000D01*
X95076491Y-98250000D01*
X95090765Y-98340128D01*
X95161417Y-98557570D01*
X95265211Y-98761276D01*
X95399597Y-98946242D01*
X95561257Y-99107902D01*
X95561263Y-99107907D01*
X95645863Y-99169372D01*
X95688529Y-99224701D01*
X95694508Y-99294315D01*
X95661903Y-99356110D01*
X95645864Y-99370007D01*
X95560940Y-99431709D01*
X95560931Y-99431716D01*
X95399216Y-99593431D01*
X95399216Y-99593432D01*
X95399214Y-99593434D01*
X95341480Y-99672896D01*
X95264783Y-99778461D01*
X95160950Y-99982244D01*
X95090278Y-100199750D01*
X95090278Y-100199753D01*
X95090278Y-100199755D01*
X95054500Y-100425646D01*
X95054500Y-100654354D01*
X95061821Y-100700578D01*
X95090278Y-100880246D01*
X95090278Y-100880249D01*
X95160950Y-101097755D01*
X95218631Y-101210960D01*
X95264783Y-101301538D01*
X95399214Y-101486566D01*
X95560934Y-101648286D01*
X95745962Y-101782717D01*
X95949742Y-101886548D01*
X95949744Y-101886549D01*
X96167251Y-101957221D01*
X96167252Y-101957221D01*
X96167255Y-101957222D01*
X96393146Y-101993000D01*
X96393147Y-101993000D01*
X96716853Y-101993000D01*
X96716854Y-101993000D01*
X96942745Y-101957222D01*
X96942748Y-101957221D01*
X96942749Y-101957221D01*
X97160255Y-101886549D01*
X97160255Y-101886548D01*
X97160258Y-101886548D01*
X97364038Y-101782717D01*
X97549066Y-101648286D01*
X97710786Y-101486566D01*
X97845217Y-101301538D01*
X97949048Y-101097758D01*
X97955194Y-101078842D01*
X98019721Y-100880249D01*
X98019721Y-100880248D01*
X98019722Y-100880245D01*
X98055500Y-100654354D01*
X98055500Y-100425646D01*
X98019722Y-100199755D01*
X98019721Y-100199751D01*
X98019721Y-100199750D01*
X97949049Y-99982244D01*
X97867465Y-99822127D01*
X97845217Y-99778462D01*
X97710786Y-99593434D01*
X97549066Y-99431714D01*
X97464134Y-99370007D01*
X97421470Y-99314678D01*
X97415491Y-99245064D01*
X97448097Y-99183269D01*
X97464137Y-99169371D01*
X97548739Y-99107905D01*
X97710402Y-98946242D01*
X97844788Y-98761276D01*
X97948582Y-98557570D01*
X98019234Y-98340128D01*
X98033509Y-98250000D01*
X97045748Y-98250000D01*
X97067518Y-98212292D01*
X97105000Y-98072409D01*
X97105000Y-97927591D01*
X97067518Y-97787708D01*
X97045748Y-97750000D01*
X98033509Y-97750000D01*
X98019234Y-97659871D01*
X97948582Y-97442429D01*
X97844788Y-97238723D01*
X97711988Y-97055940D01*
X97688508Y-96990133D01*
X97704333Y-96922079D01*
X97754439Y-96873384D01*
X97768966Y-96866875D01*
X97797331Y-96856296D01*
X97912546Y-96770046D01*
X97998796Y-96654831D01*
X98049091Y-96519983D01*
X98055500Y-96460373D01*
X98055499Y-94459628D01*
X98049091Y-94400017D01*
X98042060Y-94381167D01*
X97998797Y-94265171D01*
X97998793Y-94265164D01*
X97912547Y-94149955D01*
X97912544Y-94149952D01*
X97797335Y-94063706D01*
X97797328Y-94063702D01*
X97662482Y-94013408D01*
X97662483Y-94013408D01*
X97602883Y-94007001D01*
X97602881Y-94007000D01*
X97602873Y-94007000D01*
X97602864Y-94007000D01*
X95507129Y-94007000D01*
X95507123Y-94007001D01*
X95447516Y-94013408D01*
X95312671Y-94063702D01*
X95312664Y-94063706D01*
X95197455Y-94149952D01*
X95197452Y-94149955D01*
X95111206Y-94265164D01*
X95111202Y-94265171D01*
X95060908Y-94400017D01*
X95056824Y-94438008D01*
X95054501Y-94459623D01*
X95054500Y-94459635D01*
X92000500Y-94459635D01*
X92000500Y-92821153D01*
X112499500Y-92821153D01*
X112499500Y-92978846D01*
X112530261Y-93133489D01*
X112530264Y-93133501D01*
X112590602Y-93279172D01*
X112590609Y-93279185D01*
X112678602Y-93410874D01*
X112699480Y-93477551D01*
X112699500Y-93479765D01*
X112699500Y-112013330D01*
X112699499Y-112013348D01*
X112699499Y-112179054D01*
X112699498Y-112179054D01*
X112710688Y-112220814D01*
X112740423Y-112331785D01*
X112760468Y-112366503D01*
X112785229Y-112409390D01*
X112819479Y-112468715D01*
X112938349Y-112587585D01*
X112938355Y-112587590D01*
X113615139Y-113264374D01*
X113615149Y-113264385D01*
X113619479Y-113268715D01*
X113619480Y-113268716D01*
X113731284Y-113380520D01*
X113782845Y-113410288D01*
X113818095Y-113430639D01*
X113818097Y-113430641D01*
X113856151Y-113452611D01*
X113868215Y-113459577D01*
X114020943Y-113500501D01*
X114020946Y-113500501D01*
X114186653Y-113500501D01*
X114186669Y-113500500D01*
X114820234Y-113500500D01*
X114887273Y-113520185D01*
X114889125Y-113521398D01*
X115020814Y-113609390D01*
X115020827Y-113609397D01*
X115166498Y-113669735D01*
X115166503Y-113669737D01*
X115321153Y-113700499D01*
X115321156Y-113700500D01*
X115321158Y-113700500D01*
X115478844Y-113700500D01*
X115478845Y-113700499D01*
X115633497Y-113669737D01*
X115779179Y-113609394D01*
X115910289Y-113521789D01*
X116021789Y-113410289D01*
X116109394Y-113279179D01*
X116109438Y-113279074D01*
X116132330Y-113223807D01*
X116169737Y-113133497D01*
X116200500Y-112978842D01*
X116200500Y-112821158D01*
X116200500Y-112821155D01*
X116200499Y-112821153D01*
X116169738Y-112666510D01*
X116169737Y-112666503D01*
X116169735Y-112666498D01*
X116109397Y-112520827D01*
X116109390Y-112520814D01*
X116021789Y-112389711D01*
X116021786Y-112389707D01*
X115910292Y-112278213D01*
X115910288Y-112278210D01*
X115779185Y-112190609D01*
X115779172Y-112190602D01*
X115633501Y-112130264D01*
X115633489Y-112130261D01*
X115478845Y-112099500D01*
X115478842Y-112099500D01*
X115321158Y-112099500D01*
X115321155Y-112099500D01*
X115166510Y-112130261D01*
X115166498Y-112130264D01*
X115020827Y-112190602D01*
X115020814Y-112190609D01*
X114889125Y-112278602D01*
X114822447Y-112299480D01*
X114820234Y-112299500D01*
X114400097Y-112299500D01*
X114333058Y-112279815D01*
X114312416Y-112263181D01*
X113936819Y-111887584D01*
X113903334Y-111826261D01*
X113900500Y-111799903D01*
X113900500Y-93479765D01*
X113920185Y-93412726D01*
X113921398Y-93410874D01*
X113974579Y-93331284D01*
X114009394Y-93279179D01*
X114069737Y-93133497D01*
X114100500Y-92978842D01*
X114100500Y-92821158D01*
X114100500Y-92821155D01*
X114100499Y-92821153D01*
X114086597Y-92751264D01*
X114069737Y-92666503D01*
X114069735Y-92666498D01*
X114009397Y-92520827D01*
X114009390Y-92520814D01*
X113921789Y-92389711D01*
X113921786Y-92389707D01*
X113810292Y-92278213D01*
X113810288Y-92278210D01*
X113679185Y-92190609D01*
X113679172Y-92190602D01*
X113533501Y-92130264D01*
X113533489Y-92130261D01*
X113378845Y-92099500D01*
X113378842Y-92099500D01*
X113221158Y-92099500D01*
X113221155Y-92099500D01*
X113066510Y-92130261D01*
X113066498Y-92130264D01*
X112920827Y-92190602D01*
X112920814Y-92190609D01*
X112789711Y-92278210D01*
X112789707Y-92278213D01*
X112678213Y-92389707D01*
X112678210Y-92389711D01*
X112590609Y-92520814D01*
X112590602Y-92520827D01*
X112530264Y-92666498D01*
X112530261Y-92666510D01*
X112499500Y-92821153D01*
X92000500Y-92821153D01*
X92000500Y-87602135D01*
X95609500Y-87602135D01*
X95609500Y-89397870D01*
X95609501Y-89397876D01*
X95615908Y-89457483D01*
X95666202Y-89592328D01*
X95666206Y-89592335D01*
X95752452Y-89707544D01*
X95752455Y-89707547D01*
X95867664Y-89793793D01*
X95867671Y-89793797D01*
X96002517Y-89844091D01*
X96002516Y-89844091D01*
X96009444Y-89844835D01*
X96062127Y-89850500D01*
X97857872Y-89850499D01*
X97917483Y-89844091D01*
X98052331Y-89793796D01*
X98167546Y-89707546D01*
X98253796Y-89592331D01*
X98302810Y-89460916D01*
X98344681Y-89404984D01*
X98410145Y-89380566D01*
X98478418Y-89395417D01*
X98506673Y-89416569D01*
X98620213Y-89530109D01*
X98792179Y-89655048D01*
X98792181Y-89655049D01*
X98792184Y-89655051D01*
X98981588Y-89751557D01*
X99183757Y-89817246D01*
X99393713Y-89850500D01*
X99393714Y-89850500D01*
X99606286Y-89850500D01*
X99606287Y-89850500D01*
X99816243Y-89817246D01*
X100018412Y-89751557D01*
X100207816Y-89655051D01*
X100259201Y-89617718D01*
X100379786Y-89530109D01*
X100379788Y-89530106D01*
X100379792Y-89530104D01*
X100530104Y-89379792D01*
X100530106Y-89379788D01*
X100530109Y-89379786D01*
X100655048Y-89207820D01*
X100655047Y-89207820D01*
X100655051Y-89207816D01*
X100751557Y-89018412D01*
X100817246Y-88816243D01*
X100850500Y-88606287D01*
X100850500Y-88393713D01*
X100817246Y-88183757D01*
X100751557Y-87981588D01*
X100655051Y-87792184D01*
X100655049Y-87792181D01*
X100655048Y-87792179D01*
X100530109Y-87620213D01*
X100379786Y-87469890D01*
X100207820Y-87344951D01*
X100018414Y-87248444D01*
X100018413Y-87248443D01*
X100018412Y-87248443D01*
X99816243Y-87182754D01*
X99816241Y-87182753D01*
X99816240Y-87182753D01*
X99654957Y-87157208D01*
X99606287Y-87149500D01*
X99393713Y-87149500D01*
X99345042Y-87157208D01*
X99183760Y-87182753D01*
X98981585Y-87248444D01*
X98792179Y-87344951D01*
X98620215Y-87469889D01*
X98506673Y-87583431D01*
X98445350Y-87616915D01*
X98375658Y-87611931D01*
X98319725Y-87570059D01*
X98302810Y-87539082D01*
X98253797Y-87407671D01*
X98253793Y-87407664D01*
X98167547Y-87292455D01*
X98167544Y-87292452D01*
X98052335Y-87206206D01*
X98052330Y-87206203D01*
X97916166Y-87155417D01*
X97860233Y-87113545D01*
X97835816Y-87048081D01*
X97835500Y-87039235D01*
X97835500Y-86054006D01*
X97855185Y-85986967D01*
X97871819Y-85966325D01*
X98878189Y-84959955D01*
X100568110Y-83270033D01*
X100629431Y-83236550D01*
X100699123Y-83241534D01*
X100755056Y-83283406D01*
X100779473Y-83348870D01*
X100778262Y-83377113D01*
X100774637Y-83400000D01*
X101634314Y-83400000D01*
X101629920Y-83404394D01*
X101577259Y-83495606D01*
X101550000Y-83597339D01*
X101550000Y-83702661D01*
X101577259Y-83804394D01*
X101629920Y-83895606D01*
X101634314Y-83900000D01*
X100774638Y-83900000D01*
X100779548Y-83931002D01*
X100837914Y-84110637D01*
X100923670Y-84278940D01*
X101034685Y-84431741D01*
X101034689Y-84431746D01*
X101168253Y-84565310D01*
X101168258Y-84565314D01*
X101321059Y-84676329D01*
X101489362Y-84762085D01*
X101668997Y-84820451D01*
X101855553Y-84850000D01*
X102550000Y-84850000D01*
X102550000Y-84050000D01*
X103050000Y-84050000D01*
X103050000Y-84850000D01*
X103744447Y-84850000D01*
X103931002Y-84820451D01*
X104110637Y-84762085D01*
X104278940Y-84676329D01*
X104431741Y-84565314D01*
X104431746Y-84565310D01*
X104565310Y-84431746D01*
X104565314Y-84431741D01*
X104676329Y-84278940D01*
X104762085Y-84110637D01*
X104820451Y-83931002D01*
X104825362Y-83900000D01*
X103965686Y-83900000D01*
X103970080Y-83895606D01*
X104022741Y-83804394D01*
X104050000Y-83702661D01*
X104050000Y-83597339D01*
X104022741Y-83495606D01*
X103970080Y-83404394D01*
X103965686Y-83400000D01*
X104825362Y-83400000D01*
X104820451Y-83368997D01*
X104762085Y-83189362D01*
X104676329Y-83021059D01*
X104565314Y-82868258D01*
X104565310Y-82868253D01*
X104431746Y-82734689D01*
X104431741Y-82734685D01*
X104278940Y-82623670D01*
X104110637Y-82537914D01*
X103931002Y-82479548D01*
X103744447Y-82450000D01*
X103050000Y-82450000D01*
X103050000Y-83250000D01*
X102550000Y-83250000D01*
X102550000Y-82450000D01*
X101855553Y-82450000D01*
X101677114Y-82478262D01*
X101607820Y-82469307D01*
X101554369Y-82424311D01*
X101533729Y-82357560D01*
X101552454Y-82290246D01*
X101570031Y-82268112D01*
X103976325Y-79861819D01*
X104003252Y-79847115D01*
X104029071Y-79830523D01*
X104035271Y-79829631D01*
X104037648Y-79828334D01*
X104064006Y-79825500D01*
X104275500Y-79825500D01*
X104342539Y-79845185D01*
X104388294Y-79897989D01*
X104399500Y-79949500D01*
X104399500Y-80394486D01*
X104429059Y-80581118D01*
X104487454Y-80760836D01*
X104520825Y-80826329D01*
X104573240Y-80929199D01*
X104684310Y-81082073D01*
X104817927Y-81215690D01*
X104970801Y-81326760D01*
X105050347Y-81367290D01*
X105139163Y-81412545D01*
X105139165Y-81412545D01*
X105139168Y-81412547D01*
X105235497Y-81443846D01*
X105318881Y-81470940D01*
X105505514Y-81500500D01*
X105505519Y-81500500D01*
X105694486Y-81500500D01*
X105881118Y-81470940D01*
X106060832Y-81412547D01*
X106229199Y-81326760D01*
X106382073Y-81215690D01*
X106515690Y-81082073D01*
X106626760Y-80929199D01*
X106712547Y-80760832D01*
X106770940Y-80581118D01*
X106786552Y-80482546D01*
X106800500Y-80394486D01*
X106800500Y-77505513D01*
X106770940Y-77318881D01*
X106712545Y-77139163D01*
X106641638Y-77000001D01*
X106626760Y-76970801D01*
X106515690Y-76817927D01*
X106382073Y-76684310D01*
X106229199Y-76573240D01*
X106060836Y-76487454D01*
X105881118Y-76429059D01*
X105694486Y-76399500D01*
X105694481Y-76399500D01*
X105505519Y-76399500D01*
X105505514Y-76399500D01*
X105318881Y-76429059D01*
X105139163Y-76487454D01*
X104970800Y-76573240D01*
X104942918Y-76593498D01*
X104817927Y-76684310D01*
X104817925Y-76684312D01*
X104817924Y-76684312D01*
X104684312Y-76817924D01*
X104684312Y-76817925D01*
X104684310Y-76817927D01*
X104667339Y-76841286D01*
X104573240Y-76970800D01*
X104487454Y-77139163D01*
X104429059Y-77318881D01*
X104399500Y-77505513D01*
X104399500Y-77950500D01*
X104379815Y-78017539D01*
X104327011Y-78063294D01*
X104275500Y-78074500D01*
X103563768Y-78074500D01*
X103394633Y-78108143D01*
X103394621Y-78108146D01*
X103235301Y-78174138D01*
X103235288Y-78174145D01*
X103091901Y-78269954D01*
X103091897Y-78269957D01*
X101038142Y-80323712D01*
X100976819Y-80357197D01*
X100907127Y-80352213D01*
X100851194Y-80310341D01*
X100826777Y-80244877D01*
X100832530Y-80197713D01*
X100870452Y-80081001D01*
X100900000Y-79894447D01*
X100900000Y-79200000D01*
X100100000Y-79200000D01*
X100100000Y-78700000D01*
X100900000Y-78700000D01*
X100900000Y-78005552D01*
X100870451Y-77818997D01*
X100812085Y-77639362D01*
X100726329Y-77471059D01*
X100615314Y-77318258D01*
X100615310Y-77318253D01*
X100481746Y-77184689D01*
X100481741Y-77184685D01*
X100328940Y-77073670D01*
X100160635Y-76987913D01*
X99981004Y-76929549D01*
X99980995Y-76929547D01*
X99950000Y-76924637D01*
X99950000Y-77784314D01*
X99945606Y-77779920D01*
X99854394Y-77727259D01*
X99752661Y-77700000D01*
X99647339Y-77700000D01*
X99545606Y-77727259D01*
X99454394Y-77779920D01*
X99450000Y-77784314D01*
X99450000Y-76924637D01*
X99449999Y-76924637D01*
X99419004Y-76929547D01*
X99418995Y-76929549D01*
X99239364Y-76987913D01*
X99071059Y-77073670D01*
X98918258Y-77184685D01*
X98918253Y-77184689D01*
X98784689Y-77318253D01*
X98784685Y-77318258D01*
X98673670Y-77471059D01*
X98587914Y-77639362D01*
X98529548Y-77818997D01*
X98500000Y-78005552D01*
X98500000Y-78700000D01*
X99300000Y-78700000D01*
X99300000Y-79200000D01*
X98500000Y-79200000D01*
X98500000Y-79894447D01*
X98529548Y-80081002D01*
X98587914Y-80260637D01*
X98673670Y-80428940D01*
X98784685Y-80581741D01*
X98784689Y-80581746D01*
X98918253Y-80715310D01*
X98918258Y-80715314D01*
X99071059Y-80826329D01*
X99239362Y-80912085D01*
X99418997Y-80970451D01*
X99450000Y-80975362D01*
X99450000Y-80115686D01*
X99454394Y-80120080D01*
X99545606Y-80172741D01*
X99647339Y-80200000D01*
X99752661Y-80200000D01*
X99854394Y-80172741D01*
X99945606Y-80120080D01*
X99950000Y-80115686D01*
X99950000Y-80975361D01*
X99981001Y-80970452D01*
X100097714Y-80932530D01*
X100167555Y-80930535D01*
X100227388Y-80966615D01*
X100258216Y-81029316D01*
X100250251Y-81098731D01*
X100223713Y-81138142D01*
X98172494Y-83189362D01*
X96401901Y-84959955D01*
X96340927Y-85020929D01*
X96279953Y-85081902D01*
X96184145Y-85225288D01*
X96184138Y-85225301D01*
X96118146Y-85384621D01*
X96118143Y-85384633D01*
X96084500Y-85553766D01*
X96084500Y-87039235D01*
X96064815Y-87106274D01*
X96012011Y-87152029D01*
X96003834Y-87155417D01*
X95867669Y-87206203D01*
X95867664Y-87206206D01*
X95752455Y-87292452D01*
X95752452Y-87292455D01*
X95666206Y-87407664D01*
X95666202Y-87407671D01*
X95615908Y-87542517D01*
X95609501Y-87602116D01*
X95609500Y-87602135D01*
X92000500Y-87602135D01*
X92000500Y-69355778D01*
X92799500Y-69355778D01*
X92799500Y-69644221D01*
X92799501Y-69644238D01*
X92837149Y-69930206D01*
X92837150Y-69930211D01*
X92837151Y-69930217D01*
X92904818Y-70182753D01*
X92911809Y-70208844D01*
X92911814Y-70208860D01*
X93022191Y-70475336D01*
X93022199Y-70475352D01*
X93166420Y-70725148D01*
X93166431Y-70725164D01*
X93342024Y-70954002D01*
X93342030Y-70954009D01*
X93545990Y-71157969D01*
X93545997Y-71157975D01*
X93665927Y-71250000D01*
X93774844Y-71333575D01*
X93774851Y-71333579D01*
X94024647Y-71477800D01*
X94024663Y-71477808D01*
X94291139Y-71588185D01*
X94291145Y-71588186D01*
X94291155Y-71588191D01*
X94569783Y-71662849D01*
X94855772Y-71700500D01*
X94855779Y-71700500D01*
X95144221Y-71700500D01*
X95144228Y-71700500D01*
X95430217Y-71662849D01*
X95708845Y-71588191D01*
X95708857Y-71588185D01*
X95708860Y-71588185D01*
X95975336Y-71477808D01*
X95975339Y-71477806D01*
X95975345Y-71477804D01*
X96120994Y-71393713D01*
X110029500Y-71393713D01*
X110029500Y-71606287D01*
X110038458Y-71662847D01*
X110062753Y-71816239D01*
X110128444Y-72018414D01*
X110224951Y-72207820D01*
X110349890Y-72379786D01*
X110349896Y-72379792D01*
X110500208Y-72530104D01*
X110672184Y-72655051D01*
X110746034Y-72692678D01*
X110767458Y-72712912D01*
X110790645Y-72731095D01*
X110793809Y-72737799D01*
X110796828Y-72740650D01*
X110806862Y-72762443D01*
X110808343Y-72766705D01*
X110820423Y-72811785D01*
X110823576Y-72817246D01*
X110829453Y-72827425D01*
X110829454Y-72827428D01*
X110899477Y-72948712D01*
X110899481Y-72948717D01*
X111018349Y-73067585D01*
X111018355Y-73067590D01*
X112315139Y-74364374D01*
X112315149Y-74364385D01*
X112319479Y-74368715D01*
X112319480Y-74368716D01*
X112431284Y-74480520D01*
X112518095Y-74530639D01*
X112518097Y-74530641D01*
X112568213Y-74559576D01*
X112568215Y-74559577D01*
X112720942Y-74600500D01*
X112720943Y-74600500D01*
X126500903Y-74600500D01*
X126567942Y-74620185D01*
X126588584Y-74636819D01*
X137938584Y-85986819D01*
X137972069Y-86048142D01*
X137967085Y-86117834D01*
X137925213Y-86173767D01*
X137859749Y-86198184D01*
X137850903Y-86198500D01*
X134590256Y-86198500D01*
X134590240Y-86198499D01*
X134582644Y-86198499D01*
X134424529Y-86198499D01*
X134348165Y-86218961D01*
X134271800Y-86239423D01*
X134271795Y-86239426D01*
X134134876Y-86318475D01*
X134134868Y-86318481D01*
X132787181Y-87666169D01*
X132767744Y-87676781D01*
X132751011Y-87691282D01*
X132737679Y-87693198D01*
X132725858Y-87699654D01*
X132703771Y-87698074D01*
X132681853Y-87701226D01*
X132669601Y-87695630D01*
X132656166Y-87694670D01*
X132638439Y-87681399D01*
X132618297Y-87672201D01*
X132611014Y-87660869D01*
X132600233Y-87652798D01*
X132592495Y-87632052D01*
X132580523Y-87613423D01*
X132577371Y-87591504D01*
X132575816Y-87587334D01*
X132575500Y-87578488D01*
X132575500Y-87540234D01*
X132584939Y-87492781D01*
X132590044Y-87480456D01*
X132641855Y-87355374D01*
X132675500Y-87186229D01*
X132675500Y-87013771D01*
X132675500Y-87013768D01*
X132675499Y-87013766D01*
X132641856Y-86844633D01*
X132641855Y-86844626D01*
X132641853Y-86844621D01*
X132575861Y-86685301D01*
X132575854Y-86685288D01*
X132480045Y-86541901D01*
X132480042Y-86541897D01*
X132358102Y-86419957D01*
X132358098Y-86419954D01*
X132214711Y-86324145D01*
X132214698Y-86324138D01*
X132055378Y-86258146D01*
X132055366Y-86258143D01*
X131886232Y-86224500D01*
X131886229Y-86224500D01*
X131713771Y-86224500D01*
X131713768Y-86224500D01*
X131544633Y-86258143D01*
X131544621Y-86258146D01*
X131385301Y-86324138D01*
X131385288Y-86324145D01*
X131241901Y-86419954D01*
X131241897Y-86419957D01*
X131119957Y-86541897D01*
X131119954Y-86541901D01*
X131024145Y-86685288D01*
X131024138Y-86685301D01*
X130958146Y-86844621D01*
X130958143Y-86844633D01*
X130924500Y-87013766D01*
X130924500Y-87186233D01*
X130958143Y-87355366D01*
X130958146Y-87355378D01*
X131024138Y-87514698D01*
X131024145Y-87514711D01*
X131119953Y-87658097D01*
X131119954Y-87658098D01*
X131119955Y-87658099D01*
X131188182Y-87726326D01*
X131221666Y-87787647D01*
X131224500Y-87814006D01*
X131224500Y-91667836D01*
X131204815Y-91734875D01*
X131188181Y-91755517D01*
X129901743Y-93041954D01*
X129840420Y-93075439D01*
X129770728Y-93070455D01*
X129714795Y-93028583D01*
X129710960Y-93023164D01*
X129621789Y-92889711D01*
X129621786Y-92889707D01*
X129510292Y-92778213D01*
X129510288Y-92778210D01*
X129379185Y-92690609D01*
X129379172Y-92690602D01*
X129233501Y-92630264D01*
X129233489Y-92630261D01*
X129078845Y-92599500D01*
X129078842Y-92599500D01*
X128924500Y-92599500D01*
X128857461Y-92579815D01*
X128811706Y-92527011D01*
X128800500Y-92475500D01*
X128800500Y-87889059D01*
X128800501Y-87889046D01*
X128800501Y-87720945D01*
X128800501Y-87720943D01*
X128759577Y-87568215D01*
X128702812Y-87469896D01*
X128680520Y-87431284D01*
X128568716Y-87319480D01*
X128568713Y-87319478D01*
X117234574Y-75985339D01*
X117201089Y-75924016D01*
X117200638Y-75921849D01*
X117181588Y-75826082D01*
X117169737Y-75766503D01*
X117144219Y-75704896D01*
X117109397Y-75620827D01*
X117109390Y-75620814D01*
X117021789Y-75489711D01*
X117021786Y-75489707D01*
X116910292Y-75378213D01*
X116910288Y-75378210D01*
X116779185Y-75290609D01*
X116779172Y-75290602D01*
X116633501Y-75230264D01*
X116633489Y-75230261D01*
X116478845Y-75199500D01*
X116478842Y-75199500D01*
X116321158Y-75199500D01*
X116321155Y-75199500D01*
X116166510Y-75230261D01*
X116166498Y-75230264D01*
X116020827Y-75290602D01*
X116020814Y-75290609D01*
X115889711Y-75378210D01*
X115889707Y-75378213D01*
X115778213Y-75489707D01*
X115778210Y-75489711D01*
X115690609Y-75620814D01*
X115690602Y-75620827D01*
X115630264Y-75766498D01*
X115630261Y-75766510D01*
X115599500Y-75921153D01*
X115599500Y-76078846D01*
X115630261Y-76233489D01*
X115630264Y-76233501D01*
X115690602Y-76379172D01*
X115690609Y-76379185D01*
X115778210Y-76510288D01*
X115778213Y-76510292D01*
X115889707Y-76621786D01*
X115889711Y-76621789D01*
X116020814Y-76709390D01*
X116020827Y-76709397D01*
X116166498Y-76769735D01*
X116166503Y-76769737D01*
X116231147Y-76782595D01*
X116321849Y-76800638D01*
X116383760Y-76833023D01*
X116385339Y-76834574D01*
X127563181Y-88012416D01*
X127596666Y-88073739D01*
X127599500Y-88100097D01*
X127599500Y-88550903D01*
X127579815Y-88617942D01*
X127527011Y-88663697D01*
X127457853Y-88673641D01*
X127394297Y-88644616D01*
X127387819Y-88638584D01*
X114734574Y-75985339D01*
X114701089Y-75924016D01*
X114700638Y-75921849D01*
X114681588Y-75826082D01*
X114669737Y-75766503D01*
X114644219Y-75704896D01*
X114609397Y-75620827D01*
X114609390Y-75620814D01*
X114521789Y-75489711D01*
X114521786Y-75489707D01*
X114410292Y-75378213D01*
X114410288Y-75378210D01*
X114279185Y-75290609D01*
X114279172Y-75290602D01*
X114133501Y-75230264D01*
X114133489Y-75230261D01*
X113978845Y-75199500D01*
X113978842Y-75199500D01*
X113821158Y-75199500D01*
X113821155Y-75199500D01*
X113666510Y-75230261D01*
X113666498Y-75230264D01*
X113520827Y-75290602D01*
X113520814Y-75290609D01*
X113389711Y-75378210D01*
X113389707Y-75378213D01*
X113278213Y-75489707D01*
X113278210Y-75489711D01*
X113190609Y-75620814D01*
X113190602Y-75620827D01*
X113130264Y-75766498D01*
X113130261Y-75766510D01*
X113099500Y-75921153D01*
X113099500Y-76078846D01*
X113130261Y-76233489D01*
X113130264Y-76233501D01*
X113190602Y-76379172D01*
X113190609Y-76379185D01*
X113278210Y-76510288D01*
X113278213Y-76510292D01*
X113389707Y-76621786D01*
X113389711Y-76621789D01*
X113520814Y-76709390D01*
X113520827Y-76709397D01*
X113666498Y-76769735D01*
X113666503Y-76769737D01*
X113731147Y-76782595D01*
X113821849Y-76800638D01*
X113883760Y-76833023D01*
X113885339Y-76834574D01*
X126531115Y-89480350D01*
X126564600Y-89541673D01*
X126559616Y-89611365D01*
X126517744Y-89667298D01*
X126490889Y-89682591D01*
X126471561Y-89690597D01*
X126471549Y-89690603D01*
X126340446Y-89778204D01*
X126340442Y-89778207D01*
X126228948Y-89889701D01*
X126228945Y-89889705D01*
X126141344Y-90020808D01*
X126141337Y-90020821D01*
X126080999Y-90166492D01*
X126080996Y-90166504D01*
X126050235Y-90321147D01*
X126050235Y-90449167D01*
X126030550Y-90516206D01*
X126013916Y-90536848D01*
X121985339Y-94565425D01*
X121924016Y-94598910D01*
X121921850Y-94599361D01*
X121766508Y-94630261D01*
X121766498Y-94630264D01*
X121620827Y-94690602D01*
X121620814Y-94690609D01*
X121489711Y-94778210D01*
X121489707Y-94778213D01*
X121378213Y-94889707D01*
X121378207Y-94889715D01*
X121366314Y-94907513D01*
X121312700Y-94952316D01*
X121243375Y-94961020D01*
X121180349Y-94930863D01*
X121175534Y-94926299D01*
X117834574Y-91585339D01*
X117825511Y-91568741D01*
X117812380Y-91555133D01*
X117801973Y-91525636D01*
X117801089Y-91524016D01*
X117800638Y-91521850D01*
X117776987Y-91402950D01*
X117783214Y-91333358D01*
X117826077Y-91278181D01*
X117891967Y-91254936D01*
X117898604Y-91254758D01*
X118520234Y-91254758D01*
X118587273Y-91274443D01*
X118589125Y-91275656D01*
X118720814Y-91363648D01*
X118720827Y-91363655D01*
X118806159Y-91399000D01*
X118866503Y-91423995D01*
X119021153Y-91454757D01*
X119021156Y-91454758D01*
X119021158Y-91454758D01*
X119178844Y-91454758D01*
X119178845Y-91454757D01*
X119333497Y-91423995D01*
X119479179Y-91363652D01*
X119610289Y-91276047D01*
X119721789Y-91164547D01*
X119809394Y-91033437D01*
X119869737Y-90887755D01*
X119900500Y-90733100D01*
X119900500Y-90575416D01*
X119900500Y-90575413D01*
X119900499Y-90575411D01*
X119869738Y-90420768D01*
X119869737Y-90420761D01*
X119852516Y-90379185D01*
X119809397Y-90275085D01*
X119809390Y-90275072D01*
X119721789Y-90143969D01*
X119721786Y-90143965D01*
X119610292Y-90032471D01*
X119610288Y-90032468D01*
X119479185Y-89944867D01*
X119479172Y-89944860D01*
X119333501Y-89884522D01*
X119333489Y-89884519D01*
X119178845Y-89853758D01*
X119178842Y-89853758D01*
X119021158Y-89853758D01*
X119021155Y-89853758D01*
X118866510Y-89884519D01*
X118866498Y-89884522D01*
X118720827Y-89944860D01*
X118720814Y-89944867D01*
X118589125Y-90032860D01*
X118522447Y-90053738D01*
X118520234Y-90053758D01*
X117174856Y-90053758D01*
X117016741Y-90053758D01*
X116864014Y-90094681D01*
X116836941Y-90110312D01*
X116782012Y-90142025D01*
X116727084Y-90173737D01*
X116727081Y-90173739D01*
X115119481Y-91781339D01*
X115119480Y-91781341D01*
X115089368Y-91833497D01*
X115040423Y-91918272D01*
X114999499Y-92071000D01*
X114999499Y-92071002D01*
X114999499Y-92239103D01*
X114999500Y-92239116D01*
X114999500Y-104720234D01*
X114979815Y-104787273D01*
X114978602Y-104789125D01*
X114890609Y-104920814D01*
X114890602Y-104920827D01*
X114830264Y-105066498D01*
X114830261Y-105066510D01*
X114799500Y-105221153D01*
X114799500Y-105378846D01*
X114830261Y-105533489D01*
X114830264Y-105533501D01*
X114890602Y-105679172D01*
X114890609Y-105679185D01*
X114978210Y-105810288D01*
X114978213Y-105810292D01*
X115089707Y-105921786D01*
X115089711Y-105921789D01*
X115220814Y-106009390D01*
X115220827Y-106009397D01*
X115348350Y-106062218D01*
X115366503Y-106069737D01*
X115521153Y-106100499D01*
X115521156Y-106100500D01*
X115521158Y-106100500D01*
X115678844Y-106100500D01*
X115678845Y-106100499D01*
X115833497Y-106069737D01*
X115979179Y-106009394D01*
X116110289Y-105921789D01*
X116221789Y-105810289D01*
X116309394Y-105679179D01*
X116369737Y-105533497D01*
X116400500Y-105378842D01*
X116400500Y-105221158D01*
X116400500Y-105221155D01*
X116400499Y-105221153D01*
X116369738Y-105066510D01*
X116369737Y-105066503D01*
X116321836Y-104950858D01*
X116309397Y-104920827D01*
X116309390Y-104920814D01*
X116221398Y-104789125D01*
X116200520Y-104722447D01*
X116200500Y-104720234D01*
X116200500Y-92450154D01*
X116209145Y-92420710D01*
X116215668Y-92390728D01*
X116219422Y-92385712D01*
X116220185Y-92383115D01*
X116236813Y-92362478D01*
X116350491Y-92248800D01*
X116411810Y-92215318D01*
X116481502Y-92220302D01*
X116507060Y-92233382D01*
X116620814Y-92309390D01*
X116620827Y-92309397D01*
X116748966Y-92362473D01*
X116766503Y-92369737D01*
X116831147Y-92382595D01*
X116921849Y-92400638D01*
X116983760Y-92433023D01*
X116985339Y-92434574D01*
X117886245Y-93335480D01*
X117919730Y-93396803D01*
X117914746Y-93466495D01*
X117872874Y-93522428D01*
X117867455Y-93526263D01*
X117789711Y-93578210D01*
X117789707Y-93578213D01*
X117678213Y-93689707D01*
X117678210Y-93689711D01*
X117590609Y-93820814D01*
X117590602Y-93820827D01*
X117530264Y-93966498D01*
X117530261Y-93966508D01*
X117499362Y-94121848D01*
X117466977Y-94183759D01*
X117465426Y-94185337D01*
X116931286Y-94719478D01*
X116819481Y-94831282D01*
X116819475Y-94831290D01*
X116774444Y-94909288D01*
X116774444Y-94909289D01*
X116740423Y-94968215D01*
X116699499Y-95120943D01*
X116699499Y-95120945D01*
X116699499Y-95289046D01*
X116699500Y-95289059D01*
X116699500Y-112020234D01*
X116679815Y-112087273D01*
X116678602Y-112089125D01*
X116590609Y-112220814D01*
X116590602Y-112220827D01*
X116530264Y-112366498D01*
X116530261Y-112366510D01*
X116499500Y-112521153D01*
X116499500Y-112678846D01*
X116530261Y-112833489D01*
X116530264Y-112833501D01*
X116590602Y-112979172D01*
X116590609Y-112979185D01*
X116678210Y-113110288D01*
X116678213Y-113110292D01*
X116789707Y-113221786D01*
X116789711Y-113221789D01*
X116920814Y-113309390D01*
X116920827Y-113309397D01*
X117066498Y-113369735D01*
X117066503Y-113369737D01*
X117221153Y-113400499D01*
X117221156Y-113400500D01*
X117221158Y-113400500D01*
X117378844Y-113400500D01*
X117378845Y-113400499D01*
X117533497Y-113369737D01*
X117679179Y-113309394D01*
X117807269Y-113223806D01*
X117873945Y-113202929D01*
X117941325Y-113221413D01*
X117988016Y-113273392D01*
X117990550Y-113279074D01*
X117990609Y-113279185D01*
X118078210Y-113410288D01*
X118078213Y-113410292D01*
X118189707Y-113521786D01*
X118189711Y-113521789D01*
X118320814Y-113609390D01*
X118320827Y-113609397D01*
X118466498Y-113669735D01*
X118466503Y-113669737D01*
X118621153Y-113700499D01*
X118621156Y-113700500D01*
X118621158Y-113700500D01*
X118778844Y-113700500D01*
X118778845Y-113700499D01*
X118933497Y-113669737D01*
X119079179Y-113609394D01*
X119210289Y-113521789D01*
X119321789Y-113410289D01*
X119409394Y-113279179D01*
X119409438Y-113279074D01*
X119432330Y-113223807D01*
X119469737Y-113133497D01*
X119500500Y-112978842D01*
X119500500Y-112821158D01*
X119500500Y-112821155D01*
X119500499Y-112821153D01*
X119469738Y-112666510D01*
X119469737Y-112666503D01*
X119469735Y-112666498D01*
X119409397Y-112520827D01*
X119409390Y-112520814D01*
X119321789Y-112389711D01*
X119321786Y-112389707D01*
X119210292Y-112278213D01*
X119210288Y-112278210D01*
X119079185Y-112190609D01*
X119079172Y-112190602D01*
X118933501Y-112130264D01*
X118933491Y-112130261D01*
X118778149Y-112099361D01*
X118716238Y-112066976D01*
X118714660Y-112065425D01*
X118536819Y-111887584D01*
X118503334Y-111826261D01*
X118500500Y-111799903D01*
X118500500Y-97358739D01*
X118520185Y-97291700D01*
X118521398Y-97289848D01*
X118555449Y-97238888D01*
X118609394Y-97158153D01*
X118669737Y-97012471D01*
X118700500Y-96857816D01*
X118700500Y-96700132D01*
X118700500Y-96700129D01*
X118700499Y-96700127D01*
X118689394Y-96644297D01*
X118669737Y-96545477D01*
X118661202Y-96524872D01*
X118609397Y-96399801D01*
X118609390Y-96399788D01*
X118521789Y-96268685D01*
X118521786Y-96268681D01*
X118410292Y-96157187D01*
X118410288Y-96157184D01*
X118279185Y-96069583D01*
X118279172Y-96069576D01*
X118133501Y-96009238D01*
X118133491Y-96009235D01*
X118000308Y-95982743D01*
X117938397Y-95950358D01*
X117903823Y-95889642D01*
X117900500Y-95861126D01*
X117900500Y-95500097D01*
X117920185Y-95433058D01*
X117936819Y-95412416D01*
X118122521Y-95226714D01*
X118314665Y-95034570D01*
X118375984Y-95001088D01*
X118378151Y-95000637D01*
X118378840Y-95000500D01*
X118378842Y-95000500D01*
X118533497Y-94969737D01*
X118679179Y-94909394D01*
X118810289Y-94821789D01*
X118921789Y-94710289D01*
X118973737Y-94632543D01*
X119027347Y-94587740D01*
X119096672Y-94579032D01*
X119159700Y-94609186D01*
X119164519Y-94613754D01*
X120916139Y-96365374D01*
X120916149Y-96365385D01*
X120920479Y-96369715D01*
X120920480Y-96369716D01*
X121032284Y-96481520D01*
X121107373Y-96524872D01*
X121169215Y-96560577D01*
X121321943Y-96601501D01*
X121321946Y-96601501D01*
X121487653Y-96601501D01*
X121487669Y-96601500D01*
X122595396Y-96601500D01*
X122662435Y-96621185D01*
X122708190Y-96673989D01*
X122718134Y-96743147D01*
X122689109Y-96806703D01*
X122642848Y-96840061D01*
X122520827Y-96890602D01*
X122520814Y-96890609D01*
X122389711Y-96978210D01*
X122389707Y-96978213D01*
X122278213Y-97089707D01*
X122278210Y-97089711D01*
X122190609Y-97220814D01*
X122190602Y-97220827D01*
X122130264Y-97366498D01*
X122130261Y-97366510D01*
X122099500Y-97521153D01*
X122099500Y-97678846D01*
X122130261Y-97833489D01*
X122130264Y-97833501D01*
X122190602Y-97979172D01*
X122190609Y-97979185D01*
X122278602Y-98110874D01*
X122299480Y-98177551D01*
X122299500Y-98179765D01*
X122299500Y-114399903D01*
X122279815Y-114466942D01*
X122263181Y-114487584D01*
X119087584Y-117663181D01*
X119026261Y-117696666D01*
X118999903Y-117699500D01*
X113479766Y-117699500D01*
X113412727Y-117679815D01*
X113410875Y-117678602D01*
X113279185Y-117590609D01*
X113279172Y-117590602D01*
X113133501Y-117530264D01*
X113133489Y-117530261D01*
X112978845Y-117499500D01*
X112978842Y-117499500D01*
X112821158Y-117499500D01*
X112821155Y-117499500D01*
X112666510Y-117530261D01*
X112666498Y-117530264D01*
X112520827Y-117590602D01*
X112520814Y-117590609D01*
X112389711Y-117678210D01*
X112389707Y-117678213D01*
X112278213Y-117789707D01*
X112278210Y-117789711D01*
X112190609Y-117920814D01*
X112190602Y-117920827D01*
X112130264Y-118066498D01*
X112130261Y-118066510D01*
X112099500Y-118221153D01*
X112099500Y-118378846D01*
X112130261Y-118533489D01*
X112130264Y-118533501D01*
X112190602Y-118679172D01*
X112190609Y-118679185D01*
X112278210Y-118810288D01*
X112278213Y-118810292D01*
X112389707Y-118921786D01*
X112389711Y-118921789D01*
X112520814Y-119009390D01*
X112520827Y-119009397D01*
X112666498Y-119069735D01*
X112666503Y-119069737D01*
X112821153Y-119100499D01*
X112821156Y-119100500D01*
X112821158Y-119100500D01*
X112978844Y-119100500D01*
X112978845Y-119100499D01*
X113133497Y-119069737D01*
X113279179Y-119009394D01*
X113279185Y-119009390D01*
X113410875Y-118921398D01*
X113477553Y-118900520D01*
X113479766Y-118900500D01*
X119213331Y-118900500D01*
X119213347Y-118900501D01*
X119220943Y-118900501D01*
X119379054Y-118900501D01*
X119379057Y-118900501D01*
X119531785Y-118859577D01*
X119581904Y-118830639D01*
X119668716Y-118780520D01*
X119780520Y-118668716D01*
X119780520Y-118668714D01*
X119790728Y-118658507D01*
X119790730Y-118658504D01*
X122093456Y-116355778D01*
X171799500Y-116355778D01*
X171799500Y-116644221D01*
X171799501Y-116644238D01*
X171837149Y-116930206D01*
X171837150Y-116930211D01*
X171837151Y-116930217D01*
X171911809Y-117208844D01*
X171911814Y-117208860D01*
X172022191Y-117475336D01*
X172022199Y-117475352D01*
X172166420Y-117725148D01*
X172166431Y-117725164D01*
X172342024Y-117954002D01*
X172342030Y-117954009D01*
X172545990Y-118157969D01*
X172545997Y-118157975D01*
X172628339Y-118221158D01*
X172774844Y-118333575D01*
X172774851Y-118333579D01*
X173024647Y-118477800D01*
X173024663Y-118477808D01*
X173291139Y-118588185D01*
X173291145Y-118588186D01*
X173291155Y-118588191D01*
X173569783Y-118662849D01*
X173855772Y-118700500D01*
X173855779Y-118700500D01*
X174144221Y-118700500D01*
X174144228Y-118700500D01*
X174430217Y-118662849D01*
X174708845Y-118588191D01*
X174708857Y-118588185D01*
X174708860Y-118588185D01*
X174975336Y-118477808D01*
X174975339Y-118477806D01*
X174975345Y-118477804D01*
X175225156Y-118333575D01*
X175454004Y-118157974D01*
X175657974Y-117954004D01*
X175833575Y-117725156D01*
X175977804Y-117475345D01*
X176088191Y-117208845D01*
X176162849Y-116930217D01*
X176200500Y-116644228D01*
X176200500Y-116355772D01*
X176162849Y-116069783D01*
X176088191Y-115791155D01*
X176088186Y-115791145D01*
X176088185Y-115791139D01*
X175977808Y-115524663D01*
X175977800Y-115524647D01*
X175833579Y-115274851D01*
X175833575Y-115274844D01*
X175657974Y-115045996D01*
X175657969Y-115045990D01*
X175454009Y-114842030D01*
X175454002Y-114842024D01*
X175225164Y-114666431D01*
X175225162Y-114666429D01*
X175225156Y-114666425D01*
X175225151Y-114666422D01*
X175225148Y-114666420D01*
X174975352Y-114522199D01*
X174975336Y-114522191D01*
X174708860Y-114411814D01*
X174708848Y-114411810D01*
X174708845Y-114411809D01*
X174430217Y-114337151D01*
X174430211Y-114337150D01*
X174430206Y-114337149D01*
X174144238Y-114299501D01*
X174144233Y-114299500D01*
X174144228Y-114299500D01*
X173855772Y-114299500D01*
X173855766Y-114299500D01*
X173855761Y-114299501D01*
X173569793Y-114337149D01*
X173569786Y-114337150D01*
X173569783Y-114337151D01*
X173335589Y-114399903D01*
X173291155Y-114411809D01*
X173291139Y-114411814D01*
X173024663Y-114522191D01*
X173024647Y-114522199D01*
X172774851Y-114666420D01*
X172774835Y-114666431D01*
X172545997Y-114842024D01*
X172545990Y-114842030D01*
X172342030Y-115045990D01*
X172342024Y-115045997D01*
X172166431Y-115274835D01*
X172166420Y-115274851D01*
X172022199Y-115524647D01*
X172022191Y-115524663D01*
X171911814Y-115791139D01*
X171911809Y-115791155D01*
X171837152Y-116069780D01*
X171837149Y-116069793D01*
X171799501Y-116355761D01*
X171799500Y-116355778D01*
X122093456Y-116355778D01*
X123268713Y-115180521D01*
X123268716Y-115180520D01*
X123380520Y-115068716D01*
X123430639Y-114981904D01*
X123459577Y-114931785D01*
X123500501Y-114779057D01*
X123500501Y-114620943D01*
X123500501Y-114613348D01*
X123500500Y-114613330D01*
X123500500Y-109702135D01*
X129849500Y-109702135D01*
X129849500Y-111497870D01*
X129849501Y-111497876D01*
X129855908Y-111557483D01*
X129906202Y-111692328D01*
X129906206Y-111692335D01*
X129992452Y-111807544D01*
X129992455Y-111807547D01*
X130107664Y-111893793D01*
X130107671Y-111893797D01*
X130242517Y-111944091D01*
X130242516Y-111944091D01*
X130249444Y-111944835D01*
X130302127Y-111950500D01*
X132097872Y-111950499D01*
X132157483Y-111944091D01*
X132292331Y-111893796D01*
X132407546Y-111807546D01*
X132493796Y-111692331D01*
X132542810Y-111560916D01*
X132584681Y-111504984D01*
X132650145Y-111480566D01*
X132718418Y-111495417D01*
X132746673Y-111516569D01*
X132860213Y-111630109D01*
X133032179Y-111755048D01*
X133032181Y-111755049D01*
X133032184Y-111755051D01*
X133221588Y-111851557D01*
X133423757Y-111917246D01*
X133633713Y-111950500D01*
X133633714Y-111950500D01*
X133846286Y-111950500D01*
X133846287Y-111950500D01*
X134056243Y-111917246D01*
X134258412Y-111851557D01*
X134447816Y-111755051D01*
X134503407Y-111714662D01*
X134619786Y-111630109D01*
X134619788Y-111630106D01*
X134619792Y-111630104D01*
X134770104Y-111479792D01*
X134770106Y-111479788D01*
X134770109Y-111479786D01*
X134895048Y-111307820D01*
X134895047Y-111307820D01*
X134895051Y-111307816D01*
X134899514Y-111299054D01*
X134947488Y-111248259D01*
X135015308Y-111231463D01*
X135081444Y-111253999D01*
X135120486Y-111299056D01*
X135124951Y-111307820D01*
X135249890Y-111479786D01*
X135400213Y-111630109D01*
X135572179Y-111755048D01*
X135572181Y-111755049D01*
X135572184Y-111755051D01*
X135761588Y-111851557D01*
X135963757Y-111917246D01*
X136173713Y-111950500D01*
X136173714Y-111950500D01*
X136386286Y-111950500D01*
X136386287Y-111950500D01*
X136596243Y-111917246D01*
X136798412Y-111851557D01*
X136987816Y-111755051D01*
X137043407Y-111714662D01*
X137159786Y-111630109D01*
X137159788Y-111630106D01*
X137159792Y-111630104D01*
X137310104Y-111479792D01*
X137310106Y-111479788D01*
X137310109Y-111479786D01*
X137417635Y-111331787D01*
X137435051Y-111307816D01*
X137439793Y-111298508D01*
X137487763Y-111247711D01*
X137555583Y-111230911D01*
X137621719Y-111253445D01*
X137660763Y-111298500D01*
X137665377Y-111307555D01*
X137790272Y-111479459D01*
X137790276Y-111479464D01*
X137940535Y-111629723D01*
X137940540Y-111629727D01*
X138112442Y-111754620D01*
X138301782Y-111851095D01*
X138503871Y-111916757D01*
X138570000Y-111927231D01*
X138570000Y-111033012D01*
X138627007Y-111065925D01*
X138754174Y-111100000D01*
X138885826Y-111100000D01*
X139012993Y-111065925D01*
X139070000Y-111033012D01*
X139070000Y-111927230D01*
X139136126Y-111916757D01*
X139136129Y-111916757D01*
X139338217Y-111851095D01*
X139527557Y-111754620D01*
X139699459Y-111629727D01*
X139699464Y-111629723D01*
X139849723Y-111479464D01*
X139849727Y-111479459D01*
X139974620Y-111307557D01*
X140071095Y-111118217D01*
X140136757Y-110916129D01*
X140136757Y-110916126D01*
X140147231Y-110850000D01*
X139253012Y-110850000D01*
X139285925Y-110792993D01*
X139320000Y-110665826D01*
X139320000Y-110534174D01*
X139285925Y-110407007D01*
X139253012Y-110350000D01*
X140147231Y-110350000D01*
X140136757Y-110283873D01*
X140136757Y-110283870D01*
X140071095Y-110081782D01*
X139974620Y-109892442D01*
X139849727Y-109720540D01*
X139849723Y-109720535D01*
X139699464Y-109570276D01*
X139699459Y-109570272D01*
X139527557Y-109445379D01*
X139338215Y-109348903D01*
X139136124Y-109283241D01*
X139070000Y-109272768D01*
X139070000Y-110166988D01*
X139012993Y-110134075D01*
X138885826Y-110100000D01*
X138754174Y-110100000D01*
X138627007Y-110134075D01*
X138570000Y-110166988D01*
X138570000Y-109272768D01*
X138569999Y-109272768D01*
X138503875Y-109283241D01*
X138301784Y-109348903D01*
X138112442Y-109445379D01*
X137940540Y-109570272D01*
X137940535Y-109570276D01*
X137790276Y-109720535D01*
X137790272Y-109720540D01*
X137665378Y-109892443D01*
X137660762Y-109901502D01*
X137612784Y-109952295D01*
X137544963Y-109969087D01*
X137478829Y-109946546D01*
X137439794Y-109901493D01*
X137435051Y-109892184D01*
X137435049Y-109892181D01*
X137435048Y-109892179D01*
X137310109Y-109720213D01*
X137159786Y-109569890D01*
X136987820Y-109444951D01*
X136798414Y-109348444D01*
X136798413Y-109348443D01*
X136798412Y-109348443D01*
X136596243Y-109282754D01*
X136596241Y-109282753D01*
X136596240Y-109282753D01*
X136434957Y-109257208D01*
X136386287Y-109249500D01*
X136173713Y-109249500D01*
X136125042Y-109257208D01*
X135963760Y-109282753D01*
X135761585Y-109348444D01*
X135572179Y-109444951D01*
X135400213Y-109569890D01*
X135249890Y-109720213D01*
X135124949Y-109892182D01*
X135120484Y-109900946D01*
X135072509Y-109951742D01*
X135004688Y-109968536D01*
X134938553Y-109945998D01*
X134899516Y-109900946D01*
X134895050Y-109892182D01*
X134770109Y-109720213D01*
X134619786Y-109569890D01*
X134447820Y-109444951D01*
X134258414Y-109348444D01*
X134258413Y-109348443D01*
X134258412Y-109348443D01*
X134056243Y-109282754D01*
X134056241Y-109282753D01*
X134056240Y-109282753D01*
X133894957Y-109257208D01*
X133846287Y-109249500D01*
X133633713Y-109249500D01*
X133585042Y-109257208D01*
X133423760Y-109282753D01*
X133221585Y-109348444D01*
X133032179Y-109444951D01*
X132860215Y-109569889D01*
X132746673Y-109683431D01*
X132685350Y-109716915D01*
X132615658Y-109711931D01*
X132559725Y-109670059D01*
X132542810Y-109639082D01*
X132493797Y-109507671D01*
X132493793Y-109507664D01*
X132407547Y-109392455D01*
X132407544Y-109392452D01*
X132292335Y-109306206D01*
X132292328Y-109306202D01*
X132157482Y-109255908D01*
X132157483Y-109255908D01*
X132097883Y-109249501D01*
X132097881Y-109249500D01*
X132097873Y-109249500D01*
X132097864Y-109249500D01*
X130302129Y-109249500D01*
X130302123Y-109249501D01*
X130242516Y-109255908D01*
X130107671Y-109306202D01*
X130107664Y-109306206D01*
X129992455Y-109392452D01*
X129992452Y-109392455D01*
X129906206Y-109507664D01*
X129906202Y-109507671D01*
X129855908Y-109642517D01*
X129849501Y-109702116D01*
X129849500Y-109702135D01*
X123500500Y-109702135D01*
X123500500Y-98179765D01*
X123520185Y-98112726D01*
X123521398Y-98110874D01*
X123561768Y-98050457D01*
X123609394Y-97979179D01*
X123669737Y-97833497D01*
X123700500Y-97678842D01*
X123700500Y-97521158D01*
X123700500Y-97521155D01*
X123700499Y-97521153D01*
X123683329Y-97434835D01*
X123669737Y-97366503D01*
X123637986Y-97289848D01*
X123609397Y-97220827D01*
X123609390Y-97220814D01*
X123521789Y-97089711D01*
X123521786Y-97089707D01*
X123410292Y-96978213D01*
X123410288Y-96978210D01*
X123279185Y-96890609D01*
X123279172Y-96890602D01*
X123157152Y-96840061D01*
X123148376Y-96832989D01*
X123137565Y-96829815D01*
X123121663Y-96811463D01*
X123102748Y-96796221D01*
X123099188Y-96785526D01*
X123091810Y-96777011D01*
X123088353Y-96752973D01*
X123080683Y-96729927D01*
X123083469Y-96719007D01*
X123081866Y-96707853D01*
X123091955Y-96685759D01*
X123097962Y-96662227D01*
X123106209Y-96654548D01*
X123110891Y-96644297D01*
X123131323Y-96631166D01*
X123149099Y-96614616D01*
X123161714Y-96611634D01*
X123169669Y-96606523D01*
X123204604Y-96601500D01*
X123312331Y-96601500D01*
X123312347Y-96601501D01*
X123319943Y-96601501D01*
X123478054Y-96601501D01*
X123478057Y-96601501D01*
X123630785Y-96560577D01*
X123692627Y-96524872D01*
X123767716Y-96481520D01*
X123879520Y-96369716D01*
X123879520Y-96369714D01*
X123889724Y-96359511D01*
X123889727Y-96359506D01*
X126614664Y-93634571D01*
X126631258Y-93625510D01*
X126644870Y-93612377D01*
X126674365Y-93601972D01*
X126675985Y-93601088D01*
X126678154Y-93600636D01*
X126678838Y-93600500D01*
X126678842Y-93600500D01*
X126702047Y-93595884D01*
X126771637Y-93602113D01*
X126826814Y-93644977D01*
X126850057Y-93710867D01*
X126850235Y-93717502D01*
X126850235Y-94370969D01*
X126830550Y-94438008D01*
X126829337Y-94439860D01*
X126741344Y-94571549D01*
X126741337Y-94571562D01*
X126680999Y-94717233D01*
X126680996Y-94717245D01*
X126650235Y-94871888D01*
X126650235Y-95029581D01*
X126680996Y-95184224D01*
X126680999Y-95184236D01*
X126741337Y-95329907D01*
X126741344Y-95329920D01*
X126816786Y-95442826D01*
X126837664Y-95509504D01*
X126819180Y-95576884D01*
X126801365Y-95599398D01*
X125731286Y-96669478D01*
X125619481Y-96781282D01*
X125619479Y-96781284D01*
X125602436Y-96810805D01*
X125586567Y-96838292D01*
X125540423Y-96918215D01*
X125499499Y-97070943D01*
X125499499Y-97070945D01*
X125499499Y-97239046D01*
X125499500Y-97239059D01*
X125499500Y-101913330D01*
X125499499Y-101913348D01*
X125499499Y-102079054D01*
X125499498Y-102079054D01*
X125540424Y-102231787D01*
X125551375Y-102250754D01*
X125551376Y-102250756D01*
X125619477Y-102368712D01*
X125619481Y-102368717D01*
X125738349Y-102487585D01*
X125738354Y-102487589D01*
X130931284Y-107680520D01*
X130931286Y-107680521D01*
X130931290Y-107680524D01*
X131019221Y-107731290D01*
X131068216Y-107759577D01*
X131220943Y-107800501D01*
X131220945Y-107800501D01*
X131386654Y-107800501D01*
X131386670Y-107800500D01*
X144699903Y-107800500D01*
X144766942Y-107820185D01*
X144787584Y-107836819D01*
X147063181Y-110112416D01*
X147096666Y-110173739D01*
X147099500Y-110200097D01*
X147099500Y-110782152D01*
X147079815Y-110849191D01*
X147027011Y-110894946D01*
X146999692Y-110903769D01*
X146866508Y-110930261D01*
X146866498Y-110930264D01*
X146720827Y-110990602D01*
X146720814Y-110990609D01*
X146589711Y-111078210D01*
X146589707Y-111078213D01*
X146478213Y-111189707D01*
X146478210Y-111189711D01*
X146390609Y-111320814D01*
X146390602Y-111320827D01*
X146330264Y-111466498D01*
X146330261Y-111466510D01*
X146299500Y-111621153D01*
X146299500Y-111778846D01*
X146330261Y-111933489D01*
X146330264Y-111933501D01*
X146390602Y-112079172D01*
X146390609Y-112079185D01*
X146478210Y-112210288D01*
X146478213Y-112210292D01*
X146589707Y-112321786D01*
X146589711Y-112321789D01*
X146720814Y-112409390D01*
X146720827Y-112409397D01*
X146864038Y-112468716D01*
X146866503Y-112469737D01*
X147021153Y-112500499D01*
X147021156Y-112500500D01*
X147021158Y-112500500D01*
X147178844Y-112500500D01*
X147178845Y-112500499D01*
X147333497Y-112469737D01*
X147479179Y-112409394D01*
X147610289Y-112321789D01*
X147721789Y-112210289D01*
X147809394Y-112079179D01*
X147869737Y-111933497D01*
X147900500Y-111778842D01*
X147900500Y-111778839D01*
X147900637Y-111778151D01*
X147909402Y-111761394D01*
X147913422Y-111742915D01*
X147932162Y-111717880D01*
X147933021Y-111716240D01*
X147934527Y-111714707D01*
X148058504Y-111590729D01*
X148058506Y-111590729D01*
X148068714Y-111580520D01*
X148068716Y-111580520D01*
X148180520Y-111468716D01*
X148233917Y-111376229D01*
X148259577Y-111331785D01*
X148300500Y-111179057D01*
X148300500Y-111020943D01*
X148300500Y-109989060D01*
X148300501Y-109989047D01*
X148300501Y-109820944D01*
X148273596Y-109720535D01*
X148259577Y-109668216D01*
X148220249Y-109600097D01*
X148180524Y-109531290D01*
X148180518Y-109531282D01*
X147261652Y-108612416D01*
X146261415Y-107612180D01*
X146227931Y-107550858D01*
X146232915Y-107481166D01*
X146274787Y-107425233D01*
X146340251Y-107400816D01*
X146349097Y-107400500D01*
X147599903Y-107400500D01*
X147666942Y-107420185D01*
X147687584Y-107436819D01*
X150163181Y-109912416D01*
X150196666Y-109973739D01*
X150199500Y-110000097D01*
X150199500Y-110786572D01*
X150179815Y-110853611D01*
X150127011Y-110899366D01*
X150099692Y-110908189D01*
X149988730Y-110930261D01*
X149988720Y-110930264D01*
X149843049Y-110990602D01*
X149843036Y-110990609D01*
X149711933Y-111078210D01*
X149711929Y-111078213D01*
X149600435Y-111189707D01*
X149600432Y-111189711D01*
X149512831Y-111320814D01*
X149512824Y-111320827D01*
X149452486Y-111466498D01*
X149452483Y-111466510D01*
X149421722Y-111621153D01*
X149421722Y-111778846D01*
X149452483Y-111933489D01*
X149452486Y-111933501D01*
X149512824Y-112079172D01*
X149512831Y-112079185D01*
X149600432Y-112210288D01*
X149600435Y-112210292D01*
X149711929Y-112321786D01*
X149711933Y-112321789D01*
X149843036Y-112409390D01*
X149843049Y-112409397D01*
X149986260Y-112468716D01*
X149988725Y-112469737D01*
X150143375Y-112500499D01*
X150143378Y-112500500D01*
X150143380Y-112500500D01*
X150301066Y-112500500D01*
X150301067Y-112500499D01*
X150455719Y-112469737D01*
X150601401Y-112409394D01*
X150732511Y-112321789D01*
X150844011Y-112210289D01*
X150931616Y-112079179D01*
X150991959Y-111933497D01*
X151022722Y-111778842D01*
X151022722Y-111778839D01*
X151022859Y-111778151D01*
X151031624Y-111761394D01*
X151035644Y-111742915D01*
X151054384Y-111717880D01*
X151055243Y-111716240D01*
X151056750Y-111714705D01*
X151158504Y-111612951D01*
X151158506Y-111612951D01*
X151168714Y-111602742D01*
X151168716Y-111602742D01*
X151280520Y-111490938D01*
X151359577Y-111354006D01*
X151400500Y-111201279D01*
X151400500Y-109620943D01*
X151394754Y-109599500D01*
X151364864Y-109487949D01*
X151359577Y-109468216D01*
X151359576Y-109468214D01*
X151359576Y-109468213D01*
X151280524Y-109331290D01*
X151280521Y-109331286D01*
X151280520Y-109331284D01*
X151168716Y-109219480D01*
X151168715Y-109219479D01*
X151164385Y-109215149D01*
X151164374Y-109215139D01*
X149161416Y-107212181D01*
X149127931Y-107150858D01*
X149132915Y-107081166D01*
X149174787Y-107025233D01*
X149240251Y-107000816D01*
X149249097Y-107000500D01*
X150699903Y-107000500D01*
X150766942Y-107020185D01*
X150787584Y-107036819D01*
X153263181Y-109512416D01*
X153296666Y-109573739D01*
X153299500Y-109600097D01*
X153299500Y-110790992D01*
X153279815Y-110858031D01*
X153227011Y-110903786D01*
X153199693Y-110912609D01*
X153110951Y-110930261D01*
X153110942Y-110930264D01*
X152965271Y-110990602D01*
X152965258Y-110990609D01*
X152834155Y-111078210D01*
X152834151Y-111078213D01*
X152722657Y-111189707D01*
X152722654Y-111189711D01*
X152635053Y-111320814D01*
X152635046Y-111320827D01*
X152574708Y-111466498D01*
X152574705Y-111466510D01*
X152543944Y-111621153D01*
X152543944Y-111778846D01*
X152574705Y-111933489D01*
X152574708Y-111933501D01*
X152635046Y-112079172D01*
X152635053Y-112079185D01*
X152722654Y-112210288D01*
X152722657Y-112210292D01*
X152834151Y-112321786D01*
X152834155Y-112321789D01*
X152965258Y-112409390D01*
X152965271Y-112409397D01*
X153108482Y-112468716D01*
X153110947Y-112469737D01*
X153265597Y-112500499D01*
X153265600Y-112500500D01*
X153265602Y-112500500D01*
X153423288Y-112500500D01*
X153423289Y-112500499D01*
X153577941Y-112469737D01*
X153723623Y-112409394D01*
X153854733Y-112321789D01*
X153966233Y-112210289D01*
X154053838Y-112079179D01*
X154114181Y-111933497D01*
X154144944Y-111778842D01*
X154144944Y-111778839D01*
X154145081Y-111778151D01*
X154153846Y-111761394D01*
X154157866Y-111742915D01*
X154176606Y-111717880D01*
X154177465Y-111716240D01*
X154178975Y-111714703D01*
X154258504Y-111635173D01*
X154258506Y-111635173D01*
X154268714Y-111624964D01*
X154268716Y-111624964D01*
X154380520Y-111513160D01*
X154446747Y-111398451D01*
X154459577Y-111376229D01*
X154500501Y-111223501D01*
X154500501Y-111065387D01*
X154500501Y-111057792D01*
X154500500Y-111057774D01*
X154500500Y-109220945D01*
X154500500Y-109220943D01*
X154459577Y-109068216D01*
X154459573Y-109068209D01*
X154380524Y-108931290D01*
X154380521Y-108931286D01*
X154380520Y-108931284D01*
X154268716Y-108819480D01*
X154268715Y-108819479D01*
X154264385Y-108815149D01*
X154264374Y-108815139D01*
X152261416Y-106812181D01*
X152227931Y-106750858D01*
X152232915Y-106681166D01*
X152274787Y-106625233D01*
X152340251Y-106600816D01*
X152349097Y-106600500D01*
X153799903Y-106600500D01*
X153866942Y-106620185D01*
X153887584Y-106636819D01*
X156363181Y-109112416D01*
X156396666Y-109173739D01*
X156399500Y-109200097D01*
X156399500Y-110795413D01*
X156379815Y-110862452D01*
X156327011Y-110908207D01*
X156299692Y-110917030D01*
X156233175Y-110930261D01*
X156233165Y-110930264D01*
X156087494Y-110990602D01*
X156087481Y-110990609D01*
X155956378Y-111078210D01*
X155956374Y-111078213D01*
X155844880Y-111189707D01*
X155844877Y-111189711D01*
X155757276Y-111320814D01*
X155757269Y-111320827D01*
X155696931Y-111466498D01*
X155696928Y-111466510D01*
X155666167Y-111621153D01*
X155666167Y-111778846D01*
X155696928Y-111933489D01*
X155696931Y-111933501D01*
X155757269Y-112079172D01*
X155757276Y-112079185D01*
X155844877Y-112210288D01*
X155844880Y-112210292D01*
X155956374Y-112321786D01*
X155956378Y-112321789D01*
X156087481Y-112409390D01*
X156087494Y-112409397D01*
X156230705Y-112468716D01*
X156233170Y-112469737D01*
X156387820Y-112500499D01*
X156387823Y-112500500D01*
X156387825Y-112500500D01*
X156545511Y-112500500D01*
X156545512Y-112500499D01*
X156700164Y-112469737D01*
X156845846Y-112409394D01*
X156976956Y-112321789D01*
X157088456Y-112210289D01*
X157176061Y-112079179D01*
X157236404Y-111933497D01*
X157257735Y-111826261D01*
X157267305Y-111778151D01*
X157299690Y-111716240D01*
X157301241Y-111714661D01*
X157369618Y-111646284D01*
X157480520Y-111535383D01*
X157559577Y-111398451D01*
X157600501Y-111245724D01*
X157600501Y-111087609D01*
X157600501Y-111080014D01*
X157600500Y-111079996D01*
X157600500Y-108820945D01*
X157600500Y-108820943D01*
X157559577Y-108668216D01*
X157527361Y-108612416D01*
X157480524Y-108531290D01*
X157480521Y-108531286D01*
X157480520Y-108531284D01*
X157368716Y-108419480D01*
X157368715Y-108419479D01*
X157364385Y-108415149D01*
X157364374Y-108415139D01*
X155361416Y-106412181D01*
X155327931Y-106350858D01*
X155332915Y-106281166D01*
X155374787Y-106225233D01*
X155440251Y-106200816D01*
X155449097Y-106200500D01*
X156999903Y-106200500D01*
X157066942Y-106220185D01*
X157087584Y-106236819D01*
X159463181Y-108612416D01*
X159496666Y-108673739D01*
X159499500Y-108700097D01*
X159499500Y-110799833D01*
X159479815Y-110866872D01*
X159427011Y-110912627D01*
X159399693Y-110921450D01*
X159355396Y-110930261D01*
X159355387Y-110930264D01*
X159209716Y-110990602D01*
X159209703Y-110990609D01*
X159078600Y-111078210D01*
X159078596Y-111078213D01*
X158967102Y-111189707D01*
X158967099Y-111189711D01*
X158879498Y-111320814D01*
X158879491Y-111320827D01*
X158819153Y-111466498D01*
X158819150Y-111466510D01*
X158788389Y-111621153D01*
X158788389Y-111778846D01*
X158819150Y-111933489D01*
X158819153Y-111933501D01*
X158879491Y-112079172D01*
X158879498Y-112079185D01*
X158967099Y-112210288D01*
X158967102Y-112210292D01*
X159078596Y-112321786D01*
X159078600Y-112321789D01*
X159209703Y-112409390D01*
X159209716Y-112409397D01*
X159352927Y-112468716D01*
X159355392Y-112469737D01*
X159510042Y-112500499D01*
X159510045Y-112500500D01*
X159510047Y-112500500D01*
X159667733Y-112500500D01*
X159667734Y-112500499D01*
X159822386Y-112469737D01*
X159968068Y-112409394D01*
X160099178Y-112321789D01*
X160210678Y-112210289D01*
X160298283Y-112079179D01*
X160358626Y-111933497D01*
X160379957Y-111826261D01*
X160389527Y-111778151D01*
X160398291Y-111761395D01*
X160402311Y-111742917D01*
X160421056Y-111717875D01*
X160421912Y-111716240D01*
X160423462Y-111714662D01*
X160458503Y-111679620D01*
X160458508Y-111679616D01*
X160468714Y-111669409D01*
X160468716Y-111669409D01*
X160580520Y-111557605D01*
X160642357Y-111450500D01*
X160659577Y-111420674D01*
X160700500Y-111267946D01*
X160700500Y-111109832D01*
X160700500Y-108489059D01*
X160700501Y-108489046D01*
X160700501Y-108320945D01*
X160700501Y-108320943D01*
X160659577Y-108168215D01*
X160630639Y-108118095D01*
X160580520Y-108031284D01*
X160468716Y-107919480D01*
X160468715Y-107919479D01*
X160464385Y-107915149D01*
X160464374Y-107915139D01*
X158461416Y-105912181D01*
X158427931Y-105850858D01*
X158432915Y-105781166D01*
X158474787Y-105725233D01*
X158540251Y-105700816D01*
X158549097Y-105700500D01*
X159999903Y-105700500D01*
X160066942Y-105720185D01*
X160087584Y-105736819D01*
X162663181Y-108312416D01*
X162696666Y-108373739D01*
X162699500Y-108400097D01*
X162699500Y-110784362D01*
X162679815Y-110851401D01*
X162627011Y-110897156D01*
X162599692Y-110905979D01*
X162477619Y-110930261D01*
X162477609Y-110930264D01*
X162331938Y-110990602D01*
X162331925Y-110990609D01*
X162200822Y-111078210D01*
X162200818Y-111078213D01*
X162089324Y-111189707D01*
X162089321Y-111189711D01*
X162001720Y-111320814D01*
X162001713Y-111320827D01*
X161941375Y-111466498D01*
X161941372Y-111466510D01*
X161910611Y-111621153D01*
X161910611Y-111778846D01*
X161941372Y-111933489D01*
X161941375Y-111933501D01*
X162001713Y-112079172D01*
X162001720Y-112079185D01*
X162089321Y-112210288D01*
X162089324Y-112210292D01*
X162200818Y-112321786D01*
X162200822Y-112321789D01*
X162331925Y-112409390D01*
X162331938Y-112409397D01*
X162475149Y-112468716D01*
X162477614Y-112469737D01*
X162632264Y-112500499D01*
X162632267Y-112500500D01*
X162632269Y-112500500D01*
X162789955Y-112500500D01*
X162789956Y-112500499D01*
X162944608Y-112469737D01*
X163090290Y-112409394D01*
X163221400Y-112321789D01*
X163332900Y-112210289D01*
X163420505Y-112079179D01*
X163480848Y-111933497D01*
X163511611Y-111778842D01*
X163511611Y-111778839D01*
X163511748Y-111778151D01*
X163520513Y-111761394D01*
X163524533Y-111742915D01*
X163543273Y-111717880D01*
X163544132Y-111716240D01*
X163545638Y-111714706D01*
X163658504Y-111601840D01*
X163658506Y-111601840D01*
X163668714Y-111591631D01*
X163668716Y-111591631D01*
X163780520Y-111479827D01*
X163833917Y-111387340D01*
X163833919Y-111387338D01*
X163859574Y-111342901D01*
X163859575Y-111342900D01*
X163859575Y-111342898D01*
X163859577Y-111342896D01*
X163900501Y-111190168D01*
X163900501Y-111032053D01*
X163900501Y-111024458D01*
X163900500Y-111024440D01*
X163900500Y-108189060D01*
X163900501Y-108189047D01*
X163900501Y-108020944D01*
X163859576Y-107868214D01*
X163859573Y-107868209D01*
X163780524Y-107731290D01*
X163780518Y-107731282D01*
X162648732Y-106599496D01*
X161461415Y-105412180D01*
X161427931Y-105350858D01*
X161432915Y-105281166D01*
X161474787Y-105225233D01*
X161540251Y-105200816D01*
X161549097Y-105200500D01*
X163199903Y-105200500D01*
X163266942Y-105220185D01*
X163287584Y-105236819D01*
X165763181Y-107712416D01*
X165796666Y-107773739D01*
X165799500Y-107800097D01*
X165799500Y-110788782D01*
X165779815Y-110855821D01*
X165727011Y-110901576D01*
X165699692Y-110910399D01*
X165599841Y-110930261D01*
X165599831Y-110930264D01*
X165454160Y-110990602D01*
X165454147Y-110990609D01*
X165323044Y-111078210D01*
X165323040Y-111078213D01*
X165211546Y-111189707D01*
X165211543Y-111189711D01*
X165123942Y-111320814D01*
X165123935Y-111320827D01*
X165063597Y-111466498D01*
X165063594Y-111466510D01*
X165032833Y-111621153D01*
X165032833Y-111778846D01*
X165063594Y-111933489D01*
X165063597Y-111933501D01*
X165123935Y-112079172D01*
X165123942Y-112079185D01*
X165211543Y-112210288D01*
X165211546Y-112210292D01*
X165323040Y-112321786D01*
X165323044Y-112321789D01*
X165454147Y-112409390D01*
X165454160Y-112409397D01*
X165597371Y-112468716D01*
X165599836Y-112469737D01*
X165754486Y-112500499D01*
X165754489Y-112500500D01*
X165754491Y-112500500D01*
X165912177Y-112500500D01*
X165912178Y-112500499D01*
X166066830Y-112469737D01*
X166212512Y-112409394D01*
X166343622Y-112321789D01*
X166455122Y-112210289D01*
X166542727Y-112079179D01*
X166603070Y-111933497D01*
X166633833Y-111778842D01*
X166633833Y-111778839D01*
X166633970Y-111778151D01*
X166642735Y-111761394D01*
X166646755Y-111742915D01*
X166665495Y-111717880D01*
X166666354Y-111716240D01*
X166667863Y-111714704D01*
X166758504Y-111624062D01*
X166758506Y-111624062D01*
X166768714Y-111613853D01*
X166768716Y-111613853D01*
X166880520Y-111502049D01*
X166946747Y-111387340D01*
X166959577Y-111365118D01*
X167000500Y-111212390D01*
X167000500Y-111054276D01*
X167000500Y-107420943D01*
X166959577Y-107268216D01*
X166932282Y-107220939D01*
X166880524Y-107131290D01*
X166880521Y-107131286D01*
X166880520Y-107131284D01*
X166768716Y-107019480D01*
X166768715Y-107019479D01*
X166764385Y-107015149D01*
X166764374Y-107015139D01*
X164761416Y-105012181D01*
X164727931Y-104950858D01*
X164732915Y-104881166D01*
X164774787Y-104825233D01*
X164840251Y-104800816D01*
X164849097Y-104800500D01*
X166299903Y-104800500D01*
X166366942Y-104820185D01*
X166387584Y-104836819D01*
X168863181Y-107312416D01*
X168896666Y-107373739D01*
X168899500Y-107400097D01*
X168899500Y-110793203D01*
X168879815Y-110860242D01*
X168827011Y-110905997D01*
X168799692Y-110914820D01*
X168722064Y-110930261D01*
X168722054Y-110930264D01*
X168576383Y-110990602D01*
X168576370Y-110990609D01*
X168445267Y-111078210D01*
X168445263Y-111078213D01*
X168333769Y-111189707D01*
X168333766Y-111189711D01*
X168246165Y-111320814D01*
X168246158Y-111320827D01*
X168185820Y-111466498D01*
X168185817Y-111466510D01*
X168155056Y-111621153D01*
X168155056Y-111778846D01*
X168185817Y-111933489D01*
X168185820Y-111933501D01*
X168246158Y-112079172D01*
X168246165Y-112079185D01*
X168333766Y-112210288D01*
X168333769Y-112210292D01*
X168445263Y-112321786D01*
X168445267Y-112321789D01*
X168576370Y-112409390D01*
X168576383Y-112409397D01*
X168719594Y-112468716D01*
X168722059Y-112469737D01*
X168876709Y-112500499D01*
X168876712Y-112500500D01*
X168876714Y-112500500D01*
X169034400Y-112500500D01*
X169034401Y-112500499D01*
X169189053Y-112469737D01*
X169334735Y-112409394D01*
X169465845Y-112321789D01*
X169577345Y-112210289D01*
X169664950Y-112079179D01*
X169725293Y-111933497D01*
X169756056Y-111778842D01*
X169756056Y-111778839D01*
X169756193Y-111778151D01*
X169764958Y-111761394D01*
X169768978Y-111742915D01*
X169787718Y-111717880D01*
X169788577Y-111716240D01*
X169790088Y-111714701D01*
X169868713Y-111636077D01*
X169868716Y-111636076D01*
X169980520Y-111524272D01*
X170030639Y-111437460D01*
X170059577Y-111387341D01*
X170100500Y-111234613D01*
X170100500Y-111076499D01*
X170100500Y-107020943D01*
X170059577Y-106868216D01*
X170031440Y-106819480D01*
X169980524Y-106731290D01*
X169980521Y-106731286D01*
X169980520Y-106731284D01*
X169868716Y-106619480D01*
X169868715Y-106619479D01*
X169864385Y-106615149D01*
X169864374Y-106615139D01*
X167762416Y-104513181D01*
X167728931Y-104451858D01*
X167733915Y-104382166D01*
X167775787Y-104326233D01*
X167841251Y-104301816D01*
X167850097Y-104301500D01*
X169300903Y-104301500D01*
X169367942Y-104321185D01*
X169388584Y-104337819D01*
X171963181Y-106912416D01*
X171996666Y-106973739D01*
X171999500Y-107000097D01*
X171999500Y-110797623D01*
X171979815Y-110864662D01*
X171927011Y-110910417D01*
X171899693Y-110919240D01*
X171844285Y-110930261D01*
X171844276Y-110930264D01*
X171698605Y-110990602D01*
X171698592Y-110990609D01*
X171567489Y-111078210D01*
X171567485Y-111078213D01*
X171455991Y-111189707D01*
X171455988Y-111189711D01*
X171368387Y-111320814D01*
X171368380Y-111320827D01*
X171308042Y-111466498D01*
X171308039Y-111466510D01*
X171277278Y-111621153D01*
X171277278Y-111778846D01*
X171308039Y-111933489D01*
X171308042Y-111933501D01*
X171368380Y-112079172D01*
X171368387Y-112079185D01*
X171455988Y-112210288D01*
X171455991Y-112210292D01*
X171567485Y-112321786D01*
X171567489Y-112321789D01*
X171698592Y-112409390D01*
X171698605Y-112409397D01*
X171841816Y-112468716D01*
X171844281Y-112469737D01*
X171998931Y-112500499D01*
X171998934Y-112500500D01*
X171998936Y-112500500D01*
X172156622Y-112500500D01*
X172156623Y-112500499D01*
X172311275Y-112469737D01*
X172456957Y-112409394D01*
X172588067Y-112321789D01*
X172699567Y-112210289D01*
X172787172Y-112079179D01*
X172847515Y-111933497D01*
X172868846Y-111826261D01*
X172878416Y-111778151D01*
X172887180Y-111761396D01*
X172891200Y-111742916D01*
X172909945Y-111717874D01*
X172910801Y-111716240D01*
X172912351Y-111714662D01*
X172958503Y-111668509D01*
X172958508Y-111668505D01*
X172968714Y-111658298D01*
X172968716Y-111658298D01*
X173080520Y-111546494D01*
X173159577Y-111409562D01*
X173200500Y-111256835D01*
X173200500Y-106620943D01*
X173194754Y-106599500D01*
X173178925Y-106540423D01*
X173159577Y-106468216D01*
X173127266Y-106412251D01*
X173080524Y-106331290D01*
X173080521Y-106331286D01*
X173080520Y-106331284D01*
X172968716Y-106219480D01*
X172968715Y-106219479D01*
X172964385Y-106215149D01*
X172964374Y-106215139D01*
X170861416Y-104112181D01*
X170827931Y-104050858D01*
X170832915Y-103981166D01*
X170874787Y-103925233D01*
X170940251Y-103900816D01*
X170949097Y-103900500D01*
X171399903Y-103900500D01*
X171466942Y-103920185D01*
X171487584Y-103936819D01*
X175063181Y-107512416D01*
X175096666Y-107573739D01*
X175099500Y-107600097D01*
X175099500Y-110802044D01*
X175079815Y-110869083D01*
X175027011Y-110914838D01*
X174999691Y-110923661D01*
X174966510Y-110930261D01*
X174966498Y-110930264D01*
X174820827Y-110990602D01*
X174820814Y-110990609D01*
X174689711Y-111078210D01*
X174689707Y-111078213D01*
X174578213Y-111189707D01*
X174578210Y-111189711D01*
X174490609Y-111320814D01*
X174490602Y-111320827D01*
X174430264Y-111466498D01*
X174430261Y-111466510D01*
X174399500Y-111621153D01*
X174399500Y-111778846D01*
X174430261Y-111933489D01*
X174430264Y-111933501D01*
X174490602Y-112079172D01*
X174490609Y-112079185D01*
X174578210Y-112210288D01*
X174578213Y-112210292D01*
X174689707Y-112321786D01*
X174689711Y-112321789D01*
X174820814Y-112409390D01*
X174820827Y-112409397D01*
X174964038Y-112468716D01*
X174966503Y-112469737D01*
X175121153Y-112500499D01*
X175121156Y-112500500D01*
X175121158Y-112500500D01*
X175278844Y-112500500D01*
X175278845Y-112500499D01*
X175433497Y-112469737D01*
X175579179Y-112409394D01*
X175710289Y-112321789D01*
X175821789Y-112210289D01*
X175909394Y-112079179D01*
X175969737Y-111933497D01*
X175991068Y-111826261D01*
X176000638Y-111778151D01*
X176033023Y-111716240D01*
X176034510Y-111714724D01*
X176180520Y-111568716D01*
X176259577Y-111431784D01*
X176300501Y-111279057D01*
X176300501Y-111120942D01*
X176300501Y-111113347D01*
X176300500Y-111113329D01*
X176300500Y-107220943D01*
X176300499Y-107220939D01*
X176289669Y-107180520D01*
X176289669Y-107180519D01*
X176259577Y-107068215D01*
X176220482Y-107000501D01*
X176180520Y-106931284D01*
X176068716Y-106819480D01*
X176068715Y-106819479D01*
X176064385Y-106815149D01*
X176064374Y-106815139D01*
X172187589Y-102938354D01*
X172180520Y-102931285D01*
X172180520Y-102931284D01*
X172152180Y-102902944D01*
X172118695Y-102841620D01*
X172121446Y-102803165D01*
X172123680Y-102771930D01*
X172165552Y-102715997D01*
X172165552Y-102715996D01*
X172165553Y-102715996D01*
X172203913Y-102701689D01*
X172231016Y-102691580D01*
X172231018Y-102691580D01*
X172264051Y-102693646D01*
X172287259Y-102698263D01*
X172298504Y-102700500D01*
X172298505Y-102700500D01*
X172501497Y-102700500D01*
X172501498Y-102700499D01*
X172700586Y-102660898D01*
X172888125Y-102583217D01*
X173056905Y-102470442D01*
X173200442Y-102326905D01*
X173313217Y-102158125D01*
X173390898Y-101970586D01*
X173430500Y-101771495D01*
X173430500Y-101568505D01*
X173430500Y-101568502D01*
X173430499Y-101568500D01*
X173390898Y-101369414D01*
X173373675Y-101327834D01*
X173313220Y-101181881D01*
X173313212Y-101181866D01*
X173261110Y-101103892D01*
X173240231Y-101037215D01*
X173258715Y-100969834D01*
X173261110Y-100966108D01*
X173262777Y-100963614D01*
X173291148Y-100921153D01*
X173313212Y-100888133D01*
X173313213Y-100888130D01*
X173313217Y-100888125D01*
X173390898Y-100700586D01*
X173430500Y-100501495D01*
X173430500Y-100298505D01*
X173430500Y-100298502D01*
X173430499Y-100298500D01*
X173410856Y-100199750D01*
X173390898Y-100099414D01*
X173342364Y-99982242D01*
X173313220Y-99911881D01*
X173313213Y-99911868D01*
X173200442Y-99743095D01*
X173200439Y-99743091D01*
X173056908Y-99599560D01*
X173056904Y-99599557D01*
X172888131Y-99486786D01*
X172888118Y-99486779D01*
X172700590Y-99409103D01*
X172700578Y-99409100D01*
X172501498Y-99369500D01*
X172501495Y-99369500D01*
X172298505Y-99369500D01*
X172298502Y-99369500D01*
X172099421Y-99409100D01*
X172099409Y-99409103D01*
X171911877Y-99486781D01*
X171833891Y-99538890D01*
X171767213Y-99559768D01*
X171699833Y-99541283D01*
X171696109Y-99538890D01*
X171618122Y-99486781D01*
X171430590Y-99409103D01*
X171430578Y-99409100D01*
X171231498Y-99369500D01*
X171231495Y-99369500D01*
X171028505Y-99369500D01*
X171028502Y-99369500D01*
X170829421Y-99409100D01*
X170829409Y-99409103D01*
X170641877Y-99486781D01*
X170563891Y-99538890D01*
X170497213Y-99559768D01*
X170429833Y-99541283D01*
X170426109Y-99538890D01*
X170348122Y-99486781D01*
X170160590Y-99409103D01*
X170160578Y-99409100D01*
X169961498Y-99369500D01*
X169961495Y-99369500D01*
X169758505Y-99369500D01*
X169758502Y-99369500D01*
X169559421Y-99409100D01*
X169559409Y-99409103D01*
X169371877Y-99486781D01*
X169293891Y-99538890D01*
X169227213Y-99559768D01*
X169159833Y-99541283D01*
X169156109Y-99538890D01*
X169078122Y-99486781D01*
X168890590Y-99409103D01*
X168890578Y-99409100D01*
X168691498Y-99369500D01*
X168691495Y-99369500D01*
X168488505Y-99369500D01*
X168488502Y-99369500D01*
X168289421Y-99409100D01*
X168289409Y-99409103D01*
X168101877Y-99486781D01*
X168023891Y-99538890D01*
X167957213Y-99559768D01*
X167889833Y-99541283D01*
X167886109Y-99538890D01*
X167808122Y-99486781D01*
X167620590Y-99409103D01*
X167620578Y-99409100D01*
X167421498Y-99369500D01*
X167421495Y-99369500D01*
X167218505Y-99369500D01*
X167218502Y-99369500D01*
X167019421Y-99409100D01*
X167019409Y-99409103D01*
X166831877Y-99486781D01*
X166753891Y-99538890D01*
X166687213Y-99559768D01*
X166619833Y-99541283D01*
X166616109Y-99538890D01*
X166538122Y-99486781D01*
X166350590Y-99409103D01*
X166350578Y-99409100D01*
X166151498Y-99369500D01*
X166151495Y-99369500D01*
X165948505Y-99369500D01*
X165948502Y-99369500D01*
X165749421Y-99409100D01*
X165749409Y-99409103D01*
X165561877Y-99486781D01*
X165483891Y-99538890D01*
X165417213Y-99559768D01*
X165349833Y-99541283D01*
X165346109Y-99538890D01*
X165268122Y-99486781D01*
X165080590Y-99409103D01*
X165080578Y-99409100D01*
X164881498Y-99369500D01*
X164881495Y-99369500D01*
X164678505Y-99369500D01*
X164678502Y-99369500D01*
X164479421Y-99409100D01*
X164479409Y-99409103D01*
X164291877Y-99486781D01*
X164213891Y-99538890D01*
X164147213Y-99559768D01*
X164079833Y-99541283D01*
X164076109Y-99538890D01*
X163998122Y-99486781D01*
X163810590Y-99409103D01*
X163810578Y-99409100D01*
X163611498Y-99369500D01*
X163611495Y-99369500D01*
X163408505Y-99369500D01*
X163408502Y-99369500D01*
X163209421Y-99409100D01*
X163209409Y-99409103D01*
X163021877Y-99486781D01*
X162943891Y-99538890D01*
X162877213Y-99559768D01*
X162809833Y-99541283D01*
X162806109Y-99538890D01*
X162728122Y-99486781D01*
X162540590Y-99409103D01*
X162540578Y-99409100D01*
X162341498Y-99369500D01*
X162341495Y-99369500D01*
X162138505Y-99369500D01*
X162138502Y-99369500D01*
X161939422Y-99409099D01*
X161939417Y-99409101D01*
X161939415Y-99409101D01*
X161939414Y-99409102D01*
X161939412Y-99409103D01*
X161863062Y-99440727D01*
X161793592Y-99448194D01*
X161750636Y-99429496D01*
X161750114Y-99430454D01*
X161742328Y-99426202D01*
X161607482Y-99375908D01*
X161607483Y-99375908D01*
X161547883Y-99369501D01*
X161547881Y-99369500D01*
X161547873Y-99369500D01*
X161547864Y-99369500D01*
X160392129Y-99369500D01*
X160392123Y-99369501D01*
X160332516Y-99375908D01*
X160197671Y-99426202D01*
X160197664Y-99426206D01*
X160082455Y-99512452D01*
X160082452Y-99512455D01*
X159996206Y-99627664D01*
X159996202Y-99627671D01*
X159945908Y-99762517D01*
X159939501Y-99822116D01*
X159939500Y-99822135D01*
X159939500Y-100977870D01*
X159939501Y-100977876D01*
X159945908Y-101037483D01*
X159996202Y-101172328D01*
X160000454Y-101180114D01*
X159999013Y-101180900D01*
X160019849Y-101236768D01*
X160010727Y-101293062D01*
X159979101Y-101369417D01*
X159979099Y-101369422D01*
X159939500Y-101568500D01*
X159939500Y-101771499D01*
X159979100Y-101970578D01*
X159979103Y-101970590D01*
X160056779Y-102158118D01*
X160056786Y-102158131D01*
X160169557Y-102326904D01*
X160169560Y-102326908D01*
X160313092Y-102470440D01*
X160316021Y-102472397D01*
X160317209Y-102473818D01*
X160317803Y-102474306D01*
X160317710Y-102474418D01*
X160360826Y-102526009D01*
X160369534Y-102595334D01*
X160339380Y-102658362D01*
X160279938Y-102695081D01*
X160247131Y-102699500D01*
X141349097Y-102699500D01*
X141282058Y-102679815D01*
X141236303Y-102627011D01*
X141226359Y-102557853D01*
X141255384Y-102494297D01*
X141261416Y-102487819D01*
X144170063Y-99579172D01*
X147114662Y-96634572D01*
X147175983Y-96601089D01*
X147178150Y-96600638D01*
X147236085Y-96589113D01*
X147333497Y-96569737D01*
X147479179Y-96509394D01*
X147610289Y-96421789D01*
X147721789Y-96310289D01*
X147809394Y-96179179D01*
X147869737Y-96033497D01*
X147900500Y-95878842D01*
X147900500Y-95721158D01*
X147900500Y-95721155D01*
X147900499Y-95721153D01*
X147880543Y-95620827D01*
X147869737Y-95566503D01*
X147848993Y-95516421D01*
X147809397Y-95420827D01*
X147809390Y-95420814D01*
X147724248Y-95293391D01*
X147703370Y-95226714D01*
X147721854Y-95159334D01*
X147773833Y-95112643D01*
X147827350Y-95100500D01*
X148599903Y-95100500D01*
X148666942Y-95120185D01*
X148687584Y-95136819D01*
X149380837Y-95830072D01*
X149414322Y-95891395D01*
X149414773Y-95893561D01*
X149442607Y-96033491D01*
X149442610Y-96033501D01*
X149502948Y-96179172D01*
X149502955Y-96179185D01*
X149590556Y-96310288D01*
X149590559Y-96310292D01*
X149702053Y-96421786D01*
X149702057Y-96421789D01*
X149833160Y-96509390D01*
X149833173Y-96509397D01*
X149978844Y-96569735D01*
X149978849Y-96569737D01*
X150133499Y-96600499D01*
X150133502Y-96600500D01*
X150133504Y-96600500D01*
X150291190Y-96600500D01*
X150291191Y-96600499D01*
X150445843Y-96569737D01*
X150591525Y-96509394D01*
X150722635Y-96421789D01*
X150834135Y-96310289D01*
X150921740Y-96179179D01*
X150982083Y-96033497D01*
X151012846Y-95878842D01*
X151012846Y-95721158D01*
X151012846Y-95721155D01*
X151012845Y-95721153D01*
X150992889Y-95620827D01*
X150982083Y-95566503D01*
X150961339Y-95516421D01*
X150921743Y-95420827D01*
X150921736Y-95420814D01*
X150834135Y-95289711D01*
X150834132Y-95289707D01*
X150722638Y-95178213D01*
X150722634Y-95178210D01*
X150591531Y-95090609D01*
X150591518Y-95090602D01*
X150445847Y-95030264D01*
X150445835Y-95030261D01*
X150291187Y-94999499D01*
X150288243Y-94999209D01*
X150286801Y-94998626D01*
X150285214Y-94998311D01*
X150285273Y-94998009D01*
X150223457Y-94973044D01*
X150212724Y-94963488D01*
X149997708Y-94748472D01*
X149761415Y-94512180D01*
X149727931Y-94450858D01*
X149732915Y-94381167D01*
X149774786Y-94325233D01*
X149840251Y-94300816D01*
X149849097Y-94300500D01*
X151499903Y-94300500D01*
X151566942Y-94320185D01*
X151587584Y-94336819D01*
X152573197Y-95322432D01*
X152606682Y-95383755D01*
X152601698Y-95453447D01*
X152600077Y-95457565D01*
X152554955Y-95566498D01*
X152554952Y-95566510D01*
X152524191Y-95721153D01*
X152524191Y-95878846D01*
X152554952Y-96033489D01*
X152554955Y-96033501D01*
X152615293Y-96179172D01*
X152615300Y-96179185D01*
X152702901Y-96310288D01*
X152702904Y-96310292D01*
X152814398Y-96421786D01*
X152814402Y-96421789D01*
X152945505Y-96509390D01*
X152945518Y-96509397D01*
X153091189Y-96569735D01*
X153091194Y-96569737D01*
X153245844Y-96600499D01*
X153245847Y-96600500D01*
X153245849Y-96600500D01*
X153403535Y-96600500D01*
X153403536Y-96600499D01*
X153558188Y-96569737D01*
X153703870Y-96509394D01*
X153834980Y-96421789D01*
X153946480Y-96310289D01*
X154034085Y-96179179D01*
X154094428Y-96033497D01*
X154125191Y-95878842D01*
X154125191Y-95721158D01*
X154125191Y-95721155D01*
X154125190Y-95721153D01*
X154105234Y-95620827D01*
X154094428Y-95566503D01*
X154073684Y-95516421D01*
X154034088Y-95420827D01*
X154034081Y-95420814D01*
X153954732Y-95302060D01*
X153933854Y-95235382D01*
X153933834Y-95233169D01*
X153933834Y-95154276D01*
X153933834Y-95154275D01*
X153892910Y-95001548D01*
X153813853Y-94864617D01*
X153702049Y-94752813D01*
X153702048Y-94752812D01*
X153697718Y-94748482D01*
X153697707Y-94748472D01*
X152287590Y-93338355D01*
X152287588Y-93338352D01*
X152168717Y-93219481D01*
X152168716Y-93219480D01*
X152076956Y-93166503D01*
X152076955Y-93166502D01*
X152043888Y-93147411D01*
X152031785Y-93140423D01*
X152031784Y-93140422D01*
X152031783Y-93140422D01*
X151975881Y-93125443D01*
X151879057Y-93099499D01*
X151720943Y-93099499D01*
X151713347Y-93099499D01*
X151713331Y-93099500D01*
X147386670Y-93099500D01*
X147386654Y-93099499D01*
X147379058Y-93099499D01*
X147220943Y-93099499D01*
X147068215Y-93140423D01*
X147068213Y-93140423D01*
X147068213Y-93140424D01*
X146931281Y-93219482D01*
X141578881Y-98571882D01*
X141517558Y-98605367D01*
X141447866Y-98600383D01*
X141412534Y-98580053D01*
X141410289Y-98578211D01*
X141279185Y-98490609D01*
X141279172Y-98490602D01*
X141133499Y-98430263D01*
X141133493Y-98430261D01*
X141110551Y-98425698D01*
X141048640Y-98393312D01*
X141047063Y-98391762D01*
X140830609Y-98175307D01*
X140830605Y-98175304D01*
X140719975Y-98101383D01*
X140719965Y-98101378D01*
X140597036Y-98050459D01*
X140597028Y-98050457D01*
X140466535Y-98024500D01*
X140466531Y-98024500D01*
X138931163Y-98024500D01*
X138864124Y-98004815D01*
X138843482Y-97988181D01*
X132611819Y-91756518D01*
X132578334Y-91695195D01*
X132575500Y-91668837D01*
X132575500Y-90924500D01*
X132595185Y-90857461D01*
X132647989Y-90811706D01*
X132699500Y-90800500D01*
X132797842Y-90800500D01*
X132797843Y-90800499D01*
X132952495Y-90769737D01*
X133098177Y-90709394D01*
X133229287Y-90621789D01*
X133340787Y-90510289D01*
X133428392Y-90379179D01*
X133444938Y-90339234D01*
X133488778Y-90284830D01*
X133555072Y-90262765D01*
X133622772Y-90280044D01*
X133670383Y-90331181D01*
X133674060Y-90339234D01*
X133690602Y-90379172D01*
X133690609Y-90379185D01*
X133778210Y-90510288D01*
X133778213Y-90510292D01*
X133889707Y-90621786D01*
X133889711Y-90621789D01*
X134020814Y-90709390D01*
X134020827Y-90709397D01*
X134078062Y-90733104D01*
X134166503Y-90769737D01*
X134321153Y-90800499D01*
X134321156Y-90800500D01*
X134321158Y-90800500D01*
X134478844Y-90800500D01*
X134478845Y-90800499D01*
X134633497Y-90769737D01*
X134779179Y-90709394D01*
X134910289Y-90621789D01*
X135021789Y-90510289D01*
X135109394Y-90379179D01*
X135169737Y-90233497D01*
X135200500Y-90078842D01*
X135200500Y-89921158D01*
X135200500Y-89921155D01*
X135200499Y-89921153D01*
X135197533Y-89906240D01*
X135169737Y-89766503D01*
X135164083Y-89752854D01*
X135161945Y-89732978D01*
X135154959Y-89714246D01*
X135158286Y-89698951D01*
X135156612Y-89683388D01*
X135165561Y-89665507D01*
X135169811Y-89645973D01*
X135186493Y-89623687D01*
X135187885Y-89620907D01*
X135190901Y-89617780D01*
X135345100Y-89463581D01*
X135406420Y-89430100D01*
X135476112Y-89435084D01*
X135501669Y-89448164D01*
X135615423Y-89524172D01*
X135615436Y-89524179D01*
X135761107Y-89584517D01*
X135761112Y-89584519D01*
X135848425Y-89601886D01*
X135910334Y-89634270D01*
X135928949Y-89658905D01*
X135929450Y-89658571D01*
X136020435Y-89794740D01*
X136020441Y-89794748D01*
X136131933Y-89906240D01*
X136131939Y-89906245D01*
X136144387Y-89914562D01*
X136189194Y-89968172D01*
X136199500Y-90017666D01*
X136199500Y-90078846D01*
X136230261Y-90233489D01*
X136230264Y-90233501D01*
X136290602Y-90379172D01*
X136290609Y-90379185D01*
X136378210Y-90510288D01*
X136378213Y-90510292D01*
X136489707Y-90621786D01*
X136489711Y-90621789D01*
X136620814Y-90709390D01*
X136620827Y-90709397D01*
X136678062Y-90733104D01*
X136766503Y-90769737D01*
X136921153Y-90800499D01*
X136921156Y-90800500D01*
X136921158Y-90800500D01*
X137078844Y-90800500D01*
X137078845Y-90800499D01*
X137233497Y-90769737D01*
X137379179Y-90709394D01*
X137510289Y-90621789D01*
X137621789Y-90510289D01*
X137709394Y-90379179D01*
X137769737Y-90233497D01*
X137783065Y-90166492D01*
X137795833Y-90102308D01*
X137828218Y-90040397D01*
X137888934Y-90005823D01*
X137917450Y-90002500D01*
X149738940Y-90002500D01*
X149805979Y-90022185D01*
X149826621Y-90038819D01*
X155602462Y-95814660D01*
X155635947Y-95875983D01*
X155636398Y-95878149D01*
X155667298Y-96033491D01*
X155667301Y-96033501D01*
X155727639Y-96179172D01*
X155727646Y-96179185D01*
X155815247Y-96310288D01*
X155815250Y-96310292D01*
X155926744Y-96421786D01*
X155926748Y-96421789D01*
X156057851Y-96509390D01*
X156057864Y-96509397D01*
X156203535Y-96569735D01*
X156203540Y-96569737D01*
X156358190Y-96600499D01*
X156358193Y-96600500D01*
X156358195Y-96600500D01*
X156515881Y-96600500D01*
X156515882Y-96600499D01*
X156670534Y-96569737D01*
X156816216Y-96509394D01*
X156947326Y-96421789D01*
X157058826Y-96310289D01*
X157146431Y-96179179D01*
X157206774Y-96033497D01*
X157237537Y-95878842D01*
X157237537Y-95721158D01*
X157237537Y-95721155D01*
X157237536Y-95721153D01*
X157217580Y-95620827D01*
X157206774Y-95566503D01*
X157186030Y-95516421D01*
X157146434Y-95420827D01*
X157146427Y-95420814D01*
X157058826Y-95289711D01*
X157058823Y-95289707D01*
X156947329Y-95178213D01*
X156947325Y-95178210D01*
X156816222Y-95090609D01*
X156816209Y-95090602D01*
X156670538Y-95030264D01*
X156670528Y-95030261D01*
X156515186Y-94999361D01*
X156453275Y-94966976D01*
X156451697Y-94965425D01*
X151299453Y-89813181D01*
X151265968Y-89751858D01*
X151270952Y-89682166D01*
X151312824Y-89626233D01*
X151378288Y-89601816D01*
X151387134Y-89601500D01*
X152450286Y-89601500D01*
X152517325Y-89621185D01*
X152537967Y-89637819D01*
X158714808Y-95814660D01*
X158748293Y-95875983D01*
X158748744Y-95878149D01*
X158779644Y-96033491D01*
X158779647Y-96033501D01*
X158839985Y-96179172D01*
X158839992Y-96179185D01*
X158927593Y-96310288D01*
X158927596Y-96310292D01*
X159039090Y-96421786D01*
X159039094Y-96421789D01*
X159170197Y-96509390D01*
X159170210Y-96509397D01*
X159315881Y-96569735D01*
X159315886Y-96569737D01*
X159470536Y-96600499D01*
X159470539Y-96600500D01*
X159470541Y-96600500D01*
X159628227Y-96600500D01*
X159628228Y-96600499D01*
X159782880Y-96569737D01*
X159928562Y-96509394D01*
X160059672Y-96421789D01*
X160171172Y-96310289D01*
X160258777Y-96179179D01*
X160319120Y-96033497D01*
X160349883Y-95878842D01*
X160349883Y-95721158D01*
X160349883Y-95721155D01*
X160349882Y-95721153D01*
X160329926Y-95620827D01*
X160319120Y-95566503D01*
X160298376Y-95516421D01*
X160258780Y-95420827D01*
X160258773Y-95420814D01*
X160171172Y-95289711D01*
X160171169Y-95289707D01*
X160059675Y-95178213D01*
X160059671Y-95178210D01*
X159928568Y-95090609D01*
X159928555Y-95090602D01*
X159782884Y-95030264D01*
X159782874Y-95030261D01*
X159627532Y-94999361D01*
X159565621Y-94966976D01*
X159564043Y-94965425D01*
X154010799Y-89412181D01*
X153977314Y-89350858D01*
X153982298Y-89281166D01*
X154024170Y-89225233D01*
X154089634Y-89200816D01*
X154098480Y-89200500D01*
X155161631Y-89200500D01*
X155228670Y-89220185D01*
X155249312Y-89236819D01*
X161827153Y-95814660D01*
X161860638Y-95875983D01*
X161861089Y-95878149D01*
X161891989Y-96033491D01*
X161891992Y-96033501D01*
X161952330Y-96179172D01*
X161952337Y-96179185D01*
X162039938Y-96310288D01*
X162039941Y-96310292D01*
X162151435Y-96421786D01*
X162151439Y-96421789D01*
X162282542Y-96509390D01*
X162282555Y-96509397D01*
X162428226Y-96569735D01*
X162428231Y-96569737D01*
X162582881Y-96600499D01*
X162582884Y-96600500D01*
X162582886Y-96600500D01*
X162740572Y-96600500D01*
X162740573Y-96600499D01*
X162895225Y-96569737D01*
X163040907Y-96509394D01*
X163172017Y-96421789D01*
X163283517Y-96310289D01*
X163371122Y-96179179D01*
X163431465Y-96033497D01*
X163462228Y-95878842D01*
X163462228Y-95721158D01*
X163462228Y-95721155D01*
X163462227Y-95721153D01*
X163442271Y-95620827D01*
X163431465Y-95566503D01*
X163410721Y-95516421D01*
X163371125Y-95420827D01*
X163371118Y-95420814D01*
X163283517Y-95289711D01*
X163283514Y-95289707D01*
X163172020Y-95178213D01*
X163172016Y-95178210D01*
X163040913Y-95090609D01*
X163040900Y-95090602D01*
X162895229Y-95030264D01*
X162895219Y-95030261D01*
X162739879Y-94999362D01*
X162677969Y-94966977D01*
X162676390Y-94965426D01*
X159710464Y-91999500D01*
X156723143Y-89012180D01*
X156689659Y-88950858D01*
X156694643Y-88881166D01*
X156736515Y-88825233D01*
X156801979Y-88800816D01*
X156810825Y-88800500D01*
X157873977Y-88800500D01*
X157941016Y-88820185D01*
X157961658Y-88836819D01*
X164939499Y-95814660D01*
X164972984Y-95875983D01*
X164973435Y-95878149D01*
X165004335Y-96033491D01*
X165004338Y-96033501D01*
X165064676Y-96179172D01*
X165064683Y-96179185D01*
X165152284Y-96310288D01*
X165152287Y-96310292D01*
X165263781Y-96421786D01*
X165263785Y-96421789D01*
X165394888Y-96509390D01*
X165394901Y-96509397D01*
X165540572Y-96569735D01*
X165540577Y-96569737D01*
X165695227Y-96600499D01*
X165695230Y-96600500D01*
X165695232Y-96600500D01*
X165852918Y-96600500D01*
X165852919Y-96600499D01*
X166007571Y-96569737D01*
X166153253Y-96509394D01*
X166284363Y-96421789D01*
X166395863Y-96310289D01*
X166483468Y-96179179D01*
X166543811Y-96033497D01*
X166574574Y-95878842D01*
X166574574Y-95721158D01*
X166574574Y-95721155D01*
X166574573Y-95721153D01*
X166554617Y-95620827D01*
X166543811Y-95566503D01*
X166523067Y-95516421D01*
X166483471Y-95420827D01*
X166483464Y-95420814D01*
X166395863Y-95289711D01*
X166395860Y-95289707D01*
X166284366Y-95178213D01*
X166284362Y-95178210D01*
X166153259Y-95090609D01*
X166153246Y-95090602D01*
X166007575Y-95030264D01*
X166007565Y-95030261D01*
X165852223Y-94999361D01*
X165790312Y-94966976D01*
X165788734Y-94965425D01*
X159434490Y-88611181D01*
X159401005Y-88549858D01*
X159405989Y-88480166D01*
X159447861Y-88424233D01*
X159513325Y-88399816D01*
X159522171Y-88399500D01*
X160585323Y-88399500D01*
X160652362Y-88419185D01*
X160673004Y-88435819D01*
X168051845Y-95814660D01*
X168085330Y-95875983D01*
X168085781Y-95878149D01*
X168116681Y-96033491D01*
X168116684Y-96033501D01*
X168177022Y-96179172D01*
X168177029Y-96179185D01*
X168264630Y-96310288D01*
X168264633Y-96310292D01*
X168376127Y-96421786D01*
X168376131Y-96421789D01*
X168507234Y-96509390D01*
X168507247Y-96509397D01*
X168652918Y-96569735D01*
X168652923Y-96569737D01*
X168807573Y-96600499D01*
X168807576Y-96600500D01*
X168807578Y-96600500D01*
X168965264Y-96600500D01*
X168965265Y-96600499D01*
X169119917Y-96569737D01*
X169265599Y-96509394D01*
X169396709Y-96421789D01*
X169508209Y-96310289D01*
X169595814Y-96179179D01*
X169656157Y-96033497D01*
X169686920Y-95878842D01*
X169686920Y-95721158D01*
X169686920Y-95721155D01*
X169686919Y-95721153D01*
X169666963Y-95620827D01*
X169656157Y-95566503D01*
X169635413Y-95516421D01*
X169595817Y-95420827D01*
X169595810Y-95420814D01*
X169508209Y-95289711D01*
X169508206Y-95289707D01*
X169396712Y-95178213D01*
X169396708Y-95178210D01*
X169265605Y-95090609D01*
X169265592Y-95090602D01*
X169119921Y-95030264D01*
X169119911Y-95030261D01*
X168964571Y-94999362D01*
X168902661Y-94966977D01*
X168901082Y-94965426D01*
X165456814Y-91521158D01*
X161947835Y-88012180D01*
X161914351Y-87950858D01*
X161919335Y-87881166D01*
X161961207Y-87825233D01*
X162026671Y-87800816D01*
X162035517Y-87800500D01*
X163098668Y-87800500D01*
X163165707Y-87820185D01*
X163186349Y-87836819D01*
X171164190Y-95814660D01*
X171197675Y-95875983D01*
X171198126Y-95878149D01*
X171229026Y-96033491D01*
X171229029Y-96033501D01*
X171289367Y-96179172D01*
X171289374Y-96179185D01*
X171376975Y-96310288D01*
X171376978Y-96310292D01*
X171488472Y-96421786D01*
X171488476Y-96421789D01*
X171619579Y-96509390D01*
X171619592Y-96509397D01*
X171765263Y-96569735D01*
X171765268Y-96569737D01*
X171919918Y-96600499D01*
X171919921Y-96600500D01*
X171919923Y-96600500D01*
X172077609Y-96600500D01*
X172077610Y-96600499D01*
X172232262Y-96569737D01*
X172377944Y-96509394D01*
X172509054Y-96421789D01*
X172620554Y-96310289D01*
X172708159Y-96179179D01*
X172768502Y-96033497D01*
X172799265Y-95878842D01*
X172799265Y-95721158D01*
X172799265Y-95721155D01*
X172799264Y-95721153D01*
X172779308Y-95620827D01*
X172768502Y-95566503D01*
X172747758Y-95516421D01*
X172708162Y-95420827D01*
X172708155Y-95420814D01*
X172620554Y-95289711D01*
X172620551Y-95289707D01*
X172509057Y-95178213D01*
X172509053Y-95178210D01*
X172377950Y-95090609D01*
X172377937Y-95090602D01*
X172232266Y-95030264D01*
X172232256Y-95030261D01*
X172076916Y-94999362D01*
X172015006Y-94966977D01*
X172013427Y-94965426D01*
X168381359Y-91333358D01*
X164659180Y-87611180D01*
X164625696Y-87549858D01*
X164630680Y-87480166D01*
X164672552Y-87424233D01*
X164738016Y-87399816D01*
X164746862Y-87399500D01*
X165810014Y-87399500D01*
X165877053Y-87419185D01*
X165897695Y-87435819D01*
X174276536Y-95814660D01*
X174310021Y-95875983D01*
X174310472Y-95878149D01*
X174341372Y-96033491D01*
X174341375Y-96033501D01*
X174401713Y-96179172D01*
X174401720Y-96179185D01*
X174489321Y-96310288D01*
X174489324Y-96310292D01*
X174600818Y-96421786D01*
X174600822Y-96421789D01*
X174731925Y-96509390D01*
X174731938Y-96509397D01*
X174877609Y-96569735D01*
X174877614Y-96569737D01*
X175032264Y-96600499D01*
X175032267Y-96600500D01*
X175032269Y-96600500D01*
X175189955Y-96600500D01*
X175189956Y-96600499D01*
X175344608Y-96569737D01*
X175490290Y-96509394D01*
X175621400Y-96421789D01*
X175732900Y-96310289D01*
X175820505Y-96179179D01*
X175880848Y-96033497D01*
X175911611Y-95878842D01*
X175911611Y-95721158D01*
X175911611Y-95721155D01*
X175911610Y-95721153D01*
X175891654Y-95620827D01*
X175880848Y-95566503D01*
X175860104Y-95516421D01*
X175820508Y-95420827D01*
X175820501Y-95420814D01*
X175732900Y-95289711D01*
X175732897Y-95289707D01*
X175621403Y-95178213D01*
X175621399Y-95178210D01*
X175490296Y-95090609D01*
X175490283Y-95090602D01*
X175344612Y-95030264D01*
X175344602Y-95030261D01*
X175189260Y-94999361D01*
X175127349Y-94966976D01*
X175125771Y-94965425D01*
X166597701Y-86437355D01*
X166597699Y-86437352D01*
X166478828Y-86318481D01*
X166478827Y-86318480D01*
X166392015Y-86268360D01*
X166392015Y-86268359D01*
X166392011Y-86268358D01*
X166341896Y-86239423D01*
X166189168Y-86198499D01*
X166031054Y-86198499D01*
X166023458Y-86198499D01*
X166023442Y-86198500D01*
X139917848Y-86198500D01*
X139850809Y-86178815D01*
X139805054Y-86126011D01*
X139796231Y-86098692D01*
X139769738Y-85965508D01*
X139769737Y-85965507D01*
X139769737Y-85965503D01*
X139769735Y-85965498D01*
X139709397Y-85819827D01*
X139709390Y-85819814D01*
X139621789Y-85688711D01*
X139621786Y-85688707D01*
X139510292Y-85577213D01*
X139510288Y-85577210D01*
X139379185Y-85489609D01*
X139379172Y-85489602D01*
X139233501Y-85429264D01*
X139233491Y-85429261D01*
X139078149Y-85398361D01*
X139016238Y-85365976D01*
X139014660Y-85364425D01*
X127288590Y-73638355D01*
X127288588Y-73638352D01*
X127169717Y-73519481D01*
X127169716Y-73519480D01*
X127082904Y-73469360D01*
X127082904Y-73469359D01*
X127082900Y-73469358D01*
X127032785Y-73440423D01*
X126880057Y-73399499D01*
X126721943Y-73399499D01*
X126714347Y-73399499D01*
X126714331Y-73399500D01*
X113100097Y-73399500D01*
X113033058Y-73379815D01*
X113012416Y-73363181D01*
X112307246Y-72658011D01*
X112273761Y-72596688D01*
X112278745Y-72526996D01*
X112307242Y-72482653D01*
X112410104Y-72379792D01*
X112535051Y-72207816D01*
X112539514Y-72199054D01*
X112587488Y-72148259D01*
X112655308Y-72131463D01*
X112721444Y-72153999D01*
X112760486Y-72199056D01*
X112764951Y-72207820D01*
X112889890Y-72379786D01*
X113040213Y-72530109D01*
X113212179Y-72655048D01*
X113212181Y-72655049D01*
X113212184Y-72655051D01*
X113401588Y-72751557D01*
X113603757Y-72817246D01*
X113813713Y-72850500D01*
X113813714Y-72850500D01*
X114026286Y-72850500D01*
X114026287Y-72850500D01*
X114236243Y-72817246D01*
X114438412Y-72751557D01*
X114627816Y-72655051D01*
X114649789Y-72639086D01*
X114799786Y-72530109D01*
X114799788Y-72530106D01*
X114799792Y-72530104D01*
X114950104Y-72379792D01*
X114950106Y-72379788D01*
X114950109Y-72379786D01*
X115075048Y-72207820D01*
X115075047Y-72207820D01*
X115075051Y-72207816D01*
X115079514Y-72199054D01*
X115127488Y-72148259D01*
X115195308Y-72131463D01*
X115261444Y-72153999D01*
X115300486Y-72199056D01*
X115304951Y-72207820D01*
X115429890Y-72379786D01*
X115580213Y-72530109D01*
X115752179Y-72655048D01*
X115752181Y-72655049D01*
X115752184Y-72655051D01*
X115941588Y-72751557D01*
X116143757Y-72817246D01*
X116353713Y-72850500D01*
X116353714Y-72850500D01*
X116566286Y-72850500D01*
X116566287Y-72850500D01*
X116776243Y-72817246D01*
X116978412Y-72751557D01*
X117167816Y-72655051D01*
X117189789Y-72639086D01*
X117339786Y-72530109D01*
X117339788Y-72530106D01*
X117339792Y-72530104D01*
X117490104Y-72379792D01*
X117490106Y-72379788D01*
X117490109Y-72379786D01*
X117615048Y-72207820D01*
X117615047Y-72207820D01*
X117615051Y-72207816D01*
X117619514Y-72199054D01*
X117667488Y-72148259D01*
X117735308Y-72131463D01*
X117801444Y-72153999D01*
X117840486Y-72199056D01*
X117844951Y-72207820D01*
X117969890Y-72379786D01*
X118120213Y-72530109D01*
X118292179Y-72655048D01*
X118292181Y-72655049D01*
X118292184Y-72655051D01*
X118481588Y-72751557D01*
X118683757Y-72817246D01*
X118893713Y-72850500D01*
X118893714Y-72850500D01*
X119106286Y-72850500D01*
X119106287Y-72850500D01*
X119316243Y-72817246D01*
X119518412Y-72751557D01*
X119707816Y-72655051D01*
X119794478Y-72592088D01*
X119879784Y-72530110D01*
X119879784Y-72530109D01*
X119879792Y-72530104D01*
X119993717Y-72416178D01*
X120055036Y-72382696D01*
X120124728Y-72387680D01*
X120180662Y-72429551D01*
X120197577Y-72460528D01*
X120246646Y-72592088D01*
X120246649Y-72592093D01*
X120332809Y-72707187D01*
X120332812Y-72707190D01*
X120447906Y-72793350D01*
X120447913Y-72793354D01*
X120582620Y-72843596D01*
X120582627Y-72843598D01*
X120642155Y-72849999D01*
X120642172Y-72850000D01*
X121290000Y-72850000D01*
X121290000Y-71933012D01*
X121347007Y-71965925D01*
X121474174Y-72000000D01*
X121605826Y-72000000D01*
X121732993Y-71965925D01*
X121790000Y-71933012D01*
X121790000Y-72850000D01*
X122437828Y-72850000D01*
X122437844Y-72849999D01*
X122497372Y-72843598D01*
X122497379Y-72843596D01*
X122632086Y-72793354D01*
X122632093Y-72793350D01*
X122747187Y-72707190D01*
X122747190Y-72707187D01*
X122833350Y-72592093D01*
X122833354Y-72592086D01*
X122883596Y-72457379D01*
X122883598Y-72457372D01*
X122889999Y-72397844D01*
X122890000Y-72397827D01*
X122890000Y-71750000D01*
X121973012Y-71750000D01*
X122005925Y-71692993D01*
X122040000Y-71565826D01*
X122040000Y-71434174D01*
X122005925Y-71307007D01*
X121973012Y-71250000D01*
X122890000Y-71250000D01*
X122890000Y-70602172D01*
X122889999Y-70602155D01*
X122883598Y-70542627D01*
X122883596Y-70542620D01*
X122833354Y-70407913D01*
X122833350Y-70407906D01*
X122747190Y-70292812D01*
X122747187Y-70292809D01*
X122632093Y-70206649D01*
X122632086Y-70206645D01*
X122497379Y-70156403D01*
X122497372Y-70156401D01*
X122437844Y-70150000D01*
X121710730Y-70150000D01*
X121689484Y-70143761D01*
X121667396Y-70142182D01*
X121656612Y-70134109D01*
X121643691Y-70130315D01*
X121629191Y-70113581D01*
X121611463Y-70100310D01*
X121606755Y-70087689D01*
X121597936Y-70077511D01*
X121594784Y-70055593D01*
X121587046Y-70034846D01*
X121589908Y-70021685D01*
X121587992Y-70008353D01*
X121597191Y-69988209D01*
X121601898Y-69966573D01*
X121615166Y-69948847D01*
X121617017Y-69944797D01*
X121623049Y-69938319D01*
X121774549Y-69786819D01*
X121835872Y-69753334D01*
X121862230Y-69750500D01*
X142037770Y-69750500D01*
X142104809Y-69770185D01*
X142125451Y-69786819D01*
X148338911Y-76000279D01*
X148372396Y-76061602D01*
X148367412Y-76131294D01*
X148340116Y-76173775D01*
X148340182Y-76173832D01*
X148339770Y-76174313D01*
X148338928Y-76175625D01*
X148337022Y-76177531D01*
X148337015Y-76177539D01*
X148220215Y-76338302D01*
X148129994Y-76515367D01*
X148129993Y-76515370D01*
X148068587Y-76704362D01*
X148037500Y-76900639D01*
X148037500Y-77099360D01*
X148068587Y-77295637D01*
X148129993Y-77484629D01*
X148129994Y-77484632D01*
X148196311Y-77614784D01*
X148220213Y-77661694D01*
X148337019Y-77822464D01*
X148477536Y-77962981D01*
X148638306Y-78079787D01*
X148725149Y-78124035D01*
X148815367Y-78170005D01*
X148815370Y-78170006D01*
X148854350Y-78182671D01*
X149004364Y-78231413D01*
X149200639Y-78262500D01*
X149200640Y-78262500D01*
X149399360Y-78262500D01*
X149399361Y-78262500D01*
X149595636Y-78231413D01*
X149784632Y-78170005D01*
X149961694Y-78079787D01*
X150122464Y-77962981D01*
X150262981Y-77822464D01*
X150379787Y-77661694D01*
X150470005Y-77484632D01*
X150531413Y-77295636D01*
X150562500Y-77099361D01*
X150562500Y-76900639D01*
X155657500Y-76900639D01*
X155657500Y-77099360D01*
X155688587Y-77295637D01*
X155749993Y-77484629D01*
X155749994Y-77484632D01*
X155816311Y-77614784D01*
X155840213Y-77661694D01*
X155957019Y-77822464D01*
X156097536Y-77962981D01*
X156258306Y-78079787D01*
X156345149Y-78124035D01*
X156435367Y-78170005D01*
X156435370Y-78170006D01*
X156474350Y-78182671D01*
X156624364Y-78231413D01*
X156820639Y-78262500D01*
X156820640Y-78262500D01*
X157019360Y-78262500D01*
X157019361Y-78262500D01*
X157215636Y-78231413D01*
X157404632Y-78170005D01*
X157581694Y-78079787D01*
X157742464Y-77962981D01*
X157882981Y-77822464D01*
X157999787Y-77661694D01*
X158090005Y-77484632D01*
X158151413Y-77295636D01*
X158182500Y-77099361D01*
X158182500Y-76900639D01*
X160737500Y-76900639D01*
X160737500Y-77099360D01*
X160768587Y-77295637D01*
X160829993Y-77484629D01*
X160829994Y-77484632D01*
X160896311Y-77614784D01*
X160920213Y-77661694D01*
X161037019Y-77822464D01*
X161177536Y-77962981D01*
X161338306Y-78079787D01*
X161425149Y-78124035D01*
X161515367Y-78170005D01*
X161515370Y-78170006D01*
X161554350Y-78182671D01*
X161704364Y-78231413D01*
X161900639Y-78262500D01*
X161900640Y-78262500D01*
X162099360Y-78262500D01*
X162099361Y-78262500D01*
X162295636Y-78231413D01*
X162484632Y-78170005D01*
X162661694Y-78079787D01*
X162822464Y-77962981D01*
X162962981Y-77822464D01*
X163079787Y-77661694D01*
X163170005Y-77484632D01*
X163231413Y-77295636D01*
X163262500Y-77099361D01*
X163262500Y-76900678D01*
X165818000Y-76900678D01*
X165818000Y-77099321D01*
X165849075Y-77295520D01*
X165849075Y-77295523D01*
X165910457Y-77484437D01*
X166000641Y-77661432D01*
X166027730Y-77698715D01*
X166027731Y-77698716D01*
X166590504Y-77135942D01*
X166606619Y-77196081D01*
X166673498Y-77311920D01*
X166768080Y-77406502D01*
X166883919Y-77473381D01*
X166944057Y-77489494D01*
X166381283Y-78052268D01*
X166381283Y-78052269D01*
X166418567Y-78079358D01*
X166595562Y-78169542D01*
X166784477Y-78230924D01*
X166980679Y-78262000D01*
X167179321Y-78262000D01*
X167375520Y-78230924D01*
X167375523Y-78230924D01*
X167564437Y-78169542D01*
X167741425Y-78079362D01*
X167778716Y-78052268D01*
X167215942Y-77489494D01*
X167276081Y-77473381D01*
X167391920Y-77406502D01*
X167486502Y-77311920D01*
X167553381Y-77196081D01*
X167569495Y-77135942D01*
X168132268Y-77698715D01*
X168159362Y-77661425D01*
X168249542Y-77484437D01*
X168310924Y-77295523D01*
X168310924Y-77295520D01*
X168342000Y-77099321D01*
X168342000Y-76900678D01*
X168310925Y-76704480D01*
X168297174Y-76662160D01*
X168297173Y-76662158D01*
X168286306Y-76628713D01*
X172649500Y-76628713D01*
X172649500Y-76841286D01*
X172674637Y-76999999D01*
X172682754Y-77051243D01*
X172726113Y-77184689D01*
X172748444Y-77253414D01*
X172844951Y-77442820D01*
X172969890Y-77614786D01*
X173083430Y-77728326D01*
X173116915Y-77789649D01*
X173111931Y-77859341D01*
X173070059Y-77915274D01*
X173039083Y-77932189D01*
X172907669Y-77981203D01*
X172907664Y-77981206D01*
X172792455Y-78067452D01*
X172792452Y-78067455D01*
X172706206Y-78182664D01*
X172706202Y-78182671D01*
X172655908Y-78317517D01*
X172649501Y-78377116D01*
X172649501Y-78377123D01*
X172649500Y-78377135D01*
X172649500Y-80172870D01*
X172649501Y-80172876D01*
X172655908Y-80232483D01*
X172706202Y-80367328D01*
X172706206Y-80367335D01*
X172792452Y-80482544D01*
X172792455Y-80482547D01*
X172907664Y-80568793D01*
X172907671Y-80568797D01*
X173042517Y-80619091D01*
X173042516Y-80619091D01*
X173049444Y-80619835D01*
X173102127Y-80625500D01*
X174897872Y-80625499D01*
X174957483Y-80619091D01*
X175092331Y-80568796D01*
X175207546Y-80482546D01*
X175293796Y-80367331D01*
X175344091Y-80232483D01*
X175350500Y-80172873D01*
X175350499Y-78377128D01*
X175344091Y-78317517D01*
X175326352Y-78269957D01*
X175293797Y-78182671D01*
X175293793Y-78182664D01*
X175207547Y-78067455D01*
X175207544Y-78067452D01*
X175092335Y-77981206D01*
X175092328Y-77981202D01*
X174960917Y-77932189D01*
X174904983Y-77890318D01*
X174880566Y-77824853D01*
X174895418Y-77756580D01*
X174916563Y-77728332D01*
X175030104Y-77614792D01*
X175155051Y-77442816D01*
X175251557Y-77253412D01*
X175317246Y-77051243D01*
X175350500Y-76841287D01*
X175350500Y-76628713D01*
X175317246Y-76418757D01*
X175251557Y-76216588D01*
X175155051Y-76027184D01*
X175155049Y-76027181D01*
X175155048Y-76027179D01*
X175030109Y-75855213D01*
X174879786Y-75704890D01*
X174707820Y-75579951D01*
X174518414Y-75483444D01*
X174518413Y-75483443D01*
X174518412Y-75483443D01*
X174316243Y-75417754D01*
X174316241Y-75417753D01*
X174316240Y-75417753D01*
X174154957Y-75392208D01*
X174106287Y-75384500D01*
X173893713Y-75384500D01*
X173845042Y-75392208D01*
X173683760Y-75417753D01*
X173481585Y-75483444D01*
X173292179Y-75579951D01*
X173120213Y-75704890D01*
X172969890Y-75855213D01*
X172844951Y-76027179D01*
X172748444Y-76216585D01*
X172682753Y-76418760D01*
X172649500Y-76628713D01*
X168286306Y-76628713D01*
X168249542Y-76515562D01*
X168159358Y-76338567D01*
X168132268Y-76301283D01*
X167569494Y-76864057D01*
X167553381Y-76803919D01*
X167486502Y-76688080D01*
X167391920Y-76593498D01*
X167276081Y-76526619D01*
X167215942Y-76510504D01*
X167778716Y-75947731D01*
X167778715Y-75947730D01*
X167741432Y-75920641D01*
X167564437Y-75830457D01*
X167375522Y-75769075D01*
X167179321Y-75738000D01*
X166980679Y-75738000D01*
X166784479Y-75769075D01*
X166784476Y-75769075D01*
X166595562Y-75830457D01*
X166418564Y-75920643D01*
X166381283Y-75947729D01*
X166381282Y-75947730D01*
X166944058Y-76510504D01*
X166883919Y-76526619D01*
X166768080Y-76593498D01*
X166673498Y-76688080D01*
X166606619Y-76803919D01*
X166590504Y-76864057D01*
X166027730Y-76301282D01*
X166027729Y-76301283D01*
X166000643Y-76338564D01*
X165910457Y-76515562D01*
X165849075Y-76704476D01*
X165849075Y-76704479D01*
X165818000Y-76900678D01*
X163262500Y-76900678D01*
X163262500Y-76900639D01*
X163231413Y-76704364D01*
X163170005Y-76515368D01*
X163170005Y-76515367D01*
X163100609Y-76379172D01*
X163079787Y-76338306D01*
X162962981Y-76177536D01*
X162822464Y-76037019D01*
X162661694Y-75920213D01*
X162484632Y-75829994D01*
X162484629Y-75829993D01*
X162295637Y-75768587D01*
X162197498Y-75753043D01*
X162099361Y-75737500D01*
X161900639Y-75737500D01*
X161835214Y-75747862D01*
X161704362Y-75768587D01*
X161515370Y-75829993D01*
X161515367Y-75829994D01*
X161338305Y-75920213D01*
X161177533Y-76037021D01*
X161037021Y-76177533D01*
X160920213Y-76338305D01*
X160829994Y-76515367D01*
X160829993Y-76515370D01*
X160768587Y-76704362D01*
X160737500Y-76900639D01*
X158182500Y-76900639D01*
X158151413Y-76704364D01*
X158090005Y-76515368D01*
X158090005Y-76515367D01*
X158020609Y-76379172D01*
X157999787Y-76338306D01*
X157882981Y-76177536D01*
X157742464Y-76037019D01*
X157581694Y-75920213D01*
X157404632Y-75829994D01*
X157404629Y-75829993D01*
X157215637Y-75768587D01*
X157117498Y-75753043D01*
X157019361Y-75737500D01*
X156820639Y-75737500D01*
X156755214Y-75747862D01*
X156624362Y-75768587D01*
X156435370Y-75829993D01*
X156435367Y-75829994D01*
X156258305Y-75920213D01*
X156097533Y-76037021D01*
X155957021Y-76177533D01*
X155840213Y-76338305D01*
X155749994Y-76515367D01*
X155749993Y-76515370D01*
X155688587Y-76704362D01*
X155657500Y-76900639D01*
X150562500Y-76900639D01*
X150531413Y-76704364D01*
X150470005Y-76515368D01*
X150470005Y-76515367D01*
X150400609Y-76379172D01*
X150379787Y-76338306D01*
X150262981Y-76177536D01*
X150122464Y-76037019D01*
X150101613Y-76021870D01*
X150080713Y-75994766D01*
X150059475Y-75967870D01*
X150059307Y-75967004D01*
X150058949Y-75966540D01*
X150051085Y-75933588D01*
X150050500Y-75927589D01*
X150050500Y-75826082D01*
X150032283Y-75734500D01*
X150026393Y-75704890D01*
X150021660Y-75681093D01*
X150021659Y-75681092D01*
X150021659Y-75681088D01*
X149967408Y-75550117D01*
X149965764Y-75545522D01*
X149882954Y-75421588D01*
X149882953Y-75421587D01*
X149882951Y-75421584D01*
X149778416Y-75317049D01*
X148825741Y-74364374D01*
X143824817Y-69363448D01*
X143742008Y-69280639D01*
X148037500Y-69280639D01*
X148037500Y-69479360D01*
X148068587Y-69675637D01*
X148129993Y-69864629D01*
X148129994Y-69864632D01*
X148192961Y-69988209D01*
X148220213Y-70041694D01*
X148337019Y-70202464D01*
X148477536Y-70342981D01*
X148638306Y-70459787D01*
X148725149Y-70504035D01*
X148815367Y-70550005D01*
X148815370Y-70550006D01*
X148909866Y-70580709D01*
X149004364Y-70611413D01*
X149200639Y-70642500D01*
X149200640Y-70642500D01*
X149399360Y-70642500D01*
X149399361Y-70642500D01*
X149595636Y-70611413D01*
X149784632Y-70550005D01*
X149961694Y-70459787D01*
X150122464Y-70342981D01*
X150262981Y-70202464D01*
X150379787Y-70041694D01*
X150470005Y-69864632D01*
X150531413Y-69675636D01*
X150562500Y-69479361D01*
X150562500Y-69280639D01*
X155657500Y-69280639D01*
X155657500Y-69479360D01*
X155688587Y-69675637D01*
X155749993Y-69864629D01*
X155749994Y-69864632D01*
X155812961Y-69988209D01*
X155840213Y-70041694D01*
X155957019Y-70202464D01*
X156097536Y-70342981D01*
X156258306Y-70459787D01*
X156345149Y-70504035D01*
X156435367Y-70550005D01*
X156435370Y-70550006D01*
X156529866Y-70580709D01*
X156624364Y-70611413D01*
X156820639Y-70642500D01*
X156820640Y-70642500D01*
X157019360Y-70642500D01*
X157019361Y-70642500D01*
X157215636Y-70611413D01*
X157404632Y-70550005D01*
X157581694Y-70459787D01*
X157742464Y-70342981D01*
X157882981Y-70202464D01*
X157999787Y-70041694D01*
X158090005Y-69864632D01*
X158151413Y-69675636D01*
X158182500Y-69479361D01*
X158182500Y-69280639D01*
X160737500Y-69280639D01*
X160737500Y-69479360D01*
X160768587Y-69675637D01*
X160829993Y-69864629D01*
X160829994Y-69864632D01*
X160892961Y-69988209D01*
X160920213Y-70041694D01*
X161037019Y-70202464D01*
X161177536Y-70342981D01*
X161338306Y-70459787D01*
X161425149Y-70504035D01*
X161515367Y-70550005D01*
X161515370Y-70550006D01*
X161609866Y-70580709D01*
X161704364Y-70611413D01*
X161900639Y-70642500D01*
X161900640Y-70642500D01*
X162099360Y-70642500D01*
X162099361Y-70642500D01*
X162295636Y-70611413D01*
X162484632Y-70550005D01*
X162661694Y-70459787D01*
X162822464Y-70342981D01*
X162962981Y-70202464D01*
X163079787Y-70041694D01*
X163170005Y-69864632D01*
X163231413Y-69675636D01*
X163262500Y-69479361D01*
X163262500Y-69280639D01*
X165817500Y-69280639D01*
X165817500Y-69479360D01*
X165848587Y-69675637D01*
X165909993Y-69864629D01*
X165909994Y-69864632D01*
X165972961Y-69988209D01*
X166000213Y-70041694D01*
X166117019Y-70202464D01*
X166257536Y-70342981D01*
X166418306Y-70459787D01*
X166505149Y-70504035D01*
X166595367Y-70550005D01*
X166595370Y-70550006D01*
X166689866Y-70580709D01*
X166784364Y-70611413D01*
X166980639Y-70642500D01*
X166980640Y-70642500D01*
X167179360Y-70642500D01*
X167179361Y-70642500D01*
X167375636Y-70611413D01*
X167564632Y-70550005D01*
X167741694Y-70459787D01*
X167902464Y-70342981D01*
X168042981Y-70202464D01*
X168159787Y-70041694D01*
X168250005Y-69864632D01*
X168311413Y-69675636D01*
X168342500Y-69479361D01*
X168342500Y-69355778D01*
X171799500Y-69355778D01*
X171799500Y-69644221D01*
X171799501Y-69644238D01*
X171837149Y-69930206D01*
X171837150Y-69930211D01*
X171837151Y-69930217D01*
X171904818Y-70182753D01*
X171911809Y-70208844D01*
X171911814Y-70208860D01*
X172022191Y-70475336D01*
X172022199Y-70475352D01*
X172166420Y-70725148D01*
X172166431Y-70725164D01*
X172342024Y-70954002D01*
X172342030Y-70954009D01*
X172545990Y-71157969D01*
X172545997Y-71157975D01*
X172665927Y-71250000D01*
X172774844Y-71333575D01*
X172774851Y-71333579D01*
X173024647Y-71477800D01*
X173024663Y-71477808D01*
X173291139Y-71588185D01*
X173291145Y-71588186D01*
X173291155Y-71588191D01*
X173569783Y-71662849D01*
X173855772Y-71700500D01*
X173855779Y-71700500D01*
X174144221Y-71700500D01*
X174144228Y-71700500D01*
X174430217Y-71662849D01*
X174708845Y-71588191D01*
X174708857Y-71588185D01*
X174708860Y-71588185D01*
X174975336Y-71477808D01*
X174975339Y-71477806D01*
X174975345Y-71477804D01*
X175225156Y-71333575D01*
X175454004Y-71157974D01*
X175657974Y-70954004D01*
X175833575Y-70725156D01*
X175977804Y-70475345D01*
X175984249Y-70459787D01*
X176088185Y-70208860D01*
X176088185Y-70208857D01*
X176088191Y-70208845D01*
X176162849Y-69930217D01*
X176200500Y-69644228D01*
X176200500Y-69355772D01*
X176162849Y-69069783D01*
X176088191Y-68791155D01*
X176088186Y-68791145D01*
X176088185Y-68791139D01*
X175977808Y-68524663D01*
X175977800Y-68524647D01*
X175833579Y-68274851D01*
X175833575Y-68274844D01*
X175657974Y-68045996D01*
X175657969Y-68045990D01*
X175454009Y-67842030D01*
X175454002Y-67842024D01*
X175225164Y-67666431D01*
X175225162Y-67666429D01*
X175225156Y-67666425D01*
X175225151Y-67666422D01*
X175225148Y-67666420D01*
X174975352Y-67522199D01*
X174975336Y-67522191D01*
X174708860Y-67411814D01*
X174708848Y-67411810D01*
X174708845Y-67411809D01*
X174430217Y-67337151D01*
X174430211Y-67337150D01*
X174430206Y-67337149D01*
X174144238Y-67299501D01*
X174144233Y-67299500D01*
X174144228Y-67299500D01*
X173855772Y-67299500D01*
X173855766Y-67299500D01*
X173855761Y-67299501D01*
X173569793Y-67337149D01*
X173569786Y-67337150D01*
X173569783Y-67337151D01*
X173291155Y-67411809D01*
X173291139Y-67411814D01*
X173024663Y-67522191D01*
X173024647Y-67522199D01*
X172774851Y-67666420D01*
X172774835Y-67666431D01*
X172545997Y-67842024D01*
X172545990Y-67842030D01*
X172342030Y-68045990D01*
X172342024Y-68045997D01*
X172166431Y-68274835D01*
X172166420Y-68274851D01*
X172022199Y-68524647D01*
X172022191Y-68524663D01*
X171911814Y-68791139D01*
X171911809Y-68791155D01*
X171837152Y-69069780D01*
X171837149Y-69069793D01*
X171799501Y-69355761D01*
X171799500Y-69355778D01*
X168342500Y-69355778D01*
X168342500Y-69280639D01*
X168311413Y-69084364D01*
X168250005Y-68895368D01*
X168250005Y-68895367D01*
X168159786Y-68718305D01*
X168042981Y-68557536D01*
X167902464Y-68417019D01*
X167741694Y-68300213D01*
X167698766Y-68278340D01*
X167564632Y-68209994D01*
X167564629Y-68209993D01*
X167375637Y-68148587D01*
X167277498Y-68133043D01*
X167179361Y-68117500D01*
X166980639Y-68117500D01*
X166915214Y-68127862D01*
X166784362Y-68148587D01*
X166595370Y-68209993D01*
X166595367Y-68209994D01*
X166418305Y-68300213D01*
X166257533Y-68417021D01*
X166117021Y-68557533D01*
X166000213Y-68718305D01*
X165909994Y-68895367D01*
X165909993Y-68895370D01*
X165848587Y-69084362D01*
X165817500Y-69280639D01*
X163262500Y-69280639D01*
X163231413Y-69084364D01*
X163170005Y-68895368D01*
X163170005Y-68895367D01*
X163079786Y-68718305D01*
X162962981Y-68557536D01*
X162822464Y-68417019D01*
X162661694Y-68300213D01*
X162618766Y-68278340D01*
X162484632Y-68209994D01*
X162484629Y-68209993D01*
X162295637Y-68148587D01*
X162197498Y-68133043D01*
X162099361Y-68117500D01*
X161900639Y-68117500D01*
X161835214Y-68127862D01*
X161704362Y-68148587D01*
X161515370Y-68209993D01*
X161515367Y-68209994D01*
X161338305Y-68300213D01*
X161177533Y-68417021D01*
X161037021Y-68557533D01*
X160920213Y-68718305D01*
X160829994Y-68895367D01*
X160829993Y-68895370D01*
X160768587Y-69084362D01*
X160737500Y-69280639D01*
X158182500Y-69280639D01*
X158151413Y-69084364D01*
X158090005Y-68895368D01*
X158090005Y-68895367D01*
X157999786Y-68718305D01*
X157882981Y-68557536D01*
X157742464Y-68417019D01*
X157581694Y-68300213D01*
X157538766Y-68278340D01*
X157404632Y-68209994D01*
X157404629Y-68209993D01*
X157215637Y-68148587D01*
X157117498Y-68133043D01*
X157019361Y-68117500D01*
X156820639Y-68117500D01*
X156755214Y-68127862D01*
X156624362Y-68148587D01*
X156435370Y-68209993D01*
X156435367Y-68209994D01*
X156258305Y-68300213D01*
X156097533Y-68417021D01*
X155957021Y-68557533D01*
X155840213Y-68718305D01*
X155749994Y-68895367D01*
X155749993Y-68895370D01*
X155688587Y-69084362D01*
X155657500Y-69280639D01*
X150562500Y-69280639D01*
X150531413Y-69084364D01*
X150470005Y-68895368D01*
X150470005Y-68895367D01*
X150379786Y-68718305D01*
X150262981Y-68557536D01*
X150122464Y-68417019D01*
X149961694Y-68300213D01*
X149918766Y-68278340D01*
X149784632Y-68209994D01*
X149784629Y-68209993D01*
X149595637Y-68148587D01*
X149497498Y-68133043D01*
X149399361Y-68117500D01*
X149200639Y-68117500D01*
X149135214Y-68127862D01*
X149004362Y-68148587D01*
X148815370Y-68209993D01*
X148815367Y-68209994D01*
X148638305Y-68300213D01*
X148477533Y-68417021D01*
X148337021Y-68557533D01*
X148220213Y-68718305D01*
X148129994Y-68895367D01*
X148129993Y-68895370D01*
X148068587Y-69084362D01*
X148037500Y-69280639D01*
X143742008Y-69280639D01*
X142878421Y-68417052D01*
X142878414Y-68417046D01*
X142804729Y-68367812D01*
X142804729Y-68367813D01*
X142755491Y-68334913D01*
X142618917Y-68278343D01*
X142618907Y-68278340D01*
X142473920Y-68249500D01*
X142473918Y-68249500D01*
X121426082Y-68249500D01*
X121426080Y-68249500D01*
X121281092Y-68278340D01*
X121281086Y-68278342D01*
X121144508Y-68334914D01*
X121144496Y-68334921D01*
X121095269Y-68367813D01*
X121021588Y-68417044D01*
X121021580Y-68417050D01*
X119308806Y-70129824D01*
X119247483Y-70163309D01*
X119201726Y-70164616D01*
X119106291Y-70149500D01*
X119106287Y-70149500D01*
X118893713Y-70149500D01*
X118845042Y-70157208D01*
X118683760Y-70182753D01*
X118481585Y-70248444D01*
X118292179Y-70344951D01*
X118120213Y-70469890D01*
X117969890Y-70620213D01*
X117844949Y-70792182D01*
X117840484Y-70800946D01*
X117792509Y-70851742D01*
X117724688Y-70868536D01*
X117658553Y-70845998D01*
X117619516Y-70800946D01*
X117615050Y-70792182D01*
X117490109Y-70620213D01*
X117339786Y-70469890D01*
X117167820Y-70344951D01*
X116978414Y-70248444D01*
X116978413Y-70248443D01*
X116978412Y-70248443D01*
X116776243Y-70182754D01*
X116776241Y-70182753D01*
X116776240Y-70182753D01*
X116614957Y-70157208D01*
X116566287Y-70149500D01*
X116353713Y-70149500D01*
X116305042Y-70157208D01*
X116143760Y-70182753D01*
X115941585Y-70248444D01*
X115752179Y-70344951D01*
X115580213Y-70469890D01*
X115429890Y-70620213D01*
X115304949Y-70792182D01*
X115300484Y-70800946D01*
X115252509Y-70851742D01*
X115184688Y-70868536D01*
X115118553Y-70845998D01*
X115079516Y-70800946D01*
X115075050Y-70792182D01*
X114950109Y-70620213D01*
X114799786Y-70469890D01*
X114627820Y-70344951D01*
X114438414Y-70248444D01*
X114438413Y-70248443D01*
X114438412Y-70248443D01*
X114236243Y-70182754D01*
X114236241Y-70182753D01*
X114236240Y-70182753D01*
X114074957Y-70157208D01*
X114026287Y-70149500D01*
X113813713Y-70149500D01*
X113765042Y-70157208D01*
X113603760Y-70182753D01*
X113401585Y-70248444D01*
X113212179Y-70344951D01*
X113040213Y-70469890D01*
X112889890Y-70620213D01*
X112764949Y-70792182D01*
X112760484Y-70800946D01*
X112712509Y-70851742D01*
X112644688Y-70868536D01*
X112578553Y-70845998D01*
X112539516Y-70800946D01*
X112535050Y-70792182D01*
X112410109Y-70620213D01*
X112259786Y-70469890D01*
X112087820Y-70344951D01*
X111898414Y-70248444D01*
X111898413Y-70248443D01*
X111898412Y-70248443D01*
X111696243Y-70182754D01*
X111696241Y-70182753D01*
X111696240Y-70182753D01*
X111534957Y-70157208D01*
X111486287Y-70149500D01*
X111273713Y-70149500D01*
X111225042Y-70157208D01*
X111063760Y-70182753D01*
X110861585Y-70248444D01*
X110672179Y-70344951D01*
X110500213Y-70469890D01*
X110349890Y-70620213D01*
X110224951Y-70792179D01*
X110128444Y-70981585D01*
X110062753Y-71183760D01*
X110061291Y-71192993D01*
X110029500Y-71393713D01*
X96120994Y-71393713D01*
X96225156Y-71333575D01*
X96232065Y-71328272D01*
X96281339Y-71290465D01*
X96420403Y-71183757D01*
X96454004Y-71157974D01*
X96657974Y-70954004D01*
X96833575Y-70725156D01*
X96977804Y-70475345D01*
X96984249Y-70459787D01*
X97088185Y-70208860D01*
X97088185Y-70208857D01*
X97088191Y-70208845D01*
X97162849Y-69930217D01*
X97200500Y-69644228D01*
X97200500Y-69355772D01*
X97162849Y-69069783D01*
X97088191Y-68791155D01*
X97088186Y-68791145D01*
X97088185Y-68791139D01*
X96977808Y-68524663D01*
X96977800Y-68524647D01*
X96833579Y-68274851D01*
X96833575Y-68274844D01*
X96657974Y-68045996D01*
X96657969Y-68045990D01*
X96454009Y-67842030D01*
X96454002Y-67842024D01*
X96225164Y-67666431D01*
X96225162Y-67666429D01*
X96225156Y-67666425D01*
X96225151Y-67666422D01*
X96225148Y-67666420D01*
X95975352Y-67522199D01*
X95975336Y-67522191D01*
X95708860Y-67411814D01*
X95708848Y-67411810D01*
X95708845Y-67411809D01*
X95430217Y-67337151D01*
X95430211Y-67337150D01*
X95430206Y-67337149D01*
X95144238Y-67299501D01*
X95144233Y-67299500D01*
X95144228Y-67299500D01*
X94855772Y-67299500D01*
X94855766Y-67299500D01*
X94855761Y-67299501D01*
X94569793Y-67337149D01*
X94569786Y-67337150D01*
X94569783Y-67337151D01*
X94291155Y-67411809D01*
X94291139Y-67411814D01*
X94024663Y-67522191D01*
X94024647Y-67522199D01*
X93774851Y-67666420D01*
X93774835Y-67666431D01*
X93545997Y-67842024D01*
X93545990Y-67842030D01*
X93342030Y-68045990D01*
X93342024Y-68045997D01*
X93166431Y-68274835D01*
X93166420Y-68274851D01*
X93022199Y-68524647D01*
X93022191Y-68524663D01*
X92911814Y-68791139D01*
X92911809Y-68791155D01*
X92837152Y-69069780D01*
X92837149Y-69069793D01*
X92799501Y-69355761D01*
X92799500Y-69355778D01*
X92000500Y-69355778D01*
X92000500Y-66624500D01*
X92020185Y-66557461D01*
X92072989Y-66511706D01*
X92124500Y-66500500D01*
X176875500Y-66500500D01*
X176942539Y-66520185D01*
G37*
G04 #@! TD.AperFunction*
M02*
