G04 #@! TF.GenerationSoftware,KiCad,Pcbnew,9.0.0-rc3*
G04 #@! TF.CreationDate,2025-04-24T21:12:19-07:00*
G04 #@! TF.ProjectId,Final PCB Design - Cable Tester,46696e61-6c20-4504-9342-204465736967,rev?*
G04 #@! TF.SameCoordinates,Original*
G04 #@! TF.FileFunction,Copper,L1,Top*
G04 #@! TF.FilePolarity,Positive*
%FSLAX46Y46*%
G04 Gerber Fmt 4.6, Leading zero omitted, Abs format (unit mm)*
G04 Created by KiCad (PCBNEW 9.0.0-rc3) date 2025-04-24 21:12:19*
%MOMM*%
%LPD*%
G01*
G04 APERTURE LIST*
G04 Aperture macros list*
%AMRoundRect*
0 Rectangle with rounded corners*
0 $1 Rounding radius*
0 $2 $3 $4 $5 $6 $7 $8 $9 X,Y pos of 4 corners*
0 Add a 4 corners polygon primitive as box body*
4,1,4,$2,$3,$4,$5,$6,$7,$8,$9,$2,$3,0*
0 Add four circle primitives for the rounded corners*
1,1,$1+$1,$2,$3*
1,1,$1+$1,$4,$5*
1,1,$1+$1,$6,$7*
1,1,$1+$1,$8,$9*
0 Add four rect primitives between the rounded corners*
20,1,$1+$1,$2,$3,$4,$5,0*
20,1,$1+$1,$4,$5,$6,$7,0*
20,1,$1+$1,$6,$7,$8,$9,0*
20,1,$1+$1,$8,$9,$2,$3,0*%
G04 Aperture macros list end*
G04 #@! TA.AperFunction,SMDPad,CuDef*
%ADD10R,1.400000X1.900000*%
G04 #@! TD*
G04 #@! TA.AperFunction,SMDPad,CuDef*
%ADD11R,1.800000X1.400000*%
G04 #@! TD*
G04 #@! TA.AperFunction,SMDPad,CuDef*
%ADD12R,0.800000X2.000000*%
G04 #@! TD*
G04 #@! TA.AperFunction,SMDPad,CuDef*
%ADD13RoundRect,0.200000X0.275000X-0.200000X0.275000X0.200000X-0.275000X0.200000X-0.275000X-0.200000X0*%
G04 #@! TD*
G04 #@! TA.AperFunction,ComponentPad*
%ADD14R,1.700000X1.700000*%
G04 #@! TD*
G04 #@! TA.AperFunction,ComponentPad*
%ADD15O,1.700000X1.700000*%
G04 #@! TD*
G04 #@! TA.AperFunction,ComponentPad*
%ADD16C,1.524000*%
G04 #@! TD*
G04 #@! TA.AperFunction,SMDPad,CuDef*
%ADD17RoundRect,0.248780X-0.451220X0.261220X-0.451220X-0.261220X0.451220X-0.261220X0.451220X0.261220X0*%
G04 #@! TD*
G04 #@! TA.AperFunction,SMDPad,CuDef*
%ADD18RoundRect,0.140000X-0.170000X0.140000X-0.170000X-0.140000X0.170000X-0.140000X0.170000X0.140000X0*%
G04 #@! TD*
G04 #@! TA.AperFunction,SMDPad,CuDef*
%ADD19RoundRect,0.225000X0.375000X-0.225000X0.375000X0.225000X-0.375000X0.225000X-0.375000X-0.225000X0*%
G04 #@! TD*
G04 #@! TA.AperFunction,SMDPad,CuDef*
%ADD20RoundRect,0.140000X-0.140000X-0.170000X0.140000X-0.170000X0.140000X0.170000X-0.140000X0.170000X0*%
G04 #@! TD*
G04 #@! TA.AperFunction,SMDPad,CuDef*
%ADD21RoundRect,0.248889X-0.311111X-0.626111X0.311111X-0.626111X0.311111X0.626111X-0.311111X0.626111X0*%
G04 #@! TD*
G04 #@! TA.AperFunction,SMDPad,CuDef*
%ADD22RoundRect,0.062500X-0.350000X-0.062500X0.350000X-0.062500X0.350000X0.062500X-0.350000X0.062500X0*%
G04 #@! TD*
G04 #@! TA.AperFunction,SMDPad,CuDef*
%ADD23RoundRect,0.062500X-0.062500X-0.350000X0.062500X-0.350000X0.062500X0.350000X-0.062500X0.350000X0*%
G04 #@! TD*
G04 #@! TA.AperFunction,HeatsinkPad*
%ADD24R,7.150000X7.150000*%
G04 #@! TD*
G04 #@! TA.AperFunction,SMDPad,CuDef*
%ADD25RoundRect,0.075000X0.910000X0.225000X-0.910000X0.225000X-0.910000X-0.225000X0.910000X-0.225000X0*%
G04 #@! TD*
G04 #@! TA.AperFunction,ComponentPad*
%ADD26R,1.060000X1.060000*%
G04 #@! TD*
G04 #@! TA.AperFunction,ComponentPad*
%ADD27C,1.060000*%
G04 #@! TD*
G04 #@! TA.AperFunction,ComponentPad*
%ADD28O,1.400000X4.100000*%
G04 #@! TD*
G04 #@! TA.AperFunction,ComponentPad*
%ADD29O,1.400000X3.100000*%
G04 #@! TD*
G04 #@! TA.AperFunction,ComponentPad*
%ADD30O,3.100000X1.400000*%
G04 #@! TD*
G04 #@! TA.AperFunction,ComponentPad*
%ADD31R,2.000000X1.905000*%
G04 #@! TD*
G04 #@! TA.AperFunction,ComponentPad*
%ADD32O,2.000000X1.905000*%
G04 #@! TD*
G04 #@! TA.AperFunction,SMDPad,CuDef*
%ADD33RoundRect,0.150000X0.590000X0.150000X-0.590000X0.150000X-0.590000X-0.150000X0.590000X-0.150000X0*%
G04 #@! TD*
G04 #@! TA.AperFunction,SMDPad,CuDef*
%ADD34RoundRect,0.150000X-0.512500X-0.150000X0.512500X-0.150000X0.512500X0.150000X-0.512500X0.150000X0*%
G04 #@! TD*
G04 #@! TA.AperFunction,ViaPad*
%ADD35C,0.600000*%
G04 #@! TD*
G04 #@! TA.AperFunction,ViaPad*
%ADD36C,0.750000*%
G04 #@! TD*
G04 #@! TA.AperFunction,ViaPad*
%ADD37C,1.000000*%
G04 #@! TD*
G04 #@! TA.AperFunction,Conductor*
%ADD38C,0.200000*%
G04 #@! TD*
G04 #@! TA.AperFunction,Conductor*
%ADD39C,0.750000*%
G04 #@! TD*
G04 #@! TA.AperFunction,Conductor*
%ADD40C,0.500000*%
G04 #@! TD*
G04 #@! TA.AperFunction,Conductor*
%ADD41C,0.350000*%
G04 #@! TD*
G04 APERTURE END LIST*
D10*
X124460000Y-118500000D03*
X111310000Y-117500000D03*
D11*
X118610000Y-104350000D03*
X112910000Y-104350000D03*
D12*
X112100000Y-114900000D03*
X113200000Y-114900000D03*
X114300000Y-115100000D03*
X115400000Y-114900000D03*
X116500000Y-115100000D03*
X117600000Y-114900000D03*
X118700000Y-114500000D03*
X119800000Y-114900000D03*
D13*
X162700000Y-110520000D03*
X162700000Y-108880000D03*
D14*
X121540000Y-71500000D03*
D15*
X119000000Y-71500000D03*
X116460000Y-71500000D03*
X113920000Y-71500000D03*
X111380000Y-71500000D03*
D16*
X149300000Y-77000000D03*
X156920000Y-77000000D03*
X162000000Y-77000000D03*
X167080000Y-77000000D03*
X167080000Y-69380000D03*
X162000000Y-69380000D03*
X156920000Y-69380000D03*
X149300000Y-69380000D03*
D17*
X138200000Y-72880000D03*
X138200000Y-74700000D03*
D13*
X172000000Y-110420000D03*
X172000000Y-108780000D03*
X165800000Y-94620000D03*
X165800000Y-92980000D03*
X153300000Y-110520000D03*
X153300000Y-108880000D03*
D18*
X104500000Y-101700000D03*
X104500000Y-102700000D03*
D13*
X162700000Y-94620000D03*
X162700000Y-92980000D03*
X159600000Y-110520000D03*
X159600000Y-108880000D03*
D19*
X142800000Y-74750000D03*
X142800000Y-71450000D03*
D14*
X174000000Y-79275000D03*
D15*
X174000000Y-76735000D03*
D13*
X150200000Y-110520000D03*
X150200000Y-108880000D03*
D20*
X104500000Y-105500000D03*
X105500000Y-105500000D03*
D13*
X175100000Y-94620000D03*
X175100000Y-92980000D03*
X156400000Y-94620000D03*
X156400000Y-92980000D03*
D21*
X116180000Y-89300000D03*
X119100000Y-89300000D03*
D18*
X104500000Y-110300000D03*
X104500000Y-111300000D03*
D22*
X130682500Y-91750000D03*
X130682500Y-92250000D03*
X130682500Y-92750000D03*
X130682500Y-93250000D03*
X130682500Y-93750000D03*
X130682500Y-94250000D03*
X130682500Y-94750000D03*
X130682500Y-95250000D03*
X130682500Y-95750000D03*
X130682500Y-96250000D03*
X130682500Y-96750000D03*
X130682500Y-97250000D03*
X130682500Y-97750000D03*
X130682500Y-98250000D03*
X130682500Y-98750000D03*
X130682500Y-99250000D03*
D23*
X131370000Y-99937500D03*
X131870000Y-99937500D03*
X132370000Y-99937500D03*
X132870000Y-99937500D03*
X133370000Y-99937500D03*
X133870000Y-99937500D03*
X134370000Y-99937500D03*
X134870000Y-99937500D03*
X135370000Y-99937500D03*
X135870000Y-99937500D03*
X136370000Y-99937500D03*
X136870000Y-99937500D03*
X137370000Y-99937500D03*
X137870000Y-99937500D03*
X138370000Y-99937500D03*
X138870000Y-99937500D03*
D22*
X139557500Y-99250000D03*
X139557500Y-98750000D03*
X139557500Y-98250000D03*
X139557500Y-97750000D03*
X139557500Y-97250000D03*
X139557500Y-96750000D03*
X139557500Y-96250000D03*
X139557500Y-95750000D03*
X139557500Y-95250000D03*
X139557500Y-94750000D03*
X139557500Y-94250000D03*
X139557500Y-93750000D03*
X139557500Y-93250000D03*
X139557500Y-92750000D03*
X139557500Y-92250000D03*
X139557500Y-91750000D03*
D23*
X138870000Y-91062500D03*
X138370000Y-91062500D03*
X137870000Y-91062500D03*
X137370000Y-91062500D03*
X136870000Y-91062500D03*
X136370000Y-91062500D03*
X135870000Y-91062500D03*
X135370000Y-91062500D03*
X134870000Y-91062500D03*
X134370000Y-91062500D03*
X133870000Y-91062500D03*
X133370000Y-91062500D03*
X132870000Y-91062500D03*
X132370000Y-91062500D03*
X131870000Y-91062500D03*
X131370000Y-91062500D03*
D24*
X135120000Y-95500000D03*
D14*
X131200000Y-110600000D03*
D15*
X133740000Y-110600000D03*
X136280000Y-110600000D03*
X138820000Y-110600000D03*
D13*
X168900000Y-110520000D03*
X168900000Y-108880000D03*
D25*
X120045000Y-100545000D03*
X120045000Y-99275000D03*
X120045000Y-98005000D03*
X120045000Y-96735000D03*
X120045000Y-95465000D03*
X120045000Y-94195000D03*
X120045000Y-92925000D03*
X120045000Y-91655000D03*
X115095000Y-91655000D03*
X115095000Y-92925000D03*
X115095000Y-94195000D03*
X115095000Y-95465000D03*
X115095000Y-96735000D03*
X115095000Y-98005000D03*
X115095000Y-99275000D03*
X115095000Y-100545000D03*
D20*
X103900000Y-91400000D03*
X104900000Y-91400000D03*
D26*
X160970000Y-100400000D03*
D27*
X160970000Y-101670000D03*
X162240000Y-100400000D03*
X162240000Y-101670000D03*
X163510000Y-100400000D03*
X163510000Y-101670000D03*
X164780000Y-100400000D03*
X164780000Y-101670000D03*
X166050000Y-100400000D03*
X166050000Y-101670000D03*
X167320000Y-100400000D03*
X167320000Y-101670000D03*
X168590000Y-100400000D03*
X168590000Y-101670000D03*
X169860000Y-100400000D03*
X169860000Y-101670000D03*
X171130000Y-100400000D03*
X171130000Y-101670000D03*
X172400000Y-100400000D03*
X172400000Y-101670000D03*
D13*
X156500000Y-110520000D03*
X156500000Y-108880000D03*
X147100000Y-94920000D03*
X147100000Y-93280000D03*
X159500000Y-94620000D03*
X159500000Y-92980000D03*
X168900000Y-94620000D03*
X168900000Y-92980000D03*
D28*
X105600000Y-78950000D03*
D29*
X99700000Y-78950000D03*
D30*
X102800000Y-83650000D03*
D14*
X96960000Y-88500000D03*
D15*
X99500000Y-88500000D03*
D31*
X96555000Y-95460000D03*
D32*
X96555000Y-98000000D03*
X96555000Y-100540000D03*
D13*
X150200000Y-94620000D03*
X150200000Y-92980000D03*
D33*
X131980000Y-74585000D03*
X131980000Y-72685000D03*
X130100000Y-73635000D03*
D13*
X175100000Y-110420000D03*
X175100000Y-108780000D03*
X172000000Y-94620000D03*
X172000000Y-92980000D03*
X147100000Y-110520000D03*
X147100000Y-108880000D03*
D34*
X95862500Y-108550000D03*
X95862500Y-109500000D03*
X95862500Y-110450000D03*
X98137500Y-110450000D03*
X98137500Y-108550000D03*
D13*
X153300000Y-94620000D03*
X153300000Y-92980000D03*
D20*
X98200000Y-113000000D03*
X99200000Y-113000000D03*
D13*
X165700000Y-110520000D03*
X165700000Y-108880000D03*
D35*
X115400000Y-112900000D03*
X112900000Y-118300000D03*
X117600000Y-112500000D03*
X118700000Y-112900000D03*
X115600000Y-105300000D03*
X120800000Y-105700000D03*
X126900000Y-106800000D03*
D36*
X131800000Y-87100000D03*
D35*
X132300000Y-101900000D03*
X119100000Y-90654258D03*
X140900000Y-99200000D03*
D37*
X104500000Y-106700000D03*
D35*
X129500000Y-94399000D03*
D37*
X108250000Y-110450000D03*
D35*
X113900000Y-76000000D03*
X127450735Y-94950735D03*
X139000000Y-86199000D03*
X116400000Y-76000000D03*
X128200000Y-94200000D03*
X147100000Y-111700000D03*
X129000000Y-93400000D03*
X129500000Y-96000000D03*
X150222222Y-111700000D03*
X153344444Y-111700000D03*
X128784456Y-96357772D03*
X128314782Y-97005391D03*
X156466667Y-111700000D03*
X128314782Y-97994609D03*
X159588889Y-111700000D03*
X162711111Y-111700000D03*
X128784456Y-98642228D03*
X129500000Y-99000000D03*
X165833333Y-111700000D03*
X130600000Y-101900000D03*
X168955556Y-111700000D03*
X172077778Y-111700000D03*
X131358949Y-102152983D03*
X133750000Y-101000000D03*
X175200000Y-111700000D03*
X147100000Y-95800000D03*
X134000000Y-101800000D03*
X134660757Y-102251000D03*
X150212346Y-95800000D03*
X135600000Y-101500000D03*
X153324691Y-95800000D03*
X156437037Y-95800000D03*
X137000000Y-90000000D03*
X136642228Y-89284456D03*
X159549383Y-95800000D03*
X162661728Y-95800000D03*
X135994609Y-88814782D03*
X165774074Y-95800000D03*
X134400000Y-90000000D03*
X168886420Y-95800000D03*
X133919998Y-89359998D03*
X171998765Y-95800000D03*
X133403243Y-88749286D03*
X132718998Y-90000000D03*
X175111111Y-95800000D03*
X117000000Y-91600000D03*
X126600000Y-92800000D03*
X122000000Y-95400000D03*
X126850735Y-90399994D03*
X141400000Y-98500000D03*
X148900000Y-100400000D03*
X97100000Y-109500000D03*
D36*
X111500000Y-98500000D03*
X106800000Y-100000000D03*
D35*
X118300000Y-94200000D03*
X122000000Y-97600000D03*
X118300000Y-96700000D03*
X113300000Y-92900000D03*
D38*
X116750000Y-104350000D02*
X118610000Y-104350000D01*
X115800000Y-105300000D02*
X116750000Y-104350000D01*
X115600000Y-105300000D02*
X115800000Y-105300000D01*
X117600000Y-112500000D02*
X117600000Y-115200000D01*
X115400000Y-112900000D02*
X115400000Y-115200000D01*
X113000000Y-115400000D02*
X113200000Y-115200000D01*
X113000000Y-118200000D02*
X113000000Y-115400000D01*
X112900000Y-118300000D02*
X113000000Y-118200000D01*
D39*
X131100000Y-110500000D02*
X131200000Y-110600000D01*
X108250000Y-110450000D02*
X108300000Y-110500000D01*
X108300000Y-110500000D02*
X131100000Y-110500000D01*
D38*
X114950000Y-104650000D02*
X112910000Y-104650000D01*
X115600000Y-105300000D02*
X114950000Y-104650000D01*
D40*
X116500000Y-112600000D02*
X116500000Y-115400000D01*
X106500000Y-111800000D02*
X115700000Y-111800000D01*
X105000000Y-110300000D02*
X106500000Y-111800000D01*
X115700000Y-111800000D02*
X116500000Y-112600000D01*
X104500000Y-110300000D02*
X105000000Y-110300000D01*
D38*
X118700000Y-112900000D02*
X118700000Y-114800000D01*
D39*
X104500000Y-106700000D02*
X104500000Y-105500000D01*
D38*
X133500000Y-110600000D02*
X133740000Y-110600000D01*
X128500000Y-101432500D02*
X128500000Y-105600000D01*
X128500000Y-105600000D02*
X133500000Y-110600000D01*
X130682500Y-99250000D02*
X128500000Y-101432500D01*
X129332494Y-90399994D02*
X130682500Y-91750000D01*
X126850735Y-90399994D02*
X129332494Y-90399994D01*
D41*
X132870000Y-101330000D02*
X132300000Y-101900000D01*
X132870000Y-99937500D02*
X132870000Y-101330000D01*
D38*
X131358949Y-101641051D02*
X132370000Y-100630000D01*
X131358949Y-102152983D02*
X131358949Y-101641051D01*
X132370000Y-100630000D02*
X132370000Y-99937500D01*
X131870000Y-100530000D02*
X131870000Y-99937500D01*
X130600000Y-101800000D02*
X131870000Y-100530000D01*
X130600000Y-101900000D02*
X130600000Y-101800000D01*
X134680000Y-109000000D02*
X136280000Y-110600000D01*
X132467100Y-109000000D02*
X134680000Y-109000000D01*
X129100000Y-102207500D02*
X129100000Y-105632900D01*
X129100000Y-105632900D02*
X132467100Y-109000000D01*
X131370000Y-99937500D02*
X129100000Y-102207500D01*
X129917043Y-92750000D02*
X130682500Y-92750000D01*
X126400000Y-92100000D02*
X129267043Y-92100000D01*
X122000000Y-96500000D02*
X126400000Y-92100000D01*
X122000000Y-97600000D02*
X122000000Y-96500000D01*
X129267043Y-92100000D02*
X129917043Y-92750000D01*
D39*
X99500000Y-88500000D02*
X102100000Y-88500000D01*
X96555000Y-95460000D02*
X101040000Y-95460000D01*
X103900000Y-90300000D02*
X103900000Y-91400000D01*
X101040000Y-95460000D02*
X103900000Y-92600000D01*
X102100000Y-88500000D02*
X103900000Y-90300000D01*
X103900000Y-92600000D02*
X103900000Y-91400000D01*
D38*
X131370000Y-91062500D02*
X129607500Y-89300000D01*
X119100000Y-90654258D02*
X119100000Y-89300000D01*
X129607500Y-89300000D02*
X119100000Y-89300000D01*
D39*
X103362400Y-100562400D02*
X104500000Y-101700000D01*
D40*
X94400000Y-110000000D02*
X94400000Y-109100000D01*
D41*
X140450000Y-98750000D02*
X139557500Y-98750000D01*
D39*
X99796000Y-100540000D02*
X104500000Y-105244000D01*
D40*
X95862500Y-110450000D02*
X94850000Y-110450000D01*
D41*
X140900000Y-99200000D02*
X140450000Y-98750000D01*
D39*
X103362400Y-100540000D02*
X103362400Y-100562400D01*
D40*
X149300000Y-77000000D02*
X145050000Y-77000000D01*
X104500000Y-97200000D02*
X104500000Y-101700000D01*
X119000000Y-82700000D02*
X114550000Y-87150000D01*
D41*
X130682500Y-94250000D02*
X129649000Y-94250000D01*
D39*
X96555000Y-100540000D02*
X103362400Y-100540000D01*
D40*
X114550000Y-87150000D02*
X104500000Y-97200000D01*
X94850000Y-110450000D02*
X94400000Y-110000000D01*
X119000000Y-71500000D02*
X119000000Y-82700000D01*
X97712500Y-106700000D02*
X104500000Y-106700000D01*
D39*
X104500000Y-105244000D02*
X104500000Y-105500000D01*
D40*
X94950000Y-108550000D02*
X95862500Y-108550000D01*
D41*
X129649000Y-94250000D02*
X129500000Y-94399000D01*
D40*
X145050000Y-77000000D02*
X142800000Y-74750000D01*
X95862500Y-108550000D02*
X97712500Y-106700000D01*
D39*
X96555000Y-100540000D02*
X99796000Y-100540000D01*
D40*
X94400000Y-109100000D02*
X94950000Y-108550000D01*
X114100000Y-89300000D02*
X109100000Y-94300000D01*
X102783600Y-108583600D02*
X104500000Y-110300000D01*
X116180000Y-89300000D02*
X114100000Y-89300000D01*
X109100000Y-105700000D02*
X104500000Y-110300000D01*
X104500000Y-110266400D02*
X104500000Y-110300000D01*
X109100000Y-94300000D02*
X109100000Y-105700000D01*
X102783600Y-108550000D02*
X102783600Y-108583600D01*
X98137500Y-108550000D02*
X102783600Y-108550000D01*
D41*
X98137500Y-110450000D02*
X98137500Y-112937500D01*
X98137500Y-112937500D02*
X98200000Y-113000000D01*
D38*
X129748943Y-95399000D02*
X129251057Y-95399000D01*
X113900000Y-76000000D02*
X113920000Y-75980000D01*
X130682500Y-95750000D02*
X130099943Y-95750000D01*
X127900000Y-95400000D02*
X127450735Y-94950735D01*
X129249265Y-95400000D02*
X127900000Y-95400000D01*
X113920000Y-75980000D02*
X113920000Y-71500000D01*
X130099943Y-95750000D02*
X129748943Y-95399000D01*
X129251057Y-95399000D02*
X129249661Y-95400396D01*
X129249661Y-95400396D02*
X129249265Y-95400000D01*
X137870000Y-90630000D02*
X139000000Y-89500000D01*
X137870000Y-91062500D02*
X137870000Y-90630000D01*
X139000000Y-89500000D02*
X139000000Y-86199000D01*
X129916043Y-94999000D02*
X128599000Y-94999000D01*
X130167043Y-95250000D02*
X129916043Y-94999000D01*
X116400000Y-76000000D02*
X116460000Y-75940000D01*
X116460000Y-75940000D02*
X116460000Y-71500000D01*
X128599000Y-94999000D02*
X128200000Y-94600000D01*
X130682500Y-95250000D02*
X130167043Y-95250000D01*
X128200000Y-94600000D02*
X128200000Y-94200000D01*
D40*
X162000000Y-77000000D02*
X163800000Y-78800000D01*
X163800000Y-78800000D02*
X171935000Y-78800000D01*
X171935000Y-78800000D02*
X174000000Y-76735000D01*
X160220000Y-80300000D02*
X172975000Y-80300000D01*
X156920000Y-77000000D02*
X160220000Y-80300000D01*
X172975000Y-80300000D02*
X174000000Y-79275000D01*
D38*
X155900000Y-93000000D02*
X157500000Y-93000000D01*
X157500000Y-93000000D02*
X158100000Y-93600000D01*
X154520400Y-91620400D02*
X155900000Y-93000000D01*
X139557500Y-95250000D02*
X142348311Y-95250000D01*
X162778889Y-97000000D02*
X164780000Y-99001111D01*
X145977911Y-91620400D02*
X154520400Y-91620400D01*
X158100000Y-93600000D02*
X158100000Y-95900000D01*
X158100000Y-95900000D02*
X159200000Y-97000000D01*
X164780000Y-99001111D02*
X164780000Y-100400000D01*
X142348311Y-95250000D02*
X145977911Y-91620400D01*
X159200000Y-97000000D02*
X162778889Y-97000000D01*
X147394000Y-114794000D02*
X153206000Y-114794000D01*
X160448889Y-107600000D02*
X164780000Y-103268889D01*
X143900000Y-111300000D02*
X147394000Y-114794000D01*
X156953200Y-108846800D02*
X158200000Y-107600000D01*
X164780000Y-103268889D02*
X164780000Y-101670000D01*
X143900000Y-107797400D02*
X143900000Y-111300000D01*
X158200000Y-107600000D02*
X160448889Y-107600000D01*
X155000000Y-110000000D02*
X156153200Y-108846800D01*
X138870000Y-102767400D02*
X143900000Y-107797400D01*
X156153200Y-108846800D02*
X156953200Y-108846800D01*
X153206000Y-114794000D02*
X155000000Y-113000000D01*
X155000000Y-113000000D02*
X155000000Y-110000000D01*
X138870000Y-99937500D02*
X138870000Y-102767400D01*
X148822400Y-92422400D02*
X146310111Y-92422400D01*
X151800000Y-96000000D02*
X151800000Y-94200000D01*
X150600000Y-93000000D02*
X149400000Y-93000000D01*
X162240000Y-99001111D02*
X162240000Y-100400000D01*
X154100000Y-98300000D02*
X151800000Y-96000000D01*
X146310111Y-92422400D02*
X142482511Y-96250000D01*
X161538889Y-98300000D02*
X154100000Y-98300000D01*
X142482511Y-96250000D02*
X139557500Y-96250000D01*
X161538889Y-98300000D02*
X162240000Y-99001111D01*
X149400000Y-93000000D02*
X148822400Y-92422400D01*
X151800000Y-94200000D02*
X150600000Y-93000000D01*
X142550000Y-97250000D02*
X145200000Y-99900000D01*
X160140000Y-102500000D02*
X160970000Y-101670000D01*
X147620000Y-108880000D02*
X147100000Y-108880000D01*
X145200000Y-108100000D02*
X145980000Y-108880000D01*
X145980000Y-108880000D02*
X147100000Y-108880000D01*
X154000000Y-102500000D02*
X147620000Y-108880000D01*
X154000000Y-102500000D02*
X160140000Y-102500000D01*
X139557500Y-97250000D02*
X142550000Y-97250000D01*
X145200000Y-99900000D02*
X145200000Y-108100000D01*
X167400000Y-93600000D02*
X166800000Y-93000000D01*
X168590000Y-97890000D02*
X168590000Y-100400000D01*
X167400000Y-96700000D02*
X167400000Y-93600000D01*
X162617400Y-90417400D02*
X145479611Y-90417400D01*
X145479611Y-90417400D02*
X143147011Y-92750000D01*
X166800000Y-93000000D02*
X165200000Y-93000000D01*
X143147011Y-92750000D02*
X139557500Y-92750000D01*
X167400000Y-96700000D02*
X168590000Y-97890000D01*
X165200000Y-93000000D02*
X162617400Y-90417400D01*
X138370000Y-99937500D02*
X138370000Y-102834500D01*
X159053200Y-108846800D02*
X160853200Y-108846800D01*
X158000000Y-109900000D02*
X159053200Y-108846800D01*
X160853200Y-108846800D02*
X166050000Y-103650000D01*
X143500000Y-107964500D02*
X143500000Y-111564500D01*
X143500000Y-111564500D02*
X147130500Y-115195000D01*
X158000000Y-113200000D02*
X158000000Y-109900000D01*
X147130500Y-115195000D02*
X156005000Y-115195000D01*
X166050000Y-103650000D02*
X166050000Y-101670000D01*
X138370000Y-102834500D02*
X143500000Y-107964500D01*
X156005000Y-115195000D02*
X158000000Y-113200000D01*
X142324000Y-97824000D02*
X139400000Y-97824000D01*
X147600000Y-112800000D02*
X146534200Y-112800000D01*
X154600000Y-104900000D02*
X150653200Y-108846800D01*
X144734550Y-111000350D02*
X144734550Y-100234550D01*
X149653200Y-108846800D02*
X148600000Y-109900000D01*
X148600000Y-111800000D02*
X147600000Y-112800000D01*
X162240000Y-101670000D02*
X162240000Y-103340889D01*
X144734550Y-100234550D02*
X142324000Y-97824000D01*
X162240000Y-103340889D02*
X160680889Y-104900000D01*
X150653200Y-108846800D02*
X149653200Y-108846800D01*
X148600000Y-109900000D02*
X148600000Y-111800000D01*
X146534200Y-112800000D02*
X144734550Y-111000350D01*
X160680889Y-104900000D02*
X154600000Y-104900000D01*
X176300000Y-93488889D02*
X176300000Y-96500000D01*
X175811111Y-93000000D02*
X176300000Y-93488889D01*
X138870000Y-91062500D02*
X140718100Y-89214400D01*
X174600000Y-93000000D02*
X175811111Y-93000000D01*
X170814400Y-89214400D02*
X174600000Y-93000000D01*
X140718100Y-89214400D02*
X170814400Y-89214400D01*
X176300000Y-96500000D02*
X172400000Y-100400000D01*
X145811811Y-91219400D02*
X157119400Y-91219400D01*
X161100000Y-93582016D02*
X161100000Y-95400000D01*
X161100000Y-95400000D02*
X162101000Y-96401000D01*
X160517984Y-93000000D02*
X161100000Y-93582016D01*
X139557500Y-94750000D02*
X142281211Y-94750000D01*
X157119400Y-91219400D02*
X158900000Y-93000000D01*
X166050000Y-99001111D02*
X166050000Y-100400000D01*
X158900000Y-93000000D02*
X160517984Y-93000000D01*
X163449889Y-96401000D02*
X166050000Y-99001111D01*
X162101000Y-96401000D02*
X163449889Y-96401000D01*
X142281211Y-94750000D02*
X145811811Y-91219400D01*
X139557500Y-92250000D02*
X143079911Y-92250000D01*
X169900000Y-93000000D02*
X170500000Y-93600000D01*
X170500000Y-97800000D02*
X169860000Y-98440000D01*
X165416400Y-90016400D02*
X168400000Y-93000000D01*
X145313511Y-90016400D02*
X165416400Y-90016400D01*
X168400000Y-93000000D02*
X169900000Y-93000000D01*
X169860000Y-98440000D02*
X169860000Y-100400000D01*
X170500000Y-93600000D02*
X170500000Y-97800000D01*
X143079911Y-92250000D02*
X145313511Y-90016400D01*
X171130000Y-99170000D02*
X171130000Y-100400000D01*
X168115400Y-89615400D02*
X171500000Y-93000000D01*
X145147411Y-89615400D02*
X168115400Y-89615400D01*
X173600000Y-93600000D02*
X173600000Y-96700000D01*
X171500000Y-93000000D02*
X173000000Y-93000000D01*
X173600000Y-96700000D02*
X171130000Y-99170000D01*
X143012811Y-91750000D02*
X145147411Y-89615400D01*
X139557500Y-91750000D02*
X143012811Y-91750000D01*
X173000000Y-93000000D02*
X173600000Y-93600000D01*
X167320000Y-98820000D02*
X167320000Y-100400000D01*
X142214111Y-94250000D02*
X145645711Y-90818400D01*
X162100000Y-93000000D02*
X163700000Y-93000000D01*
X164200000Y-93500000D02*
X164200000Y-95700000D01*
X164200000Y-95700000D02*
X167320000Y-98820000D01*
X139557500Y-94250000D02*
X142214111Y-94250000D01*
X159918400Y-90818400D02*
X162100000Y-93000000D01*
X163700000Y-93000000D02*
X164200000Y-93500000D01*
X145645711Y-90818400D02*
X159918400Y-90818400D01*
X162197000Y-97600000D02*
X163510000Y-98913000D01*
X154300000Y-93000000D02*
X155000000Y-93700000D01*
X155000000Y-93700000D02*
X155000000Y-96100000D01*
X155000000Y-96100000D02*
X156500000Y-97600000D01*
X151721400Y-92021400D02*
X152700000Y-93000000D01*
X163510000Y-98913000D02*
X163510000Y-100400000D01*
X142415411Y-95750000D02*
X146144011Y-92021400D01*
X152700000Y-93000000D02*
X154300000Y-93000000D01*
X146144011Y-92021400D02*
X151721400Y-92021400D01*
X139557500Y-95750000D02*
X142415411Y-95750000D01*
X156500000Y-97600000D02*
X162197000Y-97600000D01*
X164200000Y-109800000D02*
X165153200Y-108846800D01*
X164200000Y-113100000D02*
X164200000Y-109800000D01*
X137403000Y-103001700D02*
X142602000Y-108200700D01*
X142602000Y-108200700D02*
X142602000Y-111800700D01*
X142602000Y-111800700D02*
X146798300Y-115997000D01*
X137403000Y-100351757D02*
X137403000Y-103001700D01*
X137370000Y-99937500D02*
X137370000Y-100318757D01*
X168590000Y-106610000D02*
X168590000Y-101670000D01*
X166353200Y-108846800D02*
X168590000Y-106610000D01*
X137370000Y-100318757D02*
X137403000Y-100351757D01*
X161303000Y-115997000D02*
X164200000Y-113100000D01*
X165153200Y-108846800D02*
X166353200Y-108846800D01*
X146798300Y-115997000D02*
X161303000Y-115997000D01*
X175100000Y-108780000D02*
X175100000Y-104370000D01*
X135870000Y-100520057D02*
X135870000Y-99937500D01*
X141399000Y-112299000D02*
X141399000Y-108699000D01*
X175111111Y-108846800D02*
X174553200Y-108846800D01*
X136200000Y-100850057D02*
X135870000Y-100520057D01*
X174553200Y-108846800D02*
X173700000Y-109700000D01*
X169900000Y-117200000D02*
X146300000Y-117200000D01*
X175100000Y-104370000D02*
X172400000Y-101670000D01*
X141399000Y-108699000D02*
X136200000Y-103500000D01*
X136200000Y-103500000D02*
X136200000Y-100850057D01*
X146300000Y-117200000D02*
X141399000Y-112299000D01*
X173700000Y-109700000D02*
X173700000Y-113400000D01*
X173700000Y-113400000D02*
X169900000Y-117200000D01*
X139557500Y-99250000D02*
X139950000Y-99250000D01*
X144333550Y-111166450D02*
X147560100Y-114393000D01*
X156500000Y-106200000D02*
X160578889Y-106200000D01*
X163510000Y-103268889D02*
X163510000Y-101670000D01*
X152853200Y-108846800D02*
X153853200Y-108846800D01*
X150507000Y-114393000D02*
X151900000Y-113000000D01*
X139950000Y-99250000D02*
X144333550Y-103633550D01*
X151900000Y-113000000D02*
X151900000Y-109800000D01*
X160578889Y-106200000D02*
X163510000Y-103268889D01*
X144333550Y-103633550D02*
X144333550Y-111166450D01*
X153853200Y-108846800D02*
X156500000Y-106200000D01*
X151900000Y-109800000D02*
X152853200Y-108846800D01*
X147560100Y-114393000D02*
X150507000Y-114393000D01*
X147930000Y-93280000D02*
X148700000Y-94050000D01*
X142549611Y-96750000D02*
X146019611Y-93280000D01*
X153962403Y-100400000D02*
X160970000Y-100400000D01*
X146019611Y-93280000D02*
X147930000Y-93280000D01*
X148700000Y-95137597D02*
X153962403Y-100400000D01*
X139557500Y-96750000D02*
X142549611Y-96750000D01*
X148700000Y-94050000D02*
X148700000Y-95137597D01*
X143003000Y-111634600D02*
X146964400Y-115596000D01*
X137870000Y-99937500D02*
X137870000Y-102901600D01*
X161100000Y-113300000D02*
X161100000Y-109900000D01*
X159304000Y-115096000D02*
X161100000Y-113300000D01*
X143003000Y-108034600D02*
X143003000Y-111634600D01*
X137870000Y-102901600D02*
X143003000Y-108034600D01*
X146964400Y-115596000D02*
X158808000Y-115596000D01*
X161100000Y-109900000D02*
X162153200Y-108846800D01*
X162153200Y-108846800D02*
X163253200Y-108846800D01*
X167320000Y-104780000D02*
X167320000Y-101670000D01*
X159304000Y-115100000D02*
X159304000Y-115096000D01*
X158808000Y-115596000D02*
X159304000Y-115100000D01*
X163253200Y-108846800D02*
X167320000Y-104780000D01*
X142201000Y-108366800D02*
X142201000Y-111966800D01*
X142201000Y-111966800D02*
X146632200Y-116398000D01*
X167400000Y-109784991D02*
X168338191Y-108846800D01*
X146632200Y-116398000D02*
X164102000Y-116398000D01*
X169353200Y-108846800D02*
X169860000Y-108340000D01*
X168338191Y-108846800D02*
X169353200Y-108846800D01*
X136870000Y-99937500D02*
X136870000Y-100385857D01*
X164102000Y-116398000D02*
X167400000Y-113100000D01*
X137002000Y-100517857D02*
X137002000Y-103167800D01*
X137002000Y-103167800D02*
X142201000Y-108366800D01*
X136870000Y-100385857D02*
X137002000Y-100517857D01*
X169860000Y-108340000D02*
X169860000Y-101670000D01*
X167400000Y-113100000D02*
X167400000Y-109784991D01*
X170600000Y-113399000D02*
X170600000Y-109546800D01*
X172000000Y-102540000D02*
X171130000Y-101670000D01*
X136370000Y-100452957D02*
X136601000Y-100683957D01*
X170600000Y-109546800D02*
X171300000Y-108846800D01*
X136370000Y-99937500D02*
X136370000Y-100452957D01*
X146466100Y-116799000D02*
X167200000Y-116799000D01*
X136601000Y-100683957D02*
X136601000Y-103333900D01*
X167200000Y-116799000D02*
X170600000Y-113399000D01*
X141800000Y-112132900D02*
X146466100Y-116799000D01*
X136601000Y-103333900D02*
X141800000Y-108532900D01*
X171300000Y-108846800D02*
X172000000Y-108846800D01*
X141800000Y-108532900D02*
X141800000Y-112132900D01*
X172000000Y-108780000D02*
X172000000Y-102540000D01*
X137370000Y-90479943D02*
X138200000Y-89649943D01*
X138200000Y-89649943D02*
X138200000Y-74740000D01*
X137370000Y-91062500D02*
X137370000Y-90479943D01*
X129350000Y-93750000D02*
X129000000Y-93400000D01*
X147100000Y-111700000D02*
X147100000Y-110520000D01*
X130682500Y-93750000D02*
X129350000Y-93750000D01*
X150222222Y-111700000D02*
X150222222Y-110500000D01*
X129750000Y-96250000D02*
X129500000Y-96000000D01*
X130682500Y-96250000D02*
X129750000Y-96250000D01*
X130682500Y-96750000D02*
X129176684Y-96750000D01*
X153344444Y-110511111D02*
X153333333Y-110500000D01*
X153344444Y-111700000D02*
X153344444Y-110511111D01*
X129176684Y-96750000D02*
X128784456Y-96357772D01*
X156400000Y-110544444D02*
X156444444Y-110500000D01*
X156400000Y-111633333D02*
X156400000Y-110544444D01*
X130682500Y-97250000D02*
X128559391Y-97250000D01*
X128559391Y-97250000D02*
X128314782Y-97005391D01*
X156466667Y-111700000D02*
X156400000Y-111633333D01*
X159588889Y-111700000D02*
X159500000Y-111611111D01*
X159500000Y-110555555D02*
X159555555Y-110500000D01*
X130682500Y-97750000D02*
X128559391Y-97750000D01*
X159500000Y-111611111D02*
X159500000Y-110555555D01*
X128559391Y-97750000D02*
X128314782Y-97994609D01*
X130682500Y-98250000D02*
X129176684Y-98250000D01*
X162600000Y-111588889D02*
X162600000Y-110566667D01*
X162711111Y-111700000D02*
X162600000Y-111588889D01*
X129176684Y-98250000D02*
X128784456Y-98642228D01*
X162600000Y-110566667D02*
X162666667Y-110500000D01*
X165700000Y-111566667D02*
X165700000Y-110577778D01*
X165833333Y-111700000D02*
X165700000Y-111566667D01*
X129750000Y-98750000D02*
X129500000Y-99000000D01*
X130682500Y-98750000D02*
X129750000Y-98750000D01*
X168800000Y-110588889D02*
X168888889Y-110500000D01*
X168955556Y-111700000D02*
X168800000Y-111544444D01*
X168800000Y-111544444D02*
X168800000Y-110588889D01*
X172077778Y-111700000D02*
X171900000Y-111522222D01*
X171900000Y-111522222D02*
X171900000Y-110600000D01*
X171900000Y-110600000D02*
X172000000Y-110500000D01*
X133870000Y-100880000D02*
X133750000Y-101000000D01*
X175000000Y-111500000D02*
X175000000Y-110611111D01*
X175200000Y-111700000D02*
X175000000Y-111500000D01*
X133870000Y-99937500D02*
X133870000Y-100880000D01*
X175000000Y-110611111D02*
X175111111Y-110500000D01*
X147100000Y-95800000D02*
X147100000Y-94920000D01*
X134370000Y-101430000D02*
X134370000Y-99937500D01*
X134000000Y-101800000D02*
X134370000Y-101430000D01*
X150222222Y-95800000D02*
X150222222Y-94653200D01*
X134870000Y-102041757D02*
X134870000Y-99937500D01*
X134660757Y-102251000D02*
X134870000Y-102041757D01*
X135370000Y-101270000D02*
X135600000Y-101500000D01*
X153333333Y-95800000D02*
X153333333Y-94653200D01*
X135370000Y-99937500D02*
X135370000Y-101270000D01*
X136870000Y-91062500D02*
X136870000Y-90130000D01*
X156437037Y-94660607D02*
X156444444Y-94653200D01*
X136870000Y-90130000D02*
X137000000Y-90000000D01*
X156437037Y-95800000D02*
X156437037Y-94660607D01*
X159549383Y-95800000D02*
X159549383Y-94669383D01*
X159549383Y-94669383D02*
X159500000Y-94620000D01*
X136370000Y-91062500D02*
X136370000Y-89556684D01*
X136370000Y-89556684D02*
X136642228Y-89284456D01*
X135870000Y-91062500D02*
X135870000Y-88939391D01*
X162661728Y-95800000D02*
X162661728Y-94658139D01*
X162661728Y-94658139D02*
X162666667Y-94653200D01*
X135870000Y-88939391D02*
X135994609Y-88814782D01*
X134370000Y-90030000D02*
X134400000Y-90000000D01*
X134370000Y-91062500D02*
X134370000Y-90030000D01*
X165774074Y-95800000D02*
X165774074Y-94656904D01*
X165774074Y-94656904D02*
X165777778Y-94653200D01*
X133870000Y-91062500D02*
X133799000Y-90991500D01*
X168886420Y-94655669D02*
X168888889Y-94653200D01*
X133799000Y-89480996D02*
X133919998Y-89359998D01*
X133799000Y-90991500D02*
X133799000Y-89480996D01*
X168886420Y-95800000D02*
X168886420Y-94655669D01*
X133318998Y-91011498D02*
X133318998Y-88833531D01*
X133370000Y-91062500D02*
X133318998Y-91011498D01*
X171998765Y-95800000D02*
X171998765Y-94654435D01*
X171998765Y-94654435D02*
X172000000Y-94653200D01*
X133318998Y-88833531D02*
X133403243Y-88749286D01*
X132870000Y-91062500D02*
X132870000Y-90151002D01*
X132870000Y-90151002D02*
X132718998Y-90000000D01*
X175111111Y-95800000D02*
X175111111Y-94653200D01*
X130250000Y-92250000D02*
X129300000Y-91300000D01*
X122654999Y-91300000D02*
X121029999Y-92925000D01*
X130682500Y-92250000D02*
X130250000Y-92250000D01*
X121029999Y-92925000D02*
X120045000Y-92925000D01*
X129300000Y-91300000D02*
X122654999Y-91300000D01*
X129399943Y-92800000D02*
X126600000Y-92800000D01*
X115150000Y-91600000D02*
X115095000Y-91655000D01*
X130682500Y-93250000D02*
X129849943Y-93250000D01*
X117000000Y-91600000D02*
X115150000Y-91600000D01*
X129849943Y-93250000D02*
X129399943Y-92800000D01*
X120110000Y-95400000D02*
X120045000Y-95465000D01*
X122000000Y-95400000D02*
X120110000Y-95400000D01*
X134870000Y-91062500D02*
X134870000Y-95250000D01*
X133370000Y-99937500D02*
X133370000Y-97250000D01*
X141150000Y-98250000D02*
X141400000Y-98500000D01*
X139557500Y-98250000D02*
X137870000Y-98250000D01*
X139557500Y-98250000D02*
X141150000Y-98250000D01*
D40*
X95862500Y-109500000D02*
X97100000Y-109500000D01*
D38*
X130682500Y-94750000D02*
X134370000Y-94750000D01*
X134370000Y-94750000D02*
X135120000Y-95500000D01*
X133370000Y-97250000D02*
X135120000Y-95500000D01*
X134870000Y-95250000D02*
X135120000Y-95500000D01*
X137870000Y-98250000D02*
X135120000Y-95500000D01*
X120045000Y-94195000D02*
X118305000Y-94195000D01*
X118305000Y-94195000D02*
X118300000Y-94200000D01*
X120045000Y-96735000D02*
X118335000Y-96735000D01*
X118335000Y-96735000D02*
X118300000Y-96700000D01*
X113325000Y-92925000D02*
X113300000Y-92900000D01*
X115095000Y-92925000D02*
X113325000Y-92925000D01*
D40*
X149300000Y-69380000D02*
X144870000Y-69380000D01*
X144870000Y-69380000D02*
X142800000Y-71450000D01*
X136150000Y-71450000D02*
X133965000Y-73635000D01*
X133965000Y-73635000D02*
X130100000Y-73635000D01*
X142800000Y-71450000D02*
X136150000Y-71450000D01*
D38*
X136535000Y-74585000D02*
X131980000Y-74585000D01*
X138200000Y-72920000D02*
X136535000Y-74585000D01*
D41*
X135370000Y-89760034D02*
X135370000Y-91062500D01*
D40*
X131750000Y-87150000D02*
X131800000Y-87100000D01*
D41*
X132709966Y-87100000D02*
X135370000Y-89760034D01*
D40*
X114550000Y-87150000D02*
X131750000Y-87150000D01*
D41*
X131800000Y-87100000D02*
X132709966Y-87100000D01*
D40*
X120045000Y-101855000D02*
X120045000Y-100545000D01*
X112066400Y-102700000D02*
X119200000Y-102700000D01*
X119200000Y-102700000D02*
X120045000Y-101855000D01*
X109192400Y-105574000D02*
X112066400Y-102700000D01*
G04 #@! TA.AperFunction,Conductor*
G36*
X176942539Y-66520185D02*
G01*
X176988294Y-66572989D01*
X176999500Y-66624500D01*
X176999500Y-93040261D01*
X176993229Y-93061617D01*
X176991599Y-93083815D01*
X176983576Y-93094489D01*
X176979815Y-93107300D01*
X176962995Y-93121873D01*
X176949622Y-93139669D01*
X176937100Y-93144312D01*
X176927011Y-93153055D01*
X176904983Y-93156222D01*
X176884112Y-93163962D01*
X176871069Y-93161098D01*
X176857853Y-93162999D01*
X176837605Y-93153752D01*
X176815867Y-93148980D01*
X176798382Y-93135839D01*
X176794297Y-93133974D01*
X176790406Y-93129845D01*
X176787653Y-93127776D01*
X176781128Y-93121226D01*
X176780520Y-93120173D01*
X176668716Y-93008369D01*
X176668713Y-93008367D01*
X176298701Y-92638355D01*
X176298699Y-92638352D01*
X176179828Y-92519481D01*
X176179827Y-92519480D01*
X176075889Y-92459472D01*
X176042896Y-92440423D01*
X176016225Y-92433276D01*
X176007073Y-92429153D01*
X175987860Y-92412675D01*
X175966251Y-92399503D01*
X175955162Y-92384634D01*
X175954036Y-92383668D01*
X175953763Y-92382758D01*
X175951891Y-92380247D01*
X175949729Y-92376670D01*
X175930472Y-92344815D01*
X175930470Y-92344813D01*
X175930469Y-92344811D01*
X175810188Y-92224530D01*
X175804183Y-92220900D01*
X175664606Y-92136522D01*
X175502196Y-92085914D01*
X175502194Y-92085913D01*
X175502192Y-92085913D01*
X175452778Y-92081423D01*
X175431616Y-92079500D01*
X174768384Y-92079500D01*
X174715449Y-92084310D01*
X174697803Y-92085914D01*
X174697797Y-92085915D01*
X174645355Y-92102256D01*
X174575495Y-92103406D01*
X174520786Y-92071551D01*
X171301990Y-88852755D01*
X171301988Y-88852752D01*
X171183117Y-88733881D01*
X171183109Y-88733875D01*
X171073242Y-88670444D01*
X171073241Y-88670443D01*
X171073241Y-88670444D01*
X171046185Y-88654823D01*
X171015534Y-88646610D01*
X170893457Y-88613899D01*
X170735343Y-88613899D01*
X170727747Y-88613899D01*
X170727731Y-88613900D01*
X140639043Y-88613900D01*
X140486313Y-88654823D01*
X140459259Y-88670444D01*
X140459258Y-88670444D01*
X140349387Y-88733877D01*
X140349382Y-88733881D01*
X139812181Y-89271083D01*
X139750858Y-89304568D01*
X139681166Y-89299584D01*
X139625233Y-89257712D01*
X139600816Y-89192248D01*
X139600500Y-89183402D01*
X139600500Y-86778765D01*
X139620185Y-86711726D01*
X139621398Y-86709874D01*
X139709390Y-86578185D01*
X139709390Y-86578184D01*
X139709394Y-86578179D01*
X139710585Y-86575305D01*
X139762297Y-86450459D01*
X139769737Y-86432497D01*
X139800500Y-86277842D01*
X139800500Y-86120158D01*
X139800500Y-86120155D01*
X139800499Y-86120153D01*
X139769738Y-85965510D01*
X139769737Y-85965503D01*
X139769735Y-85965498D01*
X139709397Y-85819827D01*
X139709390Y-85819814D01*
X139621789Y-85688711D01*
X139621786Y-85688707D01*
X139510292Y-85577213D01*
X139510288Y-85577210D01*
X139379185Y-85489609D01*
X139379172Y-85489602D01*
X139233501Y-85429264D01*
X139233489Y-85429261D01*
X139078845Y-85398500D01*
X139078842Y-85398500D01*
X138924500Y-85398500D01*
X138857461Y-85378815D01*
X138811706Y-85326011D01*
X138800500Y-85274500D01*
X138800500Y-75790639D01*
X138820185Y-75723600D01*
X138872989Y-75677845D01*
X138885479Y-75672939D01*
X138970035Y-75644921D01*
X139119114Y-75552968D01*
X139242968Y-75429114D01*
X139334921Y-75280035D01*
X139390016Y-75113769D01*
X139400500Y-75011150D01*
X139400500Y-74476647D01*
X141699500Y-74476647D01*
X141699500Y-75023337D01*
X141699501Y-75023355D01*
X141709650Y-75122707D01*
X141709651Y-75122710D01*
X141762996Y-75283694D01*
X141763001Y-75283705D01*
X141852029Y-75428040D01*
X141852032Y-75428044D01*
X141971955Y-75547967D01*
X141971959Y-75547970D01*
X142116294Y-75636998D01*
X142116297Y-75636999D01*
X142116303Y-75637003D01*
X142277292Y-75690349D01*
X142376655Y-75700500D01*
X142637769Y-75700499D01*
X142704808Y-75720183D01*
X142725450Y-75736818D01*
X143610419Y-76621786D01*
X144467049Y-77478416D01*
X144571584Y-77582951D01*
X144571587Y-77582953D01*
X144571588Y-77582954D01*
X144694503Y-77665083D01*
X144694506Y-77665085D01*
X144744665Y-77685861D01*
X144751080Y-77688518D01*
X144831088Y-77721659D01*
X144947241Y-77744763D01*
X144970380Y-77749365D01*
X144976081Y-77750500D01*
X144976082Y-77750500D01*
X144976083Y-77750500D01*
X145123918Y-77750500D01*
X148221553Y-77750500D01*
X148288592Y-77770185D01*
X148321869Y-77801612D01*
X148337019Y-77822464D01*
X148477536Y-77962981D01*
X148638306Y-78079787D01*
X148725149Y-78124035D01*
X148815367Y-78170005D01*
X148815370Y-78170006D01*
X148854350Y-78182671D01*
X149004364Y-78231413D01*
X149200639Y-78262500D01*
X149200640Y-78262500D01*
X149399360Y-78262500D01*
X149399361Y-78262500D01*
X149595636Y-78231413D01*
X149784632Y-78170005D01*
X149961694Y-78079787D01*
X150122464Y-77962981D01*
X150262981Y-77822464D01*
X150379787Y-77661694D01*
X150470005Y-77484632D01*
X150531413Y-77295636D01*
X150562500Y-77099361D01*
X150562500Y-76900639D01*
X155657500Y-76900639D01*
X155657500Y-77099360D01*
X155688587Y-77295637D01*
X155749993Y-77484629D01*
X155749994Y-77484632D01*
X155816311Y-77614784D01*
X155840213Y-77661694D01*
X155957019Y-77822464D01*
X156097536Y-77962981D01*
X156258306Y-78079787D01*
X156345149Y-78124035D01*
X156435367Y-78170005D01*
X156435370Y-78170006D01*
X156474350Y-78182671D01*
X156624364Y-78231413D01*
X156820639Y-78262500D01*
X156820640Y-78262500D01*
X157019357Y-78262500D01*
X157019361Y-78262500D01*
X157044813Y-78258468D01*
X157114104Y-78267421D01*
X157151892Y-78293260D01*
X159741578Y-80882947D01*
X159741585Y-80882953D01*
X159805836Y-80925884D01*
X159805844Y-80925888D01*
X159810799Y-80929199D01*
X159864505Y-80965084D01*
X159921080Y-80988518D01*
X160001088Y-81021659D01*
X160117241Y-81044763D01*
X160136468Y-81048587D01*
X160146081Y-81050500D01*
X160146082Y-81050500D01*
X173048920Y-81050500D01*
X173146462Y-81031096D01*
X173193913Y-81021658D01*
X173330495Y-80965084D01*
X173384201Y-80929199D01*
X173384201Y-80929198D01*
X173384203Y-80929198D01*
X173418808Y-80906075D01*
X173453416Y-80882952D01*
X173674550Y-80661816D01*
X173735871Y-80628333D01*
X173762230Y-80625499D01*
X174897871Y-80625499D01*
X174897872Y-80625499D01*
X174957483Y-80619091D01*
X175092331Y-80568796D01*
X175207546Y-80482546D01*
X175293796Y-80367331D01*
X175344091Y-80232483D01*
X175350500Y-80172873D01*
X175350499Y-78377128D01*
X175344091Y-78317517D01*
X175325406Y-78267421D01*
X175293797Y-78182671D01*
X175293793Y-78182664D01*
X175207547Y-78067455D01*
X175207544Y-78067452D01*
X175092335Y-77981206D01*
X175092328Y-77981202D01*
X174960917Y-77932189D01*
X174904983Y-77890318D01*
X174880566Y-77824853D01*
X174895418Y-77756580D01*
X174916563Y-77728332D01*
X175030104Y-77614792D01*
X175053236Y-77582954D01*
X175155048Y-77442820D01*
X175155047Y-77442820D01*
X175155051Y-77442816D01*
X175251557Y-77253412D01*
X175317246Y-77051243D01*
X175350500Y-76841287D01*
X175350500Y-76628713D01*
X175317246Y-76418757D01*
X175251557Y-76216588D01*
X175155051Y-76027184D01*
X175155049Y-76027181D01*
X175155048Y-76027179D01*
X175030109Y-75855213D01*
X174879786Y-75704890D01*
X174707820Y-75579951D01*
X174518414Y-75483444D01*
X174518413Y-75483443D01*
X174518412Y-75483443D01*
X174316243Y-75417754D01*
X174316241Y-75417753D01*
X174316240Y-75417753D01*
X174154957Y-75392208D01*
X174106287Y-75384500D01*
X173893713Y-75384500D01*
X173845042Y-75392208D01*
X173683760Y-75417753D01*
X173481585Y-75483444D01*
X173292179Y-75579951D01*
X173120213Y-75704890D01*
X172969890Y-75855213D01*
X172844951Y-76027179D01*
X172748444Y-76216585D01*
X172682753Y-76418760D01*
X172649500Y-76628713D01*
X172649500Y-76841292D01*
X172664616Y-76936728D01*
X172655662Y-77006021D01*
X172629824Y-77043807D01*
X171660451Y-78013181D01*
X171599128Y-78046666D01*
X171572770Y-78049500D01*
X167827309Y-78049500D01*
X167760270Y-78029815D01*
X167739628Y-78013181D01*
X167215942Y-77489495D01*
X167276081Y-77473381D01*
X167391920Y-77406502D01*
X167486502Y-77311920D01*
X167553381Y-77196081D01*
X167569495Y-77135942D01*
X168132268Y-77698715D01*
X168159362Y-77661425D01*
X168249542Y-77484437D01*
X168310924Y-77295523D01*
X168310924Y-77295520D01*
X168342000Y-77099321D01*
X168342000Y-76900678D01*
X168310924Y-76704479D01*
X168310924Y-76704476D01*
X168249542Y-76515562D01*
X168159358Y-76338567D01*
X168132268Y-76301283D01*
X167569494Y-76864057D01*
X167553381Y-76803919D01*
X167486502Y-76688080D01*
X167391920Y-76593498D01*
X167276081Y-76526619D01*
X167215942Y-76510504D01*
X167778716Y-75947731D01*
X167778715Y-75947730D01*
X167741432Y-75920641D01*
X167564437Y-75830457D01*
X167375522Y-75769075D01*
X167179321Y-75738000D01*
X166980679Y-75738000D01*
X166784479Y-75769075D01*
X166784476Y-75769075D01*
X166595562Y-75830457D01*
X166418564Y-75920643D01*
X166381283Y-75947729D01*
X166381282Y-75947730D01*
X166944058Y-76510504D01*
X166883919Y-76526619D01*
X166768080Y-76593498D01*
X166673498Y-76688080D01*
X166606619Y-76803919D01*
X166590504Y-76864057D01*
X166027730Y-76301282D01*
X166027729Y-76301283D01*
X166000643Y-76338564D01*
X165910457Y-76515562D01*
X165849075Y-76704476D01*
X165849075Y-76704479D01*
X165818000Y-76900678D01*
X165818000Y-77099321D01*
X165849075Y-77295520D01*
X165849075Y-77295523D01*
X165910457Y-77484437D01*
X166000641Y-77661432D01*
X166027730Y-77698715D01*
X166027731Y-77698716D01*
X166590504Y-77135942D01*
X166606619Y-77196081D01*
X166673498Y-77311920D01*
X166768080Y-77406502D01*
X166883919Y-77473381D01*
X166944057Y-77489495D01*
X166420372Y-78013181D01*
X166359049Y-78046666D01*
X166332691Y-78049500D01*
X164162229Y-78049500D01*
X164095190Y-78029815D01*
X164074548Y-78013181D01*
X163293260Y-77231893D01*
X163277918Y-77203796D01*
X163261212Y-77176476D01*
X163261019Y-77172848D01*
X163259775Y-77170570D01*
X163256972Y-77141438D01*
X163257158Y-77133080D01*
X163262500Y-77099361D01*
X163262500Y-76900639D01*
X163231413Y-76704364D01*
X163170005Y-76515368D01*
X163170005Y-76515367D01*
X163100609Y-76379172D01*
X163079787Y-76338306D01*
X162962981Y-76177536D01*
X162822464Y-76037019D01*
X162661694Y-75920213D01*
X162484632Y-75829994D01*
X162484629Y-75829993D01*
X162295637Y-75768587D01*
X162197498Y-75753043D01*
X162099361Y-75737500D01*
X161900639Y-75737500D01*
X161835214Y-75747862D01*
X161704362Y-75768587D01*
X161515370Y-75829993D01*
X161515367Y-75829994D01*
X161338305Y-75920213D01*
X161177533Y-76037021D01*
X161037021Y-76177533D01*
X160920213Y-76338305D01*
X160829994Y-76515367D01*
X160829993Y-76515370D01*
X160768587Y-76704362D01*
X160737500Y-76900639D01*
X160737500Y-77099360D01*
X160768587Y-77295637D01*
X160829993Y-77484629D01*
X160829994Y-77484632D01*
X160896311Y-77614784D01*
X160920213Y-77661694D01*
X161037019Y-77822464D01*
X161177536Y-77962981D01*
X161338306Y-78079787D01*
X161425149Y-78124035D01*
X161515367Y-78170005D01*
X161515370Y-78170006D01*
X161554350Y-78182671D01*
X161704364Y-78231413D01*
X161900639Y-78262500D01*
X161900640Y-78262500D01*
X162099358Y-78262500D01*
X162099361Y-78262500D01*
X162124814Y-78258468D01*
X162194105Y-78267422D01*
X162231893Y-78293260D01*
X163217048Y-79278415D01*
X163217049Y-79278416D01*
X163276452Y-79337819D01*
X163309936Y-79399143D01*
X163304951Y-79468835D01*
X163263080Y-79524768D01*
X163197615Y-79549184D01*
X163188770Y-79549500D01*
X160582230Y-79549500D01*
X160515191Y-79529815D01*
X160494549Y-79513181D01*
X158213260Y-77231892D01*
X158179775Y-77170569D01*
X158178468Y-77124815D01*
X158182500Y-77099361D01*
X158182500Y-76900639D01*
X158151413Y-76704364D01*
X158090005Y-76515368D01*
X158090005Y-76515367D01*
X158020609Y-76379172D01*
X157999787Y-76338306D01*
X157882981Y-76177536D01*
X157742464Y-76037019D01*
X157581694Y-75920213D01*
X157404632Y-75829994D01*
X157404629Y-75829993D01*
X157215637Y-75768587D01*
X157117498Y-75753043D01*
X157019361Y-75737500D01*
X156820639Y-75737500D01*
X156755214Y-75747862D01*
X156624362Y-75768587D01*
X156435370Y-75829993D01*
X156435367Y-75829994D01*
X156258305Y-75920213D01*
X156097533Y-76037021D01*
X155957021Y-76177533D01*
X155840213Y-76338305D01*
X155749994Y-76515367D01*
X155749993Y-76515370D01*
X155688587Y-76704362D01*
X155657500Y-76900639D01*
X150562500Y-76900639D01*
X150531413Y-76704364D01*
X150470005Y-76515368D01*
X150470005Y-76515367D01*
X150400609Y-76379172D01*
X150379787Y-76338306D01*
X150262981Y-76177536D01*
X150122464Y-76037019D01*
X149961694Y-75920213D01*
X149784632Y-75829994D01*
X149784629Y-75829993D01*
X149595637Y-75768587D01*
X149497498Y-75753043D01*
X149399361Y-75737500D01*
X149200639Y-75737500D01*
X149135214Y-75747862D01*
X149004362Y-75768587D01*
X148815370Y-75829993D01*
X148815367Y-75829994D01*
X148638305Y-75920213D01*
X148477533Y-76037021D01*
X148337020Y-76177534D01*
X148321871Y-76198386D01*
X148266540Y-76241051D01*
X148221553Y-76249500D01*
X145412229Y-76249500D01*
X145345190Y-76229815D01*
X145324548Y-76213181D01*
X143936818Y-74825450D01*
X143903333Y-74764127D01*
X143900499Y-74737769D01*
X143900499Y-74476662D01*
X143900498Y-74476644D01*
X143890349Y-74377292D01*
X143890348Y-74377289D01*
X143860176Y-74286236D01*
X143837003Y-74216303D01*
X143836999Y-74216297D01*
X143836998Y-74216294D01*
X143747970Y-74071959D01*
X143747967Y-74071955D01*
X143628044Y-73952032D01*
X143628040Y-73952029D01*
X143483705Y-73863001D01*
X143483699Y-73862998D01*
X143483697Y-73862997D01*
X143446569Y-73850694D01*
X143322709Y-73809651D01*
X143223346Y-73799500D01*
X142376662Y-73799500D01*
X142376644Y-73799501D01*
X142277292Y-73809650D01*
X142277289Y-73809651D01*
X142116305Y-73862996D01*
X142116294Y-73863001D01*
X141971959Y-73952029D01*
X141971955Y-73952032D01*
X141852032Y-74071955D01*
X141852029Y-74071959D01*
X141763001Y-74216294D01*
X141762996Y-74216305D01*
X141709651Y-74377290D01*
X141699500Y-74476647D01*
X139400500Y-74476647D01*
X139400500Y-74388850D01*
X139390016Y-74286231D01*
X139334921Y-74119965D01*
X139242968Y-73970886D01*
X139149763Y-73877681D01*
X139116278Y-73816358D01*
X139121262Y-73746666D01*
X139149763Y-73702319D01*
X139242968Y-73609114D01*
X139334921Y-73460035D01*
X139390016Y-73293769D01*
X139400500Y-73191150D01*
X139400500Y-72568850D01*
X139390016Y-72466231D01*
X139355974Y-72363501D01*
X139353573Y-72293676D01*
X139389305Y-72233634D01*
X139451825Y-72202441D01*
X139473681Y-72200500D01*
X141873126Y-72200500D01*
X141940165Y-72220185D01*
X141960807Y-72236819D01*
X141971955Y-72247967D01*
X141971959Y-72247970D01*
X142116294Y-72336998D01*
X142116297Y-72336999D01*
X142116303Y-72337003D01*
X142277292Y-72390349D01*
X142376655Y-72400500D01*
X143223344Y-72400499D01*
X143223352Y-72400498D01*
X143223355Y-72400498D01*
X143277760Y-72394940D01*
X143322708Y-72390349D01*
X143483697Y-72337003D01*
X143628044Y-72247968D01*
X143747968Y-72128044D01*
X143837003Y-71983697D01*
X143890349Y-71822708D01*
X143900500Y-71723345D01*
X143900499Y-71462228D01*
X143920183Y-71395190D01*
X143936813Y-71374553D01*
X145144549Y-70166819D01*
X145205872Y-70133334D01*
X145232230Y-70130500D01*
X148221553Y-70130500D01*
X148288592Y-70150185D01*
X148321869Y-70181612D01*
X148337019Y-70202464D01*
X148477536Y-70342981D01*
X148638306Y-70459787D01*
X148710685Y-70496666D01*
X148815367Y-70550005D01*
X148815370Y-70550006D01*
X148909866Y-70580709D01*
X149004364Y-70611413D01*
X149200639Y-70642500D01*
X149200640Y-70642500D01*
X149399360Y-70642500D01*
X149399361Y-70642500D01*
X149595636Y-70611413D01*
X149784632Y-70550005D01*
X149961694Y-70459787D01*
X150122464Y-70342981D01*
X150262981Y-70202464D01*
X150379787Y-70041694D01*
X150470005Y-69864632D01*
X150531413Y-69675636D01*
X150562500Y-69479361D01*
X150562500Y-69280639D01*
X155657500Y-69280639D01*
X155657500Y-69479360D01*
X155688587Y-69675637D01*
X155749993Y-69864629D01*
X155749994Y-69864632D01*
X155840213Y-70041694D01*
X155957019Y-70202464D01*
X156097536Y-70342981D01*
X156258306Y-70459787D01*
X156330685Y-70496666D01*
X156435367Y-70550005D01*
X156435370Y-70550006D01*
X156529866Y-70580709D01*
X156624364Y-70611413D01*
X156820639Y-70642500D01*
X156820640Y-70642500D01*
X157019360Y-70642500D01*
X157019361Y-70642500D01*
X157215636Y-70611413D01*
X157404632Y-70550005D01*
X157581694Y-70459787D01*
X157742464Y-70342981D01*
X157882981Y-70202464D01*
X157999787Y-70041694D01*
X158090005Y-69864632D01*
X158151413Y-69675636D01*
X158182500Y-69479361D01*
X158182500Y-69280639D01*
X160737500Y-69280639D01*
X160737500Y-69479360D01*
X160768587Y-69675637D01*
X160829993Y-69864629D01*
X160829994Y-69864632D01*
X160920213Y-70041694D01*
X161037019Y-70202464D01*
X161177536Y-70342981D01*
X161338306Y-70459787D01*
X161410685Y-70496666D01*
X161515367Y-70550005D01*
X161515370Y-70550006D01*
X161609866Y-70580709D01*
X161704364Y-70611413D01*
X161900639Y-70642500D01*
X161900640Y-70642500D01*
X162099360Y-70642500D01*
X162099361Y-70642500D01*
X162295636Y-70611413D01*
X162484632Y-70550005D01*
X162661694Y-70459787D01*
X162822464Y-70342981D01*
X162962981Y-70202464D01*
X163079787Y-70041694D01*
X163170005Y-69864632D01*
X163231413Y-69675636D01*
X163262500Y-69479361D01*
X163262500Y-69280639D01*
X165817500Y-69280639D01*
X165817500Y-69479360D01*
X165848587Y-69675637D01*
X165909993Y-69864629D01*
X165909994Y-69864632D01*
X166000213Y-70041694D01*
X166117019Y-70202464D01*
X166257536Y-70342981D01*
X166418306Y-70459787D01*
X166490685Y-70496666D01*
X166595367Y-70550005D01*
X166595370Y-70550006D01*
X166689866Y-70580709D01*
X166784364Y-70611413D01*
X166980639Y-70642500D01*
X166980640Y-70642500D01*
X167179360Y-70642500D01*
X167179361Y-70642500D01*
X167375636Y-70611413D01*
X167564632Y-70550005D01*
X167741694Y-70459787D01*
X167902464Y-70342981D01*
X168042981Y-70202464D01*
X168159787Y-70041694D01*
X168250005Y-69864632D01*
X168311413Y-69675636D01*
X168342500Y-69479361D01*
X168342500Y-69355778D01*
X171799500Y-69355778D01*
X171799500Y-69644221D01*
X171799501Y-69644238D01*
X171837149Y-69930206D01*
X171837150Y-69930211D01*
X171837151Y-69930217D01*
X171910100Y-70202466D01*
X171911809Y-70208844D01*
X171911814Y-70208860D01*
X172022191Y-70475336D01*
X172022199Y-70475352D01*
X172166420Y-70725148D01*
X172166431Y-70725164D01*
X172342024Y-70954002D01*
X172342030Y-70954009D01*
X172545990Y-71157969D01*
X172545997Y-71157975D01*
X172665927Y-71250000D01*
X172774844Y-71333575D01*
X172774851Y-71333579D01*
X173024647Y-71477800D01*
X173024663Y-71477808D01*
X173291139Y-71588185D01*
X173291145Y-71588186D01*
X173291155Y-71588191D01*
X173569783Y-71662849D01*
X173855772Y-71700500D01*
X173855779Y-71700500D01*
X174144221Y-71700500D01*
X174144228Y-71700500D01*
X174430217Y-71662849D01*
X174708845Y-71588191D01*
X174708857Y-71588185D01*
X174708860Y-71588185D01*
X174975336Y-71477808D01*
X174975339Y-71477806D01*
X174975345Y-71477804D01*
X175225156Y-71333575D01*
X175454004Y-71157974D01*
X175657974Y-70954004D01*
X175833575Y-70725156D01*
X175977804Y-70475345D01*
X175982843Y-70463181D01*
X176088185Y-70208860D01*
X176088185Y-70208857D01*
X176088191Y-70208845D01*
X176162849Y-69930217D01*
X176200500Y-69644228D01*
X176200500Y-69355772D01*
X176162849Y-69069783D01*
X176088191Y-68791155D01*
X176088186Y-68791145D01*
X176088185Y-68791139D01*
X175977808Y-68524663D01*
X175977800Y-68524647D01*
X175833579Y-68274851D01*
X175833575Y-68274844D01*
X175657974Y-68045996D01*
X175657969Y-68045990D01*
X175454009Y-67842030D01*
X175454002Y-67842024D01*
X175225164Y-67666431D01*
X175225162Y-67666429D01*
X175225156Y-67666425D01*
X175225151Y-67666422D01*
X175225148Y-67666420D01*
X174975352Y-67522199D01*
X174975336Y-67522191D01*
X174708860Y-67411814D01*
X174708848Y-67411810D01*
X174708845Y-67411809D01*
X174430217Y-67337151D01*
X174430211Y-67337150D01*
X174430206Y-67337149D01*
X174144238Y-67299501D01*
X174144233Y-67299500D01*
X174144228Y-67299500D01*
X173855772Y-67299500D01*
X173855766Y-67299500D01*
X173855761Y-67299501D01*
X173569793Y-67337149D01*
X173569786Y-67337150D01*
X173569783Y-67337151D01*
X173291155Y-67411809D01*
X173291139Y-67411814D01*
X173024663Y-67522191D01*
X173024647Y-67522199D01*
X172774851Y-67666420D01*
X172774835Y-67666431D01*
X172545997Y-67842024D01*
X172545990Y-67842030D01*
X172342030Y-68045990D01*
X172342024Y-68045997D01*
X172166431Y-68274835D01*
X172166420Y-68274851D01*
X172022199Y-68524647D01*
X172022191Y-68524663D01*
X171911814Y-68791139D01*
X171911809Y-68791155D01*
X171837152Y-69069780D01*
X171837149Y-69069793D01*
X171799501Y-69355761D01*
X171799500Y-69355778D01*
X168342500Y-69355778D01*
X168342500Y-69280639D01*
X168311413Y-69084364D01*
X168250005Y-68895368D01*
X168250005Y-68895367D01*
X168196897Y-68791139D01*
X168159787Y-68718306D01*
X168042981Y-68557536D01*
X167902464Y-68417019D01*
X167741694Y-68300213D01*
X167564632Y-68209994D01*
X167564629Y-68209993D01*
X167375637Y-68148587D01*
X167277498Y-68133043D01*
X167179361Y-68117500D01*
X166980639Y-68117500D01*
X166915214Y-68127862D01*
X166784362Y-68148587D01*
X166595370Y-68209993D01*
X166595367Y-68209994D01*
X166418305Y-68300213D01*
X166257533Y-68417021D01*
X166117021Y-68557533D01*
X166000213Y-68718305D01*
X165909994Y-68895367D01*
X165909993Y-68895370D01*
X165848587Y-69084362D01*
X165817500Y-69280639D01*
X163262500Y-69280639D01*
X163231413Y-69084364D01*
X163170005Y-68895368D01*
X163170005Y-68895367D01*
X163116897Y-68791139D01*
X163079787Y-68718306D01*
X162962981Y-68557536D01*
X162822464Y-68417019D01*
X162661694Y-68300213D01*
X162484632Y-68209994D01*
X162484629Y-68209993D01*
X162295637Y-68148587D01*
X162197498Y-68133043D01*
X162099361Y-68117500D01*
X161900639Y-68117500D01*
X161835214Y-68127862D01*
X161704362Y-68148587D01*
X161515370Y-68209993D01*
X161515367Y-68209994D01*
X161338305Y-68300213D01*
X161177533Y-68417021D01*
X161037021Y-68557533D01*
X160920213Y-68718305D01*
X160829994Y-68895367D01*
X160829993Y-68895370D01*
X160768587Y-69084362D01*
X160737500Y-69280639D01*
X158182500Y-69280639D01*
X158151413Y-69084364D01*
X158090005Y-68895368D01*
X158090005Y-68895367D01*
X158036897Y-68791139D01*
X157999787Y-68718306D01*
X157882981Y-68557536D01*
X157742464Y-68417019D01*
X157581694Y-68300213D01*
X157404632Y-68209994D01*
X157404629Y-68209993D01*
X157215637Y-68148587D01*
X157117498Y-68133043D01*
X157019361Y-68117500D01*
X156820639Y-68117500D01*
X156755214Y-68127862D01*
X156624362Y-68148587D01*
X156435370Y-68209993D01*
X156435367Y-68209994D01*
X156258305Y-68300213D01*
X156097533Y-68417021D01*
X155957021Y-68557533D01*
X155840213Y-68718305D01*
X155749994Y-68895367D01*
X155749993Y-68895370D01*
X155688587Y-69084362D01*
X155657500Y-69280639D01*
X150562500Y-69280639D01*
X150531413Y-69084364D01*
X150470005Y-68895368D01*
X150470005Y-68895367D01*
X150416897Y-68791139D01*
X150379787Y-68718306D01*
X150262981Y-68557536D01*
X150122464Y-68417019D01*
X149961694Y-68300213D01*
X149784632Y-68209994D01*
X149784629Y-68209993D01*
X149595637Y-68148587D01*
X149497498Y-68133043D01*
X149399361Y-68117500D01*
X149200639Y-68117500D01*
X149135214Y-68127862D01*
X149004362Y-68148587D01*
X148815370Y-68209993D01*
X148815367Y-68209994D01*
X148638305Y-68300213D01*
X148477533Y-68417021D01*
X148337020Y-68557534D01*
X148321871Y-68578386D01*
X148266540Y-68621051D01*
X148221553Y-68629500D01*
X144796080Y-68629500D01*
X144651092Y-68658340D01*
X144651082Y-68658343D01*
X144514511Y-68714912D01*
X144514504Y-68714916D01*
X144505419Y-68720987D01*
X144481276Y-68737119D01*
X144391579Y-68797051D01*
X142725449Y-70463181D01*
X142664126Y-70496666D01*
X142637768Y-70499500D01*
X142376663Y-70499500D01*
X142376644Y-70499501D01*
X142277292Y-70509650D01*
X142277289Y-70509651D01*
X142116305Y-70562996D01*
X142116294Y-70563001D01*
X141971959Y-70652029D01*
X141971955Y-70652032D01*
X141960807Y-70663181D01*
X141899484Y-70696666D01*
X141873126Y-70699500D01*
X136076076Y-70699500D01*
X136047242Y-70705234D01*
X136047243Y-70705235D01*
X135931093Y-70728339D01*
X135931083Y-70728342D01*
X135851081Y-70761479D01*
X135851082Y-70761480D01*
X135851080Y-70761481D01*
X135794505Y-70784916D01*
X135783631Y-70792182D01*
X135719675Y-70834916D01*
X135671586Y-70867047D01*
X135671582Y-70867050D01*
X133690451Y-72848181D01*
X133629128Y-72881666D01*
X133602770Y-72884500D01*
X130972328Y-72884500D01*
X130937733Y-72879576D01*
X130792573Y-72837402D01*
X130792567Y-72837401D01*
X130755701Y-72834500D01*
X130755694Y-72834500D01*
X129444306Y-72834500D01*
X129444298Y-72834500D01*
X129407432Y-72837401D01*
X129407426Y-72837402D01*
X129249606Y-72883254D01*
X129249603Y-72883255D01*
X129108137Y-72966917D01*
X129108129Y-72966923D01*
X128991923Y-73083129D01*
X128991917Y-73083137D01*
X128908255Y-73224603D01*
X128908254Y-73224606D01*
X128862402Y-73382426D01*
X128862401Y-73382432D01*
X128859500Y-73419298D01*
X128859500Y-73850701D01*
X128862401Y-73887567D01*
X128862402Y-73887573D01*
X128908254Y-74045393D01*
X128908255Y-74045396D01*
X128991917Y-74186862D01*
X128991923Y-74186870D01*
X129108129Y-74303076D01*
X129108133Y-74303079D01*
X129108135Y-74303081D01*
X129249602Y-74386744D01*
X129291224Y-74398836D01*
X129407426Y-74432597D01*
X129407429Y-74432597D01*
X129407431Y-74432598D01*
X129444306Y-74435500D01*
X130615500Y-74435500D01*
X130682539Y-74455185D01*
X130728294Y-74507989D01*
X130739500Y-74559500D01*
X130739500Y-74800701D01*
X130742401Y-74837567D01*
X130742402Y-74837573D01*
X130788254Y-74995393D01*
X130788255Y-74995396D01*
X130871917Y-75136862D01*
X130871923Y-75136870D01*
X130988129Y-75253076D01*
X130988133Y-75253079D01*
X130988135Y-75253081D01*
X131129602Y-75336744D01*
X131171224Y-75348836D01*
X131287426Y-75382597D01*
X131287429Y-75382597D01*
X131287431Y-75382598D01*
X131324306Y-75385500D01*
X131324314Y-75385500D01*
X132635686Y-75385500D01*
X132635694Y-75385500D01*
X132672569Y-75382598D01*
X132672571Y-75382597D01*
X132672573Y-75382597D01*
X132714191Y-75370505D01*
X132830398Y-75336744D01*
X132971865Y-75253081D01*
X133003126Y-75221820D01*
X133064448Y-75188334D01*
X133090808Y-75185500D01*
X136448331Y-75185500D01*
X136448347Y-75185501D01*
X136455943Y-75185501D01*
X136614054Y-75185501D01*
X136614057Y-75185501D01*
X136766785Y-75144577D01*
X136816904Y-75115639D01*
X136820142Y-75113770D01*
X136823806Y-75111653D01*
X136847672Y-75097875D01*
X136915570Y-75081402D01*
X136981597Y-75104254D01*
X137024788Y-75159174D01*
X137027377Y-75166258D01*
X137065078Y-75280032D01*
X137065080Y-75280037D01*
X137099907Y-75336499D01*
X137157032Y-75429114D01*
X137280886Y-75552968D01*
X137429965Y-75644921D01*
X137514505Y-75672935D01*
X137571948Y-75712705D01*
X137598772Y-75777220D01*
X137599500Y-75790639D01*
X137599500Y-88880317D01*
X137579815Y-88947356D01*
X137527011Y-88993111D01*
X137457853Y-89003055D01*
X137394297Y-88974030D01*
X137360939Y-88927769D01*
X137351625Y-88905283D01*
X137351618Y-88905270D01*
X137264017Y-88774167D01*
X137264014Y-88774163D01*
X137152520Y-88662669D01*
X137152516Y-88662666D01*
X137021413Y-88575065D01*
X137021400Y-88575058D01*
X136875729Y-88514720D01*
X136875720Y-88514718D01*
X136788411Y-88497350D01*
X136726501Y-88464964D01*
X136707891Y-88440331D01*
X136707388Y-88440668D01*
X136616398Y-88304493D01*
X136616395Y-88304489D01*
X136504901Y-88192995D01*
X136504897Y-88192992D01*
X136373794Y-88105391D01*
X136373781Y-88105384D01*
X136228110Y-88045046D01*
X136228098Y-88045043D01*
X136073454Y-88014282D01*
X136073451Y-88014282D01*
X135915767Y-88014282D01*
X135915764Y-88014282D01*
X135761119Y-88045043D01*
X135761107Y-88045046D01*
X135615436Y-88105384D01*
X135615423Y-88105391D01*
X135484320Y-88192992D01*
X135484316Y-88192995D01*
X135372822Y-88304489D01*
X135372819Y-88304493D01*
X135285218Y-88435596D01*
X135285213Y-88435605D01*
X135272950Y-88465213D01*
X135229109Y-88519616D01*
X135162815Y-88541681D01*
X135095116Y-88524402D01*
X135070708Y-88505441D01*
X133140575Y-86575307D01*
X133140571Y-86575304D01*
X133029941Y-86501383D01*
X133029931Y-86501378D01*
X132907002Y-86450459D01*
X132906994Y-86450457D01*
X132776501Y-86424500D01*
X132776497Y-86424500D01*
X132402517Y-86424500D01*
X132335478Y-86404815D01*
X132333626Y-86403602D01*
X132214711Y-86324145D01*
X132214698Y-86324138D01*
X132055378Y-86258146D01*
X132055366Y-86258143D01*
X131886232Y-86224500D01*
X131886229Y-86224500D01*
X131713771Y-86224500D01*
X131713768Y-86224500D01*
X131544633Y-86258143D01*
X131544621Y-86258146D01*
X131385301Y-86324138D01*
X131385289Y-86324145D01*
X131303790Y-86378602D01*
X131237113Y-86399480D01*
X131234899Y-86399500D01*
X116661230Y-86399500D01*
X116594191Y-86379815D01*
X116548436Y-86327011D01*
X116538492Y-86257853D01*
X116567517Y-86194297D01*
X116573549Y-86187819D01*
X119582948Y-83178419D01*
X119582947Y-83178419D01*
X119582951Y-83178416D01*
X119665084Y-83055495D01*
X119721658Y-82918913D01*
X119750500Y-82773918D01*
X119750500Y-82626083D01*
X119750500Y-72687220D01*
X119770185Y-72620181D01*
X119801614Y-72586902D01*
X119879792Y-72530104D01*
X119993717Y-72416178D01*
X120055036Y-72382696D01*
X120124728Y-72387680D01*
X120180662Y-72429551D01*
X120197577Y-72460528D01*
X120246646Y-72592088D01*
X120246649Y-72592093D01*
X120332809Y-72707187D01*
X120332812Y-72707190D01*
X120447906Y-72793350D01*
X120447913Y-72793354D01*
X120582620Y-72843596D01*
X120582627Y-72843598D01*
X120642155Y-72849999D01*
X120642172Y-72850000D01*
X121290000Y-72850000D01*
X121290000Y-71933012D01*
X121347007Y-71965925D01*
X121474174Y-72000000D01*
X121605826Y-72000000D01*
X121732993Y-71965925D01*
X121790000Y-71933012D01*
X121790000Y-72850000D01*
X122437828Y-72850000D01*
X122437844Y-72849999D01*
X122497372Y-72843598D01*
X122497379Y-72843596D01*
X122632086Y-72793354D01*
X122632093Y-72793350D01*
X122747187Y-72707190D01*
X122747190Y-72707187D01*
X122833350Y-72592093D01*
X122833354Y-72592086D01*
X122883597Y-72457377D01*
X122883598Y-72457375D01*
X122886004Y-72434998D01*
X130742704Y-72434998D01*
X130742705Y-72435000D01*
X131730000Y-72435000D01*
X132230000Y-72435000D01*
X133217295Y-72435000D01*
X133217295Y-72434998D01*
X133217100Y-72432513D01*
X133171281Y-72274801D01*
X133087685Y-72133447D01*
X133087678Y-72133438D01*
X132971561Y-72017321D01*
X132971552Y-72017314D01*
X132830196Y-71933717D01*
X132830193Y-71933716D01*
X132672495Y-71887900D01*
X132672489Y-71887899D01*
X132635649Y-71885000D01*
X132230000Y-71885000D01*
X132230000Y-72435000D01*
X131730000Y-72435000D01*
X131730000Y-71885000D01*
X131324350Y-71885000D01*
X131287510Y-71887899D01*
X131287504Y-71887900D01*
X131129806Y-71933716D01*
X131129803Y-71933717D01*
X130988447Y-72017314D01*
X130988438Y-72017321D01*
X130872321Y-72133438D01*
X130872314Y-72133447D01*
X130788718Y-72274801D01*
X130742899Y-72432513D01*
X130742704Y-72434998D01*
X122886004Y-72434998D01*
X122889999Y-72397844D01*
X122890000Y-72397827D01*
X122890000Y-71750000D01*
X121973012Y-71750000D01*
X122005925Y-71692993D01*
X122040000Y-71565826D01*
X122040000Y-71434174D01*
X122005925Y-71307007D01*
X121973012Y-71250000D01*
X122890000Y-71250000D01*
X122890000Y-70602172D01*
X122889999Y-70602155D01*
X122883598Y-70542627D01*
X122883596Y-70542620D01*
X122833354Y-70407913D01*
X122833350Y-70407906D01*
X122747190Y-70292812D01*
X122747187Y-70292809D01*
X122632093Y-70206649D01*
X122632086Y-70206645D01*
X122497379Y-70156403D01*
X122497372Y-70156401D01*
X122437844Y-70150000D01*
X121790000Y-70150000D01*
X121790000Y-71066988D01*
X121732993Y-71034075D01*
X121605826Y-71000000D01*
X121474174Y-71000000D01*
X121347007Y-71034075D01*
X121290000Y-71066988D01*
X121290000Y-70150000D01*
X120642155Y-70150000D01*
X120582627Y-70156401D01*
X120582620Y-70156403D01*
X120447913Y-70206645D01*
X120447906Y-70206649D01*
X120332812Y-70292809D01*
X120332809Y-70292812D01*
X120246649Y-70407906D01*
X120246646Y-70407912D01*
X120197577Y-70539471D01*
X120155705Y-70595404D01*
X120090241Y-70619821D01*
X120021968Y-70604969D01*
X119993714Y-70583818D01*
X119879786Y-70469890D01*
X119707820Y-70344951D01*
X119518414Y-70248444D01*
X119518413Y-70248443D01*
X119518412Y-70248443D01*
X119316243Y-70182754D01*
X119316241Y-70182753D01*
X119316240Y-70182753D01*
X119154957Y-70157208D01*
X119106287Y-70149500D01*
X118893713Y-70149500D01*
X118845042Y-70157208D01*
X118683760Y-70182753D01*
X118481585Y-70248444D01*
X118292179Y-70344951D01*
X118120213Y-70469890D01*
X117969890Y-70620213D01*
X117844949Y-70792182D01*
X117840484Y-70800946D01*
X117792509Y-70851742D01*
X117724688Y-70868536D01*
X117658553Y-70845998D01*
X117619516Y-70800946D01*
X117615050Y-70792182D01*
X117490109Y-70620213D01*
X117339786Y-70469890D01*
X117167820Y-70344951D01*
X116978414Y-70248444D01*
X116978413Y-70248443D01*
X116978412Y-70248443D01*
X116776243Y-70182754D01*
X116776241Y-70182753D01*
X116776240Y-70182753D01*
X116614957Y-70157208D01*
X116566287Y-70149500D01*
X116353713Y-70149500D01*
X116305042Y-70157208D01*
X116143760Y-70182753D01*
X115941585Y-70248444D01*
X115752179Y-70344951D01*
X115580213Y-70469890D01*
X115429890Y-70620213D01*
X115304949Y-70792182D01*
X115300484Y-70800946D01*
X115252509Y-70851742D01*
X115184688Y-70868536D01*
X115118553Y-70845998D01*
X115079516Y-70800946D01*
X115075050Y-70792182D01*
X114950109Y-70620213D01*
X114799786Y-70469890D01*
X114627820Y-70344951D01*
X114438414Y-70248444D01*
X114438413Y-70248443D01*
X114438412Y-70248443D01*
X114236243Y-70182754D01*
X114236241Y-70182753D01*
X114236240Y-70182753D01*
X114074957Y-70157208D01*
X114026287Y-70149500D01*
X113813713Y-70149500D01*
X113765042Y-70157208D01*
X113603760Y-70182753D01*
X113401585Y-70248444D01*
X113212179Y-70344951D01*
X113040213Y-70469890D01*
X112889890Y-70620213D01*
X112764949Y-70792182D01*
X112760484Y-70800946D01*
X112712509Y-70851742D01*
X112644688Y-70868536D01*
X112578553Y-70845998D01*
X112539516Y-70800946D01*
X112535050Y-70792182D01*
X112410109Y-70620213D01*
X112259786Y-70469890D01*
X112087820Y-70344951D01*
X111898414Y-70248444D01*
X111898413Y-70248443D01*
X111898412Y-70248443D01*
X111696243Y-70182754D01*
X111696241Y-70182753D01*
X111696240Y-70182753D01*
X111534957Y-70157208D01*
X111486287Y-70149500D01*
X111273713Y-70149500D01*
X111225042Y-70157208D01*
X111063760Y-70182753D01*
X110861585Y-70248444D01*
X110672179Y-70344951D01*
X110500213Y-70469890D01*
X110349890Y-70620213D01*
X110224951Y-70792179D01*
X110128444Y-70981585D01*
X110062753Y-71183760D01*
X110061291Y-71192993D01*
X110029500Y-71393713D01*
X110029500Y-71606287D01*
X110062754Y-71816243D01*
X110128086Y-72017314D01*
X110128444Y-72018414D01*
X110224951Y-72207820D01*
X110349890Y-72379786D01*
X110500213Y-72530109D01*
X110672179Y-72655048D01*
X110672181Y-72655049D01*
X110672184Y-72655051D01*
X110861588Y-72751557D01*
X111063757Y-72817246D01*
X111273713Y-72850500D01*
X111273714Y-72850500D01*
X111486286Y-72850500D01*
X111486287Y-72850500D01*
X111696243Y-72817246D01*
X111898412Y-72751557D01*
X112087816Y-72655051D01*
X112174478Y-72592088D01*
X112259786Y-72530109D01*
X112259788Y-72530106D01*
X112259792Y-72530104D01*
X112410104Y-72379792D01*
X112410106Y-72379788D01*
X112410109Y-72379786D01*
X112535048Y-72207820D01*
X112535047Y-72207820D01*
X112535051Y-72207816D01*
X112539514Y-72199054D01*
X112587488Y-72148259D01*
X112655308Y-72131463D01*
X112721444Y-72153999D01*
X112760484Y-72199054D01*
X112764591Y-72207115D01*
X112764951Y-72207820D01*
X112889890Y-72379786D01*
X113040213Y-72530109D01*
X113212184Y-72655051D01*
X113212184Y-72655052D01*
X113251793Y-72675233D01*
X113302590Y-72723206D01*
X113319500Y-72785718D01*
X113319500Y-75397059D01*
X113299815Y-75464098D01*
X113283181Y-75484740D01*
X113278213Y-75489707D01*
X113278210Y-75489711D01*
X113190609Y-75620814D01*
X113190602Y-75620827D01*
X113130264Y-75766498D01*
X113130261Y-75766510D01*
X113099500Y-75921153D01*
X113099500Y-76078846D01*
X113130261Y-76233489D01*
X113130264Y-76233501D01*
X113190602Y-76379172D01*
X113190609Y-76379185D01*
X113278210Y-76510288D01*
X113278213Y-76510292D01*
X113389707Y-76621786D01*
X113389711Y-76621789D01*
X113520814Y-76709390D01*
X113520827Y-76709397D01*
X113666498Y-76769735D01*
X113666503Y-76769737D01*
X113821153Y-76800499D01*
X113821156Y-76800500D01*
X113821158Y-76800500D01*
X113978844Y-76800500D01*
X113978845Y-76800499D01*
X114133497Y-76769737D01*
X114279179Y-76709394D01*
X114410289Y-76621789D01*
X114521789Y-76510289D01*
X114609394Y-76379179D01*
X114669737Y-76233497D01*
X114700500Y-76078842D01*
X114700500Y-75921158D01*
X114700500Y-75921155D01*
X114700499Y-75921153D01*
X114700312Y-75920213D01*
X114669737Y-75766503D01*
X114650551Y-75720183D01*
X114609397Y-75620827D01*
X114609390Y-75620814D01*
X114541398Y-75519057D01*
X114520520Y-75452379D01*
X114520500Y-75450166D01*
X114520500Y-72785718D01*
X114540185Y-72718679D01*
X114588207Y-72675233D01*
X114627815Y-72655052D01*
X114627815Y-72655051D01*
X114627816Y-72655051D01*
X114721617Y-72586901D01*
X114799786Y-72530109D01*
X114799788Y-72530106D01*
X114799792Y-72530104D01*
X114950104Y-72379792D01*
X114950106Y-72379788D01*
X114950109Y-72379786D01*
X115075048Y-72207820D01*
X115075047Y-72207820D01*
X115075051Y-72207816D01*
X115079514Y-72199054D01*
X115127488Y-72148259D01*
X115195308Y-72131463D01*
X115261444Y-72153999D01*
X115300484Y-72199054D01*
X115304591Y-72207115D01*
X115304951Y-72207820D01*
X115429890Y-72379786D01*
X115580213Y-72530109D01*
X115752184Y-72655051D01*
X115752184Y-72655052D01*
X115791793Y-72675233D01*
X115842590Y-72723206D01*
X115859500Y-72785718D01*
X115859500Y-75357059D01*
X115839815Y-75424098D01*
X115823181Y-75444740D01*
X115778213Y-75489707D01*
X115778210Y-75489711D01*
X115690609Y-75620814D01*
X115690602Y-75620827D01*
X115630264Y-75766498D01*
X115630261Y-75766510D01*
X115599500Y-75921153D01*
X115599500Y-76078846D01*
X115630261Y-76233489D01*
X115630264Y-76233501D01*
X115690602Y-76379172D01*
X115690609Y-76379185D01*
X115778210Y-76510288D01*
X115778213Y-76510292D01*
X115889707Y-76621786D01*
X115889711Y-76621789D01*
X116020814Y-76709390D01*
X116020827Y-76709397D01*
X116166498Y-76769735D01*
X116166503Y-76769737D01*
X116321153Y-76800499D01*
X116321156Y-76800500D01*
X116321158Y-76800500D01*
X116478844Y-76800500D01*
X116478845Y-76800499D01*
X116633497Y-76769737D01*
X116779179Y-76709394D01*
X116910289Y-76621789D01*
X117021789Y-76510289D01*
X117109394Y-76379179D01*
X117169737Y-76233497D01*
X117200500Y-76078842D01*
X117200500Y-75921158D01*
X117200500Y-75921155D01*
X117200499Y-75921153D01*
X117200312Y-75920213D01*
X117169737Y-75766503D01*
X117150551Y-75720183D01*
X117109397Y-75620827D01*
X117109390Y-75620814D01*
X117081398Y-75578921D01*
X117060520Y-75512243D01*
X117060500Y-75510030D01*
X117060500Y-72785718D01*
X117080185Y-72718679D01*
X117128207Y-72675233D01*
X117167815Y-72655052D01*
X117167815Y-72655051D01*
X117167816Y-72655051D01*
X117261617Y-72586901D01*
X117339786Y-72530109D01*
X117339788Y-72530106D01*
X117339792Y-72530104D01*
X117490104Y-72379792D01*
X117490106Y-72379788D01*
X117490109Y-72379786D01*
X117615048Y-72207820D01*
X117615047Y-72207820D01*
X117615051Y-72207816D01*
X117619514Y-72199054D01*
X117667488Y-72148259D01*
X117735308Y-72131463D01*
X117801444Y-72153999D01*
X117840484Y-72199054D01*
X117844591Y-72207115D01*
X117844951Y-72207820D01*
X117969890Y-72379786D01*
X117969896Y-72379792D01*
X118120208Y-72530104D01*
X118198384Y-72586902D01*
X118241051Y-72642231D01*
X118249500Y-72687220D01*
X118249500Y-82337770D01*
X118229815Y-82404809D01*
X118213181Y-82425451D01*
X103917048Y-96721583D01*
X103898907Y-96748735D01*
X103878647Y-96779057D01*
X103834919Y-96844499D01*
X103834912Y-96844511D01*
X103778343Y-96981082D01*
X103778340Y-96981092D01*
X103749500Y-97126079D01*
X103749500Y-99573252D01*
X103729815Y-99640291D01*
X103677011Y-99686046D01*
X103607853Y-99695990D01*
X103601309Y-99694869D01*
X103448633Y-99664500D01*
X103448629Y-99664500D01*
X99882229Y-99664500D01*
X97825600Y-99664500D01*
X97758561Y-99644815D01*
X97725283Y-99613387D01*
X97710786Y-99593434D01*
X97549068Y-99431716D01*
X97549066Y-99431714D01*
X97464134Y-99370007D01*
X97421470Y-99314678D01*
X97415491Y-99245064D01*
X97448097Y-99183269D01*
X97464137Y-99169371D01*
X97548739Y-99107905D01*
X97710402Y-98946242D01*
X97844788Y-98761276D01*
X97948582Y-98557570D01*
X98019234Y-98340128D01*
X98033509Y-98250000D01*
X97045748Y-98250000D01*
X97067518Y-98212292D01*
X97105000Y-98072409D01*
X97105000Y-97927591D01*
X97067518Y-97787708D01*
X97045748Y-97750000D01*
X98033509Y-97750000D01*
X98019234Y-97659871D01*
X97948582Y-97442429D01*
X97844788Y-97238723D01*
X97711988Y-97055940D01*
X97688508Y-96990133D01*
X97704333Y-96922079D01*
X97754439Y-96873384D01*
X97768966Y-96866875D01*
X97797331Y-96856296D01*
X97912546Y-96770046D01*
X97998796Y-96654831D01*
X98049091Y-96519983D01*
X98055500Y-96460373D01*
X98055500Y-96459500D01*
X98055556Y-96459306D01*
X98055678Y-96457048D01*
X98056211Y-96457076D01*
X98075185Y-96392461D01*
X98127989Y-96346706D01*
X98179500Y-96335500D01*
X101126231Y-96335500D01*
X101126232Y-96335499D01*
X101295374Y-96301855D01*
X101454705Y-96235858D01*
X101598099Y-96140045D01*
X104580045Y-93158099D01*
X104675858Y-93014705D01*
X104678483Y-93008369D01*
X104741853Y-92855378D01*
X104741855Y-92855374D01*
X104775500Y-92686229D01*
X104775500Y-92513771D01*
X104775500Y-92204503D01*
X105150000Y-92204503D01*
X105296195Y-92162031D01*
X105435374Y-92079721D01*
X105435383Y-92079714D01*
X105549714Y-91965383D01*
X105549721Y-91965374D01*
X105632031Y-91826195D01*
X105632033Y-91826190D01*
X105677144Y-91670918D01*
X105677145Y-91670912D01*
X105678790Y-91650000D01*
X105150000Y-91650000D01*
X105150000Y-92204503D01*
X104775500Y-92204503D01*
X104775500Y-91313771D01*
X104775500Y-90595494D01*
X105150000Y-90595494D01*
X105150000Y-91150000D01*
X105678790Y-91150000D01*
X105677145Y-91129089D01*
X105632031Y-90973804D01*
X105549721Y-90834625D01*
X105549714Y-90834616D01*
X105435383Y-90720285D01*
X105435374Y-90720278D01*
X105296193Y-90637967D01*
X105296190Y-90637965D01*
X105150001Y-90595493D01*
X105150000Y-90595494D01*
X104775500Y-90595494D01*
X104775500Y-90213771D01*
X104775500Y-90213768D01*
X104775499Y-90213766D01*
X104762538Y-90148607D01*
X104741855Y-90044626D01*
X104735098Y-90028313D01*
X104675861Y-89885301D01*
X104675854Y-89885288D01*
X104580046Y-89741902D01*
X104545688Y-89707544D01*
X104458099Y-89619955D01*
X103572019Y-88733875D01*
X102658102Y-87819957D01*
X102658098Y-87819954D01*
X102514711Y-87724145D01*
X102514698Y-87724138D01*
X102355378Y-87658146D01*
X102355366Y-87658143D01*
X102186232Y-87624500D01*
X102186229Y-87624500D01*
X100585758Y-87624500D01*
X100518719Y-87604815D01*
X100498077Y-87588181D01*
X100379786Y-87469890D01*
X100207820Y-87344951D01*
X100018414Y-87248444D01*
X100018413Y-87248443D01*
X100018412Y-87248443D01*
X99816243Y-87182754D01*
X99816241Y-87182753D01*
X99816240Y-87182753D01*
X99654957Y-87157208D01*
X99606287Y-87149500D01*
X99393713Y-87149500D01*
X99345042Y-87157208D01*
X99183760Y-87182753D01*
X98981585Y-87248444D01*
X98792179Y-87344951D01*
X98620215Y-87469889D01*
X98506673Y-87583431D01*
X98445350Y-87616915D01*
X98375658Y-87611931D01*
X98319725Y-87570059D01*
X98302810Y-87539082D01*
X98253797Y-87407671D01*
X98253793Y-87407664D01*
X98167547Y-87292455D01*
X98167544Y-87292452D01*
X98052335Y-87206206D01*
X98052328Y-87206202D01*
X97917482Y-87155908D01*
X97917483Y-87155908D01*
X97857883Y-87149501D01*
X97857881Y-87149500D01*
X97857873Y-87149500D01*
X97857864Y-87149500D01*
X96062129Y-87149500D01*
X96062123Y-87149501D01*
X96002516Y-87155908D01*
X95867671Y-87206202D01*
X95867664Y-87206206D01*
X95752455Y-87292452D01*
X95752452Y-87292455D01*
X95666206Y-87407664D01*
X95666202Y-87407671D01*
X95615908Y-87542517D01*
X95609501Y-87602116D01*
X95609500Y-87602135D01*
X95609500Y-89397870D01*
X95609501Y-89397876D01*
X95615908Y-89457483D01*
X95666202Y-89592328D01*
X95666206Y-89592335D01*
X95752452Y-89707544D01*
X95752455Y-89707547D01*
X95867664Y-89793793D01*
X95867671Y-89793797D01*
X96002517Y-89844091D01*
X96002516Y-89844091D01*
X96009444Y-89844835D01*
X96062127Y-89850500D01*
X97857872Y-89850499D01*
X97917483Y-89844091D01*
X98052331Y-89793796D01*
X98167546Y-89707546D01*
X98253796Y-89592331D01*
X98302810Y-89460916D01*
X98344681Y-89404984D01*
X98410145Y-89380566D01*
X98478418Y-89395417D01*
X98506673Y-89416569D01*
X98620213Y-89530109D01*
X98792179Y-89655048D01*
X98792181Y-89655049D01*
X98792184Y-89655051D01*
X98981588Y-89751557D01*
X99183757Y-89817246D01*
X99393713Y-89850500D01*
X99393714Y-89850500D01*
X99606286Y-89850500D01*
X99606287Y-89850500D01*
X99816243Y-89817246D01*
X100018412Y-89751557D01*
X100207816Y-89655051D01*
X100254940Y-89620814D01*
X100379786Y-89530109D01*
X100379788Y-89530106D01*
X100379792Y-89530104D01*
X100498077Y-89411819D01*
X100559400Y-89378334D01*
X100585758Y-89375500D01*
X101685994Y-89375500D01*
X101753033Y-89395185D01*
X101773675Y-89411819D01*
X102988181Y-90626325D01*
X103021666Y-90687648D01*
X103024500Y-90714006D01*
X103024500Y-92185994D01*
X103004815Y-92253033D01*
X102988181Y-92273675D01*
X100713675Y-94548181D01*
X100652352Y-94581666D01*
X100625994Y-94584500D01*
X98179499Y-94584500D01*
X98112460Y-94564815D01*
X98066705Y-94512011D01*
X98056024Y-94462917D01*
X98055900Y-94462923D01*
X98055854Y-94462929D01*
X98055853Y-94462926D01*
X98055676Y-94462936D01*
X98055560Y-94460784D01*
X98055499Y-94460500D01*
X98055499Y-94459629D01*
X98055498Y-94459623D01*
X98055497Y-94459616D01*
X98049091Y-94400017D01*
X98030213Y-94349403D01*
X97998797Y-94265171D01*
X97998793Y-94265164D01*
X97912547Y-94149955D01*
X97912544Y-94149952D01*
X97797335Y-94063706D01*
X97797328Y-94063702D01*
X97662482Y-94013408D01*
X97662483Y-94013408D01*
X97602883Y-94007001D01*
X97602881Y-94007000D01*
X97602873Y-94007000D01*
X97602864Y-94007000D01*
X95507129Y-94007000D01*
X95507123Y-94007001D01*
X95447516Y-94013408D01*
X95312671Y-94063702D01*
X95312664Y-94063706D01*
X95197455Y-94149952D01*
X95197452Y-94149955D01*
X95111206Y-94265164D01*
X95111202Y-94265171D01*
X95060908Y-94400017D01*
X95054516Y-94459475D01*
X95054501Y-94459623D01*
X95054500Y-94459635D01*
X95054500Y-96460370D01*
X95054501Y-96460376D01*
X95060908Y-96519983D01*
X95111202Y-96654828D01*
X95111206Y-96654835D01*
X95197452Y-96770044D01*
X95197455Y-96770047D01*
X95312664Y-96856293D01*
X95312667Y-96856295D01*
X95312668Y-96856295D01*
X95312669Y-96856296D01*
X95341025Y-96866872D01*
X95396958Y-96908742D01*
X95421376Y-96974206D01*
X95406525Y-97042479D01*
X95398010Y-97055939D01*
X95265213Y-97238719D01*
X95161417Y-97442429D01*
X95090765Y-97659871D01*
X95076491Y-97750000D01*
X96064252Y-97750000D01*
X96042482Y-97787708D01*
X96005000Y-97927591D01*
X96005000Y-98072409D01*
X96042482Y-98212292D01*
X96064252Y-98250000D01*
X95076491Y-98250000D01*
X95090765Y-98340128D01*
X95161417Y-98557570D01*
X95265211Y-98761276D01*
X95399597Y-98946242D01*
X95561257Y-99107902D01*
X95561263Y-99107907D01*
X95645863Y-99169372D01*
X95688529Y-99224701D01*
X95694508Y-99294315D01*
X95661903Y-99356110D01*
X95645864Y-99370007D01*
X95560940Y-99431709D01*
X95560931Y-99431716D01*
X95399216Y-99593431D01*
X95399216Y-99593432D01*
X95399214Y-99593434D01*
X95357946Y-99650235D01*
X95264783Y-99778461D01*
X95160950Y-99982244D01*
X95090278Y-100199750D01*
X95090278Y-100199753D01*
X95054500Y-100425646D01*
X95054500Y-100654353D01*
X95090278Y-100880246D01*
X95090278Y-100880249D01*
X95160950Y-101097755D01*
X95219131Y-101211941D01*
X95264783Y-101301538D01*
X95399214Y-101486566D01*
X95560934Y-101648286D01*
X95745962Y-101782717D01*
X95946502Y-101884897D01*
X95949744Y-101886549D01*
X96167251Y-101957221D01*
X96167252Y-101957221D01*
X96167255Y-101957222D01*
X96393146Y-101993000D01*
X96393147Y-101993000D01*
X96716853Y-101993000D01*
X96716854Y-101993000D01*
X96942745Y-101957222D01*
X96942748Y-101957221D01*
X96942749Y-101957221D01*
X97160255Y-101886549D01*
X97160255Y-101886548D01*
X97160258Y-101886548D01*
X97364038Y-101782717D01*
X97549066Y-101648286D01*
X97710786Y-101486566D01*
X97725283Y-101466613D01*
X97780614Y-101423948D01*
X97825600Y-101415500D01*
X99381994Y-101415500D01*
X99449033Y-101435185D01*
X99469675Y-101451819D01*
X103588181Y-105570325D01*
X103602884Y-105597252D01*
X103619477Y-105623071D01*
X103620368Y-105629271D01*
X103621666Y-105631648D01*
X103624500Y-105658006D01*
X103624500Y-105825500D01*
X103604815Y-105892539D01*
X103552011Y-105938294D01*
X103500500Y-105949500D01*
X97638580Y-105949500D01*
X97493592Y-105978340D01*
X97493582Y-105978343D01*
X97357007Y-106034914D01*
X97239515Y-106113419D01*
X97239515Y-106113420D01*
X97235901Y-106115834D01*
X97234082Y-106117050D01*
X95637951Y-107713181D01*
X95576628Y-107746666D01*
X95550270Y-107749500D01*
X95284298Y-107749500D01*
X95247432Y-107752401D01*
X95247426Y-107752402D01*
X95102267Y-107794576D01*
X95067672Y-107799500D01*
X94876080Y-107799500D01*
X94731092Y-107828340D01*
X94731082Y-107828343D01*
X94594511Y-107884912D01*
X94594498Y-107884919D01*
X94471584Y-107967048D01*
X94471580Y-107967051D01*
X93817052Y-108621578D01*
X93817049Y-108621581D01*
X93777201Y-108681218D01*
X93777202Y-108681219D01*
X93734914Y-108744508D01*
X93678343Y-108881082D01*
X93678340Y-108881092D01*
X93649500Y-109026079D01*
X93649500Y-109026082D01*
X93649500Y-110073918D01*
X93649500Y-110073920D01*
X93649499Y-110073920D01*
X93678340Y-110218907D01*
X93678343Y-110218917D01*
X93732640Y-110350000D01*
X93734916Y-110355495D01*
X93754760Y-110385195D01*
X93764551Y-110399848D01*
X93817049Y-110478418D01*
X93817052Y-110478421D01*
X94267049Y-110928416D01*
X94332817Y-110994184D01*
X94371585Y-111032952D01*
X94494498Y-111115080D01*
X94494511Y-111115087D01*
X94631082Y-111171656D01*
X94631087Y-111171658D01*
X94631091Y-111171658D01*
X94631092Y-111171659D01*
X94776079Y-111200500D01*
X94776082Y-111200500D01*
X94776083Y-111200500D01*
X94923917Y-111200500D01*
X95067672Y-111200500D01*
X95102267Y-111205424D01*
X95247426Y-111247597D01*
X95247429Y-111247597D01*
X95247431Y-111247598D01*
X95284306Y-111250500D01*
X95284314Y-111250500D01*
X96440686Y-111250500D01*
X96440694Y-111250500D01*
X96477569Y-111247598D01*
X96477571Y-111247597D01*
X96477573Y-111247597D01*
X96519572Y-111235395D01*
X96635398Y-111201744D01*
X96776865Y-111118081D01*
X96893081Y-111001865D01*
X96893267Y-111001549D01*
X96893477Y-111001353D01*
X96897861Y-110995702D01*
X96898772Y-110996409D01*
X96944336Y-110953866D01*
X97013077Y-110941362D01*
X97077667Y-110968006D01*
X97101855Y-110995921D01*
X97102139Y-110995702D01*
X97106179Y-111000911D01*
X97106732Y-111001548D01*
X97106919Y-111001865D01*
X97106921Y-111001867D01*
X97106923Y-111001870D01*
X97223129Y-111118076D01*
X97223133Y-111118079D01*
X97223135Y-111118081D01*
X97364602Y-111201744D01*
X97372590Y-111204064D01*
X97431477Y-111241667D01*
X97460686Y-111305139D01*
X97462000Y-111323142D01*
X97462000Y-112574909D01*
X97457076Y-112609504D01*
X97422357Y-112729002D01*
X97422356Y-112729008D01*
X97419500Y-112765302D01*
X97419500Y-113234697D01*
X97422356Y-113270991D01*
X97422357Y-113270997D01*
X97467504Y-113426390D01*
X97467505Y-113426393D01*
X97549881Y-113565684D01*
X97549887Y-113565692D01*
X97664307Y-113680112D01*
X97664311Y-113680115D01*
X97664313Y-113680117D01*
X97803605Y-113762494D01*
X97844587Y-113774400D01*
X97959002Y-113807642D01*
X97959005Y-113807642D01*
X97959007Y-113807643D01*
X97995310Y-113810500D01*
X97995318Y-113810500D01*
X98404682Y-113810500D01*
X98404690Y-113810500D01*
X98440993Y-113807643D01*
X98440995Y-113807642D01*
X98440997Y-113807642D01*
X98502869Y-113789666D01*
X98596395Y-113762494D01*
X98637370Y-113738261D01*
X98705090Y-113721078D01*
X98763611Y-113738261D01*
X98803804Y-113762031D01*
X98950000Y-113804504D01*
X98950000Y-113804503D01*
X99450000Y-113804503D01*
X99596195Y-113762031D01*
X99735374Y-113679721D01*
X99735383Y-113679714D01*
X99849714Y-113565383D01*
X99849721Y-113565374D01*
X99932031Y-113426195D01*
X99932033Y-113426190D01*
X99977144Y-113270918D01*
X99977145Y-113270912D01*
X99978790Y-113250000D01*
X99450000Y-113250000D01*
X99450000Y-113804503D01*
X98950000Y-113804503D01*
X98950000Y-113383786D01*
X98951649Y-113363631D01*
X98952853Y-113356316D01*
X98977643Y-113270993D01*
X98980500Y-113234690D01*
X98980500Y-112765310D01*
X98977643Y-112729007D01*
X98954923Y-112650808D01*
X98950000Y-112616213D01*
X98950000Y-112212790D01*
X98912620Y-112195494D01*
X99450000Y-112195494D01*
X99450000Y-112750000D01*
X99978790Y-112750000D01*
X99977145Y-112729089D01*
X99932031Y-112573804D01*
X99849721Y-112434625D01*
X99849714Y-112434616D01*
X99735383Y-112320285D01*
X99735374Y-112320278D01*
X99596193Y-112237967D01*
X99596190Y-112237965D01*
X99450001Y-112195493D01*
X99450000Y-112195494D01*
X98912620Y-112195494D01*
X98884928Y-112182681D01*
X98865136Y-112165358D01*
X98843055Y-112151078D01*
X98839264Y-112142713D01*
X98832352Y-112136664D01*
X98825068Y-112111393D01*
X98814212Y-112087440D01*
X98813000Y-112070144D01*
X98813000Y-111550000D01*
X103695496Y-111550000D01*
X103737968Y-111696195D01*
X103820278Y-111835374D01*
X103820285Y-111835383D01*
X103934616Y-111949714D01*
X103934625Y-111949721D01*
X104073804Y-112032031D01*
X104229089Y-112077145D01*
X104250000Y-112078789D01*
X104250000Y-111550000D01*
X103695496Y-111550000D01*
X98813000Y-111550000D01*
X98813000Y-111323142D01*
X98832685Y-111256103D01*
X98885489Y-111210348D01*
X98902405Y-111204066D01*
X98910398Y-111201744D01*
X99051865Y-111118081D01*
X99168081Y-111001865D01*
X99251744Y-110860398D01*
X99297598Y-110702569D01*
X99300500Y-110665694D01*
X99300500Y-110234306D01*
X99297598Y-110197431D01*
X99287706Y-110163384D01*
X99251745Y-110039606D01*
X99251744Y-110039603D01*
X99251744Y-110039602D01*
X99168081Y-109898135D01*
X99168079Y-109898133D01*
X99168076Y-109898129D01*
X99051870Y-109781923D01*
X99051862Y-109781917D01*
X98948760Y-109720943D01*
X98910398Y-109698256D01*
X98910397Y-109698255D01*
X98910396Y-109698255D01*
X98910393Y-109698254D01*
X98752573Y-109652402D01*
X98752567Y-109652401D01*
X98715701Y-109649500D01*
X98715694Y-109649500D01*
X97559306Y-109649500D01*
X97559298Y-109649500D01*
X97522432Y-109652401D01*
X97522426Y-109652402D01*
X97364606Y-109698254D01*
X97364603Y-109698255D01*
X97223137Y-109781917D01*
X97216969Y-109786702D01*
X97215664Y-109785019D01*
X97163954Y-109813246D01*
X97094263Y-109808251D01*
X97046558Y-109776247D01*
X97022296Y-109750000D01*
X96756815Y-109750000D01*
X96693694Y-109732732D01*
X96673760Y-109720943D01*
X96635398Y-109698256D01*
X96635397Y-109698255D01*
X96635396Y-109698255D01*
X96635393Y-109698254D01*
X96477573Y-109652402D01*
X96477567Y-109652401D01*
X96440701Y-109649500D01*
X96440694Y-109649500D01*
X95986500Y-109649500D01*
X95977814Y-109646949D01*
X95968853Y-109648238D01*
X95944812Y-109637259D01*
X95919461Y-109629815D01*
X95913533Y-109622974D01*
X95905297Y-109619213D01*
X95891007Y-109596978D01*
X95873706Y-109577011D01*
X95871418Y-109566496D01*
X95867523Y-109560435D01*
X95862500Y-109525500D01*
X95862500Y-109474500D01*
X95882185Y-109407461D01*
X95934989Y-109361706D01*
X95986500Y-109350500D01*
X96440686Y-109350500D01*
X96440694Y-109350500D01*
X96477569Y-109347598D01*
X96477571Y-109347597D01*
X96477573Y-109347597D01*
X96533701Y-109331290D01*
X96635398Y-109301744D01*
X96693694Y-109267268D01*
X96756815Y-109250000D01*
X97022294Y-109250000D01*
X97046557Y-109223752D01*
X97106518Y-109187885D01*
X97176352Y-109190129D01*
X97216012Y-109214530D01*
X97216969Y-109213298D01*
X97223132Y-109218078D01*
X97223135Y-109218081D01*
X97364602Y-109301744D01*
X97380318Y-109306310D01*
X97522426Y-109347597D01*
X97522429Y-109347597D01*
X97522431Y-109347598D01*
X97559306Y-109350500D01*
X97559314Y-109350500D01*
X98715686Y-109350500D01*
X98715694Y-109350500D01*
X98752569Y-109347598D01*
X98752571Y-109347597D01*
X98752573Y-109347597D01*
X98897733Y-109305424D01*
X98932328Y-109300500D01*
X102387770Y-109300500D01*
X102454809Y-109320185D01*
X102475451Y-109336819D01*
X103675057Y-110536424D01*
X103680589Y-110544946D01*
X103685960Y-110548891D01*
X103695761Y-110568318D01*
X103703157Y-110579712D01*
X103705009Y-110584543D01*
X103737506Y-110696395D01*
X103767050Y-110746352D01*
X103770787Y-110756097D01*
X103772791Y-110780935D01*
X103778921Y-110805093D01*
X103775642Y-110816257D01*
X103776408Y-110825740D01*
X103768526Y-110840492D01*
X103761739Y-110863610D01*
X103737968Y-110903805D01*
X103695496Y-111050000D01*
X104116213Y-111050000D01*
X104150808Y-111054923D01*
X104229007Y-111077643D01*
X104265310Y-111080500D01*
X104376000Y-111080500D01*
X104443039Y-111100185D01*
X104488794Y-111152989D01*
X104500000Y-111204500D01*
X104500000Y-111300000D01*
X104626000Y-111300000D01*
X104693039Y-111319685D01*
X104738794Y-111372489D01*
X104750000Y-111424000D01*
X104750000Y-112078789D01*
X104770910Y-112077145D01*
X104926195Y-112032031D01*
X105065374Y-111949721D01*
X105065383Y-111949714D01*
X105179714Y-111835383D01*
X105179721Y-111835374D01*
X105207707Y-111788051D01*
X105258775Y-111740367D01*
X105327516Y-111727861D01*
X105392106Y-111754506D01*
X105402121Y-111763489D01*
X106021580Y-112382948D01*
X106021584Y-112382951D01*
X106144498Y-112465080D01*
X106144511Y-112465087D01*
X106279049Y-112520814D01*
X106281087Y-112521658D01*
X106281091Y-112521658D01*
X106281092Y-112521659D01*
X106426079Y-112550500D01*
X106426082Y-112550500D01*
X106573917Y-112550500D01*
X114502243Y-112550500D01*
X114569282Y-112570185D01*
X114615037Y-112622989D01*
X114624981Y-112692147D01*
X114623860Y-112698692D01*
X114599500Y-112821155D01*
X114599500Y-112978846D01*
X114630261Y-113133489D01*
X114630264Y-113133501D01*
X114690602Y-113279172D01*
X114690608Y-113279183D01*
X114726515Y-113332922D01*
X114726912Y-113334191D01*
X114727916Y-113335066D01*
X114737327Y-113367456D01*
X114747392Y-113399600D01*
X114747040Y-113400881D01*
X114747412Y-113402161D01*
X114737823Y-113434479D01*
X114728907Y-113466980D01*
X114727793Y-113468285D01*
X114727538Y-113469145D01*
X114721965Y-113475113D01*
X114704351Y-113495753D01*
X114701121Y-113498535D01*
X114642454Y-113542454D01*
X114628476Y-113561125D01*
X114618245Y-113569941D01*
X114598230Y-113579013D01*
X114580639Y-113592182D01*
X114561602Y-113595616D01*
X114554608Y-113598787D01*
X114551647Y-113598352D01*
X114550000Y-113600000D01*
X114550000Y-113651930D01*
X114542182Y-113695263D01*
X114505908Y-113792517D01*
X114499501Y-113852116D01*
X114499500Y-113852127D01*
X114499500Y-114853853D01*
X114499501Y-115100000D01*
X114499501Y-115947876D01*
X114505908Y-116007481D01*
X114505909Y-116007483D01*
X114542182Y-116104737D01*
X114550000Y-116148068D01*
X114550000Y-116600000D01*
X114747828Y-116600000D01*
X114747844Y-116599999D01*
X114807372Y-116593598D01*
X114807379Y-116593596D01*
X114942086Y-116543354D01*
X114942088Y-116543352D01*
X115057188Y-116457189D01*
X115062429Y-116450189D01*
X115118363Y-116408317D01*
X115161693Y-116400499D01*
X115637679Y-116400499D01*
X115704718Y-116420184D01*
X115736945Y-116450187D01*
X115742454Y-116457546D01*
X115742457Y-116457548D01*
X115857664Y-116543793D01*
X115857671Y-116543797D01*
X115992517Y-116594091D01*
X115992516Y-116594091D01*
X115999444Y-116594835D01*
X116052127Y-116600500D01*
X116947872Y-116600499D01*
X117007483Y-116594091D01*
X117142331Y-116543796D01*
X117257546Y-116457546D01*
X117263052Y-116450189D01*
X117318983Y-116408318D01*
X117362320Y-116400499D01*
X118047871Y-116400499D01*
X118047872Y-116400499D01*
X118107483Y-116394091D01*
X118242331Y-116343796D01*
X118357546Y-116257546D01*
X118443796Y-116142331D01*
X118449883Y-116126011D01*
X118466609Y-116081167D01*
X118479877Y-116063441D01*
X118489078Y-116043296D01*
X118500410Y-116036013D01*
X118508480Y-116025233D01*
X118529225Y-116017494D01*
X118547856Y-116005522D01*
X118569773Y-116002370D01*
X118573944Y-116000815D01*
X118582791Y-116000499D01*
X118817209Y-116000499D01*
X118884248Y-116020184D01*
X118930003Y-116072988D01*
X118933391Y-116081167D01*
X118956201Y-116142326D01*
X118956206Y-116142335D01*
X119042452Y-116257544D01*
X119042455Y-116257547D01*
X119157664Y-116343793D01*
X119157671Y-116343797D01*
X119292517Y-116394091D01*
X119292516Y-116394091D01*
X119299444Y-116394835D01*
X119352127Y-116400500D01*
X120247872Y-116400499D01*
X120307483Y-116394091D01*
X120442331Y-116343796D01*
X120557546Y-116257546D01*
X120643796Y-116142331D01*
X120694091Y-116007483D01*
X120700500Y-115947873D01*
X120700499Y-113852128D01*
X120694091Y-113792517D01*
X120690860Y-113783855D01*
X120643797Y-113657671D01*
X120643793Y-113657664D01*
X120557547Y-113542455D01*
X120557544Y-113542452D01*
X120442335Y-113456206D01*
X120442328Y-113456202D01*
X120307482Y-113405908D01*
X120307483Y-113405908D01*
X120247883Y-113399501D01*
X120247881Y-113399500D01*
X120247873Y-113399500D01*
X120247865Y-113399500D01*
X119682791Y-113399500D01*
X119615752Y-113379815D01*
X119574430Y-113335782D01*
X119569879Y-113327601D01*
X119543796Y-113257669D01*
X119493885Y-113190997D01*
X119489814Y-113183679D01*
X119483890Y-113157444D01*
X119474491Y-113132245D01*
X119475295Y-113119381D01*
X119474425Y-113115525D01*
X119475767Y-113111836D01*
X119476558Y-113099205D01*
X119500500Y-112978844D01*
X119500500Y-112821155D01*
X119500499Y-112821153D01*
X119482170Y-112729007D01*
X119469737Y-112666503D01*
X119469735Y-112666498D01*
X119409397Y-112520827D01*
X119409390Y-112520814D01*
X119321789Y-112389711D01*
X119321786Y-112389707D01*
X119210292Y-112278213D01*
X119210288Y-112278210D01*
X119079185Y-112190609D01*
X119079172Y-112190602D01*
X118933501Y-112130264D01*
X118933489Y-112130261D01*
X118778845Y-112099500D01*
X118778842Y-112099500D01*
X118621158Y-112099500D01*
X118621155Y-112099500D01*
X118466511Y-112130260D01*
X118466506Y-112130262D01*
X118466504Y-112130262D01*
X118466503Y-112130263D01*
X118466501Y-112130264D01*
X118442406Y-112140244D01*
X118372936Y-112147710D01*
X118310458Y-112116433D01*
X118291855Y-112094572D01*
X118221789Y-111989710D01*
X118110292Y-111878213D01*
X118110288Y-111878210D01*
X117979185Y-111790609D01*
X117979172Y-111790602D01*
X117833501Y-111730264D01*
X117833489Y-111730261D01*
X117678845Y-111699500D01*
X117678842Y-111699500D01*
X117521158Y-111699500D01*
X117521155Y-111699500D01*
X117366510Y-111730261D01*
X117366498Y-111730264D01*
X117220827Y-111790602D01*
X117220814Y-111790609D01*
X117089711Y-111878210D01*
X117089706Y-111878214D01*
X117052324Y-111915596D01*
X116991001Y-111949081D01*
X116921309Y-111944095D01*
X116876963Y-111915595D01*
X116548549Y-111587181D01*
X116515064Y-111525858D01*
X116520048Y-111456166D01*
X116561920Y-111400233D01*
X116627384Y-111375816D01*
X116636230Y-111375500D01*
X129725501Y-111375500D01*
X129792540Y-111395185D01*
X129838295Y-111447989D01*
X129848437Y-111494611D01*
X129849099Y-111494576D01*
X129849146Y-111494571D01*
X129849146Y-111494573D01*
X129849324Y-111494564D01*
X129849501Y-111497876D01*
X129855908Y-111557483D01*
X129906202Y-111692328D01*
X129906206Y-111692335D01*
X129992452Y-111807544D01*
X129992455Y-111807547D01*
X130107664Y-111893793D01*
X130107671Y-111893797D01*
X130242517Y-111944091D01*
X130242516Y-111944091D01*
X130249444Y-111944835D01*
X130302127Y-111950500D01*
X132097872Y-111950499D01*
X132157483Y-111944091D01*
X132292331Y-111893796D01*
X132407546Y-111807546D01*
X132493796Y-111692331D01*
X132542810Y-111560916D01*
X132584681Y-111504984D01*
X132650145Y-111480566D01*
X132718418Y-111495417D01*
X132746673Y-111516569D01*
X132860213Y-111630109D01*
X133032179Y-111755048D01*
X133032181Y-111755049D01*
X133032184Y-111755051D01*
X133221588Y-111851557D01*
X133423757Y-111917246D01*
X133633713Y-111950500D01*
X133633714Y-111950500D01*
X133846286Y-111950500D01*
X133846287Y-111950500D01*
X134056243Y-111917246D01*
X134258412Y-111851557D01*
X134447816Y-111755051D01*
X134524276Y-111699500D01*
X134619786Y-111630109D01*
X134619788Y-111630106D01*
X134619792Y-111630104D01*
X134770104Y-111479792D01*
X134770106Y-111479788D01*
X134770109Y-111479786D01*
X134895048Y-111307820D01*
X134895047Y-111307820D01*
X134895051Y-111307816D01*
X134899514Y-111299054D01*
X134947488Y-111248259D01*
X135015308Y-111231463D01*
X135081444Y-111253999D01*
X135120486Y-111299056D01*
X135124951Y-111307820D01*
X135249890Y-111479786D01*
X135400213Y-111630109D01*
X135572179Y-111755048D01*
X135572181Y-111755049D01*
X135572184Y-111755051D01*
X135761588Y-111851557D01*
X135963757Y-111917246D01*
X136173713Y-111950500D01*
X136173714Y-111950500D01*
X136386286Y-111950500D01*
X136386287Y-111950500D01*
X136596243Y-111917246D01*
X136798412Y-111851557D01*
X136987816Y-111755051D01*
X137064276Y-111699500D01*
X137159786Y-111630109D01*
X137159788Y-111630106D01*
X137159792Y-111630104D01*
X137310104Y-111479792D01*
X137310106Y-111479788D01*
X137310109Y-111479786D01*
X137398550Y-111358055D01*
X137435051Y-111307816D01*
X137439793Y-111298508D01*
X137487763Y-111247711D01*
X137555583Y-111230911D01*
X137621719Y-111253445D01*
X137660763Y-111298500D01*
X137665377Y-111307555D01*
X137790272Y-111479459D01*
X137790276Y-111479464D01*
X137940535Y-111629723D01*
X137940540Y-111629727D01*
X138112442Y-111754620D01*
X138301782Y-111851095D01*
X138503871Y-111916757D01*
X138570000Y-111927231D01*
X138570000Y-111033012D01*
X138627007Y-111065925D01*
X138754174Y-111100000D01*
X138885826Y-111100000D01*
X139012993Y-111065925D01*
X139070000Y-111033012D01*
X139070000Y-111927230D01*
X139136126Y-111916757D01*
X139136129Y-111916757D01*
X139338217Y-111851095D01*
X139527557Y-111754620D01*
X139699459Y-111629727D01*
X139699464Y-111629723D01*
X139849723Y-111479464D01*
X139849727Y-111479459D01*
X139974620Y-111307557D01*
X140071095Y-111118217D01*
X140136757Y-110916129D01*
X140136757Y-110916126D01*
X140147231Y-110850000D01*
X139253012Y-110850000D01*
X139285925Y-110792993D01*
X139320000Y-110665826D01*
X139320000Y-110534174D01*
X139285925Y-110407007D01*
X139253012Y-110350000D01*
X140147231Y-110350000D01*
X140136757Y-110283873D01*
X140136757Y-110283870D01*
X140071095Y-110081782D01*
X139974620Y-109892442D01*
X139849727Y-109720540D01*
X139849723Y-109720535D01*
X139699464Y-109570276D01*
X139699459Y-109570272D01*
X139527557Y-109445379D01*
X139338215Y-109348903D01*
X139136124Y-109283241D01*
X139070000Y-109272768D01*
X139070000Y-110166988D01*
X139012993Y-110134075D01*
X138885826Y-110100000D01*
X138754174Y-110100000D01*
X138627007Y-110134075D01*
X138570000Y-110166988D01*
X138570000Y-109272768D01*
X138569999Y-109272768D01*
X138503875Y-109283241D01*
X138301784Y-109348903D01*
X138112442Y-109445379D01*
X137940540Y-109570272D01*
X137940535Y-109570276D01*
X137790276Y-109720535D01*
X137790272Y-109720540D01*
X137665378Y-109892443D01*
X137660762Y-109901502D01*
X137612784Y-109952295D01*
X137544963Y-109969087D01*
X137478829Y-109946546D01*
X137439794Y-109901493D01*
X137435051Y-109892184D01*
X137435049Y-109892181D01*
X137435048Y-109892179D01*
X137310109Y-109720213D01*
X137159786Y-109569890D01*
X136987820Y-109444951D01*
X136798414Y-109348444D01*
X136798413Y-109348443D01*
X136798412Y-109348443D01*
X136596243Y-109282754D01*
X136596241Y-109282753D01*
X136596240Y-109282753D01*
X136434957Y-109257208D01*
X136386287Y-109249500D01*
X136173713Y-109249500D01*
X136145006Y-109254046D01*
X135963757Y-109282753D01*
X135921473Y-109296492D01*
X135851632Y-109298486D01*
X135795476Y-109266241D01*
X135167590Y-108638355D01*
X135167588Y-108638352D01*
X135048717Y-108519481D01*
X135048712Y-108519477D01*
X134958190Y-108467215D01*
X134911785Y-108440423D01*
X134759057Y-108399499D01*
X134600943Y-108399499D01*
X134593347Y-108399499D01*
X134593331Y-108399500D01*
X132767197Y-108399500D01*
X132700158Y-108379815D01*
X132679516Y-108363181D01*
X129736819Y-105420484D01*
X129703334Y-105359161D01*
X129700500Y-105332803D01*
X129700500Y-102507596D01*
X129709143Y-102478158D01*
X129715667Y-102448170D01*
X129719422Y-102443153D01*
X129720185Y-102440557D01*
X129736814Y-102419920D01*
X129778540Y-102378194D01*
X129839859Y-102344710D01*
X129909551Y-102349694D01*
X129965485Y-102391564D01*
X129969321Y-102396984D01*
X129978213Y-102410292D01*
X130089707Y-102521786D01*
X130089711Y-102521789D01*
X130220814Y-102609390D01*
X130220827Y-102609397D01*
X130366498Y-102669735D01*
X130366503Y-102669737D01*
X130497067Y-102695708D01*
X130521153Y-102700499D01*
X130521156Y-102700500D01*
X130521158Y-102700500D01*
X130678843Y-102700500D01*
X130682644Y-102699743D01*
X130693524Y-102697579D01*
X130763115Y-102703803D01*
X130805403Y-102731515D01*
X130848656Y-102774769D01*
X130848660Y-102774772D01*
X130979763Y-102862373D01*
X130979776Y-102862380D01*
X131125447Y-102922718D01*
X131125452Y-102922720D01*
X131262597Y-102950000D01*
X131280102Y-102953482D01*
X131280105Y-102953483D01*
X131280107Y-102953483D01*
X131437793Y-102953483D01*
X131437794Y-102953482D01*
X131592446Y-102922720D01*
X131722824Y-102868716D01*
X131738121Y-102862380D01*
X131738121Y-102862379D01*
X131738128Y-102862377D01*
X131869238Y-102774772D01*
X131943186Y-102700823D01*
X132004507Y-102667340D01*
X132060321Y-102669584D01*
X132060528Y-102668549D01*
X132221153Y-102700499D01*
X132221156Y-102700500D01*
X132221158Y-102700500D01*
X132378844Y-102700500D01*
X132378845Y-102700499D01*
X132533497Y-102669737D01*
X132679179Y-102609394D01*
X132810289Y-102521789D01*
X132921789Y-102410289D01*
X133009394Y-102279179D01*
X133009395Y-102279176D01*
X133009397Y-102279173D01*
X133041201Y-102202389D01*
X133056149Y-102166300D01*
X133099989Y-102111897D01*
X133166283Y-102089832D01*
X133233983Y-102107111D01*
X133281593Y-102158248D01*
X133285271Y-102166299D01*
X133290606Y-102179179D01*
X133290609Y-102179185D01*
X133378210Y-102310288D01*
X133378213Y-102310292D01*
X133489707Y-102421786D01*
X133489711Y-102421789D01*
X133620814Y-102509390D01*
X133620827Y-102509397D01*
X133766049Y-102569549D01*
X133766503Y-102569737D01*
X133766507Y-102569737D01*
X133766508Y-102569738D01*
X133882747Y-102592860D01*
X133944657Y-102625245D01*
X133961657Y-102645586D01*
X134038967Y-102761288D01*
X134038970Y-102761292D01*
X134150464Y-102872786D01*
X134150468Y-102872789D01*
X134281571Y-102960390D01*
X134281584Y-102960397D01*
X134427255Y-103020735D01*
X134427260Y-103020737D01*
X134528083Y-103040792D01*
X134581910Y-103051499D01*
X134581913Y-103051500D01*
X134581915Y-103051500D01*
X134739601Y-103051500D01*
X134739602Y-103051499D01*
X134894254Y-103020737D01*
X135039936Y-102960394D01*
X135171046Y-102872789D01*
X135282546Y-102761289D01*
X135333757Y-102684647D01*
X135372398Y-102626817D01*
X135426010Y-102582012D01*
X135495335Y-102573305D01*
X135558363Y-102603460D01*
X135595082Y-102662903D01*
X135599500Y-102695708D01*
X135599500Y-103413330D01*
X135599499Y-103413348D01*
X135599499Y-103579054D01*
X135599498Y-103579054D01*
X135616593Y-103642850D01*
X135640423Y-103731785D01*
X135650650Y-103749499D01*
X135650651Y-103749500D01*
X135719477Y-103868712D01*
X135719481Y-103868717D01*
X135838349Y-103987585D01*
X135838355Y-103987590D01*
X140762181Y-108911416D01*
X140795666Y-108972739D01*
X140798500Y-108999097D01*
X140798500Y-112212330D01*
X140798499Y-112212348D01*
X140798499Y-112378054D01*
X140798498Y-112378054D01*
X140839424Y-112530789D01*
X140839425Y-112530790D01*
X140861033Y-112568215D01*
X140861034Y-112568217D01*
X140918475Y-112667709D01*
X140918481Y-112667717D01*
X141037349Y-112786585D01*
X141037354Y-112786589D01*
X145931284Y-117680520D01*
X145931286Y-117680521D01*
X145931290Y-117680524D01*
X146068209Y-117759573D01*
X146068212Y-117759575D01*
X146068216Y-117759577D01*
X146220943Y-117800501D01*
X146220945Y-117800501D01*
X146386654Y-117800501D01*
X146386670Y-117800500D01*
X169813331Y-117800500D01*
X169813347Y-117800501D01*
X169820943Y-117800501D01*
X169979054Y-117800501D01*
X169979057Y-117800501D01*
X170131785Y-117759577D01*
X170201233Y-117719481D01*
X170268716Y-117680520D01*
X170380520Y-117568716D01*
X170380520Y-117568714D01*
X170390724Y-117558511D01*
X170390728Y-117558506D01*
X171587819Y-116361415D01*
X171649142Y-116327930D01*
X171718834Y-116332914D01*
X171774767Y-116374786D01*
X171799184Y-116440250D01*
X171799500Y-116449096D01*
X171799500Y-116644221D01*
X171799501Y-116644238D01*
X171837149Y-116930206D01*
X171837150Y-116930211D01*
X171837151Y-116930217D01*
X171907512Y-117192809D01*
X171911809Y-117208844D01*
X171911814Y-117208860D01*
X172022191Y-117475336D01*
X172022199Y-117475352D01*
X172166420Y-117725148D01*
X172166431Y-117725164D01*
X172342024Y-117954002D01*
X172342030Y-117954009D01*
X172545990Y-118157969D01*
X172545997Y-118157975D01*
X172628335Y-118221155D01*
X172774844Y-118333575D01*
X172774851Y-118333579D01*
X173024647Y-118477800D01*
X173024663Y-118477808D01*
X173291139Y-118588185D01*
X173291145Y-118588186D01*
X173291155Y-118588191D01*
X173569783Y-118662849D01*
X173855772Y-118700500D01*
X173855779Y-118700500D01*
X174144221Y-118700500D01*
X174144228Y-118700500D01*
X174430217Y-118662849D01*
X174708845Y-118588191D01*
X174708857Y-118588185D01*
X174708860Y-118588185D01*
X174975336Y-118477808D01*
X174975339Y-118477806D01*
X174975345Y-118477804D01*
X175225156Y-118333575D01*
X175454004Y-118157974D01*
X175657974Y-117954004D01*
X175833575Y-117725156D01*
X175977804Y-117475345D01*
X176062991Y-117269685D01*
X176088185Y-117208860D01*
X176088185Y-117208857D01*
X176088191Y-117208845D01*
X176162849Y-116930217D01*
X176200500Y-116644228D01*
X176200500Y-116355772D01*
X176162849Y-116069783D01*
X176088191Y-115791155D01*
X176088186Y-115791145D01*
X176088185Y-115791139D01*
X175977808Y-115524663D01*
X175977800Y-115524647D01*
X175833579Y-115274851D01*
X175833575Y-115274844D01*
X175769467Y-115191297D01*
X175657975Y-115045997D01*
X175657969Y-115045990D01*
X175454009Y-114842030D01*
X175454002Y-114842024D01*
X175225164Y-114666431D01*
X175225162Y-114666429D01*
X175225156Y-114666425D01*
X175225151Y-114666422D01*
X175225148Y-114666420D01*
X174975352Y-114522199D01*
X174975336Y-114522191D01*
X174708860Y-114411814D01*
X174708848Y-114411810D01*
X174708845Y-114411809D01*
X174430217Y-114337151D01*
X174430211Y-114337150D01*
X174430206Y-114337149D01*
X174144238Y-114299501D01*
X174144233Y-114299500D01*
X174144228Y-114299500D01*
X173949097Y-114299500D01*
X173882058Y-114279815D01*
X173836303Y-114227011D01*
X173826359Y-114157853D01*
X173855384Y-114094297D01*
X173861416Y-114087819D01*
X173897382Y-114051853D01*
X174180520Y-113768716D01*
X174259577Y-113631784D01*
X174300501Y-113479057D01*
X174300501Y-113320942D01*
X174300501Y-113313347D01*
X174300500Y-113313329D01*
X174300500Y-112203439D01*
X174320185Y-112136400D01*
X174372989Y-112090645D01*
X174442147Y-112080701D01*
X174505703Y-112109726D01*
X174527602Y-112134548D01*
X174578210Y-112210288D01*
X174578213Y-112210292D01*
X174689707Y-112321786D01*
X174689711Y-112321789D01*
X174820814Y-112409390D01*
X174820827Y-112409397D01*
X174955277Y-112465087D01*
X174966503Y-112469737D01*
X175121153Y-112500499D01*
X175121156Y-112500500D01*
X175121158Y-112500500D01*
X175278844Y-112500500D01*
X175278845Y-112500499D01*
X175433497Y-112469737D01*
X175579179Y-112409394D01*
X175710289Y-112321789D01*
X175821789Y-112210289D01*
X175909394Y-112079179D01*
X175969737Y-111933497D01*
X176000500Y-111778842D01*
X176000500Y-111621158D01*
X176000500Y-111621155D01*
X176000499Y-111621153D01*
X175995694Y-111596996D01*
X175969737Y-111466503D01*
X175950864Y-111420939D01*
X175909397Y-111320827D01*
X175909395Y-111320823D01*
X175909394Y-111320821D01*
X175894480Y-111298500D01*
X175867975Y-111258833D01*
X175847097Y-111192156D01*
X175865581Y-111124776D01*
X175883397Y-111102260D01*
X175930469Y-111055188D01*
X175930472Y-111055185D01*
X176018478Y-110909606D01*
X176069086Y-110747196D01*
X176075500Y-110676616D01*
X176075500Y-110163384D01*
X176069086Y-110092804D01*
X176018478Y-109930394D01*
X175930472Y-109784815D01*
X175930470Y-109784813D01*
X175930469Y-109784811D01*
X175833339Y-109687681D01*
X175799854Y-109626358D01*
X175804838Y-109556666D01*
X175833339Y-109512319D01*
X175930468Y-109415189D01*
X175930471Y-109415186D01*
X175930472Y-109415185D01*
X176018478Y-109269606D01*
X176069086Y-109107196D01*
X176075500Y-109036616D01*
X176075500Y-108523384D01*
X176069086Y-108452804D01*
X176018478Y-108290394D01*
X175930472Y-108144815D01*
X175930470Y-108144813D01*
X175930469Y-108144811D01*
X175810188Y-108024530D01*
X175765095Y-107997270D01*
X175760347Y-107994399D01*
X175713162Y-107942871D01*
X175700500Y-107888284D01*
X175700500Y-104459060D01*
X175700501Y-104459047D01*
X175700501Y-104290944D01*
X175700501Y-104290943D01*
X175659577Y-104138216D01*
X175611411Y-104054789D01*
X175580524Y-104001290D01*
X175580518Y-104001282D01*
X174529236Y-102950000D01*
X173464131Y-101884896D01*
X173430647Y-101823574D01*
X173430237Y-101777592D01*
X173429903Y-101777560D01*
X173430209Y-101774445D01*
X173430197Y-101773019D01*
X173430500Y-101771496D01*
X173430500Y-101568502D01*
X173430499Y-101568500D01*
X173415435Y-101492770D01*
X173390898Y-101369414D01*
X173389146Y-101365185D01*
X173313220Y-101181881D01*
X173313212Y-101181866D01*
X173261110Y-101103892D01*
X173240231Y-101037215D01*
X173258715Y-100969834D01*
X173261110Y-100966108D01*
X173313212Y-100888133D01*
X173313213Y-100888130D01*
X173313217Y-100888125D01*
X173316366Y-100880524D01*
X173390896Y-100700590D01*
X173390898Y-100700586D01*
X173430500Y-100501495D01*
X173430500Y-100298505D01*
X173430500Y-100298502D01*
X173430499Y-100298500D01*
X173430196Y-100296973D01*
X173430269Y-100296156D01*
X173429903Y-100292440D01*
X173430607Y-100292370D01*
X173436423Y-100227381D01*
X173464130Y-100185103D01*
X176668713Y-96980521D01*
X176668716Y-96980520D01*
X176780520Y-96868716D01*
X176781131Y-96867657D01*
X176787661Y-96861104D01*
X176811544Y-96848006D01*
X176833541Y-96831942D01*
X176841730Y-96831453D01*
X176848923Y-96827509D01*
X176876093Y-96829402D01*
X176903287Y-96827780D01*
X176910440Y-96831796D01*
X176918624Y-96832367D01*
X176940460Y-96848652D01*
X176964210Y-96861987D01*
X176968055Y-96869231D01*
X176974633Y-96874137D01*
X176984198Y-96899643D01*
X176996969Y-96923701D01*
X176998360Y-96937404D01*
X176999168Y-96939558D01*
X176998767Y-96941414D01*
X176999500Y-96948627D01*
X176999500Y-119375500D01*
X176979815Y-119442539D01*
X176927011Y-119488294D01*
X176875500Y-119499500D01*
X125784000Y-119499500D01*
X125716961Y-119479815D01*
X125671206Y-119427011D01*
X125660000Y-119375500D01*
X125660000Y-118750000D01*
X123260000Y-118750000D01*
X123260000Y-119375500D01*
X123240315Y-119442539D01*
X123187511Y-119488294D01*
X123136000Y-119499500D01*
X92124500Y-119499500D01*
X92057461Y-119479815D01*
X92011706Y-119427011D01*
X92000500Y-119375500D01*
X92000500Y-116355778D01*
X92799500Y-116355778D01*
X92799500Y-116644221D01*
X92799501Y-116644238D01*
X92837149Y-116930206D01*
X92837150Y-116930211D01*
X92837151Y-116930217D01*
X92907512Y-117192809D01*
X92911809Y-117208844D01*
X92911814Y-117208860D01*
X93022191Y-117475336D01*
X93022199Y-117475352D01*
X93166420Y-117725148D01*
X93166431Y-117725164D01*
X93342024Y-117954002D01*
X93342030Y-117954009D01*
X93545990Y-118157969D01*
X93545997Y-118157975D01*
X93628335Y-118221155D01*
X93774844Y-118333575D01*
X93774851Y-118333579D01*
X94024647Y-118477800D01*
X94024663Y-118477808D01*
X94291139Y-118588185D01*
X94291145Y-118588186D01*
X94291155Y-118588191D01*
X94569783Y-118662849D01*
X94855772Y-118700500D01*
X94855779Y-118700500D01*
X95144221Y-118700500D01*
X95144228Y-118700500D01*
X95430217Y-118662849D01*
X95708845Y-118588191D01*
X95708857Y-118588185D01*
X95708860Y-118588185D01*
X95926964Y-118497844D01*
X110110000Y-118497844D01*
X110116401Y-118557372D01*
X110116403Y-118557379D01*
X110166645Y-118692086D01*
X110166649Y-118692093D01*
X110252809Y-118807187D01*
X110252812Y-118807190D01*
X110367906Y-118893350D01*
X110367913Y-118893354D01*
X110502620Y-118943596D01*
X110502627Y-118943598D01*
X110562155Y-118949999D01*
X110562172Y-118950000D01*
X111060000Y-118950000D01*
X111060000Y-117750000D01*
X110110000Y-117750000D01*
X110110000Y-118497844D01*
X95926964Y-118497844D01*
X95975336Y-118477808D01*
X95975339Y-118477806D01*
X95975345Y-118477804D01*
X96225156Y-118333575D01*
X96454004Y-118157974D01*
X96657974Y-117954004D01*
X96833575Y-117725156D01*
X96977804Y-117475345D01*
X97062991Y-117269685D01*
X97088185Y-117208860D01*
X97088185Y-117208857D01*
X97088191Y-117208845D01*
X97162849Y-116930217D01*
X97200500Y-116644228D01*
X97200500Y-116502155D01*
X110110000Y-116502155D01*
X110110000Y-117250000D01*
X111186000Y-117250000D01*
X111253039Y-117269685D01*
X111298794Y-117322489D01*
X111310000Y-117374000D01*
X111310000Y-117500000D01*
X111436000Y-117500000D01*
X111503039Y-117519685D01*
X111548794Y-117572489D01*
X111560000Y-117624000D01*
X111560000Y-118950000D01*
X112057828Y-118950000D01*
X112057844Y-118949999D01*
X112117372Y-118943598D01*
X112117376Y-118943597D01*
X112256947Y-118891540D01*
X112326639Y-118886556D01*
X112384718Y-118918268D01*
X112385001Y-118917924D01*
X112386818Y-118919415D01*
X112387962Y-118920040D01*
X112387962Y-118920041D01*
X112389707Y-118921786D01*
X112389711Y-118921789D01*
X112520814Y-119009390D01*
X112520827Y-119009397D01*
X112666498Y-119069735D01*
X112666503Y-119069737D01*
X112821153Y-119100499D01*
X112821156Y-119100500D01*
X112821158Y-119100500D01*
X112978844Y-119100500D01*
X112978845Y-119100499D01*
X113133497Y-119069737D01*
X113279179Y-119009394D01*
X113410289Y-118921789D01*
X113521789Y-118810289D01*
X113609394Y-118679179D01*
X113669737Y-118533497D01*
X113700500Y-118378842D01*
X113700500Y-118221158D01*
X113700500Y-118221155D01*
X113700499Y-118221153D01*
X113669738Y-118066510D01*
X113669737Y-118066503D01*
X113609939Y-117922136D01*
X113600500Y-117874684D01*
X113600500Y-117502155D01*
X123260000Y-117502155D01*
X123260000Y-118250000D01*
X124210000Y-118250000D01*
X124710000Y-118250000D01*
X125660000Y-118250000D01*
X125660000Y-117502172D01*
X125659999Y-117502155D01*
X125653598Y-117442627D01*
X125653596Y-117442620D01*
X125603354Y-117307913D01*
X125603350Y-117307906D01*
X125517190Y-117192812D01*
X125517187Y-117192809D01*
X125402093Y-117106649D01*
X125402086Y-117106645D01*
X125267379Y-117056403D01*
X125267372Y-117056401D01*
X125207844Y-117050000D01*
X124710000Y-117050000D01*
X124710000Y-118250000D01*
X124210000Y-118250000D01*
X124210000Y-117050000D01*
X123712155Y-117050000D01*
X123652627Y-117056401D01*
X123652620Y-117056403D01*
X123517913Y-117106645D01*
X123517906Y-117106649D01*
X123402812Y-117192809D01*
X123402809Y-117192812D01*
X123316649Y-117307906D01*
X123316645Y-117307913D01*
X123266403Y-117442620D01*
X123266401Y-117442627D01*
X123260000Y-117502155D01*
X113600500Y-117502155D01*
X113600500Y-116700533D01*
X113620185Y-116633494D01*
X113672989Y-116587739D01*
X113742147Y-116577795D01*
X113767836Y-116584352D01*
X113792622Y-116593597D01*
X113792627Y-116593598D01*
X113852155Y-116599999D01*
X113852172Y-116600000D01*
X114050000Y-116600000D01*
X114050000Y-116148068D01*
X114057817Y-116104737D01*
X114094091Y-116007483D01*
X114100500Y-115947873D01*
X114100499Y-114853853D01*
X114100499Y-113852129D01*
X114100498Y-113852123D01*
X114100497Y-113852116D01*
X114094091Y-113792517D01*
X114090860Y-113783855D01*
X114062321Y-113707337D01*
X114062320Y-113707336D01*
X114043796Y-113657669D01*
X113957546Y-113542454D01*
X113957544Y-113542452D01*
X113957543Y-113542451D01*
X113842335Y-113456206D01*
X113842328Y-113456202D01*
X113707482Y-113405908D01*
X113707483Y-113405908D01*
X113647883Y-113399501D01*
X113647881Y-113399500D01*
X113647873Y-113399500D01*
X113647864Y-113399500D01*
X112752129Y-113399500D01*
X112752123Y-113399501D01*
X112692520Y-113405908D01*
X112684974Y-113407692D01*
X112684628Y-113406230D01*
X112623622Y-113410584D01*
X112608600Y-113406172D01*
X112607482Y-113405908D01*
X112547883Y-113399501D01*
X112547881Y-113399500D01*
X112547873Y-113399500D01*
X112547864Y-113399500D01*
X111652129Y-113399500D01*
X111652123Y-113399501D01*
X111592516Y-113405908D01*
X111457671Y-113456202D01*
X111457664Y-113456206D01*
X111342455Y-113542452D01*
X111342452Y-113542455D01*
X111256206Y-113657664D01*
X111256202Y-113657671D01*
X111205908Y-113792517D01*
X111199501Y-113852116D01*
X111199501Y-113852123D01*
X111199500Y-113852135D01*
X111199501Y-115926000D01*
X111179816Y-115993039D01*
X111127013Y-116038794D01*
X111075501Y-116050000D01*
X110562155Y-116050000D01*
X110502627Y-116056401D01*
X110502620Y-116056403D01*
X110367913Y-116106645D01*
X110367906Y-116106649D01*
X110252812Y-116192809D01*
X110252809Y-116192812D01*
X110166649Y-116307906D01*
X110166645Y-116307913D01*
X110116403Y-116442620D01*
X110116401Y-116442627D01*
X110110000Y-116502155D01*
X97200500Y-116502155D01*
X97200500Y-116355772D01*
X97162849Y-116069783D01*
X97088191Y-115791155D01*
X97088186Y-115791145D01*
X97088185Y-115791139D01*
X96977808Y-115524663D01*
X96977800Y-115524647D01*
X96833579Y-115274851D01*
X96833575Y-115274844D01*
X96769467Y-115191297D01*
X96657975Y-115045997D01*
X96657969Y-115045990D01*
X96454009Y-114842030D01*
X96454002Y-114842024D01*
X96225164Y-114666431D01*
X96225162Y-114666429D01*
X96225156Y-114666425D01*
X96225151Y-114666422D01*
X96225148Y-114666420D01*
X95975352Y-114522199D01*
X95975336Y-114522191D01*
X95708860Y-114411814D01*
X95708848Y-114411810D01*
X95708845Y-114411809D01*
X95430217Y-114337151D01*
X95430211Y-114337150D01*
X95430206Y-114337149D01*
X95144238Y-114299501D01*
X95144233Y-114299500D01*
X95144228Y-114299500D01*
X94855772Y-114299500D01*
X94855766Y-114299500D01*
X94855761Y-114299501D01*
X94569793Y-114337149D01*
X94569786Y-114337150D01*
X94569783Y-114337151D01*
X94375171Y-114389297D01*
X94291155Y-114411809D01*
X94291139Y-114411814D01*
X94024663Y-114522191D01*
X94024647Y-114522199D01*
X93774851Y-114666420D01*
X93774835Y-114666431D01*
X93545997Y-114842024D01*
X93545990Y-114842030D01*
X93342030Y-115045990D01*
X93342024Y-115045997D01*
X93166431Y-115274835D01*
X93166420Y-115274851D01*
X93022199Y-115524647D01*
X93022191Y-115524663D01*
X92911814Y-115791139D01*
X92911809Y-115791155D01*
X92838851Y-116063441D01*
X92837152Y-116069780D01*
X92837149Y-116069793D01*
X92799501Y-116355761D01*
X92799500Y-116355778D01*
X92000500Y-116355778D01*
X92000500Y-83400000D01*
X100774638Y-83400000D01*
X101634314Y-83400000D01*
X101629920Y-83404394D01*
X101577259Y-83495606D01*
X101550000Y-83597339D01*
X101550000Y-83702661D01*
X101577259Y-83804394D01*
X101629920Y-83895606D01*
X101634314Y-83900000D01*
X100774638Y-83900000D01*
X100779548Y-83931002D01*
X100837914Y-84110637D01*
X100923670Y-84278940D01*
X101034685Y-84431741D01*
X101034689Y-84431746D01*
X101168253Y-84565310D01*
X101168258Y-84565314D01*
X101321059Y-84676329D01*
X101489362Y-84762085D01*
X101668997Y-84820451D01*
X101855553Y-84850000D01*
X102550000Y-84850000D01*
X102550000Y-84050000D01*
X103050000Y-84050000D01*
X103050000Y-84850000D01*
X103744447Y-84850000D01*
X103931002Y-84820451D01*
X104110637Y-84762085D01*
X104278940Y-84676329D01*
X104431741Y-84565314D01*
X104431746Y-84565310D01*
X104565310Y-84431746D01*
X104565314Y-84431741D01*
X104676329Y-84278940D01*
X104762085Y-84110637D01*
X104820451Y-83931002D01*
X104825362Y-83900000D01*
X103965686Y-83900000D01*
X103970080Y-83895606D01*
X104022741Y-83804394D01*
X104050000Y-83702661D01*
X104050000Y-83597339D01*
X104022741Y-83495606D01*
X103970080Y-83404394D01*
X103965686Y-83400000D01*
X104825362Y-83400000D01*
X104820451Y-83368997D01*
X104762085Y-83189362D01*
X104676329Y-83021059D01*
X104565314Y-82868258D01*
X104565310Y-82868253D01*
X104431746Y-82734689D01*
X104431741Y-82734685D01*
X104278940Y-82623670D01*
X104110637Y-82537914D01*
X103931002Y-82479548D01*
X103744447Y-82450000D01*
X103050000Y-82450000D01*
X103050000Y-83250000D01*
X102550000Y-83250000D01*
X102550000Y-82450000D01*
X101855553Y-82450000D01*
X101668997Y-82479548D01*
X101489362Y-82537914D01*
X101321059Y-82623670D01*
X101168258Y-82734685D01*
X101168253Y-82734689D01*
X101034689Y-82868253D01*
X101034685Y-82868258D01*
X100923670Y-83021059D01*
X100837914Y-83189362D01*
X100779548Y-83368997D01*
X100774638Y-83400000D01*
X92000500Y-83400000D01*
X92000500Y-78005552D01*
X98500000Y-78005552D01*
X98500000Y-78700000D01*
X99300000Y-78700000D01*
X99300000Y-79200000D01*
X98500000Y-79200000D01*
X98500000Y-79894447D01*
X98529548Y-80081002D01*
X98587914Y-80260637D01*
X98673670Y-80428940D01*
X98784685Y-80581741D01*
X98784689Y-80581746D01*
X98918253Y-80715310D01*
X98918258Y-80715314D01*
X99071059Y-80826329D01*
X99239362Y-80912085D01*
X99418997Y-80970451D01*
X99450000Y-80975362D01*
X99450000Y-80115686D01*
X99454394Y-80120080D01*
X99545606Y-80172741D01*
X99647339Y-80200000D01*
X99752661Y-80200000D01*
X99854394Y-80172741D01*
X99945606Y-80120080D01*
X99950000Y-80115686D01*
X99950000Y-80975361D01*
X99981002Y-80970451D01*
X100160637Y-80912085D01*
X100328940Y-80826329D01*
X100481741Y-80715314D01*
X100481746Y-80715310D01*
X100615310Y-80581746D01*
X100615314Y-80581741D01*
X100726329Y-80428940D01*
X100812085Y-80260637D01*
X100870451Y-80081002D01*
X100900000Y-79894447D01*
X100900000Y-79200000D01*
X100100000Y-79200000D01*
X100100000Y-78700000D01*
X100900000Y-78700000D01*
X100900000Y-78005552D01*
X100870451Y-77818997D01*
X100812085Y-77639362D01*
X100770090Y-77556942D01*
X100743885Y-77505513D01*
X104399500Y-77505513D01*
X104399500Y-80394486D01*
X104429059Y-80581118D01*
X104487454Y-80760836D01*
X104564520Y-80912085D01*
X104573240Y-80929199D01*
X104684310Y-81082073D01*
X104817927Y-81215690D01*
X104970801Y-81326760D01*
X105050347Y-81367290D01*
X105139163Y-81412545D01*
X105139165Y-81412545D01*
X105139168Y-81412547D01*
X105235497Y-81443846D01*
X105318881Y-81470940D01*
X105505514Y-81500500D01*
X105505519Y-81500500D01*
X105694486Y-81500500D01*
X105881118Y-81470940D01*
X106060832Y-81412547D01*
X106229199Y-81326760D01*
X106382073Y-81215690D01*
X106515690Y-81082073D01*
X106626760Y-80929199D01*
X106712547Y-80760832D01*
X106770940Y-80581118D01*
X106786552Y-80482546D01*
X106800500Y-80394486D01*
X106800500Y-77505513D01*
X106770940Y-77318881D01*
X106722750Y-77170569D01*
X106712547Y-77139168D01*
X106712545Y-77139165D01*
X106712545Y-77139163D01*
X106641638Y-77000001D01*
X106626760Y-76970801D01*
X106515690Y-76817927D01*
X106382073Y-76684310D01*
X106229199Y-76573240D01*
X106060836Y-76487454D01*
X105881118Y-76429059D01*
X105694486Y-76399500D01*
X105694481Y-76399500D01*
X105505519Y-76399500D01*
X105505514Y-76399500D01*
X105318881Y-76429059D01*
X105139163Y-76487454D01*
X104970800Y-76573240D01*
X104942918Y-76593498D01*
X104817927Y-76684310D01*
X104817925Y-76684312D01*
X104817924Y-76684312D01*
X104684312Y-76817924D01*
X104684312Y-76817925D01*
X104684310Y-76817927D01*
X104636610Y-76883579D01*
X104573240Y-76970800D01*
X104487454Y-77139163D01*
X104429059Y-77318881D01*
X104399500Y-77505513D01*
X100743885Y-77505513D01*
X100726329Y-77471059D01*
X100615314Y-77318258D01*
X100615310Y-77318253D01*
X100481746Y-77184689D01*
X100481741Y-77184685D01*
X100328940Y-77073670D01*
X100160635Y-76987913D01*
X99981004Y-76929549D01*
X99980995Y-76929547D01*
X99950000Y-76924637D01*
X99950000Y-77784314D01*
X99945606Y-77779920D01*
X99854394Y-77727259D01*
X99752661Y-77700000D01*
X99647339Y-77700000D01*
X99545606Y-77727259D01*
X99454394Y-77779920D01*
X99450000Y-77784314D01*
X99450000Y-76924637D01*
X99449999Y-76924637D01*
X99419004Y-76929547D01*
X99418995Y-76929549D01*
X99239364Y-76987913D01*
X99071059Y-77073670D01*
X98918258Y-77184685D01*
X98918253Y-77184689D01*
X98784689Y-77318253D01*
X98784685Y-77318258D01*
X98673670Y-77471059D01*
X98587914Y-77639362D01*
X98529548Y-77818997D01*
X98500000Y-78005552D01*
X92000500Y-78005552D01*
X92000500Y-69355778D01*
X92799500Y-69355778D01*
X92799500Y-69644221D01*
X92799501Y-69644238D01*
X92837149Y-69930206D01*
X92837150Y-69930211D01*
X92837151Y-69930217D01*
X92910100Y-70202466D01*
X92911809Y-70208844D01*
X92911814Y-70208860D01*
X93022191Y-70475336D01*
X93022199Y-70475352D01*
X93166420Y-70725148D01*
X93166431Y-70725164D01*
X93342024Y-70954002D01*
X93342030Y-70954009D01*
X93545990Y-71157969D01*
X93545997Y-71157975D01*
X93665927Y-71250000D01*
X93774844Y-71333575D01*
X93774851Y-71333579D01*
X94024647Y-71477800D01*
X94024663Y-71477808D01*
X94291139Y-71588185D01*
X94291145Y-71588186D01*
X94291155Y-71588191D01*
X94569783Y-71662849D01*
X94855772Y-71700500D01*
X94855779Y-71700500D01*
X95144221Y-71700500D01*
X95144228Y-71700500D01*
X95430217Y-71662849D01*
X95708845Y-71588191D01*
X95708857Y-71588185D01*
X95708860Y-71588185D01*
X95975336Y-71477808D01*
X95975339Y-71477806D01*
X95975345Y-71477804D01*
X96225156Y-71333575D01*
X96454004Y-71157974D01*
X96657974Y-70954004D01*
X96833575Y-70725156D01*
X96977804Y-70475345D01*
X96982843Y-70463181D01*
X97088185Y-70208860D01*
X97088185Y-70208857D01*
X97088191Y-70208845D01*
X97162849Y-69930217D01*
X97200500Y-69644228D01*
X97200500Y-69355772D01*
X97162849Y-69069783D01*
X97088191Y-68791155D01*
X97088186Y-68791145D01*
X97088185Y-68791139D01*
X96977808Y-68524663D01*
X96977800Y-68524647D01*
X96833579Y-68274851D01*
X96833575Y-68274844D01*
X96657974Y-68045996D01*
X96657969Y-68045990D01*
X96454009Y-67842030D01*
X96454002Y-67842024D01*
X96225164Y-67666431D01*
X96225162Y-67666429D01*
X96225156Y-67666425D01*
X96225151Y-67666422D01*
X96225148Y-67666420D01*
X95975352Y-67522199D01*
X95975336Y-67522191D01*
X95708860Y-67411814D01*
X95708848Y-67411810D01*
X95708845Y-67411809D01*
X95430217Y-67337151D01*
X95430211Y-67337150D01*
X95430206Y-67337149D01*
X95144238Y-67299501D01*
X95144233Y-67299500D01*
X95144228Y-67299500D01*
X94855772Y-67299500D01*
X94855766Y-67299500D01*
X94855761Y-67299501D01*
X94569793Y-67337149D01*
X94569786Y-67337150D01*
X94569783Y-67337151D01*
X94291155Y-67411809D01*
X94291139Y-67411814D01*
X94024663Y-67522191D01*
X94024647Y-67522199D01*
X93774851Y-67666420D01*
X93774835Y-67666431D01*
X93545997Y-67842024D01*
X93545990Y-67842030D01*
X93342030Y-68045990D01*
X93342024Y-68045997D01*
X93166431Y-68274835D01*
X93166420Y-68274851D01*
X93022199Y-68524647D01*
X93022191Y-68524663D01*
X92911814Y-68791139D01*
X92911809Y-68791155D01*
X92837152Y-69069780D01*
X92837149Y-69069793D01*
X92799501Y-69355761D01*
X92799500Y-69355778D01*
X92000500Y-69355778D01*
X92000500Y-66624500D01*
X92020185Y-66557461D01*
X92072989Y-66511706D01*
X92124500Y-66500500D01*
X176875500Y-66500500D01*
X176942539Y-66520185D01*
G37*
G04 #@! TD.AperFunction*
G04 #@! TA.AperFunction,Conductor*
G36*
X126052132Y-93399615D02*
G01*
X126087467Y-93419947D01*
X126089708Y-93421786D01*
X126089711Y-93421789D01*
X126089714Y-93421791D01*
X126220814Y-93509390D01*
X126220827Y-93509397D01*
X126366498Y-93569735D01*
X126366503Y-93569737D01*
X126521153Y-93600499D01*
X126521156Y-93600500D01*
X126521158Y-93600500D01*
X126678844Y-93600500D01*
X126678845Y-93600499D01*
X126833497Y-93569737D01*
X126979179Y-93509394D01*
X127015505Y-93485122D01*
X127110875Y-93421398D01*
X127177553Y-93400520D01*
X127179766Y-93400500D01*
X127568059Y-93400500D01*
X127635098Y-93420185D01*
X127680853Y-93472989D01*
X127690797Y-93542147D01*
X127661772Y-93605703D01*
X127655740Y-93612181D01*
X127578213Y-93689707D01*
X127578210Y-93689711D01*
X127490609Y-93820814D01*
X127490602Y-93820827D01*
X127430264Y-93966498D01*
X127430262Y-93966507D01*
X127410778Y-94064454D01*
X127378392Y-94126364D01*
X127317676Y-94160938D01*
X127313354Y-94161878D01*
X127217242Y-94180996D01*
X127217233Y-94180999D01*
X127071562Y-94241337D01*
X127071549Y-94241344D01*
X126940446Y-94328945D01*
X126940442Y-94328948D01*
X126828948Y-94440442D01*
X126828945Y-94440446D01*
X126741344Y-94571549D01*
X126741337Y-94571562D01*
X126680999Y-94717233D01*
X126680996Y-94717245D01*
X126650235Y-94871888D01*
X126650235Y-95029581D01*
X126680996Y-95184224D01*
X126680999Y-95184236D01*
X126741337Y-95329907D01*
X126741344Y-95329920D01*
X126828945Y-95461023D01*
X126828948Y-95461027D01*
X126940442Y-95572521D01*
X126940446Y-95572524D01*
X127071549Y-95660125D01*
X127071562Y-95660132D01*
X127175578Y-95703216D01*
X127217238Y-95720472D01*
X127371893Y-95751235D01*
X127372582Y-95751372D01*
X127434493Y-95783757D01*
X127436072Y-95785308D01*
X127531284Y-95880520D01*
X127531286Y-95880521D01*
X127531290Y-95880524D01*
X127641845Y-95944352D01*
X127668216Y-95959577D01*
X127820943Y-96000501D01*
X127820945Y-96000501D01*
X127888244Y-96000501D01*
X127908459Y-96006436D01*
X127929498Y-96007565D01*
X127941310Y-96016083D01*
X127955283Y-96020186D01*
X127969078Y-96036106D01*
X127986169Y-96048431D01*
X127991501Y-96061984D01*
X128001038Y-96072990D01*
X128004036Y-96093841D01*
X128011751Y-96113449D01*
X128010421Y-96138247D01*
X128010982Y-96142148D01*
X128009861Y-96148693D01*
X127997350Y-96211588D01*
X127964965Y-96273499D01*
X127940332Y-96292112D01*
X127940667Y-96292613D01*
X127804497Y-96383598D01*
X127804489Y-96383604D01*
X127692995Y-96495098D01*
X127692992Y-96495102D01*
X127605391Y-96626205D01*
X127605384Y-96626218D01*
X127545046Y-96771889D01*
X127545043Y-96771901D01*
X127514282Y-96926544D01*
X127514282Y-97084237D01*
X127545043Y-97238880D01*
X127545046Y-97238892D01*
X127605384Y-97384562D01*
X127605386Y-97384566D01*
X127605388Y-97384570D01*
X127605391Y-97384574D01*
X127605393Y-97384578D01*
X127636484Y-97431111D01*
X127657361Y-97497789D01*
X127638875Y-97565169D01*
X127636484Y-97568889D01*
X127605393Y-97615421D01*
X127605384Y-97615437D01*
X127545046Y-97761107D01*
X127545043Y-97761119D01*
X127514282Y-97915762D01*
X127514282Y-98073455D01*
X127545043Y-98228098D01*
X127545046Y-98228110D01*
X127605384Y-98373781D01*
X127605391Y-98373794D01*
X127692992Y-98504897D01*
X127692995Y-98504901D01*
X127804489Y-98616395D01*
X127804493Y-98616398D01*
X127940668Y-98707388D01*
X127939768Y-98708733D01*
X127984024Y-98752197D01*
X127997350Y-98788411D01*
X128014718Y-98875720D01*
X128014720Y-98875729D01*
X128075058Y-99021400D01*
X128075065Y-99021413D01*
X128162666Y-99152516D01*
X128162669Y-99152520D01*
X128274163Y-99264014D01*
X128274167Y-99264017D01*
X128405270Y-99351618D01*
X128405283Y-99351625D01*
X128523965Y-99400784D01*
X128550959Y-99411965D01*
X128705609Y-99442727D01*
X128705612Y-99442728D01*
X128705614Y-99442728D01*
X128766789Y-99442728D01*
X128833828Y-99462413D01*
X128869890Y-99497836D01*
X128878211Y-99510289D01*
X128878214Y-99510293D01*
X128989707Y-99621786D01*
X128989711Y-99621789D01*
X129120814Y-99709390D01*
X129120816Y-99709391D01*
X129120821Y-99709394D01*
X129128298Y-99712491D01*
X129182702Y-99756330D01*
X129204769Y-99822623D01*
X129187492Y-99890323D01*
X129168529Y-99914734D01*
X128131286Y-100951978D01*
X128019481Y-101063782D01*
X128019479Y-101063785D01*
X128011813Y-101077064D01*
X127986550Y-101120821D01*
X127940423Y-101200715D01*
X127899499Y-101353443D01*
X127899499Y-101353445D01*
X127899499Y-101521546D01*
X127899500Y-101521559D01*
X127899500Y-105513330D01*
X127899499Y-105513348D01*
X127899499Y-105679054D01*
X127899498Y-105679054D01*
X127899533Y-105679184D01*
X127940289Y-105831286D01*
X127940424Y-105831787D01*
X127959417Y-105864683D01*
X127959418Y-105864686D01*
X128019475Y-105968709D01*
X128019481Y-105968717D01*
X128138349Y-106087585D01*
X128138355Y-106087590D01*
X131088584Y-109037819D01*
X131122069Y-109099142D01*
X131117085Y-109168834D01*
X131075213Y-109224767D01*
X131009749Y-109249184D01*
X131000903Y-109249500D01*
X130302129Y-109249500D01*
X130302123Y-109249501D01*
X130242516Y-109255908D01*
X130107671Y-109306202D01*
X130107664Y-109306206D01*
X129992455Y-109392452D01*
X129992452Y-109392455D01*
X129906206Y-109507664D01*
X129906203Y-109507669D01*
X129892715Y-109543834D01*
X129850843Y-109599767D01*
X129785379Y-109624184D01*
X129776533Y-109624500D01*
X108853019Y-109624500D01*
X108785980Y-109604815D01*
X108784166Y-109603627D01*
X108731165Y-109568213D01*
X108723919Y-109563371D01*
X108723916Y-109563369D01*
X108723914Y-109563368D01*
X108723911Y-109563366D01*
X108723906Y-109563364D01*
X108541839Y-109487950D01*
X108541829Y-109487947D01*
X108348543Y-109449500D01*
X108348541Y-109449500D01*
X108151459Y-109449500D01*
X108151457Y-109449500D01*
X107958170Y-109487947D01*
X107958160Y-109487950D01*
X107776092Y-109563364D01*
X107776079Y-109563371D01*
X107612218Y-109672860D01*
X107612214Y-109672863D01*
X107472863Y-109812214D01*
X107472860Y-109812218D01*
X107363371Y-109976079D01*
X107363364Y-109976092D01*
X107287950Y-110158160D01*
X107287947Y-110158170D01*
X107249500Y-110351456D01*
X107249500Y-110351459D01*
X107249500Y-110548541D01*
X107249500Y-110548543D01*
X107249499Y-110548543D01*
X107287947Y-110741829D01*
X107287950Y-110741839D01*
X107344369Y-110878048D01*
X107351838Y-110947517D01*
X107320562Y-111009996D01*
X107260473Y-111045648D01*
X107229808Y-111049500D01*
X106862229Y-111049500D01*
X106795190Y-111029815D01*
X106774548Y-111013181D01*
X105899048Y-110137681D01*
X105865563Y-110076358D01*
X105870547Y-110006666D01*
X105899048Y-109962319D01*
X107286017Y-108575350D01*
X110849470Y-108575350D01*
X121230000Y-108575350D01*
X121230000Y-106500000D01*
X110849470Y-106500000D01*
X110849470Y-108575350D01*
X107286017Y-108575350D01*
X109500411Y-106360957D01*
X109682946Y-106178421D01*
X109682947Y-106178420D01*
X109682951Y-106178416D01*
X109743827Y-106087307D01*
X109759240Y-106068526D01*
X111297821Y-104529945D01*
X111359142Y-104496462D01*
X111428834Y-104501446D01*
X111484767Y-104543318D01*
X111509184Y-104608782D01*
X111509500Y-104617628D01*
X111509500Y-105097870D01*
X111509501Y-105097876D01*
X111515908Y-105157483D01*
X111566202Y-105292328D01*
X111566206Y-105292335D01*
X111652452Y-105407544D01*
X111652455Y-105407547D01*
X111767664Y-105493793D01*
X111767671Y-105493797D01*
X111902517Y-105544091D01*
X111902516Y-105544091D01*
X111909444Y-105544835D01*
X111962127Y-105550500D01*
X113857872Y-105550499D01*
X113917483Y-105544091D01*
X114052331Y-105493796D01*
X114167546Y-105407546D01*
X114247914Y-105300188D01*
X114303847Y-105258318D01*
X114347180Y-105250500D01*
X114649903Y-105250500D01*
X114679343Y-105259144D01*
X114709330Y-105265668D01*
X114714345Y-105269422D01*
X114716942Y-105270185D01*
X114737584Y-105286819D01*
X114765425Y-105314660D01*
X114798910Y-105375983D01*
X114799361Y-105378149D01*
X114830261Y-105533491D01*
X114830264Y-105533501D01*
X114890602Y-105679172D01*
X114890609Y-105679185D01*
X114978210Y-105810288D01*
X114978213Y-105810292D01*
X115089707Y-105921786D01*
X115089711Y-105921789D01*
X115220814Y-106009390D01*
X115220827Y-106009397D01*
X115355991Y-106065383D01*
X115366503Y-106069737D01*
X115521153Y-106100499D01*
X115521156Y-106100500D01*
X115521158Y-106100500D01*
X115678844Y-106100500D01*
X115678845Y-106100499D01*
X115833497Y-106069737D01*
X115979179Y-106009394D01*
X116110289Y-105921789D01*
X116221789Y-105810289D01*
X116309394Y-105679179D01*
X116327771Y-105634809D01*
X116354648Y-105594585D01*
X116962416Y-104986819D01*
X116989343Y-104972115D01*
X117015162Y-104955523D01*
X117021362Y-104954631D01*
X117023739Y-104953334D01*
X117050097Y-104950500D01*
X117085501Y-104950500D01*
X117152540Y-104970185D01*
X117198295Y-105022989D01*
X117209501Y-105074500D01*
X117209501Y-105097876D01*
X117215908Y-105157483D01*
X117266202Y-105292328D01*
X117266206Y-105292335D01*
X117352452Y-105407544D01*
X117352455Y-105407547D01*
X117467664Y-105493793D01*
X117467671Y-105493797D01*
X117602517Y-105544091D01*
X117602516Y-105544091D01*
X117609444Y-105544835D01*
X117662127Y-105550500D01*
X119557872Y-105550499D01*
X119617483Y-105544091D01*
X119752331Y-105493796D01*
X119867546Y-105407546D01*
X119953796Y-105292331D01*
X120004091Y-105157483D01*
X120010500Y-105097873D01*
X120010499Y-103602128D01*
X120004091Y-103542517D01*
X120001350Y-103535169D01*
X119953797Y-103407671D01*
X119953793Y-103407664D01*
X119867548Y-103292457D01*
X119867546Y-103292454D01*
X119867542Y-103292451D01*
X119861272Y-103286180D01*
X119862416Y-103285035D01*
X119826639Y-103237243D01*
X119821654Y-103167551D01*
X119855136Y-103106230D01*
X120627951Y-102333416D01*
X120710084Y-102210495D01*
X120766658Y-102073913D01*
X120774416Y-102034914D01*
X120775038Y-102031786D01*
X120775038Y-102031785D01*
X120795500Y-101928920D01*
X120795500Y-101469500D01*
X120815185Y-101402461D01*
X120867989Y-101356706D01*
X120919500Y-101345500D01*
X120992713Y-101345500D01*
X120992720Y-101345500D01*
X121105236Y-101330687D01*
X121245233Y-101272698D01*
X121365451Y-101180451D01*
X121457698Y-101060233D01*
X121515687Y-100920236D01*
X121530500Y-100807720D01*
X121530500Y-100282280D01*
X121515687Y-100169764D01*
X121457698Y-100029767D01*
X121427807Y-99990812D01*
X121423720Y-99985486D01*
X121398526Y-99920317D01*
X121412564Y-99851872D01*
X121423720Y-99834514D01*
X121434133Y-99820943D01*
X121457698Y-99790233D01*
X121515687Y-99650236D01*
X121530500Y-99537720D01*
X121530500Y-99012280D01*
X121515687Y-98899764D01*
X121457698Y-98759767D01*
X121423720Y-98715486D01*
X121398526Y-98650317D01*
X121411975Y-98582997D01*
X121417028Y-98573233D01*
X121457698Y-98520233D01*
X121510696Y-98392283D01*
X121513117Y-98387608D01*
X121533771Y-98366018D01*
X121552518Y-98342755D01*
X121557666Y-98341041D01*
X121561417Y-98337121D01*
X121590465Y-98330124D01*
X121618812Y-98320690D01*
X121625001Y-98321806D01*
X121629344Y-98320761D01*
X121640261Y-98324559D01*
X121670688Y-98330049D01*
X121766503Y-98369737D01*
X121921153Y-98400499D01*
X121921156Y-98400500D01*
X121921158Y-98400500D01*
X122078844Y-98400500D01*
X122078845Y-98400499D01*
X122233497Y-98369737D01*
X122379179Y-98309394D01*
X122510289Y-98221789D01*
X122621789Y-98110289D01*
X122709394Y-97979179D01*
X122769737Y-97833497D01*
X122800500Y-97678842D01*
X122800500Y-97521158D01*
X122800500Y-97521155D01*
X122800499Y-97521153D01*
X122789791Y-97467322D01*
X122769737Y-97366503D01*
X122747278Y-97312281D01*
X122709397Y-97220827D01*
X122709390Y-97220814D01*
X122621398Y-97089125D01*
X122615747Y-97071078D01*
X122605523Y-97055169D01*
X122601071Y-97024207D01*
X122600520Y-97022447D01*
X122600500Y-97020234D01*
X122600500Y-96800096D01*
X122620185Y-96733057D01*
X122636814Y-96712420D01*
X125921119Y-93428114D01*
X125982440Y-93394631D01*
X126052132Y-93399615D01*
G37*
G04 #@! TD.AperFunction*
G04 #@! TA.AperFunction,Conductor*
G36*
X108268834Y-94595047D02*
G01*
X108324767Y-94636919D01*
X108349184Y-94702383D01*
X108349500Y-94711229D01*
X108349500Y-105337769D01*
X108329815Y-105404808D01*
X108313181Y-105425450D01*
X104587680Y-109150950D01*
X104526357Y-109184435D01*
X104456665Y-109179451D01*
X104412318Y-109150950D01*
X103442845Y-108181477D01*
X103427424Y-108162686D01*
X103366554Y-108071588D01*
X103366548Y-108071580D01*
X103262019Y-107967051D01*
X103262015Y-107967048D01*
X103139101Y-107884919D01*
X103139088Y-107884912D01*
X103002517Y-107828343D01*
X103002507Y-107828340D01*
X102857520Y-107799500D01*
X102857518Y-107799500D01*
X98932328Y-107799500D01*
X98897733Y-107794576D01*
X98752573Y-107752402D01*
X98752567Y-107752401D01*
X98715701Y-107749500D01*
X98715694Y-107749500D01*
X98023729Y-107749500D01*
X98002483Y-107743261D01*
X97980395Y-107741682D01*
X97969611Y-107733609D01*
X97956690Y-107729815D01*
X97942190Y-107713081D01*
X97924462Y-107699810D01*
X97919754Y-107687189D01*
X97910935Y-107677011D01*
X97907783Y-107655093D01*
X97900045Y-107634346D01*
X97902907Y-107621185D01*
X97900991Y-107607853D01*
X97910190Y-107587709D01*
X97914897Y-107566073D01*
X97928165Y-107548347D01*
X97930016Y-107544297D01*
X97936048Y-107537819D01*
X97987048Y-107486819D01*
X98048371Y-107453334D01*
X98074729Y-107450500D01*
X103785390Y-107450500D01*
X103852429Y-107470185D01*
X103859358Y-107475228D01*
X104026079Y-107586628D01*
X104026092Y-107586635D01*
X104191367Y-107655093D01*
X104208165Y-107662051D01*
X104208169Y-107662051D01*
X104208170Y-107662052D01*
X104401456Y-107700500D01*
X104401459Y-107700500D01*
X104598543Y-107700500D01*
X104728582Y-107674632D01*
X104791835Y-107662051D01*
X104973914Y-107586632D01*
X105137782Y-107477139D01*
X105277139Y-107337782D01*
X105386632Y-107173914D01*
X105462051Y-106991835D01*
X105499547Y-106803334D01*
X105500500Y-106798543D01*
X105500500Y-106601456D01*
X105462052Y-106408170D01*
X105462051Y-106408169D01*
X105462051Y-106408165D01*
X105442497Y-106360957D01*
X105419113Y-106304503D01*
X105750000Y-106304503D01*
X105896195Y-106262031D01*
X106035374Y-106179721D01*
X106035383Y-106179714D01*
X106149714Y-106065383D01*
X106149721Y-106065374D01*
X106232031Y-105926195D01*
X106232033Y-105926190D01*
X106277144Y-105770918D01*
X106277145Y-105770912D01*
X106278790Y-105750000D01*
X105750000Y-105750000D01*
X105750000Y-106304503D01*
X105419113Y-106304503D01*
X105384939Y-106221998D01*
X105375500Y-106174546D01*
X105375500Y-105157768D01*
X105375499Y-105157766D01*
X105371554Y-105137931D01*
X105341855Y-104988626D01*
X105275858Y-104829295D01*
X105274066Y-104826613D01*
X105270896Y-104821868D01*
X105265246Y-104803823D01*
X105255023Y-104787915D01*
X105250570Y-104756946D01*
X105250020Y-104755189D01*
X105250000Y-104752980D01*
X105250000Y-104695494D01*
X105750000Y-104695494D01*
X105750000Y-105250000D01*
X106278790Y-105250000D01*
X106277145Y-105229089D01*
X106232031Y-105073804D01*
X106149721Y-104934625D01*
X106149714Y-104934616D01*
X106035383Y-104820285D01*
X106035374Y-104820278D01*
X105896193Y-104737967D01*
X105896190Y-104737965D01*
X105750001Y-104695493D01*
X105750000Y-104695494D01*
X105250000Y-104695494D01*
X105240723Y-104688529D01*
X105203776Y-104688423D01*
X105151372Y-104657228D01*
X104186933Y-103692789D01*
X104153448Y-103631466D01*
X104158432Y-103561774D01*
X104200304Y-103505841D01*
X104234559Y-103493064D01*
X104250000Y-103478790D01*
X104250000Y-103478789D01*
X104750000Y-103478789D01*
X104770910Y-103477145D01*
X104926195Y-103432031D01*
X105065374Y-103349721D01*
X105065383Y-103349714D01*
X105179714Y-103235383D01*
X105179721Y-103235374D01*
X105262031Y-103096195D01*
X105304504Y-102950000D01*
X104750000Y-102950000D01*
X104750000Y-103478789D01*
X104250000Y-103478789D01*
X104250000Y-102950000D01*
X103695496Y-102950000D01*
X103673504Y-102979290D01*
X103617510Y-103021081D01*
X103547811Y-103025965D01*
X103486662Y-102992518D01*
X102121325Y-101627181D01*
X102087840Y-101565858D01*
X102092824Y-101496166D01*
X102134696Y-101440233D01*
X102200160Y-101415816D01*
X102209006Y-101415500D01*
X102925994Y-101415500D01*
X102993033Y-101435185D01*
X103013675Y-101451819D01*
X103717408Y-102155552D01*
X103750893Y-102216875D01*
X103745909Y-102286567D01*
X103740770Y-102297329D01*
X103737968Y-102303804D01*
X103695496Y-102450000D01*
X104008981Y-102450000D01*
X104076020Y-102469685D01*
X104077870Y-102470897D01*
X104085295Y-102475858D01*
X104085297Y-102475858D01*
X104085299Y-102475860D01*
X104166248Y-102509390D01*
X104244626Y-102541855D01*
X104388197Y-102570413D01*
X104413766Y-102575499D01*
X104413769Y-102575500D01*
X104413771Y-102575500D01*
X104586231Y-102575500D01*
X104586232Y-102575499D01*
X104755373Y-102541855D01*
X104914704Y-102475858D01*
X104922129Y-102470897D01*
X104988806Y-102450020D01*
X104991018Y-102450000D01*
X105304504Y-102450000D01*
X105262031Y-102303805D01*
X105248908Y-102281614D01*
X105231726Y-102213890D01*
X105252540Y-102149602D01*
X105274290Y-102117050D01*
X105275858Y-102114704D01*
X105341855Y-101955373D01*
X105375500Y-101786229D01*
X105375500Y-101613771D01*
X105375500Y-101613768D01*
X105375499Y-101613766D01*
X105366495Y-101568500D01*
X105341855Y-101444626D01*
X105340035Y-101440233D01*
X105275861Y-101285301D01*
X105275855Y-101285290D01*
X105271397Y-101278618D01*
X105250520Y-101211941D01*
X105250500Y-101209728D01*
X105250500Y-97562229D01*
X105270185Y-97495190D01*
X105286819Y-97474548D01*
X108137819Y-94623548D01*
X108199142Y-94590063D01*
X108268834Y-94595047D01*
G37*
G04 #@! TD.AperFunction*
G04 #@! TA.AperFunction,Conductor*
G36*
X146294927Y-93956431D02*
G01*
X146339274Y-93984932D01*
X146366661Y-94012319D01*
X146400146Y-94073642D01*
X146395162Y-94143334D01*
X146366661Y-94187681D01*
X146269531Y-94284810D01*
X146269530Y-94284811D01*
X146181522Y-94430393D01*
X146130913Y-94592807D01*
X146130305Y-94599500D01*
X146124500Y-94663384D01*
X146124500Y-95176616D01*
X146126050Y-95193676D01*
X146130913Y-95247192D01*
X146130913Y-95247194D01*
X146130914Y-95247196D01*
X146181522Y-95409606D01*
X146269528Y-95555185D01*
X146269530Y-95555187D01*
X146275193Y-95560850D01*
X146308681Y-95622171D01*
X146309133Y-95672726D01*
X146299500Y-95721153D01*
X146299500Y-95878846D01*
X146330261Y-96033489D01*
X146330264Y-96033501D01*
X146390602Y-96179172D01*
X146390609Y-96179185D01*
X146478210Y-96310288D01*
X146478213Y-96310292D01*
X146589707Y-96421786D01*
X146589711Y-96421789D01*
X146720814Y-96509390D01*
X146720827Y-96509397D01*
X146804329Y-96543984D01*
X146866503Y-96569737D01*
X147010596Y-96598399D01*
X147021153Y-96600499D01*
X147021156Y-96600500D01*
X147021158Y-96600500D01*
X147178844Y-96600500D01*
X147178845Y-96600499D01*
X147333497Y-96569737D01*
X147479179Y-96509394D01*
X147610289Y-96421789D01*
X147721789Y-96310289D01*
X147809394Y-96179179D01*
X147815652Y-96164072D01*
X147848188Y-96085521D01*
X147869737Y-96033497D01*
X147900500Y-95878842D01*
X147900500Y-95721158D01*
X147900499Y-95721155D01*
X147890866Y-95672728D01*
X147897092Y-95603137D01*
X147908954Y-95580288D01*
X147915889Y-95569767D01*
X147930472Y-95555185D01*
X147985415Y-95464298D01*
X147986747Y-95462278D01*
X148011633Y-95441215D01*
X148035687Y-95419188D01*
X148038161Y-95418762D01*
X148040079Y-95417140D01*
X148072404Y-95412875D01*
X148104546Y-95407349D01*
X148106858Y-95408329D01*
X148109348Y-95408001D01*
X148138849Y-95421890D01*
X148168875Y-95434618D01*
X148170866Y-95436963D01*
X148172562Y-95437762D01*
X148175425Y-95442333D01*
X148197663Y-95468526D01*
X148219475Y-95506306D01*
X148219481Y-95506314D01*
X148338349Y-95625182D01*
X148338354Y-95625186D01*
X153593687Y-100880520D01*
X153593689Y-100880521D01*
X153593693Y-100880524D01*
X153717457Y-100951978D01*
X153730619Y-100959577D01*
X153883346Y-101000501D01*
X153883348Y-101000501D01*
X154049057Y-101000501D01*
X154049073Y-101000500D01*
X159846020Y-101000500D01*
X159865207Y-101006134D01*
X159885196Y-101006851D01*
X159898048Y-101015777D01*
X159913059Y-101020185D01*
X159926154Y-101035297D01*
X159942583Y-101046708D01*
X159955116Y-101068721D01*
X159958814Y-101072989D01*
X159960588Y-101077064D01*
X159961432Y-101079103D01*
X159996204Y-101172331D01*
X160004770Y-101183774D01*
X160010733Y-101198175D01*
X160012866Y-101218045D01*
X160019849Y-101236768D01*
X160016858Y-101255224D01*
X160018192Y-101267646D01*
X160013244Y-101277526D01*
X160010727Y-101293062D01*
X159995143Y-101330686D01*
X159983938Y-101357740D01*
X159979101Y-101369417D01*
X159979099Y-101369422D01*
X159939500Y-101568500D01*
X159939500Y-101775500D01*
X159919815Y-101842539D01*
X159867011Y-101888294D01*
X159815500Y-101899500D01*
X154086670Y-101899500D01*
X154086654Y-101899499D01*
X154079058Y-101899499D01*
X153920943Y-101899499D01*
X153844579Y-101919961D01*
X153768214Y-101940423D01*
X153768209Y-101940426D01*
X153631290Y-102019475D01*
X153631282Y-102019481D01*
X147679211Y-107971551D01*
X147617888Y-108005036D01*
X147554641Y-108002256D01*
X147502196Y-107985914D01*
X147431616Y-107979500D01*
X146768384Y-107979500D01*
X146749145Y-107981248D01*
X146697807Y-107985913D01*
X146535393Y-108036522D01*
X146389811Y-108124530D01*
X146389810Y-108124531D01*
X146319470Y-108194872D01*
X146258147Y-108228357D01*
X146188455Y-108223373D01*
X146144108Y-108194872D01*
X145836819Y-107887583D01*
X145803334Y-107826260D01*
X145800500Y-107799902D01*
X145800500Y-99989059D01*
X145800501Y-99989046D01*
X145800501Y-99820945D01*
X145800501Y-99820943D01*
X145759577Y-99668215D01*
X145725423Y-99609059D01*
X145680520Y-99531284D01*
X145568716Y-99419480D01*
X145568715Y-99419479D01*
X145564385Y-99415149D01*
X145564374Y-99415139D01*
X143236721Y-97087486D01*
X143203236Y-97026163D01*
X143208220Y-96956471D01*
X143236721Y-96912124D01*
X144697580Y-95451265D01*
X146163914Y-93984930D01*
X146225235Y-93951447D01*
X146294927Y-93956431D01*
G37*
G04 #@! TD.AperFunction*
G04 #@! TA.AperFunction,Conductor*
G36*
X118270158Y-87920185D02*
G01*
X118315913Y-87972989D01*
X118325857Y-88042147D01*
X118296832Y-88105703D01*
X118290800Y-88112181D01*
X118197055Y-88205925D01*
X118105089Y-88355024D01*
X118105087Y-88355029D01*
X118049985Y-88521316D01*
X118039500Y-88623941D01*
X118039500Y-89976043D01*
X118039501Y-89976060D01*
X118049984Y-90078681D01*
X118049985Y-90078684D01*
X118083816Y-90180778D01*
X118105088Y-90244973D01*
X118179897Y-90366258D01*
X118197055Y-90394074D01*
X118265723Y-90462742D01*
X118299208Y-90524065D01*
X118299612Y-90569306D01*
X118300097Y-90569354D01*
X118299653Y-90573859D01*
X118299660Y-90574610D01*
X118299500Y-90575413D01*
X118299500Y-90733104D01*
X118330261Y-90887747D01*
X118330264Y-90887759D01*
X118390602Y-91033430D01*
X118390609Y-91033443D01*
X118478210Y-91164546D01*
X118478213Y-91164550D01*
X118533742Y-91220079D01*
X118567227Y-91281402D01*
X118569000Y-91323945D01*
X118560001Y-91392299D01*
X118560000Y-91392316D01*
X118560000Y-91405000D01*
X118795980Y-91405000D01*
X118843432Y-91414439D01*
X118854202Y-91418900D01*
X118866503Y-91423995D01*
X119021153Y-91454757D01*
X119021156Y-91454758D01*
X119021158Y-91454758D01*
X119178844Y-91454758D01*
X119178845Y-91454757D01*
X119333497Y-91423995D01*
X119346886Y-91418449D01*
X119356568Y-91414439D01*
X119404020Y-91405000D01*
X119795000Y-91405000D01*
X119795000Y-91091427D01*
X119808017Y-91039461D01*
X119807063Y-91039066D01*
X119868556Y-90890606D01*
X119869737Y-90887755D01*
X119900500Y-90733100D01*
X119900500Y-90575416D01*
X119900499Y-90575413D01*
X119900499Y-90575411D01*
X119900341Y-90574614D01*
X119900379Y-90574187D01*
X119899903Y-90569353D01*
X119900819Y-90569262D01*
X119906568Y-90505022D01*
X119934277Y-90462741D01*
X120002946Y-90394073D01*
X120094912Y-90244973D01*
X120150015Y-90078682D01*
X120156838Y-90011897D01*
X120183234Y-89947206D01*
X120240415Y-89907054D01*
X120280196Y-89900500D01*
X126005598Y-89900500D01*
X126072637Y-89920185D01*
X126118392Y-89972989D01*
X126128336Y-90042147D01*
X126120159Y-90071952D01*
X126080999Y-90166492D01*
X126080996Y-90166504D01*
X126050235Y-90321147D01*
X126050235Y-90478840D01*
X126064650Y-90551309D01*
X126058423Y-90620900D01*
X126015560Y-90676078D01*
X125949670Y-90699322D01*
X125943033Y-90699500D01*
X122741668Y-90699500D01*
X122741652Y-90699499D01*
X122734056Y-90699499D01*
X122575942Y-90699499D01*
X122423214Y-90740423D01*
X122423211Y-90740424D01*
X122404023Y-90751501D01*
X122404024Y-90751502D01*
X122286286Y-90819477D01*
X122286281Y-90819481D01*
X122174477Y-90931286D01*
X121729141Y-91376621D01*
X121667818Y-91410106D01*
X121598126Y-91405122D01*
X121542193Y-91363250D01*
X121518521Y-91305124D01*
X121515200Y-91279896D01*
X121515198Y-91279891D01*
X121457263Y-91140021D01*
X121365094Y-91019905D01*
X121244978Y-90927736D01*
X121105108Y-90869801D01*
X121105104Y-90869800D01*
X120992697Y-90855000D01*
X120295000Y-90855000D01*
X120295000Y-91531000D01*
X120275315Y-91598039D01*
X120222511Y-91643794D01*
X120171000Y-91655000D01*
X120045000Y-91655000D01*
X120045000Y-91781000D01*
X120025315Y-91848039D01*
X119972511Y-91893794D01*
X119921000Y-91905000D01*
X118560000Y-91905000D01*
X118560000Y-91917697D01*
X118574800Y-92030104D01*
X118574801Y-92030108D01*
X118632737Y-92169981D01*
X118666594Y-92214104D01*
X118691788Y-92279274D01*
X118677749Y-92347718D01*
X118666594Y-92365076D01*
X118632302Y-92409766D01*
X118632300Y-92409769D01*
X118574313Y-92549763D01*
X118574313Y-92549764D01*
X118559500Y-92662272D01*
X118559500Y-93187713D01*
X118559501Y-93187732D01*
X118570402Y-93270536D01*
X118559636Y-93339571D01*
X118513256Y-93391826D01*
X118445987Y-93410711D01*
X118423272Y-93408337D01*
X118378845Y-93399500D01*
X118378842Y-93399500D01*
X118221158Y-93399500D01*
X118221155Y-93399500D01*
X118066510Y-93430261D01*
X118066498Y-93430264D01*
X117920827Y-93490602D01*
X117920814Y-93490609D01*
X117789711Y-93578210D01*
X117789707Y-93578213D01*
X117678213Y-93689707D01*
X117678210Y-93689711D01*
X117590609Y-93820814D01*
X117590602Y-93820827D01*
X117530264Y-93966498D01*
X117530261Y-93966510D01*
X117499500Y-94121153D01*
X117499500Y-94278846D01*
X117530261Y-94433489D01*
X117530264Y-94433501D01*
X117590602Y-94579172D01*
X117590609Y-94579185D01*
X117678210Y-94710288D01*
X117678213Y-94710292D01*
X117789707Y-94821786D01*
X117789711Y-94821789D01*
X117920814Y-94909390D01*
X117920827Y-94909397D01*
X118060834Y-94967389D01*
X118066503Y-94969737D01*
X118209379Y-94998157D01*
X118221153Y-95000499D01*
X118221156Y-95000500D01*
X118221158Y-95000500D01*
X118378843Y-95000500D01*
X118390621Y-94998157D01*
X118421920Y-94991931D01*
X118491509Y-94998157D01*
X118546687Y-95041019D01*
X118569933Y-95106909D01*
X118569050Y-95129732D01*
X118559501Y-95202267D01*
X118559500Y-95202286D01*
X118559500Y-95727727D01*
X118564995Y-95769458D01*
X118554230Y-95838494D01*
X118507850Y-95890750D01*
X118440581Y-95909635D01*
X118417866Y-95907262D01*
X118378842Y-95899500D01*
X118221158Y-95899500D01*
X118221155Y-95899500D01*
X118066510Y-95930261D01*
X118066498Y-95930264D01*
X117920827Y-95990602D01*
X117920814Y-95990609D01*
X117789711Y-96078210D01*
X117789707Y-96078213D01*
X117678213Y-96189707D01*
X117678210Y-96189711D01*
X117590609Y-96320814D01*
X117590602Y-96320827D01*
X117530264Y-96466498D01*
X117530261Y-96466510D01*
X117499500Y-96621153D01*
X117499500Y-96778846D01*
X117530261Y-96933489D01*
X117530264Y-96933501D01*
X117590602Y-97079172D01*
X117590609Y-97079185D01*
X117678210Y-97210288D01*
X117678213Y-97210292D01*
X117789707Y-97321786D01*
X117789711Y-97321789D01*
X117920814Y-97409390D01*
X117920827Y-97409397D01*
X118060682Y-97467326D01*
X118066503Y-97469737D01*
X118172670Y-97490855D01*
X118221153Y-97500499D01*
X118221156Y-97500500D01*
X118221158Y-97500500D01*
X118378842Y-97500500D01*
X118427328Y-97490855D01*
X118496917Y-97497081D01*
X118552095Y-97539943D01*
X118575341Y-97605832D01*
X118574458Y-97628657D01*
X118559501Y-97742269D01*
X118559500Y-97742286D01*
X118559500Y-98267727D01*
X118574313Y-98380235D01*
X118574313Y-98380236D01*
X118632301Y-98520233D01*
X118666279Y-98564514D01*
X118691473Y-98629684D01*
X118677434Y-98698129D01*
X118666279Y-98715486D01*
X118632301Y-98759766D01*
X118574313Y-98899763D01*
X118574313Y-98899764D01*
X118559500Y-99012272D01*
X118559500Y-99537727D01*
X118574313Y-99650235D01*
X118574313Y-99650236D01*
X118632301Y-99790233D01*
X118666279Y-99834514D01*
X118691473Y-99899684D01*
X118677434Y-99968129D01*
X118666279Y-99985486D01*
X118632301Y-100029766D01*
X118574313Y-100169763D01*
X118574313Y-100169764D01*
X118559500Y-100282272D01*
X118559500Y-100807727D01*
X118574313Y-100920235D01*
X118574313Y-100920236D01*
X118626699Y-101046708D01*
X118632302Y-101060233D01*
X118724549Y-101180451D01*
X118844767Y-101272698D01*
X118984764Y-101330687D01*
X119097280Y-101345500D01*
X119170500Y-101345500D01*
X119179185Y-101348050D01*
X119188147Y-101346762D01*
X119212187Y-101357740D01*
X119237539Y-101365185D01*
X119243466Y-101372025D01*
X119251703Y-101375787D01*
X119265992Y-101398021D01*
X119283294Y-101417989D01*
X119285581Y-101428503D01*
X119289477Y-101434565D01*
X119294500Y-101469500D01*
X119294500Y-101492770D01*
X119274815Y-101559809D01*
X119258181Y-101580451D01*
X118925451Y-101913181D01*
X118864128Y-101946666D01*
X118837770Y-101949500D01*
X111992480Y-101949500D01*
X111847492Y-101978340D01*
X111847486Y-101978342D01*
X111710908Y-102034914D01*
X111710896Y-102034921D01*
X111661669Y-102067813D01*
X111587988Y-102117044D01*
X111587980Y-102117050D01*
X110062181Y-103642850D01*
X110000858Y-103676335D01*
X109931166Y-103671351D01*
X109875233Y-103629479D01*
X109850816Y-103564015D01*
X109850500Y-103555169D01*
X109850500Y-99012272D01*
X113609500Y-99012272D01*
X113609500Y-99537727D01*
X113624313Y-99650235D01*
X113624313Y-99650236D01*
X113682301Y-99790233D01*
X113716279Y-99834514D01*
X113741473Y-99899684D01*
X113727434Y-99968129D01*
X113716279Y-99985486D01*
X113682301Y-100029766D01*
X113624313Y-100169763D01*
X113624313Y-100169764D01*
X113609500Y-100282272D01*
X113609500Y-100807727D01*
X113624313Y-100920235D01*
X113624313Y-100920236D01*
X113676699Y-101046708D01*
X113682302Y-101060233D01*
X113774549Y-101180451D01*
X113894767Y-101272698D01*
X114034764Y-101330687D01*
X114147280Y-101345500D01*
X114147287Y-101345500D01*
X116042713Y-101345500D01*
X116042720Y-101345500D01*
X116155236Y-101330687D01*
X116295233Y-101272698D01*
X116415451Y-101180451D01*
X116507698Y-101060233D01*
X116565687Y-100920236D01*
X116580500Y-100807720D01*
X116580500Y-100282280D01*
X116565687Y-100169764D01*
X116507698Y-100029767D01*
X116477807Y-99990812D01*
X116473720Y-99985486D01*
X116448526Y-99920317D01*
X116462564Y-99851872D01*
X116473720Y-99834514D01*
X116484133Y-99820943D01*
X116507698Y-99790233D01*
X116565687Y-99650236D01*
X116580500Y-99537720D01*
X116580500Y-99012280D01*
X116565687Y-98899764D01*
X116507698Y-98759767D01*
X116507697Y-98759766D01*
X116507697Y-98759765D01*
X116473406Y-98715077D01*
X116448211Y-98649908D01*
X116462249Y-98581463D01*
X116473405Y-98564103D01*
X116507263Y-98519978D01*
X116565198Y-98380108D01*
X116565199Y-98380104D01*
X116579999Y-98267697D01*
X116580000Y-98267683D01*
X116580000Y-98255000D01*
X113610000Y-98255000D01*
X113610000Y-98267697D01*
X113624800Y-98380104D01*
X113624801Y-98380108D01*
X113682737Y-98519981D01*
X113716594Y-98564104D01*
X113741788Y-98629274D01*
X113727749Y-98697718D01*
X113716594Y-98715076D01*
X113682302Y-98759766D01*
X113682300Y-98759769D01*
X113624313Y-98899763D01*
X113624313Y-98899764D01*
X113609500Y-99012272D01*
X109850500Y-99012272D01*
X109850500Y-95202272D01*
X113609500Y-95202272D01*
X113609500Y-95727727D01*
X113624313Y-95840235D01*
X113624313Y-95840236D01*
X113682301Y-95980233D01*
X113716279Y-96024514D01*
X113741473Y-96089684D01*
X113727434Y-96158129D01*
X113716279Y-96175486D01*
X113682301Y-96219766D01*
X113624313Y-96359763D01*
X113624313Y-96359764D01*
X113609500Y-96472272D01*
X113609500Y-96997727D01*
X113624313Y-97110235D01*
X113624313Y-97110236D01*
X113677602Y-97238888D01*
X113682302Y-97250233D01*
X113716594Y-97294923D01*
X113741788Y-97360091D01*
X113727750Y-97428536D01*
X113716595Y-97445894D01*
X113682737Y-97490019D01*
X113624801Y-97629891D01*
X113624800Y-97629895D01*
X113610000Y-97742302D01*
X113610000Y-97755000D01*
X116580000Y-97755000D01*
X116580000Y-97742316D01*
X116579999Y-97742302D01*
X116565199Y-97629895D01*
X116565198Y-97629891D01*
X116507262Y-97490018D01*
X116473405Y-97445895D01*
X116448211Y-97380726D01*
X116462250Y-97312281D01*
X116473398Y-97294933D01*
X116507698Y-97250233D01*
X116565687Y-97110236D01*
X116580500Y-96997720D01*
X116580500Y-96472280D01*
X116565687Y-96359764D01*
X116514363Y-96235858D01*
X116507699Y-96219769D01*
X116507697Y-96219766D01*
X116473720Y-96175486D01*
X116448526Y-96110317D01*
X116462564Y-96041872D01*
X116473720Y-96024514D01*
X116486725Y-96007565D01*
X116507698Y-95980233D01*
X116565687Y-95840236D01*
X116580500Y-95727720D01*
X116580500Y-95202280D01*
X116565687Y-95089764D01*
X116507698Y-94949767D01*
X116507697Y-94949766D01*
X116507697Y-94949765D01*
X116473406Y-94905077D01*
X116448211Y-94839908D01*
X116462249Y-94771463D01*
X116473405Y-94754103D01*
X116507263Y-94709978D01*
X116565198Y-94570108D01*
X116565199Y-94570104D01*
X116579999Y-94457697D01*
X116580000Y-94457683D01*
X116580000Y-94445000D01*
X113610000Y-94445000D01*
X113610000Y-94457697D01*
X113624800Y-94570104D01*
X113624801Y-94570108D01*
X113682737Y-94709981D01*
X113716594Y-94754104D01*
X113741788Y-94819274D01*
X113727749Y-94887718D01*
X113716594Y-94905076D01*
X113682302Y-94949766D01*
X113682300Y-94949769D01*
X113624313Y-95089763D01*
X113624313Y-95089764D01*
X113609500Y-95202272D01*
X109850500Y-95202272D01*
X109850500Y-94662230D01*
X109870185Y-94595191D01*
X109886819Y-94574549D01*
X111689110Y-92772258D01*
X114374549Y-90086819D01*
X114435872Y-90053334D01*
X114462230Y-90050500D01*
X115031105Y-90050500D01*
X115098144Y-90070185D01*
X115143899Y-90122989D01*
X115148811Y-90135496D01*
X115163816Y-90180778D01*
X115185088Y-90244973D01*
X115277054Y-90394073D01*
X115400927Y-90517946D01*
X115550027Y-90609912D01*
X115558725Y-90612794D01*
X115616170Y-90652566D01*
X115642994Y-90717082D01*
X115630679Y-90785858D01*
X115583137Y-90837058D01*
X115519722Y-90854500D01*
X114147272Y-90854500D01*
X114034764Y-90869313D01*
X114034763Y-90869313D01*
X113894769Y-90927300D01*
X113894766Y-90927302D01*
X113851885Y-90960205D01*
X113851877Y-90960212D01*
X113774549Y-91019549D01*
X113715212Y-91096877D01*
X113715205Y-91096885D01*
X113682302Y-91139766D01*
X113682300Y-91139769D01*
X113624313Y-91279763D01*
X113624313Y-91279764D01*
X113609500Y-91392272D01*
X113609500Y-91917713D01*
X113609501Y-91917730D01*
X113617691Y-91979941D01*
X113606925Y-92048977D01*
X113560545Y-92101232D01*
X113493276Y-92120117D01*
X113470561Y-92117743D01*
X113378846Y-92099500D01*
X113378842Y-92099500D01*
X113221158Y-92099500D01*
X113221155Y-92099500D01*
X113066510Y-92130261D01*
X113066498Y-92130264D01*
X112920827Y-92190602D01*
X112920814Y-92190609D01*
X112789711Y-92278210D01*
X112789707Y-92278213D01*
X112678213Y-92389707D01*
X112678210Y-92389711D01*
X112590609Y-92520814D01*
X112590602Y-92520827D01*
X112530264Y-92666498D01*
X112530261Y-92666510D01*
X112499500Y-92821153D01*
X112499500Y-92978846D01*
X112530261Y-93133489D01*
X112530264Y-93133501D01*
X112590602Y-93279172D01*
X112590609Y-93279185D01*
X112678210Y-93410288D01*
X112678213Y-93410292D01*
X112789707Y-93521786D01*
X112789711Y-93521789D01*
X112920814Y-93609390D01*
X112920827Y-93609397D01*
X113045586Y-93661073D01*
X113066503Y-93669737D01*
X113221153Y-93700499D01*
X113221156Y-93700500D01*
X113221158Y-93700500D01*
X113378843Y-93700500D01*
X113415501Y-93693207D01*
X113477839Y-93680808D01*
X113547429Y-93687035D01*
X113602607Y-93729897D01*
X113625852Y-93795787D01*
X113624969Y-93818611D01*
X113610000Y-93932302D01*
X113610000Y-93945000D01*
X116580000Y-93945000D01*
X116580000Y-93932316D01*
X116579999Y-93932302D01*
X116565199Y-93819895D01*
X116565198Y-93819891D01*
X116507262Y-93680018D01*
X116473405Y-93635895D01*
X116448211Y-93570726D01*
X116462250Y-93502281D01*
X116473398Y-93484933D01*
X116507698Y-93440233D01*
X116565687Y-93300236D01*
X116580500Y-93187720D01*
X116580500Y-92662280D01*
X116565687Y-92549764D01*
X116553698Y-92520821D01*
X116548644Y-92508618D01*
X116541175Y-92439149D01*
X116572450Y-92376670D01*
X116632539Y-92341018D01*
X116702364Y-92343512D01*
X116710647Y-92346601D01*
X116766503Y-92369737D01*
X116916126Y-92399499D01*
X116921153Y-92400499D01*
X116921156Y-92400500D01*
X116921158Y-92400500D01*
X117078844Y-92400500D01*
X117078845Y-92400499D01*
X117233497Y-92369737D01*
X117379179Y-92309394D01*
X117510289Y-92221789D01*
X117621789Y-92110289D01*
X117709394Y-91979179D01*
X117715109Y-91965383D01*
X117740810Y-91903334D01*
X117769737Y-91833497D01*
X117800500Y-91678842D01*
X117800500Y-91521158D01*
X117800500Y-91521155D01*
X117800499Y-91521153D01*
X117781173Y-91423995D01*
X117769737Y-91366503D01*
X117744313Y-91305124D01*
X117709397Y-91220827D01*
X117709390Y-91220814D01*
X117621789Y-91089711D01*
X117621786Y-91089707D01*
X117510292Y-90978213D01*
X117510288Y-90978210D01*
X117379185Y-90890609D01*
X117379172Y-90890602D01*
X117233501Y-90830264D01*
X117233489Y-90830261D01*
X117078845Y-90799500D01*
X117078842Y-90799500D01*
X116939840Y-90799500D01*
X116872801Y-90779815D01*
X116827046Y-90727011D01*
X116817102Y-90657853D01*
X116846127Y-90594297D01*
X116874743Y-90569962D01*
X116922914Y-90540248D01*
X116959073Y-90517946D01*
X117082946Y-90394073D01*
X117174912Y-90244973D01*
X117230015Y-90078682D01*
X117240500Y-89976051D01*
X117240499Y-88623950D01*
X117230015Y-88521318D01*
X117174912Y-88355027D01*
X117082946Y-88205927D01*
X116989200Y-88112181D01*
X116955715Y-88050858D01*
X116960699Y-87981166D01*
X117002571Y-87925233D01*
X117068035Y-87900816D01*
X117076881Y-87900500D01*
X118203119Y-87900500D01*
X118270158Y-87920185D01*
G37*
G04 #@! TD.AperFunction*
G04 #@! TA.AperFunction,Conductor*
G36*
X142090942Y-98444185D02*
G01*
X142111584Y-98460819D01*
X144097731Y-100446966D01*
X144131216Y-100508289D01*
X144134050Y-100534647D01*
X144134050Y-102285453D01*
X144114365Y-102352492D01*
X144061561Y-102398247D01*
X143992403Y-102408191D01*
X143928847Y-102379166D01*
X143922369Y-102373134D01*
X141478337Y-99929102D01*
X141444852Y-99867779D01*
X141449836Y-99798087D01*
X141478337Y-99753740D01*
X141521789Y-99710289D01*
X141609394Y-99579179D01*
X141669737Y-99433497D01*
X141700500Y-99278842D01*
X141700500Y-99121158D01*
X141700500Y-99121155D01*
X141700499Y-99121153D01*
X141695440Y-99095721D01*
X141669737Y-98966503D01*
X141642398Y-98900500D01*
X141609397Y-98820827D01*
X141609390Y-98820814D01*
X141521789Y-98689711D01*
X141521786Y-98689707D01*
X141468260Y-98636181D01*
X141434775Y-98574858D01*
X141439759Y-98505166D01*
X141481631Y-98449233D01*
X141547095Y-98424816D01*
X141555941Y-98424500D01*
X142023903Y-98424500D01*
X142090942Y-98444185D01*
G37*
G04 #@! TD.AperFunction*
G04 #@! TA.AperFunction,Conductor*
G36*
X134928081Y-91833181D02*
G01*
X134945515Y-91844385D01*
X134946529Y-91845162D01*
X134961758Y-91866037D01*
X134978092Y-91881973D01*
X134980266Y-91891406D01*
X134987707Y-91901606D01*
X134995000Y-91943505D01*
X134995000Y-91971624D01*
X135079343Y-91960521D01*
X135087195Y-91958418D01*
X135088165Y-91962041D01*
X135140116Y-91955919D01*
X135152518Y-91959494D01*
X135152677Y-91958905D01*
X135160526Y-91961008D01*
X135160528Y-91961009D01*
X135270599Y-91975500D01*
X135469400Y-91975499D01*
X135469401Y-91975499D01*
X135498828Y-91971625D01*
X135579472Y-91961009D01*
X135579475Y-91961007D01*
X135587326Y-91958905D01*
X135588210Y-91962207D01*
X135641925Y-91956392D01*
X135652514Y-91959501D01*
X135652674Y-91958905D01*
X135660524Y-91961008D01*
X135660526Y-91961008D01*
X135660528Y-91961009D01*
X135770599Y-91975500D01*
X135969400Y-91975499D01*
X135969401Y-91975499D01*
X135998828Y-91971625D01*
X136079472Y-91961009D01*
X136079475Y-91961007D01*
X136087326Y-91958905D01*
X136088210Y-91962207D01*
X136141925Y-91956392D01*
X136152514Y-91959501D01*
X136152674Y-91958905D01*
X136160524Y-91961008D01*
X136160526Y-91961008D01*
X136160528Y-91961009D01*
X136270599Y-91975500D01*
X136469400Y-91975499D01*
X136469401Y-91975499D01*
X136498828Y-91971625D01*
X136579472Y-91961009D01*
X136579475Y-91961007D01*
X136587326Y-91958905D01*
X136588210Y-91962207D01*
X136641925Y-91956392D01*
X136652514Y-91959501D01*
X136652674Y-91958905D01*
X136660524Y-91961008D01*
X136660526Y-91961008D01*
X136660528Y-91961009D01*
X136770599Y-91975500D01*
X136969400Y-91975499D01*
X136969401Y-91975499D01*
X136998828Y-91971625D01*
X137079472Y-91961009D01*
X137079475Y-91961007D01*
X137087326Y-91958905D01*
X137088210Y-91962207D01*
X137141925Y-91956392D01*
X137152514Y-91959501D01*
X137152674Y-91958905D01*
X137160524Y-91961008D01*
X137160526Y-91961008D01*
X137160528Y-91961009D01*
X137270599Y-91975500D01*
X137469400Y-91975499D01*
X137469401Y-91975499D01*
X137498828Y-91971625D01*
X137579472Y-91961009D01*
X137579475Y-91961007D01*
X137587326Y-91958905D01*
X137588210Y-91962207D01*
X137641925Y-91956392D01*
X137652514Y-91959501D01*
X137652674Y-91958905D01*
X137660524Y-91961008D01*
X137660526Y-91961008D01*
X137660528Y-91961009D01*
X137770599Y-91975500D01*
X137969400Y-91975499D01*
X137969401Y-91975499D01*
X137998828Y-91971625D01*
X138079472Y-91961009D01*
X138079475Y-91961007D01*
X138087326Y-91958905D01*
X138088210Y-91962207D01*
X138141925Y-91956392D01*
X138152514Y-91959501D01*
X138152674Y-91958905D01*
X138160524Y-91961008D01*
X138160526Y-91961008D01*
X138160528Y-91961009D01*
X138270599Y-91975500D01*
X138469400Y-91975499D01*
X138510830Y-91970045D01*
X138579866Y-91980811D01*
X138632121Y-92027191D01*
X138651006Y-92094460D01*
X138649954Y-92109169D01*
X138644500Y-92150597D01*
X138644500Y-92349403D01*
X138658989Y-92459468D01*
X138661094Y-92467322D01*
X138657814Y-92468200D01*
X138663581Y-92522073D01*
X138660517Y-92532522D01*
X138661095Y-92532677D01*
X138658990Y-92540529D01*
X138644500Y-92650598D01*
X138644500Y-92849403D01*
X138658989Y-92959468D01*
X138661094Y-92967322D01*
X138657814Y-92968200D01*
X138663581Y-93022073D01*
X138660517Y-93032522D01*
X138661095Y-93032677D01*
X138658990Y-93040529D01*
X138644500Y-93150598D01*
X138644500Y-93349403D01*
X138658989Y-93459468D01*
X138661094Y-93467322D01*
X138657814Y-93468200D01*
X138663581Y-93522073D01*
X138660517Y-93532522D01*
X138661095Y-93532677D01*
X138658990Y-93540529D01*
X138644500Y-93650598D01*
X138644500Y-93849403D01*
X138658989Y-93959468D01*
X138661094Y-93967322D01*
X138657814Y-93968200D01*
X138663581Y-94022073D01*
X138660517Y-94032522D01*
X138661095Y-94032677D01*
X138658990Y-94040529D01*
X138644500Y-94150598D01*
X138644500Y-94349403D01*
X138658989Y-94459468D01*
X138661094Y-94467322D01*
X138657814Y-94468200D01*
X138663581Y-94522073D01*
X138660517Y-94532522D01*
X138661095Y-94532677D01*
X138658990Y-94540529D01*
X138644500Y-94650598D01*
X138644500Y-94849403D01*
X138658989Y-94959468D01*
X138661094Y-94967322D01*
X138657814Y-94968200D01*
X138663581Y-95022073D01*
X138660517Y-95032522D01*
X138661095Y-95032677D01*
X138658990Y-95040529D01*
X138644500Y-95150598D01*
X138644500Y-95349403D01*
X138658989Y-95459468D01*
X138661094Y-95467322D01*
X138657814Y-95468200D01*
X138663581Y-95522073D01*
X138660517Y-95532522D01*
X138661095Y-95532677D01*
X138658990Y-95540529D01*
X138644500Y-95650598D01*
X138644500Y-95849403D01*
X138658989Y-95959468D01*
X138661094Y-95967322D01*
X138657814Y-95968200D01*
X138663581Y-96022073D01*
X138660517Y-96032522D01*
X138661095Y-96032677D01*
X138658990Y-96040529D01*
X138644500Y-96150598D01*
X138644500Y-96349403D01*
X138658989Y-96459468D01*
X138661094Y-96467322D01*
X138657814Y-96468200D01*
X138663581Y-96522073D01*
X138660517Y-96532522D01*
X138661095Y-96532677D01*
X138658990Y-96540529D01*
X138644500Y-96650598D01*
X138644500Y-96849403D01*
X138658989Y-96959468D01*
X138661094Y-96967322D01*
X138657814Y-96968200D01*
X138663581Y-97022073D01*
X138660517Y-97032522D01*
X138661095Y-97032677D01*
X138658990Y-97040529D01*
X138644500Y-97150598D01*
X138644500Y-97349403D01*
X138658989Y-97459468D01*
X138661094Y-97467322D01*
X138657814Y-97468200D01*
X138663581Y-97522073D01*
X138660517Y-97532522D01*
X138661095Y-97532677D01*
X138658990Y-97540529D01*
X138644500Y-97650598D01*
X138644500Y-97849403D01*
X138658989Y-97959468D01*
X138661094Y-97967322D01*
X138658010Y-97968148D01*
X138663849Y-98022737D01*
X138661014Y-98032653D01*
X138661582Y-98032806D01*
X138659478Y-98040658D01*
X138648373Y-98125000D01*
X138676494Y-98125000D01*
X138680164Y-98126077D01*
X138683893Y-98125221D01*
X138713425Y-98135844D01*
X138743533Y-98144685D01*
X138747082Y-98147951D01*
X138749639Y-98148871D01*
X138774885Y-98173534D01*
X138775652Y-98174534D01*
X138800833Y-98239708D01*
X138786781Y-98308150D01*
X138775652Y-98325466D01*
X138774885Y-98326466D01*
X138753944Y-98341763D01*
X138737956Y-98358130D01*
X138728595Y-98360281D01*
X138718466Y-98367681D01*
X138676494Y-98375000D01*
X138648374Y-98375000D01*
X138659478Y-98459346D01*
X138661582Y-98467197D01*
X138658313Y-98468072D01*
X138663648Y-98522512D01*
X138660650Y-98532554D01*
X138661095Y-98532673D01*
X138658991Y-98540524D01*
X138644500Y-98650598D01*
X138644500Y-98849396D01*
X138649955Y-98890833D01*
X138639187Y-98959868D01*
X138592806Y-99012123D01*
X138525536Y-99031006D01*
X138510830Y-99029954D01*
X138469401Y-99024500D01*
X138270596Y-99024500D01*
X138160531Y-99038989D01*
X138152678Y-99041094D01*
X138151802Y-99037824D01*
X138097853Y-99043567D01*
X138087477Y-99040518D01*
X138087323Y-99041095D01*
X138079470Y-99038990D01*
X137969401Y-99024500D01*
X137770596Y-99024500D01*
X137660531Y-99038989D01*
X137652678Y-99041094D01*
X137651802Y-99037824D01*
X137597853Y-99043567D01*
X137587477Y-99040518D01*
X137587323Y-99041095D01*
X137579470Y-99038990D01*
X137469401Y-99024500D01*
X137270596Y-99024500D01*
X137160531Y-99038989D01*
X137152678Y-99041094D01*
X137151802Y-99037824D01*
X137097853Y-99043567D01*
X137087477Y-99040518D01*
X137087323Y-99041095D01*
X137079470Y-99038990D01*
X136969401Y-99024500D01*
X136770596Y-99024500D01*
X136660531Y-99038989D01*
X136652678Y-99041094D01*
X136651802Y-99037824D01*
X136597853Y-99043567D01*
X136587477Y-99040518D01*
X136587323Y-99041095D01*
X136579470Y-99038990D01*
X136469401Y-99024500D01*
X136270596Y-99024500D01*
X136160531Y-99038989D01*
X136152678Y-99041094D01*
X136151802Y-99037824D01*
X136097853Y-99043567D01*
X136087477Y-99040518D01*
X136087323Y-99041095D01*
X136079470Y-99038990D01*
X135969401Y-99024500D01*
X135770596Y-99024500D01*
X135660531Y-99038989D01*
X135652678Y-99041094D01*
X135651802Y-99037824D01*
X135597853Y-99043567D01*
X135587477Y-99040518D01*
X135587323Y-99041095D01*
X135579470Y-99038990D01*
X135469401Y-99024500D01*
X135270596Y-99024500D01*
X135160531Y-99038989D01*
X135152678Y-99041094D01*
X135151802Y-99037824D01*
X135097853Y-99043567D01*
X135087477Y-99040518D01*
X135087323Y-99041095D01*
X135079470Y-99038990D01*
X134969401Y-99024500D01*
X134770596Y-99024500D01*
X134660531Y-99038989D01*
X134652678Y-99041094D01*
X134651802Y-99037824D01*
X134597853Y-99043567D01*
X134587477Y-99040518D01*
X134587323Y-99041095D01*
X134579470Y-99038990D01*
X134469401Y-99024500D01*
X134270596Y-99024500D01*
X134160531Y-99038989D01*
X134152678Y-99041094D01*
X134151802Y-99037824D01*
X134097853Y-99043567D01*
X134087477Y-99040518D01*
X134087323Y-99041095D01*
X134079470Y-99038990D01*
X133969401Y-99024500D01*
X133770596Y-99024500D01*
X133660529Y-99038989D01*
X133652681Y-99041093D01*
X133651856Y-99038015D01*
X133597229Y-99043842D01*
X133587355Y-99040989D01*
X133587197Y-99041582D01*
X133579346Y-99039478D01*
X133495000Y-99028373D01*
X133495000Y-99056494D01*
X133493922Y-99060164D01*
X133494779Y-99063893D01*
X133484155Y-99093425D01*
X133475315Y-99123533D01*
X133472048Y-99127082D01*
X133471129Y-99129639D01*
X133446466Y-99154885D01*
X133445466Y-99155652D01*
X133380292Y-99180833D01*
X133311850Y-99166781D01*
X133294534Y-99155652D01*
X133293534Y-99154885D01*
X133278236Y-99133944D01*
X133261870Y-99117956D01*
X133259718Y-99108595D01*
X133252319Y-99098466D01*
X133245000Y-99056494D01*
X133245000Y-99028373D01*
X133160658Y-99039478D01*
X133152806Y-99041582D01*
X133151917Y-99038264D01*
X133097804Y-99043709D01*
X133087444Y-99040630D01*
X133087320Y-99041094D01*
X133079472Y-99038991D01*
X132969401Y-99024500D01*
X132770596Y-99024500D01*
X132660531Y-99038989D01*
X132652678Y-99041094D01*
X132651802Y-99037824D01*
X132597853Y-99043567D01*
X132587477Y-99040518D01*
X132587323Y-99041095D01*
X132579470Y-99038990D01*
X132469401Y-99024500D01*
X132270596Y-99024500D01*
X132160531Y-99038989D01*
X132152678Y-99041094D01*
X132151802Y-99037824D01*
X132097853Y-99043567D01*
X132087477Y-99040518D01*
X132087323Y-99041095D01*
X132079470Y-99038990D01*
X131969401Y-99024500D01*
X131770603Y-99024500D01*
X131729166Y-99029955D01*
X131660131Y-99019187D01*
X131607876Y-98972805D01*
X131588993Y-98905536D01*
X131590045Y-98890833D01*
X131595500Y-98849401D01*
X131595499Y-98650600D01*
X131581009Y-98540528D01*
X131581008Y-98540525D01*
X131578905Y-98532674D01*
X131582207Y-98531789D01*
X131576392Y-98478075D01*
X131579501Y-98467485D01*
X131578905Y-98467326D01*
X131581008Y-98459475D01*
X131581008Y-98459474D01*
X131581009Y-98459472D01*
X131595500Y-98349401D01*
X131595499Y-98150600D01*
X131595271Y-98148871D01*
X131585821Y-98077084D01*
X131581009Y-98040528D01*
X131581008Y-98040525D01*
X131578905Y-98032674D01*
X131582207Y-98031789D01*
X131576392Y-97978075D01*
X131579501Y-97967485D01*
X131578905Y-97967326D01*
X131581008Y-97959475D01*
X131581008Y-97959474D01*
X131581009Y-97959472D01*
X131595500Y-97849401D01*
X131595499Y-97650600D01*
X131581009Y-97540528D01*
X131581008Y-97540525D01*
X131578905Y-97532674D01*
X131582207Y-97531789D01*
X131576392Y-97478075D01*
X131579501Y-97467485D01*
X131578905Y-97467326D01*
X131581008Y-97459475D01*
X131581008Y-97459474D01*
X131581009Y-97459472D01*
X131595500Y-97349401D01*
X131595499Y-97150600D01*
X131581009Y-97040528D01*
X131581008Y-97040525D01*
X131578905Y-97032674D01*
X131582207Y-97031789D01*
X131576392Y-96978075D01*
X131579501Y-96967485D01*
X131578905Y-96967326D01*
X131581008Y-96959475D01*
X131581008Y-96959474D01*
X131581009Y-96959472D01*
X131595500Y-96849401D01*
X131595499Y-96650600D01*
X131581009Y-96540528D01*
X131581008Y-96540525D01*
X131578905Y-96532674D01*
X131582207Y-96531789D01*
X131576392Y-96478075D01*
X131579501Y-96467485D01*
X131578905Y-96467326D01*
X131581008Y-96459475D01*
X131581008Y-96459474D01*
X131581009Y-96459472D01*
X131595500Y-96349401D01*
X131595499Y-96150600D01*
X131594386Y-96142148D01*
X131585970Y-96078213D01*
X131581009Y-96040528D01*
X131581008Y-96040525D01*
X131578905Y-96032674D01*
X131582207Y-96031789D01*
X131576392Y-95978075D01*
X131579501Y-95967485D01*
X131578905Y-95967326D01*
X131581008Y-95959475D01*
X131581008Y-95959474D01*
X131581009Y-95959472D01*
X131595500Y-95849401D01*
X131595499Y-95650600D01*
X131581009Y-95540528D01*
X131581008Y-95540525D01*
X131578905Y-95532674D01*
X131582207Y-95531789D01*
X131576392Y-95478075D01*
X131579501Y-95467485D01*
X131578905Y-95467326D01*
X131581008Y-95459475D01*
X131581008Y-95459474D01*
X131581009Y-95459472D01*
X131595500Y-95349401D01*
X131595499Y-95150600D01*
X131595499Y-95150598D01*
X131595499Y-95150596D01*
X131581011Y-95040536D01*
X131578906Y-95032682D01*
X131582007Y-95031850D01*
X131576128Y-94977382D01*
X131579147Y-94967389D01*
X131578418Y-94967194D01*
X131580521Y-94959342D01*
X131591626Y-94875000D01*
X131563506Y-94875000D01*
X131559835Y-94873922D01*
X131556107Y-94874779D01*
X131526574Y-94864155D01*
X131496467Y-94855315D01*
X131492917Y-94852048D01*
X131490361Y-94851129D01*
X131465115Y-94826466D01*
X131464348Y-94825466D01*
X131439167Y-94760292D01*
X131453219Y-94691850D01*
X131464348Y-94674534D01*
X131465115Y-94673534D01*
X131486055Y-94658236D01*
X131502044Y-94641870D01*
X131511404Y-94639718D01*
X131521534Y-94632319D01*
X131563506Y-94625000D01*
X131591626Y-94625000D01*
X131580521Y-94540659D01*
X131578418Y-94532807D01*
X131582041Y-94531835D01*
X131575919Y-94479884D01*
X131579495Y-94467484D01*
X131578905Y-94467326D01*
X131581008Y-94459475D01*
X131581008Y-94459474D01*
X131581009Y-94459472D01*
X131595500Y-94349401D01*
X131595499Y-94150600D01*
X131594542Y-94143334D01*
X131585368Y-94073642D01*
X131581009Y-94040528D01*
X131581008Y-94040525D01*
X131578905Y-94032674D01*
X131582207Y-94031789D01*
X131576392Y-93978075D01*
X131579501Y-93967485D01*
X131578905Y-93967326D01*
X131581008Y-93959475D01*
X131581008Y-93959474D01*
X131581009Y-93959472D01*
X131595500Y-93849401D01*
X131595499Y-93650600D01*
X131593509Y-93635486D01*
X131588904Y-93600499D01*
X131581009Y-93540528D01*
X131581008Y-93540525D01*
X131578905Y-93532674D01*
X131582207Y-93531789D01*
X131576392Y-93478075D01*
X131579501Y-93467485D01*
X131578905Y-93467326D01*
X131581008Y-93459475D01*
X131581008Y-93459474D01*
X131581009Y-93459472D01*
X131595500Y-93349401D01*
X131595499Y-93150600D01*
X131593246Y-93133489D01*
X131581009Y-93040529D01*
X131581009Y-93040528D01*
X131581008Y-93040525D01*
X131578905Y-93032674D01*
X131582207Y-93031789D01*
X131576392Y-92978075D01*
X131579501Y-92967485D01*
X131578905Y-92967326D01*
X131581008Y-92959475D01*
X131581008Y-92959474D01*
X131581009Y-92959472D01*
X131595500Y-92849401D01*
X131595499Y-92650600D01*
X131592956Y-92631286D01*
X131591105Y-92617224D01*
X131581009Y-92540528D01*
X131581008Y-92540525D01*
X131578905Y-92532674D01*
X131582207Y-92531789D01*
X131576392Y-92478075D01*
X131579501Y-92467485D01*
X131578905Y-92467326D01*
X131581009Y-92459473D01*
X131583517Y-92440423D01*
X131595500Y-92349401D01*
X131595499Y-92150600D01*
X131592262Y-92126014D01*
X131590045Y-92109168D01*
X131600811Y-92040133D01*
X131647192Y-91987878D01*
X131714461Y-91968993D01*
X131729155Y-91970043D01*
X131770599Y-91975500D01*
X131969400Y-91975499D01*
X131969401Y-91975499D01*
X131998828Y-91971625D01*
X132079472Y-91961009D01*
X132079475Y-91961007D01*
X132087326Y-91958905D01*
X132088210Y-91962207D01*
X132141925Y-91956392D01*
X132152514Y-91959501D01*
X132152674Y-91958905D01*
X132160524Y-91961008D01*
X132160526Y-91961008D01*
X132160528Y-91961009D01*
X132270599Y-91975500D01*
X132469400Y-91975499D01*
X132469401Y-91975499D01*
X132498828Y-91971625D01*
X132579472Y-91961009D01*
X132579475Y-91961007D01*
X132587326Y-91958905D01*
X132588210Y-91962207D01*
X132641925Y-91956392D01*
X132652514Y-91959501D01*
X132652674Y-91958905D01*
X132660524Y-91961008D01*
X132660526Y-91961008D01*
X132660528Y-91961009D01*
X132770599Y-91975500D01*
X132969400Y-91975499D01*
X132969401Y-91975499D01*
X132998828Y-91971625D01*
X133079472Y-91961009D01*
X133079475Y-91961007D01*
X133087326Y-91958905D01*
X133088210Y-91962207D01*
X133141925Y-91956392D01*
X133152514Y-91959501D01*
X133152674Y-91958905D01*
X133160524Y-91961008D01*
X133160526Y-91961008D01*
X133160528Y-91961009D01*
X133270599Y-91975500D01*
X133469400Y-91975499D01*
X133469401Y-91975499D01*
X133498828Y-91971625D01*
X133579472Y-91961009D01*
X133579475Y-91961007D01*
X133587326Y-91958905D01*
X133588210Y-91962207D01*
X133641925Y-91956392D01*
X133652514Y-91959501D01*
X133652674Y-91958905D01*
X133660524Y-91961008D01*
X133660526Y-91961008D01*
X133660528Y-91961009D01*
X133770599Y-91975500D01*
X133969400Y-91975499D01*
X133969401Y-91975499D01*
X133998828Y-91971625D01*
X134079472Y-91961009D01*
X134079475Y-91961007D01*
X134087326Y-91958905D01*
X134088210Y-91962207D01*
X134141925Y-91956392D01*
X134152514Y-91959501D01*
X134152674Y-91958905D01*
X134160524Y-91961008D01*
X134160526Y-91961008D01*
X134160528Y-91961009D01*
X134270599Y-91975500D01*
X134469400Y-91975499D01*
X134469401Y-91975499D01*
X134498828Y-91971625D01*
X134579472Y-91961009D01*
X134579475Y-91961007D01*
X134587326Y-91958905D01*
X134588158Y-91962012D01*
X134642583Y-91956122D01*
X134652623Y-91959122D01*
X134652812Y-91958419D01*
X134660665Y-91960523D01*
X134744998Y-91971625D01*
X134745000Y-91971624D01*
X134745000Y-91943505D01*
X134746066Y-91939873D01*
X134745216Y-91936184D01*
X134755834Y-91906606D01*
X134764685Y-91876466D01*
X134767917Y-91872950D01*
X134768825Y-91870423D01*
X134793468Y-91845164D01*
X134794475Y-91844391D01*
X134859630Y-91819171D01*
X134928081Y-91833181D01*
G37*
G04 #@! TD.AperFunction*
M02*
